                                                                        S0000001
,,31HOpen CASCADE IGES processor 7.5,13HFilename.iges,                  G0000001
16HOpen CASCADE 7.5,31HOpen CASCADE IGES processor 7.5,32,308,15,308,15,G0000002
,1.,2,2HMM,1,0.01,15H20220325.094428,1E-07,19.548,,,11,0,               G0000003
15H20220325.094428,;                                                    G0000004
     402       1       0       0       0       0       0       000000000D0000001
     402       0       0       1       1                               0D0000002
     186       2       0       0       0       0       0       000020000D0000003
     186       0       0       1       0                               0D0000004
     514       3       0       0       0       0       0       000010000D0000005
     514       0       0       2       1                               0D0000006
     510       5       0       0       0       0       0       000010000D0000007
     510       0       0       1       1                               0D0000008
     190       6       0       0       0       0       0       000010000D0000009
     190       0       0       1       1                               0D0000010
     116       7       0       0       0       0       0       000010400D0000011
     116       0       0       1       0                               0D0000012
     123       8       0       0       0       0       0       000010200D0000013
     123       0       0       1       0                               0D0000014
     123       9       0       0       0       0       0       000010200D0000015
     123       0       0       1       0                               0D0000016
     508      10       0       0       0       0       0       000010000D0000017
     508       0       0       3       1                               0D0000018
     504      13       0       0       0       0       0       000010001D0000019
     504       0       0      13       1                               0D0000020
     110      26       0       0       0       0       0       000010000D0000021
     110       0       0       1       0                               0D0000022
     502      27       0       0       0       0       0       000010000D0000023
     502       0       0      10       1                               0D0000024
     100      37       0       0       0       0      27       000010000D0000025
     100       0       0       1       0                               0D0000026
     124      38       0       0       0       0       0       000000000D0000027
     124       0       0       1       0                               0D0000028
     110      39       0       0       0       0       0       000010000D0000029
     110       0       0       1       0                               0D0000030
     110      40       0       0       0       0       0       000010000D0000031
     110       0       0       1       0                               0D0000032
     110      41       0       0       0       0       0       000010000D0000033
     110       0       0       1       0                               0D0000034
     110      42       0       0       0       0       0       000010000D0000035
     110       0       0       1       0                               0D0000036
     110      43       0       0       0       0       0       000010000D0000037
     110       0       0       1       0                               0D0000038
     110      44       0       0       0       0       0       000010000D0000039
     110       0       0       1       0                               0D0000040
     110      45       0       0       0       0       0       000010000D0000041
     110       0       0       1       0                               0D0000042
     110      46       0       0       0       0       0       000010000D0000043
     110       0       0       1       0                               0D0000044
     110      47       0       0       0       0       0       000010000D0000045
     110       0       0       1       0                               0D0000046
     110      48       0       0       0       0       0       000010000D0000047
     110       0       0       1       0                               0D0000048
     110      49       0       0       0       0       0       000010000D0000049
     110       0       0       1       0                               0D0000050
     110      50       0       0       0       0       0       000010000D0000051
     110       0       0       1       0                               0D0000052
     110      51       0       0       0       0       0       000010000D0000053
     110       0       0       1       0                               0D0000054
     100      52       0       0       0       0      57       000010000D0000055
     100       0       0       1       0                               0D0000056
     124      53       0       0       0       0       0       000000000D0000057
     124       0       0       1       0                               0D0000058
     110      54       0       0       0       0       0       000010000D0000059
     110       0       0       1       0                               0D0000060
     110      55       0       0       0       0       0       000010000D0000061
     110       0       0       1       0                               0D0000062
     110      56       0       0       0       0       0       000010000D0000063
     110       0       0       1       0                               0D0000064
     100      57       0       0       0       0      67       000010000D0000065
     100       0       0       1       0                               0D0000066
     124      58       0       0       0       0       0       000000000D0000067
     124       0       0       1       0                               0D0000068
     110      59       0       0       0       0       0       000010000D0000069
     110       0       0       1       0                               0D0000070
     110      60       0       0       0       0       0       000010000D0000071
     110       0       0       1       0                               0D0000072
     110      61       0       0       0       0       0       000010000D0000073
     110       0       0       1       0                               0D0000074
     100      62       0       0       0       0      77       000010000D0000075
     100       0       0       1       0                               0D0000076
     124      63       0       0       0       0       0       000000000D0000077
     124       0       0       1       0                               0D0000078
     110      64       0       0       0       0       0       000010000D0000079
     110       0       0       1       0                               0D0000080
     110      65       0       0       0       0       0       000010000D0000081
     110       0       0       1       0                               0D0000082
     110      66       0       0       0       0       0       000010000D0000083
     110       0       0       1       0                               0D0000084
     110      67       0       0       0       0       0       000010000D0000085
     110       0       0       1       0                               0D0000086
     110      68       0       0       0       0       0       000010000D0000087
     110       0       0       1       0                               0D0000088
     110      69       0       0       0       0       0       000010000D0000089
     110       0       0       1       0                               0D0000090
     110      70       0       0       0       0       0       000010000D0000091
     110       0       0       1       0                               0D0000092
     110      71       0       0       0       0       0       000010000D0000093
     110       0       0       1       0                               0D0000094
     110      72       0       0       0       0       0       000010000D0000095
     110       0       0       1       0                               0D0000096
     110      73       0       0       0       0       0       000010000D0000097
     110       0       0       1       0                               0D0000098
     110      74       0       0       0       0       0       000010000D0000099
     110       0       0       1       0                               0D0000100
     110      75       0       0       0       0       0       000010000D0000101
     110       0       0       1       0                               0D0000102
     100      76       0       0       0       0     105       000010000D0000103
     100       0       0       1       0                               0D0000104
     124      77       0       0       0       0       0       000000000D0000105
     124       0       0       1       0                               0D0000106
     110      78       0       0       0       0       0       000010000D0000107
     110       0       0       1       0                               0D0000108
     110      79       0       0       0       0       0       000010000D0000109
     110       0       0       1       0                               0D0000110
     110      80       0       0       0       0       0       000010000D0000111
     110       0       0       1       0                               0D0000112
     110      81       0       0       0       0       0       000010000D0000113
     110       0       0       1       0                               0D0000114
     110      82       0       0       0       0       0       000010000D0000115
     110       0       0       1       0                               0D0000116
     110      83       0       0       0       0       0       000010000D0000117
     110       0       0       1       0                               0D0000118
     110      84       0       0       0       0       0       000010000D0000119
     110       0       0       1       0                               0D0000120
     110      85       0       0       0       0       0       000010000D0000121
     110       0       0       1       0                               0D0000122
     110      86       0       0       0       0       0       000010000D0000123
     110       0       0       1       0                               0D0000124
     110      87       0       0       0       0       0       000010000D0000125
     110       0       0       1       0                               0D0000126
     110      88       0       0       0       0       0       000010000D0000127
     110       0       0       1       0                               0D0000128
     110      89       0       0       0       0       0       000010000D0000129
     110       0       0       1       0                               0D0000130
     100      90       0       0       0       0     133       000010000D0000131
     100       0       0       1       0                               0D0000132
     124      91       0       0       0       0       0       000000000D0000133
     124       0       0       1       0                               0D0000134
     110      92       0       0       0       0       0       000010000D0000135
     110       0       0       1       0                               0D0000136
     508      93       0       0       0       0       0       000010000D0000137
     508       0       0       1       1                               0D0000138
     510      94       0       0       0       0       0       000010000D0000139
     510       0       0       1       1                               0D0000140
     190      95       0       0       0       0       0       000010000D0000141
     190       0       0       1       1                               0D0000142
     116      96       0       0       0       0       0       000010400D0000143
     116       0       0       1       0                               0D0000144
     123      97       0       0       0       0       0       000010200D0000145
     123       0       0       1       0                               0D0000146
     123      98       0       0       0       0       0       000010200D0000147
     123       0       0       1       0                               0D0000148
     508      99       0       0       0       0       0       000010000D0000149
     508       0       0       1       1                               0D0000150
     510     100       0       0       0       0       0       000010000D0000151
     510       0       0       1       1                               0D0000152
     192     101       0       0       0       0       0       000010000D0000153
     192       0       0       1       1                               0D0000154
     116     102       0       0       0       0       0       000010400D0000155
     116       0       0       1       0                               0D0000156
     123     103       0       0       0       0       0       000010200D0000157
     123       0       0       1       0                               0D0000158
     123     104       0       0       0       0       0       000010200D0000159
     123       0       0       1       0                               0D0000160
     508     105       0       0       0       0       0       000010000D0000161
     508       0       0       2       1                               0D0000162
     110     107       0       0       0       0       0       000010000D0000163
     110       0       0       1       0                               0D0000164
     110     108       0       0       0       0       0       000010000D0000165
     110       0       0       1       0                               0D0000166
     110     109       0       0       0       0       0       000010000D0000167
     110       0       0       1       0                               0D0000168
     110     110       0       0       0       0       0       000010000D0000169
     110       0       0       1       0                               0D0000170
     510     111       0       0       0       0       0       000010000D0000171
     510       0       0       1       1                               0D0000172
     190     112       0       0       0       0       0       000010000D0000173
     190       0       0       1       1                               0D0000174
     116     113       0       0       0       0       0       000010400D0000175
     116       0       0       1       0                               0D0000176
     123     114       0       0       0       0       0       000010200D0000177
     123       0       0       1       0                               0D0000178
     123     115       0       0       0       0       0       000010200D0000179
     123       0       0       1       0                               0D0000180
     508     116       0       0       0       0       0       000010000D0000181
     508       0       0       1       1                               0D0000182
     508     117       0       0       0       0       0       000010000D0000183
     508       0       0       1       1                               0D0000184
     510     118       0       0       0       0       0       000010000D0000185
     510       0       0       1       1                               0D0000186
     190     119       0       0       0       0       0       000010000D0000187
     190       0       0       1       1                               0D0000188
     116     120       0       0       0       0       0       000010400D0000189
     116       0       0       1       0                               0D0000190
     123     121       0       0       0       0       0       000010200D0000191
     123       0       0       1       0                               0D0000192
     123     122       0       0       0       0       0       000010200D0000193
     123       0       0       1       0                               0D0000194
     508     123       0       0       0       0       0       000010000D0000195
     508       0       0       1       1                               0D0000196
     510     124       0       0       0       0       0       000010000D0000197
     510       0       0       1       1                               0D0000198
     190     125       0       0       0       0       0       000010000D0000199
     190       0       0       1       1                               0D0000200
     116     126       0       0       0       0       0       000010400D0000201
     116       0       0       1       0                               0D0000202
     123     127       0       0       0       0       0       000010200D0000203
     123       0       0       1       0                               0D0000204
     123     128       0       0       0       0       0       000010200D0000205
     123       0       0       1       0                               0D0000206
     508     129       0       0       0       0       0       000010000D0000207
     508       0       0       1       1                               0D0000208
     510     130       0       0       0       0       0       000010000D0000209
     510       0       0       1       1                               0D0000210
     190     131       0       0       0       0       0       000010000D0000211
     190       0       0       1       1                               0D0000212
     116     132       0       0       0       0       0       000010400D0000213
     116       0       0       1       0                               0D0000214
     123     133       0       0       0       0       0       000010200D0000215
     123       0       0       1       0                               0D0000216
     123     134       0       0       0       0       0       000010200D0000217
     123       0       0       1       0                               0D0000218
     508     135       0       0       0       0       0       000010000D0000219
     508       0       0       1       1                               0D0000220
     510     136       0       0       0       0       0       000010000D0000221
     510       0       0       1       1                               0D0000222
     190     137       0       0       0       0       0       000010000D0000223
     190       0       0       1       1                               0D0000224
     116     138       0       0       0       0       0       000010400D0000225
     116       0       0       1       0                               0D0000226
     123     139       0       0       0       0       0       000010200D0000227
     123       0       0       1       0                               0D0000228
     123     140       0       0       0       0       0       000010200D0000229
     123       0       0       1       0                               0D0000230
     508     141       0       0       0       0       0       000010000D0000231
     508       0       0       1       1                               0D0000232
     510     142       0       0       0       0       0       000010000D0000233
     510       0       0       1       1                               0D0000234
     190     143       0       0       0       0       0       000010000D0000235
     190       0       0       1       1                               0D0000236
     116     144       0       0       0       0       0       000010400D0000237
     116       0       0       1       0                               0D0000238
     123     145       0       0       0       0       0       000010200D0000239
     123       0       0       1       0                               0D0000240
     123     146       0       0       0       0       0       000010200D0000241
     123       0       0       1       0                               0D0000242
     508     147       0       0       0       0       0       000010000D0000243
     508       0       0       1       1                               0D0000244
     510     148       0       0       0       0       0       000010000D0000245
     510       0       0       1       1                               0D0000246
     190     149       0       0       0       0       0       000010000D0000247
     190       0       0       1       1                               0D0000248
     116     150       0       0       0       0       0       000010400D0000249
     116       0       0       1       0                               0D0000250
     123     151       0       0       0       0       0       000010200D0000251
     123       0       0       1       0                               0D0000252
     123     152       0       0       0       0       0       000010200D0000253
     123       0       0       1       0                               0D0000254
     508     153       0       0       0       0       0       000010000D0000255
     508       0       0       1       1                               0D0000256
     508     154       0       0       0       0       0       000010000D0000257
     508       0       0       1       1                               0D0000258
     510     155       0       0       0       0       0       000010000D0000259
     510       0       0       1       1                               0D0000260
     190     156       0       0       0       0       0       000010000D0000261
     190       0       0       1       1                               0D0000262
     116     157       0       0       0       0       0       000010400D0000263
     116       0       0       1       0                               0D0000264
     123     158       0       0       0       0       0       000010200D0000265
     123       0       0       1       0                               0D0000266
     123     159       0       0       0       0       0       000010200D0000267
     123       0       0       1       0                               0D0000268
     508     160       0       0       0       0       0       000010000D0000269
     508       0       0       1       1                               0D0000270
     510     161       0       0       0       0       0       000010000D0000271
     510       0       0       1       1                               0D0000272
     190     162       0       0       0       0       0       000010000D0000273
     190       0       0       1       1                               0D0000274
     116     163       0       0       0       0       0       000010400D0000275
     116       0       0       1       0                               0D0000276
     123     164       0       0       0       0       0       000010200D0000277
     123       0       0       1       0                               0D0000278
     123     165       0       0       0       0       0       000010200D0000279
     123       0       0       1       0                               0D0000280
     508     166       0       0       0       0       0       000010000D0000281
     508       0       0       1       1                               0D0000282
     510     167       0       0       0       0       0       000010000D0000283
     510       0       0       1       1                               0D0000284
     190     168       0       0       0       0       0       000010000D0000285
     190       0       0       1       1                               0D0000286
     116     169       0       0       0       0       0       000010400D0000287
     116       0       0       1       0                               0D0000288
     123     170       0       0       0       0       0       000010200D0000289
     123       0       0       1       0                               0D0000290
     123     171       0       0       0       0       0       000010200D0000291
     123       0       0       1       0                               0D0000292
     508     172       0       0       0       0       0       000010000D0000293
     508       0       0       1       1                               0D0000294
     510     173       0       0       0       0       0       000010000D0000295
     510       0       0       1       1                               0D0000296
     190     174       0       0       0       0       0       000010000D0000297
     190       0       0       1       1                               0D0000298
     116     175       0       0       0       0       0       000010400D0000299
     116       0       0       1       0                               0D0000300
     123     176       0       0       0       0       0       000010200D0000301
     123       0       0       1       0                               0D0000302
     123     177       0       0       0       0       0       000010200D0000303
     123       0       0       1       0                               0D0000304
     508     178       0       0       0       0       0       000010000D0000305
     508       0       0       1       1                               0D0000306
     510     179       0       0       0       0       0       000010000D0000307
     510       0       0       1       1                               0D0000308
     190     180       0       0       0       0       0       000010000D0000309
     190       0       0       1       1                               0D0000310
     116     181       0       0       0       0       0       000010400D0000311
     116       0       0       1       0                               0D0000312
     123     182       0       0       0       0       0       000010200D0000313
     123       0       0       1       0                               0D0000314
     123     183       0       0       0       0       0       000010200D0000315
     123       0       0       1       0                               0D0000316
     508     184       0       0       0       0       0       000010000D0000317
     508       0       0       1       1                               0D0000318
     510     185       0       0       0       0       0       000010000D0000319
     510       0       0       1       1                               0D0000320
     190     186       0       0       0       0       0       000010000D0000321
     190       0       0       1       1                               0D0000322
     116     187       0       0       0       0       0       000010400D0000323
     116       0       0       1       0                               0D0000324
     123     188       0       0       0       0       0       000010200D0000325
     123       0       0       1       0                               0D0000326
     123     189       0       0       0       0       0       000010200D0000327
     123       0       0       1       0                               0D0000328
     508     190       0       0       0       0       0       000010000D0000329
     508       0       0       1       1                               0D0000330
     510     191       0       0       0       0       0       000010000D0000331
     510       0       0       1       1                               0D0000332
     192     192       0       0       0       0       0       000010000D0000333
     192       0       0       1       1                               0D0000334
     116     193       0       0       0       0       0       000010400D0000335
     116       0       0       1       0                               0D0000336
     123     194       0       0       0       0       0       000010200D0000337
     123       0       0       1       0                               0D0000338
     123     195       0       0       0       0       0       000010200D0000339
     123       0       0       1       0                               0D0000340
     508     196       0       0       0       0       0       000010000D0000341
     508       0       0       2       1                               0D0000342
     110     198       0       0       0       0       0       000010000D0000343
     110       0       0       1       0                               0D0000344
     110     199       0       0       0       0       0       000010000D0000345
     110       0       0       1       0                               0D0000346
     110     200       0       0       0       0       0       000010000D0000347
     110       0       0       1       0                               0D0000348
     110     201       0       0       0       0       0       000010000D0000349
     110       0       0       1       0                               0D0000350
     510     202       0       0       0       0       0       000010000D0000351
     510       0       0       1       1                               0D0000352
     190     203       0       0       0       0       0       000010000D0000353
     190       0       0       1       1                               0D0000354
     116     204       0       0       0       0       0       000010400D0000355
     116       0       0       1       0                               0D0000356
     123     205       0       0       0       0       0       000010200D0000357
     123       0       0       1       0                               0D0000358
     123     206       0       0       0       0       0       000010200D0000359
     123       0       0       1       0                               0D0000360
     508     207       0       0       0       0       0       000010000D0000361
     508       0       0       3       1                               0D0000362
     508     210       0       0       0       0       0       000010000D0000363
     508       0       0       1       1                               0D0000364
     510     211       0       0       0       0       0       000010000D0000365
     510       0       0       1       1                               0D0000366
     192     212       0       0       0       0       0       000010000D0000367
     192       0       0       1       1                               0D0000368
     116     213       0       0       0       0       0       000010400D0000369
     116       0       0       1       0                               0D0000370
     123     214       0       0       0       0       0       000010200D0000371
     123       0       0       1       0                               0D0000372
     123     215       0       0       0       0       0       000010200D0000373
     123       0       0       1       0                               0D0000374
     508     216       0       0       0       0       0       000010000D0000375
     508       0       0       2       1                               0D0000376
     110     218       0       0       0       0       0       000010000D0000377
     110       0       0       1       0                               0D0000378
     110     219       0       0       0       0       0       000010000D0000379
     110       0       0       1       0                               0D0000380
     110     220       0       0       0       0       0       000010000D0000381
     110       0       0       1       0                               0D0000382
     110     221       0       0       0       0       0       000010000D0000383
     110       0       0       1       0                               0D0000384
402,1,3;                                                         0000001P0000001
186,5,1,0;                                                       0000003P0000002
514,19,7,0,139,0,151,0,171,0,185,1,197,0,209,1,221,0,233,1,245,  0000005P0000003
0,259,1,271,0,283,1,295,0,307,1,319,0,331,0,351,1,365,0;         0000005P0000004
510,9,2,1,17,137;                                                0000007P0000005
190,11,13,15;                                                    0000009P0000006
116,0.441445665,0.610502263,13.5,0;                              0000011P0000007
123,0.,0.,1.;                                                    0000013P0000008
123,1.,0.,0.;                                                    0000015P0000009
508,15,0,19,1,1,0,0,19,2,1,0,0,19,3,0,0,0,19,4,0,0,0,19,5,0,0,0, 0000017P0000010
19,6,0,0,0,19,7,0,0,0,19,8,0,0,0,19,9,1,0,0,19,10,1,0,0,19,11,1, 0000017P0000011
0,0,19,12,1,0,0,19,13,1,0,0,19,14,1,0,0,19,15,1,0;               0000017P0000012
504,51,21,23,1,23,2,25,23,2,23,3,29,23,4,23,3,31,23,5,23,4,33,   0000019P0000013
23,6,23,5,35,23,7,23,6,37,23,8,23,7,39,23,9,23,8,41,23,9,23,10,  0000019P0000014
43,23,10,23,11,45,23,11,23,12,47,23,12,23,13,49,23,13,23,14,51,  0000019P0000015
23,14,23,15,53,23,15,23,1,55,23,16,23,16,59,23,1,23,17,61,23,17, 0000019P0000016
23,18,63,23,2,23,18,65,23,18,23,19,69,23,3,23,19,71,23,15,23,20, 0000019P0000017
73,23,20,23,17,75,23,21,23,21,79,23,4,23,22,81,23,22,23,19,83,   0000019P0000018
23,14,23,23,85,23,23,23,20,87,23,5,23,24,89,23,24,23,22,91,23,   0000019P0000019
13,23,25,93,23,25,23,23,95,23,6,23,26,97,23,26,23,24,99,23,12,   0000019P0000020
23,27,101,23,27,23,25,103,23,28,23,28,107,23,7,23,29,109,23,29,  0000019P0000021
23,26,111,23,11,23,30,113,23,30,23,27,115,23,8,23,31,117,23,31,  0000019P0000022
23,29,119,23,10,23,32,121,23,32,23,30,123,23,9,23,33,125,23,33,  0000019P0000023
23,31,127,23,33,23,32,129,23,16,23,34,131,23,34,23,34,135,23,28, 0000019P0000024
23,21;                                                           0000019P0000025
110,2.75,-4.,13.5,1.442893219,-2.692893219,13.5;                 0000021P0000026
502,34,2.75,-4.,13.5,1.442893219,-2.692893219,13.5,1.15,         0000023P0000027
-1.985786438,13.5,1.15,4.9,13.5,0.4,4.9,13.5,0.4,7.15,13.5,1.15, 0000023P0000028
7.15,13.5,1.15,9.9,13.5,-1.348274106E-18,9.9,13.5,-1.15,9.9,     0000023P0000029
13.5,-1.15,-4.9,13.5,1.1,-4.9,13.5,1.1,-9.,13.5,1.5,-9.,13.5,    0000023P0000030
2.75,-7.75,13.5,0.6,2.81,13.5,2.75,-4.,19.5,1.442893219,         0000023P0000031
-2.692893219,19.5,1.15,-1.985786438,19.5,2.75,-7.75,19.5,2.75,   0000023P0000032
-7.4,16.5,1.15,4.9,19.5,1.5,-9.,19.5,0.4,4.9,19.5,1.1,-9.,19.5,  0000023P0000033
0.4,7.15,19.5,1.1,-4.9,19.5,1.1,-7.4,16.5,1.15,7.15,19.5,-1.15,  0000023P0000034
-4.9,19.5,1.15,9.9,19.5,-1.15,9.9,19.5,-1.348274106E-18,9.9,     0000023P0000035
19.5,0.6,2.81,19.5;                                              0000023P0000036
100,0.,0.,0.,0.707106781,0.707106781,0.,1.;                      0000025P0000037
124,0.,-1.,0.,2.15,-1.,0.,0.,-1.985786438,0.,0.,-1.,13.5;        0000027P0000038
110,1.15,4.9,13.5,1.15,-1.985786438,13.5;                        0000029P0000039
110,0.4,4.9,13.5,1.15,4.9,13.5;                                  0000031P0000040
110,0.4,7.15,13.5,0.4,4.9,13.5;                                  0000033P0000041
110,1.15,7.15,13.5,0.4,7.15,13.5;                                0000035P0000042
110,1.15,9.9,13.5,1.15,7.15,13.5;                                0000037P0000043
110,-1.348274106E-18,9.9,13.5,1.15,9.9,13.5;                     0000039P0000044
110,-1.348274106E-18,9.9,13.5,-1.15,9.9,13.5;                    0000041P0000045
110,-1.15,9.9,13.5,-1.15,-4.9,13.5;                              0000043P0000046
110,-1.15,-4.9,13.5,1.1,-4.9,13.5;                               0000045P0000047
110,1.1,-4.9,13.5,1.1,-9.,13.5;                                  0000047P0000048
110,1.1,-9.,13.5,1.5,-9.,13.5;                                   0000049P0000049
110,1.5,-9.,13.5,2.75,-7.75,13.5;                                0000051P0000050
110,2.75,-7.75,13.5,2.75,-4.,13.5;                               0000053P0000051
100,0.,0.,0.,0.6,0.,0.6,0.;                                      0000055P0000052
124,1.,0.,0.,0.,0.,1.,0.,2.81,0.,0.,1.,13.5;                     0000057P0000053
110,2.75,-4.,13.5,2.75,-4.,19.5;                                 0000059P0000054
110,2.75,-4.,19.5,1.442893219,-2.692893219,19.5;                 0000061P0000055
110,1.442893219,-2.692893219,13.5,1.442893219,-2.692893219,19.5; 0000063P0000056
100,0.,0.,0.,0.707106781,0.707106781,0.,1.;                      0000065P0000057
124,0.,-1.,0.,2.15,-1.,0.,0.,-1.985786438,0.,0.,-1.,19.5;        0000067P0000058
110,1.15,-1.985786438,13.5,1.15,-1.985786438,19.5;               0000069P0000059
110,2.75,-7.75,13.5,2.75,-7.75,19.5;                             0000071P0000060
110,2.75,-7.75,19.5,2.75,-4.,19.5;                               0000073P0000061
100,0.,0.,0.,0.4,0.,0.4,0.;                                      0000075P0000062
124,0.,0.,-1.,2.75,-1.,0.,0.,-7.,0.,1.,0.,16.5;                  0000077P0000063
110,1.15,4.9,13.5,1.15,4.9,19.5;                                 0000079P0000064
110,1.15,4.9,19.5,1.15,-1.985786438,19.5;                        0000081P0000065
110,1.5,-9.,13.5,1.5,-9.,19.5;                                   0000083P0000066
110,1.5,-9.,19.5,2.75,-7.75,19.5;                                0000085P0000067
110,0.4,4.9,13.5,0.4,4.9,19.5;                                   0000087P0000068
110,0.4,4.9,19.5,1.15,4.9,19.5;                                  0000089P0000069
110,1.1,-9.,13.5,1.1,-9.,19.5;                                   0000091P0000070
110,1.1,-9.,19.5,1.5,-9.,19.5;                                   0000093P0000071
110,0.4,7.15,13.5,0.4,7.15,19.5;                                 0000095P0000072
110,0.4,7.15,19.5,0.4,4.9,19.5;                                  0000097P0000073
110,1.1,-4.9,13.5,1.1,-4.9,19.5;                                 0000099P0000074
110,1.1,-4.9,19.5,1.1,-9.,19.5;                                  0000101P0000075
100,0.,0.,0.,0.4,0.,0.4,0.;                                      0000103P0000076
124,0.,0.,-1.,1.1,-1.,0.,0.,-7.,0.,1.,0.,16.5;                   0000105P0000077
110,1.15,7.15,13.5,1.15,7.15,19.5;                               0000107P0000078
110,1.15,7.15,19.5,0.4,7.15,19.5;                                0000109P0000079
110,-1.15,-4.9,13.5,-1.15,-4.9,19.5;                             0000111P0000080
110,-1.15,-4.9,19.5,1.1,-4.9,19.5;                               0000113P0000081
110,1.15,9.9,13.5,1.15,9.9,19.5;                                 0000115P0000082
110,1.15,9.9,19.5,1.15,7.15,19.5;                                0000117P0000083
110,-1.15,9.9,13.5,-1.15,9.9,19.5;                               0000119P0000084
110,-1.15,9.9,19.5,-1.15,-4.9,19.5;                              0000121P0000085
110,-1.348274106E-18,9.9,13.5,-1.348274106E-18,9.9,19.5;         0000123P0000086
110,-1.348274106E-18,9.9,19.5,1.15,9.9,19.5;                     0000125P0000087
110,-1.348274106E-18,9.9,19.5,-1.15,9.9,19.5;                    0000127P0000088
110,0.6,2.81,13.5,0.6,2.81,19.5;                                 0000129P0000089
100,0.,0.,0.,0.6,0.,0.6,0.;                                      0000131P0000090
124,1.,0.,0.,0.,0.,1.,0.,2.81,0.,0.,1.,19.5;                     0000133P0000091
110,1.1,-7.4,16.5,2.75,-7.4,16.5;                                0000135P0000092
508,1,0,19,16,0,0;                                               0000137P0000093
510,141,1,1,149;                                                 0000139P0000094
190,143,145,147;                                                 0000141P0000095
116,2.75,-4.,13.5,0;                                             0000143P0000096
123,-0.707106781,-0.707106781,0.;                                0000145P0000097
123,-0.707106781,0.707106781,0.;                                 0000147P0000098
508,4,0,19,1,0,0,0,19,17,1,0,0,19,18,1,0,0,19,19,0,0;            0000149P0000099
510,153,1,1,161;                                                 0000151P0000100
192,155,157,1.,159;                                              0000153P0000101
116,2.15,-1.985786438,13.5,0;                                    0000155P0000102
123,0.,0.,1.;                                                    0000157P0000103
123,-0.707106781,-0.707106781,0.;                                0000159P0000104
508,4,0,19,2,0,1,0,163,0,19,19,1,1,0,165,0,19,20,1,1,0,167,0,19, 0000161P0000105
21,0,1,0,169;                                                    0000161P0000106
110,-45.,0.,0.,0.,0.,0.;                                         0000163P0000107
110,0.,0.,0.,0.,6.,0.;                                           0000165P0000108
110,0.,6.,0.,-45.,6.,0.;                                         0000167P0000109
110,-45.,6.,0.,-45.,0.,0.;                                       0000169P0000110
510,173,2,1,181,183;                                             0000171P0000111
190,175,177,179;                                                 0000173P0000112
116,2.75,-7.75,13.5,0;                                           0000175P0000113
123,-1.,0.,0.;                                                   0000177P0000114
123,0.,1.,0.;                                                    0000179P0000115
508,4,0,19,22,1,0,0,19,23,1,0,0,19,17,0,0,0,19,15,0,0;           0000181P0000116
508,1,0,19,24,0,0;                                               0000183P0000117
510,187,1,1,195;                                                 0000185P0000118
190,189,191,193;                                                 0000187P0000119
116,1.15,4.9,13.5,0;                                             0000189P0000120
123,1.,0.,0.;                                                    0000191P0000121
123,0.,-1.,0.;                                                   0000193P0000122
508,4,0,19,3,0,0,0,19,25,1,0,0,19,26,1,0,0,19,21,0,0;            0000195P0000123
510,199,1,1,207;                                                 0000197P0000124
190,201,203,205;                                                 0000199P0000125
116,1.5,-9.,13.5,0;                                              0000201P0000126
123,-0.707106781,0.707106781,0.;                                 0000203P0000127
123,0.707106781,0.707106781,0.;                                  0000205P0000128
508,4,0,19,27,1,0,0,19,28,1,0,0,19,22,0,0,0,19,14,0,0;           0000207P0000129
510,211,1,1,219;                                                 0000209P0000130
190,213,215,217;                                                 0000211P0000131
116,0.4,4.9,13.5,0;                                              0000213P0000132
123,0.,1.,0.;                                                    0000215P0000133
123,1.,0.,0.;                                                    0000217P0000134
508,4,0,19,29,1,0,0,19,30,1,0,0,19,25,0,0,0,19,4,0,0;            0000219P0000135
510,223,1,1,231;                                                 0000221P0000136
190,225,227,229;                                                 0000223P0000137
116,1.1,-9.,13.5,0;                                              0000225P0000138
123,0.,1.,0.;                                                    0000227P0000139
123,1.,0.,0.;                                                    0000229P0000140
508,4,0,19,31,1,0,0,19,32,1,0,0,19,27,0,0,0,19,13,0,0;           0000231P0000141
510,235,1,1,243;                                                 0000233P0000142
190,237,239,241;                                                 0000235P0000143
116,0.4,7.15,13.5,0;                                             0000237P0000144
123,1.,0.,0.;                                                    0000239P0000145
123,0.,-1.,0.;                                                   0000241P0000146
508,4,0,19,33,1,0,0,19,34,1,0,0,19,29,0,0,0,19,5,0,0;            0000243P0000147
510,247,2,1,255,257;                                             0000245P0000148
190,249,251,253;                                                 0000247P0000149
116,1.1,-4.9,13.5,0;                                             0000249P0000150
123,1.,0.,0.;                                                    0000251P0000151
123,0.,-1.,0.;                                                   0000253P0000152
508,4,0,19,35,1,0,0,19,36,1,0,0,19,31,0,0,0,19,12,0,0;           0000255P0000153
508,1,0,19,37,1,0;                                               0000257P0000154
510,261,1,1,269;                                                 0000259P0000155
190,263,265,267;                                                 0000261P0000156
116,1.15,7.15,13.5,0;                                            0000263P0000157
123,0.,-1.,0.;                                                   0000265P0000158
123,-1.,0.,0.;                                                   0000267P0000159
508,4,0,19,38,1,0,0,19,39,1,0,0,19,33,0,0,0,19,6,0,0;            0000269P0000160
510,273,1,1,281;                                                 0000271P0000161
190,275,277,279;                                                 0000273P0000162
116,-1.15,-4.9,13.5,0;                                           0000275P0000163
123,0.,1.,0.;                                                    0000277P0000164
123,1.,0.,0.;                                                    0000279P0000165
508,4,0,19,40,1,0,0,19,41,1,0,0,19,35,0,0,0,19,11,0,0;           0000281P0000166
510,285,1,1,293;                                                 0000283P0000167
190,287,289,291;                                                 0000285P0000168
116,1.15,9.9,13.5,0;                                             0000287P0000169
123,1.,0.,0.;                                                    0000289P0000170
123,0.,-1.,0.;                                                   0000291P0000171
508,4,0,19,42,1,0,0,19,43,1,0,0,19,38,0,0,0,19,7,0,0;            0000293P0000172
510,297,1,1,305;                                                 0000295P0000173
190,299,301,303;                                                 0000297P0000174
116,-1.15,9.9,13.5,0;                                            0000299P0000175
123,1.,0.,0.;                                                    0000301P0000176
123,0.,-1.,0.;                                                   0000303P0000177
508,4,0,19,44,1,0,0,19,45,1,0,0,19,40,0,0,0,19,10,0,0;           0000305P0000178
510,309,1,1,317;                                                 0000307P0000179
190,311,313,315;                                                 0000309P0000180
116,-1.348274106E-18,9.9,13.5,0;                                 0000311P0000181
123,0.,1.,0.;                                                    0000313P0000182
123,1.,0.,0.;                                                    0000315P0000183
508,4,0,19,46,1,0,0,19,47,1,0,0,19,42,0,0,0,19,8,0,0;            0000317P0000184
510,321,1,1,329;                                                 0000319P0000185
190,323,325,327;                                                 0000321P0000186
116,-1.348274106E-18,9.9,13.5,0;                                 0000323P0000187
123,0.,-1.,0.;                                                   0000325P0000188
123,-1.,0.,0.;                                                   0000327P0000189
508,4,0,19,46,1,0,0,19,48,1,0,0,19,44,0,0,0,19,9,0,0;            0000329P0000190
510,333,1,1,341;                                                 0000331P0000191
192,335,337,0.6,339;                                             0000333P0000192
116,0.,2.81,13.5,0;                                              0000335P0000193
123,-0.,-0.,-1.;                                                 0000337P0000194
123,1.,0.,0.;                                                    0000339P0000195
508,4,0,19,49,0,1,0,343,0,19,16,1,1,0,345,0,19,49,1,1,0,347,0,   0000341P0000196
19,50,0,1,0,349;                                                 0000341P0000197
110,0.,-6.,0.,0.,0.,0.;                                          0000343P0000198
110,0.,0.,0.,-360.,0.,0.;                                        0000345P0000199
110,-360.,0.,0.,-360.,-6.,0.;                                    0000347P0000200
110,-360.,-6.,0.,0.,-6.,0.;                                      0000349P0000201
510,353,2,1,361,363;                                             0000351P0000202
190,355,357,359;                                                 0000353P0000203
116,0.441445665,0.610502263,19.5,0;                              0000355P0000204
123,0.,0.,1.;                                                    0000357P0000205
123,1.,0.,0.;                                                    0000359P0000206
508,15,0,19,18,1,0,0,19,20,1,0,0,19,26,0,0,0,19,30,0,0,0,19,34,  0000361P0000207
0,0,0,19,39,0,0,0,19,43,0,0,0,19,47,0,0,0,19,48,1,0,0,19,45,1,0, 0000361P0000208
0,19,41,1,0,0,19,36,1,0,0,19,32,1,0,0,19,28,1,0,0,19,23,1,0;     0000361P0000209
508,1,0,19,50,0,0;                                               0000363P0000210
510,367,1,1,375;                                                 0000365P0000211
192,369,371,0.4,373;                                             0000367P0000212
116,1.1,-7.,16.5,0;                                              0000369P0000213
123,-1.,0.,0.;                                                   0000371P0000214
123,0.,-1.,0.;                                                   0000373P0000215
508,4,0,19,37,0,1,0,377,0,19,51,1,1,0,379,0,19,24,1,1,0,381,0,   0000375P0000216
19,51,0,1,0,383;                                                 0000375P0000217
110,360.,0.,0.,0.,0.,0.;                                         0000377P0000218
110,0.,0.,0.,0.,-1.65,0.;                                        0000379P0000219
110,0.,-1.65,0.,360.,-1.65,0.;                                   0000381P0000220
110,360.,-1.65,0.,360.,0.,0.;                                    0000383P0000221
S      1G      4D    384P    221                                        T0000001
