                                                                        S0000001
,,31HOpen CASCADE IGES processor 7.5,13HFilename.iges,                  G0000001
16HOpen CASCADE 7.5,31HOpen CASCADE IGES processor 7.5,32,308,15,308,15,G0000002
,1.,2,2HMM,1,0.01,15H20220406.150843,4.37731E-07,50.105412,,,11,0,      G0000003
15H20220406.150843,;                                                    G0000004
     402       1       0       0       0       0       0       000000000D0000001
     402       0       0       1       1                               0D0000002
     186       2       0       0       0       0       0       000020000D0000003
     186       0       0       1       0                               0D0000004
     514       3       0       0       0       0       0       000010000D0000005
     514       0       0       2       1                               0D0000006
     510       5       0       0       0       0       0       000010000D0000007
     510       0       0       1       1                               0D0000008
     192       6       0       0       0       0       0       000010000D0000009
     192       0       0       1       1                               0D0000010
     116       7       0       0       0       0       0       000010400D0000011
     116       0       0       1       0                               0D0000012
     123       8       0       0       0       0       0       000010200D0000013
     123       0       0       1       0                               0D0000014
     123       9       0       0       0       0       0       000010200D0000015
     123       0       0       1       0                               0D0000016
     508      10       0       0       0       0       0       000010000D0000017
     508       0       0       2       1                               0D0000018
     504      12       0       0       0       0       0       000010001D0000019
     504       0       0       8       1                               0D0000020
     100      20       0       0       0       0      23       000010000D0000021
     100       0       0       1       0                               0D0000022
     124      21       0       0       0       0       0       000000000D0000023
     124       0       0       2       0                               0D0000024
     502      23       0       0       0       0       0       000010000D0000025
     502       0       0       8       1                               0D0000026
     110      31       0       0       0       0       0       000010000D0000027
     110       0       0       1       0                               0D0000028
     100      32       0       0       0       0      31       000010000D0000029
     100       0       0       1       0                               0D0000030
     124      33       0       0       0       0       0       000000000D0000031
     124       0       0       2       0                               0D0000032
     100      35       0       0       0       0      35       000010000D0000033
     100       0       0       1       0                               0D0000034
     124      36       0       0       0       0       0       000000000D0000035
     124       0       0       2       0                               0D0000036
     100      38       0       0       0       0      39       000010000D0000037
     100       0       0       1       0                               0D0000038
     124      39       0       0       0       0       0       000000000D0000039
     124       0       0       2       0                               0D0000040
     100      41       0       0       0       0      43       000010000D0000041
     100       0       0       1       0                               0D0000042
     124      42       0       0       0       0       0       000000000D0000043
     124       0       0       2       0                               0D0000044
     100      44       0       0       0       0      47       000010000D0000045
     100       0       0       1       0                               0D0000046
     124      45       0       0       0       0       0       000000000D0000047
     124       0       0       2       0                               0D0000048
     110      47       0       0       0       0       0       000010000D0000049
     110       0       0       2       0                               0D0000050
     110      49       0       0       0       0       0       000010000D0000051
     110       0       0       1       0                               0D0000052
     100      50       0       0       0       0      55       000010000D0000053
     100       0       0       1       0                               0D0000054
     124      51       0       0       0       0       0       000000000D0000055
     124       0       0       2       0                               0D0000056
     110      53       0       0       0       0       0       000010000D0000057
     110       0       0       1       0                               0D0000058
     100      54       0       0       0       0      61       000010000D0000059
     100       0       0       1       0                               0D0000060
     124      55       0       0       0       0       0       000000000D0000061
     124       0       0       2       0                               0D0000062
     126      57       0       0       0       0       0       000010000D0000063
     126       0       0       6       0                               0D0000064
     126      63       0       0       0       0       0       000010000D0000065
     126       0       0       5       0                               0D0000066
     100      68       0       0       0       0      69       000010000D0000067
     100       0       0       1       0                               0D0000068
     124      69       0       0       0       0       0       000000000D0000069
     124       0       0       2       0                               0D0000070
     126      71       0       0       0       0       0       000010000D0000071
     126       0       0       6       0                               0D0000072
     126      77       0       0       0       0       0       000010000D0000073
     126       0       0       6       0                               0D0000074
     126      83       0       0       0       0       0       000010000D0000075
     126       0       0       6       0                               0D0000076
     126      89       0       0       0       0       0       000010000D0000077
     126       0       0       6       0                               0D0000078
     100      95       0       0       0       0      81       000010000D0000079
     100       0       0       1       0                               0D0000080
     124      96       0       0       0       0       0       000000000D0000081
     124       0       0       2       0                               0D0000082
     126      98       0       0       0       0       0       000010000D0000083
     126       0       0       6       0                               0D0000084
     126     104       0       0       0       0       0       000010000D0000085
     126       0       0       6       0                               0D0000086
     110     110       0       0       0       0       0       000010000D0000087
     110       0       0       1       0                               0D0000088
     110     111       0       0       0       0       0       000010000D0000089
     110       0       0       1       0                               0D0000090
     110     112       0       0       0       0       0       000010000D0000091
     110       0       0       1       0                               0D0000092
     110     113       0       0       0       0       0       000010000D0000093
     110       0       0       1       0                               0D0000094
     110     114       0       0       0       0       0       000010000D0000095
     110       0       0       1       0                               0D0000096
     110     115       0       0       0       0       0       000010000D0000097
     110       0       0       1       0                               0D0000098
     110     116       0       0       0       0       0       000010000D0000099
     110       0       0       1       0                               0D0000100
     110     117       0       0       0       0       0       000010000D0000101
     110       0       0       1       0                               0D0000102
     110     118       0       0       0       0       0       000010000D0000103
     110       0       0       1       0                               0D0000104
     110     119       0       0       0       0       0       000010000D0000105
     110       0       0       1       0                               0D0000106
     110     120       0       0       0       0       0       000010000D0000107
     110       0       0       1       0                               0D0000108
     110     121       0       0       0       0       0       000010000D0000109
     110       0       0       1       0                               0D0000110
     110     122       0       0       0       0       0       000010000D0000111
     110       0       0       1       0                               0D0000112
     110     123       0       0       0       0       0       000010000D0000113
     110       0       0       1       0                               0D0000114
     510     124       0       0       0       0       0       000010000D0000115
     510       0       0       1       1                               0D0000116
     190     125       0       0       0       0       0       000010000D0000117
     190       0       0       1       1                               0D0000118
     116     126       0       0       0       0       0       000010400D0000119
     116       0       0       1       0                               0D0000120
     123     127       0       0       0       0       0       000010200D0000121
     123       0       0       1       0                               0D0000122
     123     128       0       0       0       0       0       000010200D0000123
     123       0       0       1       0                               0D0000124
     508     129       0       0       0       0       0       000010000D0000125
     508       0       0       1       1                               0D0000126
     508     130       0       0       0       0       0       000010000D0000127
     508       0       0       1       1                               0D0000128
     510     131       0       0       0       0       0       000010000D0000129
     510       0       0       1       1                               0D0000130
     120     132       0       0       0       0       0       000010000D0000131
     120       0       0       1       0                               0D0000132
     110     133       0       0       0       0       0       000010000D0000133
     110       0       0       1       0                               0D0000134
     100     134       0       0       0       0     137       000010000D0000135
     100       0       0       1       0                               0D0000136
     124     135       0       0       0       0       0       000000000D0000137
     124       0       0       2       0                               0D0000138
     508     137       0       0       0       0       0       000010000D0000139
     508       0       0       2       1                               0D0000140
     110     139       0       0       0       0       0       000010000D0000141
     110       0       0       1       0                               0D0000142
     110     140       0       0       0       0       0       000010000D0000143
     110       0       0       2       0                               0D0000144
     110     142       0       0       0       0       0       000010000D0000145
     110       0       0       1       0                               0D0000146
     110     143       0       0       0       0       0       000010000D0000147
     110       0       0       1       0                               0D0000148
     510     144       0       0       0       0       0       000010000D0000149
     510       0       0       1       1                               0D0000150
     192     145       0       0       0       0       0       000010000D0000151
     192       0       0       1       1                               0D0000152
     116     146       0       0       0       0       0       000010400D0000153
     116       0       0       1       0                               0D0000154
     123     147       0       0       0       0       0       000010200D0000155
     123       0       0       1       0                               0D0000156
     123     148       0       0       0       0       0       000010200D0000157
     123       0       0       1       0                               0D0000158
     508     149       0       0       0       0       0       000010000D0000159
     508       0       0       2       1                               0D0000160
     110     151       0       0       0       0       0       000010000D0000161
     110       0       0       1       0                               0D0000162
     110     152       0       0       0       0       0       000010000D0000163
     110       0       0       1       0                               0D0000164
     110     153       0       0       0       0       0       000010000D0000165
     110       0       0       1       0                               0D0000166
     110     154       0       0       0       0       0       000010000D0000167
     110       0       0       1       0                               0D0000168
     510     155       0       0       0       0       0       000010000D0000169
     510       0       0       1       1                               0D0000170
     192     156       0       0       0       0       0       000010000D0000171
     192       0       0       1       1                               0D0000172
     116     157       0       0       0       0       0       000010400D0000173
     116       0       0       1       0                               0D0000174
     123     158       0       0       0       0       0       000010200D0000175
     123       0       0       1       0                               0D0000176
     123     159       0       0       0       0       0       000010200D0000177
     123       0       0       1       0                               0D0000178
     508     160       0       0       0       0       0       000010000D0000179
     508       0       0       2       1                               0D0000180
     110     162       0       0       0       0       0       000010000D0000181
     110       0       0       1       0                               0D0000182
     110     163       0       0       0       0       0       000010000D0000183
     110       0       0       1       0                               0D0000184
     110     164       0       0       0       0       0       000010000D0000185
     110       0       0       1       0                               0D0000186
     110     165       0       0       0       0       0       000010000D0000187
     110       0       0       1       0                               0D0000188
     510     166       0       0       0       0       0       000010000D0000189
     510       0       0       1       1                               0D0000190
     194     167       0       0       0       0       0       000010000D0000191
     194       0       0       1       1                               0D0000192
     116     168       0       0       0       0       0       000010400D0000193
     116       0       0       1       0                               0D0000194
     123     169       0       0       0       0       0       000010200D0000195
     123       0       0       1       0                               0D0000196
     123     170       0       0       0       0       0       000010200D0000197
     123       0       0       1       0                               0D0000198
     508     171       0       0       0       0       0       000010000D0000199
     508       0       0       2       1                               0D0000200
     110     173       0       0       0       0       0       000010000D0000201
     110       0       0       1       0                               0D0000202
     110     174       0       0       0       0       0       000010000D0000203
     110       0       0       1       0                               0D0000204
     110     175       0       0       0       0       0       000010000D0000205
     110       0       0       1       0                               0D0000206
     110     176       0       0       0       0       0       000010000D0000207
     110       0       0       1       0                               0D0000208
     510     177       0       0       0       0       0       000010000D0000209
     510       0       0       1       1                               0D0000210
     198     178       0       0       0       0       0       000010000D0000211
     198       0       0       1       1                               0D0000212
     116     179       0       0       0       0       0       000010400D0000213
     116       0       0       1       0                               0D0000214
     123     180       0       0       0       0       0       000010200D0000215
     123       0       0       1       0                               0D0000216
     123     181       0       0       0       0       0       000010200D0000217
     123       0       0       1       0                               0D0000218
     508     182       0       0       0       0       0       000010000D0000219
     508       0       0       4       1                               0D0000220
     110     186       0       0       0       0       0       000010000D0000221
     110       0       0       1       0                               0D0000222
     126     187       0       0       0       0       0       000010000D0000223
     126       0       0       6       0                               0D0000224
     126     193       0       0       0       0       0       000010000D0000225
     126       0       0       6       0                               0D0000226
     110     199       0       0       0       0       0       000010000D0000227
     110       0       0       1       0                               0D0000228
     126     200       0       0       0       0       0       000010000D0000229
     126       0       0       6       0                               0D0000230
     126     206       0       0       0       0       0       000010000D0000231
     126       0       0       5       0                               0D0000232
     126     211       0       0       0       0       0       000010000D0000233
     126       0       0       5       0                               0D0000234
     126     216       0       0       0       0       0       000010000D0000235
     126       0       0       6       0                               0D0000236
     110     222       0       0       0       0       0       000010000D0000237
     110       0       0       1       0                               0D0000238
     126     223       0       0       0       0       0       000010000D0000239
     126       0       0       6       0                               0D0000240
     126     229       0       0       0       0       0       000010000D0000241
     126       0       0       6       0                               0D0000242
     110     235       0       0       0       0       0       000010000D0000243
     110       0       0       1       0                               0D0000244
     110     236       0       0       0       0       0       000010000D0000245
     110       0       0       1       0                               0D0000246
     510     237       0       0       0       0       0       000010000D0000247
     510       0       0       1       1                               0D0000248
     190     238       0       0       0       0       0       000010000D0000249
     190       0       0       1       1                               0D0000250
     116     239       0       0       0       0       0       000010400D0000251
     116       0       0       1       0                               0D0000252
     123     240       0       0       0       0       0       000010200D0000253
     123       0       0       1       0                               0D0000254
     123     241       0       0       0       0       0       000010200D0000255
     123       0       0       1       0                               0D0000256
     508     242       0       0       0       0       0       000010000D0000257
     508       0       0       2       1                               0D0000258
     510     244       0       0       0       0       0       000010000D0000259
     510       0       0       1       1                               0D0000260
     190     245       0       0       0       0       0       000010000D0000261
     190       0       0       1       1                               0D0000262
     116     246       0       0       0       0       0       000010400D0000263
     116       0       0       1       0                               0D0000264
     123     247       0       0       0       0       0       000010200D0000265
     123       0       0       1       0                               0D0000266
     123     248       0       0       0       0       0       000010200D0000267
     123       0       0       1       0                               0D0000268
     508     249       0       0       0       0       0       000010000D0000269
     508       0       0       2       1                               0D0000270
     510     251       0       0       0       0       0       000010000D0000271
     510       0       0       1       1                               0D0000272
     190     252       0       0       0       0       0       000010000D0000273
     190       0       0       1       1                               0D0000274
     116     253       0       0       0       0       0       000010400D0000275
     116       0       0       1       0                               0D0000276
     123     254       0       0       0       0       0       000010200D0000277
     123       0       0       1       0                               0D0000278
     123     255       0       0       0       0       0       000010200D0000279
     123       0       0       1       0                               0D0000280
     508     256       0       0       0       0       0       000010000D0000281
     508       0       0       1       1                               0D0000282
     510     257       0       0       0       0       0       000010000D0000283
     510       0       0       1       1                               0D0000284
     190     258       0       0       0       0       0       000010000D0000285
     190       0       0       1       1                               0D0000286
     116     259       0       0       0       0       0       000010400D0000287
     116       0       0       1       0                               0D0000288
     123     260       0       0       0       0       0       000010200D0000289
     123       0       0       1       0                               0D0000290
     123     261       0       0       0       0       0       000010200D0000291
     123       0       0       1       0                               0D0000292
     508     262       0       0       0       0       0       000010000D0000293
     508       0       0       2       1                               0D0000294
     510     264       0       0       0       0       0       000010000D0000295
     510       0       0       1       1                               0D0000296
     190     265       0       0       0       0       0       000010000D0000297
     190       0       0       1       1                               0D0000298
     116     266       0       0       0       0       0       000010400D0000299
     116       0       0       1       0                               0D0000300
     123     267       0       0       0       0       0       000010200D0000301
     123       0       0       1       0                               0D0000302
     123     268       0       0       0       0       0       000010200D0000303
     123       0       0       1       0                               0D0000304
     508     269       0       0       0       0       0       000010000D0000305
     508       0       0       2       1                               0D0000306
     510     271       0       0       0       0       0       000010000D0000307
     510       0       0       1       1                               0D0000308
     190     272       0       0       0       0       0       000010000D0000309
     190       0       0       1       1                               0D0000310
     116     273       0       0       0       0       0       000010400D0000311
     116       0       0       1       0                               0D0000312
     123     274       0       0       0       0       0       000010200D0000313
     123       0       0       1       0                               0D0000314
     123     275       0       0       0       0       0       000010200D0000315
     123       0       0       1       0                               0D0000316
     508     276       0       0       0       0       0       000010000D0000317
     508       0       0       1       1                               0D0000318
     510     277       0       0       0       0       0       000010000D0000319
     510       0       0       1       1                               0D0000320
     190     278       0       0       0       0       0       000010000D0000321
     190       0       0       1       1                               0D0000322
     116     279       0       0       0       0       0       000010400D0000323
     116       0       0       1       0                               0D0000324
     123     280       0       0       0       0       0       000010200D0000325
     123       0       0       1       0                               0D0000326
     123     281       0       0       0       0       0       000010200D0000327
     123       0       0       1       0                               0D0000328
     508     282       0       0       0       0       0       000010000D0000329
     508       0       0       1       1                               0D0000330
402,1,3;                                                         0000001P0000001
186,5,1,0;                                                       0000003P0000002
514,14,7,1,115,1,129,0,149,1,169,1,189,1,209,1,247,1,259,1,271,  0000005P0000003
0,283,1,295,1,307,0,319,0;                                       0000005P0000004
510,9,1,1,17;                                                    0000007P0000005
192,11,13,0.315,15;                                              0000009P0000006
116,0.,0.,0.,0;                                                  0000011P0000007
123,0.,1.110223025E-15,1.;                                       0000013P0000008
123,1.,0.,0.;                                                    0000015P0000009
508,4,0,19,1,0,1,0,107,0,19,2,1,1,0,109,0,19,3,1,1,0,111,0,19,2, 0000017P0000010
0,1,0,113;                                                       0000017P0000011
504,32,21,25,1,25,1,27,25,1,25,2,29,25,2,25,2,33,25,3,25,3,37,   0000019P0000012
25,2,25,4,41,25,4,25,4,45,25,5,25,5,49,25,5,25,3,51,25,4,25,6,   0000019P0000013
53,25,6,25,6,57,25,7,25,5,59,25,6,25,8,63,25,9,25,8,65,25,9,25,  0000019P0000014
10,67,25,10,25,11,71,25,12,25,11,73,25,12,25,13,75,25,14,25,13,  0000019P0000015
77,25,14,25,15,79,25,15,25,16,83,25,17,25,16,85,25,17,25,8,87,   0000019P0000016
25,17,25,18,89,25,18,25,19,91,25,9,25,19,93,25,19,25,20,95,25,   0000019P0000017
12,25,20,97,25,10,25,11,99,25,20,25,21,101,25,14,25,21,103,25,   0000019P0000018
21,25,18,105,25,15,25,16;                                        0000019P0000019
100,0.,0.,0.,0.315,0.,0.315,0.;                                  0000021P0000020
124,1.,0.,0.,0.,0.,-1.,-1.110223025E-15,0.,0.,1.110223025E-15,   0000023P0000021
-1.,0.;                                                          0000023P0000022
502,21,0.315,0.,0.,0.315,4.996003611E-15,4.5,1.E-01,0.,0.,0.75,  0000025P0000023
5.478950627E-15,4.935,1.E-01,-5.528910663E-14,-49.8,0.75,        0000025P0000024
8.604228441E-15,7.75,0.,-5.551115123E-14,-50.,0.5,               0000025P0000025
8.881784197E-15,8.,0.5,-5.E-02,7.999987562,0.497493719,-5.E-02,  0000025P0000026
8.,-0.497493719,-5.E-02,8.,-0.5,-5.E-02,7.999987562,-0.5,        0000025P0000027
8.820551857E-15,8.,-0.5,5.E-02,7.999987562,-0.497493719,5.E-02,  0000025P0000028
8.,0.497493719,5.E-02,8.,0.5,5.E-02,7.999987562,0.5,5.E-02,10.,  0000025P0000029
0.5,-5.E-02,10.,-0.5,-5.E-02,10.,-0.5,5.E-02,10.;                0000025P0000030
110,0.315,0.,0.,0.315,4.996003611E-15,4.5;                       0000027P0000031
100,0.,0.,0.,0.315,0.,0.315,0.;                                  0000029P0000032
124,1.,0.,0.,0.,0.,-1.,-1.110223025E-15,4.996003611E-15,0.,      0000031P0000033
1.110223025E-15,-1.,4.5;                                         0000031P0000034
100,0.,0.,0.,1.E-01,0.,1.E-01,0.;                                0000033P0000035
124,1.,0.,0.,0.,0.,-1.,-1.110223025E-15,0.,0.,1.110223025E-15,   0000035P0000036
-1.,0.;                                                          0000035P0000037
100,0.,0.,0.,-5.551115123E-17,-0.435,0.435,0.;                   0000037P0000038
124,1.,0.,0.,0.315,0.,1.110223025E-15,-1.,5.478950627E-15,0.,1., 0000039P0000039
1.110223025E-15,4.935;                                           0000039P0000040
100,0.,0.,0.,0.75,0.,0.75,0.;                                    0000041P0000041
124,1.,0.,0.,0.,0.,-1.,-1.110223025E-15,5.478950627E-15,0.,      0000043P0000042
1.110223025E-15,-1.,4.935;                                       0000043P0000043
100,0.,0.,0.,1.E-01,0.,1.E-01,0.;                                0000045P0000044
124,1.,0.,0.,0.,0.,-1.,-1.110223025E-15,-5.528910663E-14,0.,     0000047P0000045
1.110223025E-15,-1.,-49.8;                                       0000047P0000046
110,1.E-01,-5.528910663E-14,-49.8,1.E-01,1.262177448E-29,        0000049P0000047
1.421085472E-14;                                                 0000049P0000048
110,0.75,5.478950627E-15,4.935,0.75,8.604228441E-15,7.75;        0000051P0000049
100,0.,0.,0.,0.75,0.,0.75,0.;                                    0000053P0000050
124,1.,0.,0.,0.,0.,-1.,-1.110223025E-15,8.604228441E-15,0.,      0000055P0000051
1.110223025E-15,-1.,7.75;                                        0000055P0000052
110,0.,-5.551115123E-14,-50.,0.1,-5.528910663E-14,-49.8;         0000057P0000053
100,0.,0.,0.,0.25,0.,0.,0.25;                                    0000059P0000054
124,1.,0.,0.,0.5,0.,1.110223025E-15,-1.,8.604228441E-15,0.,1.,   0000061P0000055
1.110223025E-15,7.75;                                            0000061P0000056
126,5,5,1,0,1,0,0.167629009,0.167629009,0.167629009,0.167629009, 0000063P0000057
0.167629009,0.167629009,1.,1.,1.,1.,1.,1.,1.,1.,1.,1.,1.,1.,0.5, 0000063P0000058
-5.E-02,7.999987561,0.5,-4.005233424E-02,7.999997435,0.5,        0000063P0000059
-3.006602591E-02,8.000000019,0.5,-2.005331327E-02,7.999999992,   0000063P0000060
0.5,-1.002655044E-02,8.,0.5,8.881784197E-15,8.,0.167629009,1.,   0000063P0000061
-1.,0.,0.;                                                       0000063P0000062
126,5,5,1,0,1,0,0.976273081,0.976273081,0.976273081,0.976273081, 0000065P0000063
0.976273081,0.976273081,1.,1.,1.,1.,1.,1.,1.,1.,1.,1.,1.,1.,0.5, 0000065P0000064
-5.E-02,7.999987562,0.499498766,-5.E-02,7.999992537,0.498997517, 0000065P0000065
-5.E-02,7.999996269,0.498496256,-5.E-02,7.999998756,0.497994989, 0000065P0000066
-5.E-02,8.,0.497493719,-5.E-02,8.,0.976273081,1.,0.,-1.,0.;      0000065P0000067
100,0.,0.,0.,0.497493719,5.E-02,-0.497493719,5.E-02;             0000067P0000068
124,1.,0.,0.,0.,0.,-1.,-1.110223025E-15,8.881784197E-15,0.,      0000069P0000069
1.110223025E-15,-1.,8.;                                          0000069P0000070
126,5,5,1,0,1,0,0.976273081,0.976273081,0.976273081,0.976273081, 0000071P0000071
0.976273081,0.976273081,1.,1.,1.,1.,1.,1.,1.,1.,1.,1.,1.,1.,     0000071P0000072
-0.5,-5.E-02,7.999987562,-0.499498766,-5.E-02,7.999992537,       0000071P0000073
-0.498997517,-5.E-02,7.999996269,-0.498496256,-5.E-02,           0000071P0000074
7.999998756,-0.497994989,-5.E-02,8.,-0.497493719,-5.E-02,8.,     0000071P0000075
0.976273081,1.,0.,1.,0.;                                         0000071P0000076
126,5,5,1,0,1,0,0.167629008,0.167629008,0.167629008,0.167629008, 0000073P0000077
0.167629008,0.167629008,1.,1.,1.,1.,1.,1.,1.,1.,1.,1.,1.,1.,     0000073P0000078
-0.5,-5.E-02,7.999987561,-0.5,-4.005233418E-02,7.999997435,-0.5, 0000073P0000079
-3.00660259E-02,8.000000019,-0.5,-2.005331389E-02,7.999999992,   0000073P0000080
-0.5,-1.002654986E-02,8.,-0.5,8.881784197E-15,8.,0.167629008,1., 0000073P0000081
-1.,0.,0.;                                                       0000073P0000082
126,5,5,1,0,1,0,0.167629008,0.167629008,0.167629008,0.167629008, 0000075P0000083
0.167629008,0.167629008,1.,1.,1.,1.,1.,1.,1.,1.,1.,1.,1.,1.,     0000075P0000084
-0.5,5.E-02,7.999987561,-0.5,4.005233418E-02,7.999997435,-0.5,   0000075P0000085
3.00660259E-02,8.000000019,-0.5,2.005331389E-02,7.999999992,     0000075P0000086
-0.5,1.002654986E-02,8.,-0.5,8.881784197E-15,8.,0.167629008,1.,  0000075P0000087
1.,0.,0.;                                                        0000075P0000088
126,5,5,1,0,1,0,0.976273081,0.976273081,0.976273081,0.976273081, 0000077P0000089
0.976273081,0.976273081,1.,1.,1.,1.,1.,1.,1.,1.,1.,1.,1.,1.,     0000077P0000090
-0.5,5.E-02,7.999987562,-0.499498766,5.E-02,7.999992537,         0000077P0000091
-0.498997517,5.E-02,7.999996269,-0.498496256,5.E-02,7.999998756, 0000077P0000092
-0.497994989,5.E-02,8.,-0.497493719,5.E-02,8.,0.976273081,1.,0., 0000077P0000093
1.,3.736443836E-15;                                              0000077P0000094
100,0.,0.,0.,-0.497493719,-5.E-02,0.497493719,-5.E-02;           0000079P0000095
124,1.,0.,0.,0.,0.,-1.,-1.110223025E-15,8.881784197E-15,0.,      0000081P0000096
1.110223025E-15,-1.,8.;                                          0000081P0000097
126,5,5,1,0,1,0,0.976273081,0.976273081,0.976273081,0.976273081, 0000083P0000098
0.976273081,0.976273081,1.,1.,1.,1.,1.,1.,1.,1.,1.,1.,1.,1.,0.5, 0000083P0000099
5.E-02,7.999987562,0.499498766,5.E-02,7.999992537,0.498997517,   0000083P0000100
5.E-02,7.999996269,0.498496256,5.E-02,7.999998756,0.497994989,   0000083P0000101
5.E-02,8.,0.497493719,5.E-02,8.,0.976273081,1.,0.,-1.,           0000083P0000102
3.736443836E-15;                                                 0000083P0000103
126,5,5,1,0,1,0,0.167629009,0.167629009,0.167629009,0.167629009, 0000085P0000104
0.167629009,0.167629009,1.,1.,1.,1.,1.,1.,1.,1.,1.,1.,1.,1.,0.5, 0000085P0000105
5.E-02,7.999987561,0.5,4.005233424E-02,7.999997435,0.5,          0000085P0000106
3.006602591E-02,8.000000019,0.5,2.005331327E-02,7.999999992,0.5, 0000085P0000107
1.002655044E-02,8.,0.5,8.881784197E-15,8.,0.167629009,1.,1.,0.,  0000085P0000108
0.;                                                              0000085P0000109
110,0.5,5.E-02,7.999987562,0.5,5.E-02,10.;                       0000087P0000110
110,0.5,5.E-02,10.,0.5,-5.E-02,10.;                              0000089P0000111
110,0.5,-5.E-02,7.999987562,0.5,-5.E-02,10.;                     0000091P0000112
110,0.5,-5.E-02,10.,-0.5,-5.E-02,10.;                            0000093P0000113
110,-0.5,-5.E-02,7.999987562,-0.5,-5.E-02,10.;                   0000095P0000114
110,0.497493719,-5.E-02,8.,-0.497493719,-5.E-02,8.;              0000097P0000115
110,-0.5,-5.E-02,10.,-0.5,5.E-02,10.;                            0000099P0000116
110,-0.5,5.E-02,7.999987562,-0.5,5.E-02,10.;                     0000101P0000117
110,-0.5,5.E-02,10.,0.5,5.E-02,10.;                              0000103P0000118
110,-0.497493719,5.E-02,8.,0.497493719,5.E-02,8.;                0000105P0000119
110,-360.,0.,0.,0.,0.,0.;                                        0000107P0000120
110,0.,0.,0.,0.,4.5,0.;                                          0000109P0000121
110,0.,4.5,0.,-360.,4.5,0.;                                      0000111P0000122
110,-360.,4.5,0.,-360.,0.,0.;                                    0000113P0000123
510,117,2,1,125,127;                                             0000115P0000124
190,119,121,123;                                                 0000117P0000125
116,0.,0.,0.,0;                                                  0000119P0000126
123,0.,-1.110223025E-15,-1.;                                     0000121P0000127
123,1.,0.,0.;                                                    0000123P0000128
508,1,0,19,1,1,0;                                                0000125P0000129
508,1,0,19,4,0,0;                                                0000127P0000130
510,131,1,1,139;                                                 0000129P0000131
120,133,135,0.,6.283185307;                                      0000131P0000132
110,0.,0.,0.,0.,1.110223025E-15,1.;                              0000133P0000133
100,0.,0.,0.,-5.551115123E-17,-0.435,0.435,0.;                   0000135P0000134
124,1.,0.,0.,0.315,0.,1.110223025E-15,-1.,5.478950627E-15,0.,1., 0000137P0000135
1.110223025E-15,4.935;                                           0000137P0000136
508,4,0,19,3,1,1,0,141,0,19,5,1,1,0,143,0,19,6,0,1,0,145,0,19,5, 0000139P0000137
0,1,0,147;                                                       0000139P0000138
110,4.71238898,6.283185307,0.,4.71238898,8.881784197E-16,0.;     0000141P0000139
110,4.71238898,2.822717389E-15,0.,6.283185307,3.171504239E-15,   0000143P0000140
0.;                                                              0000143P0000141
110,6.283185307,1.776356839E-15,0.,6.283185307,6.283185307,0.;   0000145P0000142
110,6.283185307,6.283185307,0.,4.71238898,6.283185307,0.;        0000147P0000143
510,151,1,1,159;                                                 0000149P0000144
192,153,155,1.E-01,157;                                          0000151P0000145
116,0.,-5.528910663E-14,-49.8,0;                                 0000153P0000146
123,0.,1.110223025E-15,1.;                                       0000155P0000147
123,1.,0.,0.;                                                    0000157P0000148
508,4,0,19,7,0,1,0,161,0,19,8,1,1,0,163,0,19,4,1,1,0,165,0,19,8, 0000159P0000149
0,1,0,167;                                                       0000159P0000150
110,-360.,0.,0.,0.,0.,0.;                                        0000161P0000151
110,0.,0.,0.,0.,49.8,0.;                                         0000163P0000152
110,0.,49.8,0.,-360.,49.8,0.;                                    0000165P0000153
110,-360.,49.8,0.,-360.,0.,0.;                                   0000167P0000154
510,171,1,1,179;                                                 0000169P0000155
192,173,175,0.75,177;                                            0000171P0000156
116,0.,5.478950627E-15,4.935,0;                                  0000173P0000157
123,0.,1.110223025E-15,1.;                                       0000175P0000158
123,1.,0.,0.;                                                    0000177P0000159
508,4,0,19,6,0,1,0,181,0,19,9,1,1,0,183,0,19,10,1,1,0,185,0,19,  0000179P0000160
9,0,1,0,187;                                                     0000179P0000161
110,-360.,0.,0.,0.,0.,0.;                                        0000181P0000162
110,0.,0.,0.,0.,2.815,0.;                                        0000183P0000163
110,0.,2.815,0.,-360.,2.815,0.;                                  0000185P0000164
110,-360.,2.815,0.,-360.,0.,0.;                                  0000187P0000165
510,191,1,1,199;                                                 0000189P0000166
194,193,195,0.,26.565051177,197;                                 0000191P0000167
116,0.,-5.551115123E-14,-50.,0;                                  0000193P0000168
123,0.,1.110223025E-15,1.;                                       0000195P0000169
123,1.,0.,0.;                                                    0000197P0000170
508,4,1,25,7,0,1,0,201,0,19,11,1,1,0,203,0,19,7,1,1,0,205,0,19,  0000199P0000171
11,0,1,0,207;                                                    0000199P0000172
110,-360.,0.,0.,0.,0.,0.;                                        0000201P0000173
110,0.,0.,0.,0.,0.223606798,0.;                                  0000203P0000174
110,0.,0.223606798,0.,-360.,0.223606798,0.;                      0000205P0000175
110,-360.,0.223606798,0.,-360.,0.,0.;                            0000207P0000176
510,211,1,1,219;                                                 0000209P0000177
198,213,215,0.5,0.25,217;                                        0000211P0000178
116,0.,8.604228441E-15,7.75,0;                                   0000213P0000179
123,0.,1.110223025E-15,1.;                                       0000215P0000180
123,1.,0.,0.;                                                    0000217P0000181
508,13,0,19,12,1,1,0,221,0,19,13,0,1,0,223,0,19,14,1,1,0,225,0,  0000219P0000182
19,15,1,1,0,227,0,19,16,0,1,0,229,0,19,17,1,1,0,231,0,19,18,0,1, 0000219P0000183
0,233,0,19,19,1,1,0,235,0,19,20,1,1,0,237,0,19,21,0,1,0,239,0,   0000219P0000184
19,22,1,1,0,241,0,19,12,0,1,0,243,0,19,10,0,1,0,245;             0000219P0000185
110,0.,360.,0.,90.,360.,0.;                                      0000221P0000186
126,5,5,1,0,1,0,0.,0.,0.,0.,0.,0.,0.832370991,0.832370991,       0000223P0000187
0.832370991,0.832370991,0.832370991,0.832370991,1.,1.,1.,1.,1.,  0000223P0000188
1.,90.,360.,0.,89.99999977,361.148958046,0.,89.942399305,        0000223P0000189
362.297941037,0.,89.827194848,363.443386277,0.,89.65532144,      0000223P0000190
364.58196102,0.,89.42845792,365.710593204,0.,0.,0.832370991,0.,  0000223P0000191
0.,1.;                                                           0000223P0000192
126,5,5,1,0,1,0,0.976273081,0.976273081,0.976273081,0.976273081, 0000225P0000193
0.976273081,0.976273081,1.,1.,1.,1.,1.,1.,1.,1.,1.,1.,1.,1.,     0000225P0000194
89.428457956,365.710593175,0.,89.542767908,365.716280011,0.,     0000225P0000195
89.657077093,365.721981134,0.,89.771385506,365.727696569,0.,     0000225P0000196
89.885693143,365.733426342,0.,90.,365.739170477,0.,0.976273081,  0000225P0000197
1.,0.,0.,1.;                                                     0000225P0000198
110,90.,365.739170477,0.,90.,534.260829523,0.;                   0000227P0000199
126,5,5,1,0,1,0,0.,0.,0.,0.,0.,0.,2.372691851E-02,               0000229P0000200
2.372691851E-02,2.372691851E-02,2.372691851E-02,2.372691851E-02, 0000229P0000201
2.372691851E-02,1.,1.,1.,1.,1.,1.,90.,534.260829523,0.,          0000229P0000202
89.885693143,534.266573658,0.,89.771385506,534.272303431,0.,     0000229P0000203
89.657077093,534.278018866,0.,89.542767908,534.283719989,0.,     0000229P0000204
89.428457956,534.289406825,0.,0.,2.372691851E-02,0.,0.,1.;       0000229P0000205
126,5,5,1,0,1,0,0.167629008,0.167629008,0.167629008,0.167629008, 0000231P0000206
0.167629008,0.167629008,1.,1.,1.,1.,1.,1.,1.,1.,1.,1.,1.,1.,     0000231P0000207
89.42845794,534.289406796,0.,89.655321475,535.418038987,0.,      0000231P0000208
89.827194844,536.556613725,0.,89.942399094,537.702058891,0.,90., 0000231P0000209
538.851042019,0.,90.,540.,0.,0.167629008,1.,0.,0.,1.;            0000231P0000210
126,5,5,1,0,1,0,0.,0.,0.,0.,0.,0.,0.832370992,0.832370992,       0000233P0000211
0.832370992,0.832370992,0.832370992,0.832370992,1.,1.,1.,1.,1.,  0000233P0000212
1.,90.,540.,0.,90.,541.148957981,0.,89.942399094,542.297941109,  0000233P0000213
0.,89.827194844,543.443386275,0.,89.655321475,544.581961013,0.,  0000233P0000214
89.42845794,545.710593204,0.,0.,0.832370992,0.,0.,1.;            0000233P0000215
126,5,5,1,0,1,0,0.976273081,0.976273081,0.976273081,0.976273081, 0000235P0000216
0.976273081,0.976273081,1.,1.,1.,1.,1.,1.,1.,1.,1.,1.,1.,1.,     0000235P0000217
89.428457956,545.710593175,0.,89.542767908,545.716280011,0.,     0000235P0000218
89.657077093,545.721981134,0.,89.771385506,545.727696569,0.,     0000235P0000219
89.885693143,545.733426342,0.,90.,545.739170477,0.,0.976273081,  0000235P0000220
1.,0.,0.,1.;                                                     0000235P0000221
110,90.,545.739170477,0.,90.,714.260829523,0.;                   0000237P0000222
126,5,5,1,0,1,0,0.,0.,0.,0.,0.,0.,2.372691851E-02,               0000239P0000223
2.372691851E-02,2.372691851E-02,2.372691851E-02,2.372691851E-02, 0000239P0000224
2.372691851E-02,1.,1.,1.,1.,1.,1.,90.,714.260829523,0.,          0000239P0000225
89.885693143,714.266573658,0.,89.771385506,714.272303431,0.,     0000239P0000226
89.657077093,714.278018866,0.,89.542767908,714.283719989,0.,     0000239P0000227
89.428457956,714.289406825,0.,0.,2.372691851E-02,0.,0.,1.;       0000239P0000228
126,5,5,1,0,1,0,0.167629009,0.167629009,0.167629009,0.167629009, 0000241P0000229
0.167629009,0.167629009,1.,1.,1.,1.,1.,1.,1.,1.,1.,1.,1.,1.,     0000241P0000230
89.42845792,714.289406796,0.,89.65532144,715.41803898,0.,        0000241P0000231
89.827194848,716.556613723,0.,89.942399305,717.702058963,0.,     0000241P0000232
89.99999977,718.851041954,0.,90.,720.,0.,0.167629009,1.,0.,0.,   0000241P0000233
1.;                                                              0000241P0000234
110,90.,720.,0.,7.993605777E-14,720.,0.;                         0000243P0000235
110,7.993605777E-14,720.,0.,0.,360.,0.;                          0000245P0000236
510,249,1,1,257;                                                 0000247P0000237
190,251,253,255;                                                 0000249P0000238
116,0.5,5.E-02,6.,0;                                             0000251P0000239
123,1.,0.,0.;                                                    0000253P0000240
123,0.,-1.,1.110223025E-15;                                      0000255P0000241
508,5,0,19,22,0,0,0,19,23,1,0,0,19,24,1,0,0,19,25,0,0,0,19,13,1, 0000257P0000242
0;                                                               0000257P0000243
510,261,1,1,269;                                                 0000259P0000244
190,263,265,267;                                                 0000261P0000245
116,0.5,-5.E-02,6.,0;                                            0000263P0000246
123,0.,-1.,1.110223025E-15;                                      0000265P0000247
123,-1.,0.,0.;                                                   0000267P0000248
508,6,0,19,14,0,0,0,19,25,1,0,0,19,26,1,0,0,19,27,0,0,0,19,16,1, 0000269P0000249
0,0,19,28,0,0;                                                   0000269P0000250
510,273,1,1,281;                                                 0000271P0000251
190,275,277,279;                                                 0000273P0000252
116,0.,8.881784197E-15,8.,0;                                     0000275P0000253
123,0.,-1.110223025E-15,-1.;                                     0000277P0000254
123,1.,0.,0.;                                                    0000279P0000255
508,2,0,19,28,0,0,0,19,15,1,0;                                   0000281P0000256
510,285,1,1,293;                                                 0000283P0000257
190,287,289,291;                                                 0000285P0000258
116,-0.5,-5.E-02,6.,0;                                           0000287P0000259
123,-1.,0.,0.;                                                   0000289P0000260
123,0.,1.,-1.110223025E-15;                                      0000291P0000261
508,5,0,19,17,0,0,0,19,27,1,0,0,19,29,1,0,0,19,30,0,0,0,19,18,1, 0000293P0000262
0;                                                               0000293P0000263
510,297,1,1,305;                                                 0000295P0000264
190,299,301,303;                                                 0000297P0000265
116,-0.5,5.E-02,6.,0;                                            0000299P0000266
123,0.,1.,-1.110223025E-15;                                      0000301P0000267
123,1.,0.,0.;                                                    0000303P0000268
508,6,0,19,19,0,0,0,19,30,1,0,0,19,31,1,0,0,19,23,0,0,0,19,21,1, 0000305P0000269
0,0,19,32,0,0;                                                   0000305P0000270
510,309,1,1,317;                                                 0000307P0000271
190,311,313,315;                                                 0000309P0000272
116,0.,8.881784197E-15,8.,0;                                     0000311P0000273
123,0.,-1.110223025E-15,-1.;                                     0000313P0000274
123,1.,0.,0.;                                                    0000315P0000275
508,2,0,19,20,1,0,0,19,32,0,0;                                   0000317P0000276
510,321,1,1,329;                                                 0000319P0000277
190,323,325,327;                                                 0000321P0000278
116,6.308085367E-18,1.110290048E-14,10.,0;                       0000323P0000279
123,2.241082117E-32,-4.440892099E-16,-1.;                        0000325P0000280
123,-1.,-9.952403866E-48,-2.241082117E-32;                       0000327P0000281
508,4,0,19,26,1,0,0,19,29,1,0,0,19,31,1,0,0,19,24,1,0;           0000329P0000282
S      1G      4D    330P    282                                        T0000001
