                                                                        S0000001
,,31HOpen CASCADE IGES processor 7.5,13HFilename.iges,                  G0000001
16HOpen CASCADE 7.5,31HOpen CASCADE IGES processor 7.5,32,308,15,308,15,G0000002
,1.,2,2HMM,1,0.01,15H20220315.120415,1E-07,20.0362,,,11,0,              G0000003
15H20220315.120415,;                                                    G0000004
     402       1       0       0       0       0       0       000000000D0000001
     402       0       0       1       1                               0D0000002
     186       2       0       0       0       0       0       000020000D0000003
     186       0       0       1       0                               0D0000004
     514       3       0       0       0       0       0       000010000D0000005
     514       0       0       1       1                               0D0000006
     510       4       0       0       0       0       0       000010000D0000007
     510       0       0       1       1                               0D0000008
     192       5       0       0       0       0       0       000010000D0000009
     192       0       0       1       1                               0D0000010
     116       6       0       0       0       0       0       000010400D0000011
     116       0       0       1       0                               0D0000012
     123       7       0       0       0       0       0       000010200D0000013
     123       0       0       1       0                               0D0000014
     123       8       0       0       0       0       0       000010200D0000015
     123       0       0       1       0                               0D0000016
     508       9       0       0       0       0       0       000010000D0000017
     508       0       0       2       1                               0D0000018
     504      11       0       0       0       0       0       000010001D0000019
     504       0       0       2       1                               0D0000020
     110      13       0       0       0       0       0       000010000D0000021
     110       0       0       1       0                               0D0000022
     502      14       0       0       0       0       0       000010000D0000023
     502       0       0       1       1                               0D0000024
     100      15       0       0       0       0      27       000010000D0000025
     100       0       0       1       0                               0D0000026
     124      16       0       0       0       0       0       000000000D0000027
     124       0       0       1       0                               0D0000028
     100      17       0       0       0       0       0       000010000D0000029
     100       0       0       1       0                               0D0000030
     110      18       0       0       0       0       0       000010000D0000031
     110       0       0       1       0                               0D0000032
     100      19       0       0       0       0      35       000010000D0000033
     100       0       0       1       0                               0D0000034
     124      20       0       0       0       0       0       000000000D0000035
     124       0       0       1       0                               0D0000036
     100      21       0       0       0       0       0       000010000D0000037
     100       0       0       1       0                               0D0000038
     110      22       0       0       0       0       0       000010000D0000039
     110       0       0       1       0                               0D0000040
     110      23       0       0       0       0       0       000010000D0000041
     110       0       0       1       0                               0D0000042
     110      24       0       0       0       0       0       000010000D0000043
     110       0       0       1       0                               0D0000044
     110      25       0       0       0       0       0       000010000D0000045
     110       0       0       1       0                               0D0000046
     510      26       0       0       0       0       0       000010000D0000047
     510       0       0       1       1                               0D0000048
     192      27       0       0       0       0       0       000010000D0000049
     192       0       0       1       1                               0D0000050
     116      28       0       0       0       0       0       000010400D0000051
     116       0       0       1       0                               0D0000052
     123      29       0       0       0       0       0       000010200D0000053
     123       0       0       1       0                               0D0000054
     123      30       0       0       0       0       0       000010200D0000055
     123       0       0       1       0                               0D0000056
     508      31       0       0       0       0       0       000010000D0000057
     508       0       0       2       1                               0D0000058
     110      33       0       0       0       0       0       000010000D0000059
     110       0       0       1       0                               0D0000060
     110      34       0       0       0       0       0       000010000D0000061
     110       0       0       1       0                               0D0000062
     110      35       0       0       0       0       0       000010000D0000063
     110       0       0       1       0                               0D0000064
     110      36       0       0       0       0       0       000010000D0000065
     110       0       0       1       0                               0D0000066
     510      37       0       0       0       0       0       000010000D0000067
     510       0       0       1       1                               0D0000068
     190      38       0       0       0       0       0       000010000D0000069
     190       0       0       1       1                               0D0000070
     116      39       0       0       0       0       0       000010400D0000071
     116       0       0       1       0                               0D0000072
     123      40       0       0       0       0       0       000010200D0000073
     123       0       0       1       0                               0D0000074
     123      41       0       0       0       0       0       000010200D0000075
     123       0       0       1       0                               0D0000076
     508      42       0       0       0       0       0       000010000D0000077
     508       0       0       1       1                               0D0000078
     508      43       0       0       0       0       0       000010000D0000079
     508       0       0       1       1                               0D0000080
     510      44       0       0       0       0       0       000010000D0000081
     510       0       0       1       1                               0D0000082
     190      45       0       0       0       0       0       000010000D0000083
     190       0       0       1       1                               0D0000084
     116      46       0       0       0       0       0       000010400D0000085
     116       0       0       1       0                               0D0000086
     123      47       0       0       0       0       0       000010200D0000087
     123       0       0       1       0                               0D0000088
     123      48       0       0       0       0       0       000010200D0000089
     123       0       0       1       0                               0D0000090
     508      49       0       0       0       0       0       000010000D0000091
     508       0       0       1       1                               0D0000092
     508      50       0       0       0       0       0       000010000D0000093
     508       0       0       1       1                               0D0000094
402,1,3;                                                         0000001P0000001
186,5,1,0;                                                       0000003P0000002
514,4,7,1,47,0,67,1,81,0;                                        0000005P0000003
510,9,1,1,17;                                                    0000007P0000004
192,11,13,0.43,15;                                               0000009P0000005
116,0.,0.,0.,0;                                                  0000011P0000006
123,0.,0.,1.;                                                    0000013P0000007
123,1.,0.,0.;                                                    0000015P0000008
508,4,0,19,1,1,1,0,39,0,19,2,1,1,0,41,0,19,1,0,1,0,43,0,19,3,0,  0000017P0000009
1,0,45;                                                          0000017P0000010
504,6,21,23,1,23,2,25,23,2,23,2,29,23,1,23,1,31,23,3,23,4,33,23, 0000019P0000011
4,23,4,37,23,3,23,3;                                             0000019P0000012
110,0.43,0.,0.,0.43,0.,-20.;                                     0000021P0000013
502,4,0.43,0.,0.,0.43,0.,-20.,0.34,0.,0.,0.34,0.,-20.;           0000023P0000014
100,0.,0.,0.,0.43,0.,0.43,0.;                                    0000025P0000015
124,1.,0.,0.,0.,0.,1.,0.,0.,0.,0.,1.,-20.;                       0000027P0000016
100,0.,0.,0.,0.43,0.,0.43,0.;                                    0000029P0000017
110,0.34,0.,0.,0.34,0.,-20.;                                     0000031P0000018
100,0.,0.,0.,0.34,0.,0.34,0.;                                    0000033P0000019
124,1.,0.,0.,0.,0.,1.,0.,0.,0.,0.,1.,-20.;                       0000035P0000020
100,0.,0.,0.,0.34,0.,0.34,0.;                                    0000037P0000021
110,0.,0.,0.,0.,-20.,0.;                                         0000039P0000022
110,0.,-20.,0.,360.,-20.,0.;                                     0000041P0000023
110,360.,-20.,0.,360.,0.,0.;                                     0000043P0000024
110,360.,0.,0.,0.,0.,0.;                                         0000045P0000025
510,49,1,1,57;                                                   0000047P0000026
192,51,53,0.34,55;                                               0000049P0000027
116,0.,0.,0.,0;                                                  0000051P0000028
123,0.,0.,1.;                                                    0000053P0000029
123,1.,0.,0.;                                                    0000055P0000030
508,4,0,19,4,1,1,0,59,0,19,5,1,1,0,61,0,19,4,0,1,0,63,0,19,6,0,  0000057P0000031
1,0,65;                                                          0000057P0000032
110,0.,0.,0.,0.,-20.,0.;                                         0000059P0000033
110,0.,-20.,0.,360.,-20.,0.;                                     0000061P0000034
110,360.,-20.,0.,360.,0.,0.;                                     0000063P0000035
110,360.,0.,0.,0.,0.,0.;                                         0000065P0000036
510,69,2,1,77,79;                                                0000067P0000037
190,71,73,75;                                                    0000069P0000038
116,-1.E-17,1.E-17,0.,0;                                         0000071P0000039
123,0.,0.,1.;                                                    0000073P0000040
123,1.,0.,0.;                                                    0000075P0000041
508,1,0,19,3,1,0;                                                0000077P0000042
508,1,0,19,6,0,0;                                                0000079P0000043
510,83,2,1,91,93;                                                0000081P0000044
190,85,87,89;                                                    0000083P0000045
116,-1.E-17,1.E-17,-20.,0;                                       0000085P0000046
123,0.,0.,1.;                                                    0000087P0000047
123,1.,0.,0.;                                                    0000089P0000048
508,1,0,19,2,1,0;                                                0000091P0000049
508,1,0,19,5,0,0;                                                0000093P0000050
S      1G      4D     94P     50                                        T0000001
