                                                                        S0000001
,,31HOpen CASCADE IGES processor 7.5,13HFilename.iges,                  G0000001
16HOpen CASCADE 7.5,31HOpen CASCADE IGES processor 7.5,32,308,15,308,15,G0000002
,1.,2,2HMM,1,0.01,15H20220318.152536,1.16667E-07,55.093761,,,11,0,      G0000003
15H20220318.152536,;                                                    G0000004
     402       1       0       0       0       0       0       000000000D0000001
     402       0       0       1       1                               0D0000002
     186       2       0       0       0       0       0       000020000D0000003
     186       0       0       1       0                               0D0000004
     514       3       0       0       0       0       0       000010000D0000005
     514       0       0       2       1                               0D0000006
     510       5       0       0       0       0       0       000010000D0000007
     510       0       0       1       1                               0D0000008
     192       6       0       0       0       0       0       000010000D0000009
     192       0       0       1       1                               0D0000010
     116       7       0       0       0       0       0       000010400D0000011
     116       0       0       1       0                               0D0000012
     123       8       0       0       0       0       0       000010200D0000013
     123       0       0       1       0                               0D0000014
     123       9       0       0       0       0       0       000010200D0000015
     123       0       0       1       0                               0D0000016
     508      10       0       0       0       0       0       000010000D0000017
     508       0       0       2       1                               0D0000018
     504      12       0       0       0       0       0       000010001D0000019
     504       0       0       7       1                               0D0000020
     110      19       0       0       0       0       0       000010000D0000021
     110       0       0       1       0                               0D0000022
     502      20       0       0       0       0       0       000010000D0000023
     502       0       0       7       1                               0D0000024
     100      27       0       0       0       0      27       000010000D0000025
     100       0       0       1       0                               0D0000026
     124      28       0       0       0       0       0       000000000D0000027
     124       0       0       1       0                               0D0000028
     100      29       0       0       0       0       0       000010000D0000029
     100       0       0       1       0                               0D0000030
     100      30       0       0       0       0       0       000010000D0000031
     100       0       0       1       0                               0D0000032
     110      31       0       0       0       0       0       000010000D0000033
     110       0       0       1       0                               0D0000034
     110      32       0       0       0       0       0       000010000D0000035
     110       0       0       1       0                               0D0000036
     110      33       0       0       0       0       0       000010000D0000037
     110       0       0       1       0                               0D0000038
     110      34       0       0       0       0       0       000010000D0000039
     110       0       0       1       0                               0D0000040
     110      35       0       0       0       0       0       000010000D0000041
     110       0       0       1       0                               0D0000042
     100      36       0       0       0       0      45       000010000D0000043
     100       0       0       1       0                               0D0000044
     124      37       0       0       0       0       0       000000000D0000045
     124       0       0       1       0                               0D0000046
     110      38       0       0       0       0       0       000010000D0000047
     110       0       0       1       0                               0D0000048
     110      39       0       0       0       0       0       000010000D0000049
     110       0       0       1       0                               0D0000050
     110      40       0       0       0       0       0       000010000D0000051
     110       0       0       2       0                               0D0000052
     110      42       0       0       0       0       0       000010000D0000053
     110       0       0       1       0                               0D0000054
     110      43       0       0       0       0       0       000010000D0000055
     110       0       0       1       0                               0D0000056
     110      44       0       0       0       0       0       000010000D0000057
     110       0       0       1       0                               0D0000058
     110      45       0       0       0       0       0       000010000D0000059
     110       0       0       1       0                               0D0000060
     110      46       0       0       0       0       0       000010000D0000061
     110       0       0       1       0                               0D0000062
     110      47       0       0       0       0       0       000010000D0000063
     110       0       0       1       0                               0D0000064
     110      48       0       0       0       0       0       000010000D0000065
     110       0       0       1       0                               0D0000066
     110      49       0       0       0       0       0       000010000D0000067
     110       0       0       1       0                               0D0000068
     110      50       0       0       0       0       0       000010000D0000069
     110       0       0       1       0                               0D0000070
     100      51       0       0       0       0      73       000010000D0000071
     100       0       0       1       0                               0D0000072
     124      52       0       0       0       0       0       000000000D0000073
     124       0       0       1       0                               0D0000074
     110      53       0       0       0       0       0       000010000D0000075
     110       0       0       1       0                               0D0000076
     110      54       0       0       0       0       0       000010000D0000077
     110       0       0       2       0                               0D0000078
     110      56       0       0       0       0       0       000010000D0000079
     110       0       0       1       0                               0D0000080
     100      57       0       0       0       0      83       000010000D0000081
     100       0       0       1       0                               0D0000082
     124      58       0       0       0       0       0       000000000D0000083
     124       0       0       1       0                               0D0000084
     110      59       0       0       0       0       0       000010000D0000085
     110       0       0       1       0                               0D0000086
     110      60       0       0       0       0       0       000010000D0000087
     110       0       0       1       0                               0D0000088
     110      61       0       0       0       0       0       000010000D0000089
     110       0       0       1       0                               0D0000090
     110      62       0       0       0       0       0       000010000D0000091
     110       0       0       1       0                               0D0000092
     510      63       0       0       0       0       0       000010000D0000093
     510       0       0       1       1                               0D0000094
     190      64       0       0       0       0       0       000010000D0000095
     190       0       0       1       1                               0D0000096
     116      65       0       0       0       0       0       000010400D0000097
     116       0       0       1       0                               0D0000098
     123      66       0       0       0       0       0       000010200D0000099
     123       0       0       1       0                               0D0000100
     123      67       0       0       0       0       0       000010200D0000101
     123       0       0       1       0                               0D0000102
     508      68       0       0       0       0       0       000010000D0000103
     508       0       0       1       1                               0D0000104
     508      69       0       0       0       0       0       000010000D0000105
     508       0       0       1       1                               0D0000106
     510      70       0       0       0       0       0       000010000D0000107
     510       0       0       1       1                               0D0000108
     190      71       0       0       0       0       0       000010000D0000109
     190       0       0       1       1                               0D0000110
     116      72       0       0       0       0       0       000010400D0000111
     116       0       0       1       0                               0D0000112
     123      73       0       0       0       0       0       000010200D0000113
     123       0       0       1       0                               0D0000114
     123      74       0       0       0       0       0       000010200D0000115
     123       0       0       1       0                               0D0000116
     508      75       0       0       0       0       0       000010000D0000117
     508       0       0       1       1                               0D0000118
     508      76       0       0       0       0       0       000010000D0000119
     508       0       0       1       1                               0D0000120
     510      77       0       0       0       0       0       000010000D0000121
     510       0       0       1       1                               0D0000122
     192      78       0       0       0       0       0       000010000D0000123
     192       0       0       1       1                               0D0000124
     116      79       0       0       0       0       0       000010400D0000125
     116       0       0       1       0                               0D0000126
     123      80       0       0       0       0       0       000010200D0000127
     123       0       0       1       0                               0D0000128
     123      81       0       0       0       0       0       000010200D0000129
     123       0       0       1       0                               0D0000130
     508      82       0       0       0       0       0       000010000D0000131
     508       0       0       2       1                               0D0000132
     110      84       0       0       0       0       0       000010000D0000133
     110       0       0       1       0                               0D0000134
     110      85       0       0       0       0       0       000010000D0000135
     110       0       0       1       0                               0D0000136
     110      86       0       0       0       0       0       000010000D0000137
     110       0       0       1       0                               0D0000138
     110      87       0       0       0       0       0       000010000D0000139
     110       0       0       1       0                               0D0000140
     510      88       0       0       0       0       0       000010000D0000141
     510       0       0       1       1                               0D0000142
     190      89       0       0       0       0       0       000010000D0000143
     190       0       0       1       1                               0D0000144
     116      90       0       0       0       0       0       000010400D0000145
     116       0       0       1       0                               0D0000146
     123      91       0       0       0       0       0       000010200D0000147
     123       0       0       1       0                               0D0000148
     123      92       0       0       0       0       0       000010200D0000149
     123       0       0       1       0                               0D0000150
     508      93       0       0       0       0       0       000010000D0000151
     508       0       0       2       1                               0D0000152
     510      95       0       0       0       0       0       000010000D0000153
     510       0       0       1       1                               0D0000154
     190      96       0       0       0       0       0       000010000D0000155
     190       0       0       1       1                               0D0000156
     116      97       0       0       0       0       0       000010400D0000157
     116       0       0       1       0                               0D0000158
     123      98       0       0       0       0       0       000010200D0000159
     123       0       0       1       0                               0D0000160
     123      99       0       0       0       0       0       000010200D0000161
     123       0       0       1       0                               0D0000162
     508     100       0       0       0       0       0       000010000D0000163
     508       0       0       1       1                               0D0000164
     510     101       0       0       0       0       0       000010000D0000165
     510       0       0       1       1                               0D0000166
     190     102       0       0       0       0       0       000010000D0000167
     190       0       0       1       1                               0D0000168
     116     103       0       0       0       0       0       000010400D0000169
     116       0       0       1       0                               0D0000170
     123     104       0       0       0       0       0       000010200D0000171
     123       0       0       1       0                               0D0000172
     123     105       0       0       0       0       0       000010200D0000173
     123       0       0       1       0                               0D0000174
     508     106       0       0       0       0       0       000010000D0000175
     508       0       0       2       1                               0D0000176
     510     108       0       0       0       0       0       000010000D0000177
     510       0       0       1       1                               0D0000178
     190     109       0       0       0       0       0       000010000D0000179
     190       0       0       1       1                               0D0000180
     116     110       0       0       0       0       0       000010400D0000181
     116       0       0       1       0                               0D0000182
     123     111       0       0       0       0       0       000010200D0000183
     123       0       0       1       0                               0D0000184
     123     112       0       0       0       0       0       000010200D0000185
     123       0       0       1       0                               0D0000186
     508     113       0       0       0       0       0       000010000D0000187
     508       0       0       1       1                               0D0000188
     510     114       0       0       0       0       0       000010000D0000189
     510       0       0       1       1                               0D0000190
     190     115       0       0       0       0       0       000010000D0000191
     190       0       0       1       1                               0D0000192
     116     116       0       0       0       0       0       000010400D0000193
     116       0       0       1       0                               0D0000194
     123     117       0       0       0       0       0       000010200D0000195
     123       0       0       1       0                               0D0000196
     123     118       0       0       0       0       0       000010200D0000197
     123       0       0       1       0                               0D0000198
     508     119       0       0       0       0       0       000010000D0000199
     508       0       0       1       1                               0D0000200
     508     120       0       0       0       0       0       000010000D0000201
     508       0       0       1       1                               0D0000202
     510     121       0       0       0       0       0       000010000D0000203
     510       0       0       1       1                               0D0000204
     190     122       0       0       0       0       0       000010000D0000205
     190       0       0       1       1                               0D0000206
     116     123       0       0       0       0       0       000010400D0000207
     116       0       0       1       0                               0D0000208
     123     124       0       0       0       0       0       000010200D0000209
     123       0       0       1       0                               0D0000210
     123     125       0       0       0       0       0       000010200D0000211
     123       0       0       1       0                               0D0000212
     508     126       0       0       0       0       0       000010000D0000213
     508       0       0       1       1                               0D0000214
     510     127       0       0       0       0       0       000010000D0000215
     510       0       0       1       1                               0D0000216
     190     128       0       0       0       0       0       000010000D0000217
     190       0       0       1       1                               0D0000218
     116     129       0       0       0       0       0       000010400D0000219
     116       0       0       1       0                               0D0000220
     123     130       0       0       0       0       0       000010200D0000221
     123       0       0       1       0                               0D0000222
     123     131       0       0       0       0       0       000010200D0000223
     123       0       0       1       0                               0D0000224
     508     132       0       0       0       0       0       000010000D0000225
     508       0       0       1       1                               0D0000226
     510     133       0       0       0       0       0       000010000D0000227
     510       0       0       1       1                               0D0000228
     190     134       0       0       0       0       0       000010000D0000229
     190       0       0       1       1                               0D0000230
     116     135       0       0       0       0       0       000010400D0000231
     116       0       0       1       0                               0D0000232
     123     136       0       0       0       0       0       000010200D0000233
     123       0       0       1       0                               0D0000234
     123     137       0       0       0       0       0       000010200D0000235
     123       0       0       1       0                               0D0000236
     508     138       0       0       0       0       0       000010000D0000237
     508       0       0       1       1                               0D0000238
     510     139       0       0       0       0       0       000010000D0000239
     510       0       0       1       1                               0D0000240
     192     140       0       0       0       0       0       000010000D0000241
     192       0       0       1       1                               0D0000242
     116     141       0       0       0       0       0       000010400D0000243
     116       0       0       1       0                               0D0000244
     123     142       0       0       0       0       0       000010200D0000245
     123       0       0       1       0                               0D0000246
     123     143       0       0       0       0       0       000010200D0000247
     123       0       0       1       0                               0D0000248
     508     144       0       0       0       0       0       000010000D0000249
     508       0       0       2       1                               0D0000250
     110     146       0       0       0       0       0       000010000D0000251
     110       0       0       1       0                               0D0000252
     110     147       0       0       0       0       0       000010000D0000253
     110       0       0       1       0                               0D0000254
     110     148       0       0       0       0       0       000010000D0000255
     110       0       0       1       0                               0D0000256
     110     149       0       0       0       0       0       000010000D0000257
     110       0       0       1       0                               0D0000258
     510     150       0       0       0       0       0       000010000D0000259
     510       0       0       1       1                               0D0000260
     190     151       0       0       0       0       0       000010000D0000261
     190       0       0       1       1                               0D0000262
     116     152       0       0       0       0       0       000010400D0000263
     116       0       0       1       0                               0D0000264
     123     153       0       0       0       0       0       000010200D0000265
     123       0       0       1       0                               0D0000266
     123     154       0       0       0       0       0       000010200D0000267
     123       0       0       1       0                               0D0000268
     508     155       0       0       0       0       0       000010000D0000269
     508       0       0       1       1                               0D0000270
402,1,3;                                                         0000001P0000001
186,5,1,0;                                                       0000003P0000002
514,14,7,1,93,1,107,0,121,1,141,1,153,1,165,1,177,1,189,1,203,0, 0000005P0000003
215,0,227,0,239,1,259,1;                                         0000005P0000004
510,9,1,1,17;                                                    0000007P0000005
192,11,13,0.315,15;                                              0000009P0000006
116,0.,0.,0.,0;                                                  0000011P0000007
123,0.,0.,1.;                                                    0000013P0000008
123,1.,0.,0.;                                                    0000015P0000009
508,4,0,19,1,1,1,0,85,0,19,2,1,1,0,87,0,19,1,0,1,0,89,0,19,3,0,  0000017P0000010
1,0,91;                                                          0000017P0000011
504,27,21,23,1,23,2,25,23,2,23,2,29,23,1,23,1,31,23,3,23,3,33,   0000019P0000012
23,4,23,5,35,23,6,23,4,37,23,7,23,6,39,23,5,23,7,41,23,3,23,8,   0000019P0000013
43,23,8,23,8,47,23,4,23,9,49,23,10,23,9,51,23,10,23,11,53,23,12, 0000019P0000014
23,11,55,23,5,23,12,57,23,13,23,12,59,23,7,23,13,61,23,14,23,13, 0000019P0000015
63,23,14,23,15,65,23,16,23,15,67,23,6,23,16,69,23,9,23,16,71,23, 0000019P0000016
17,23,17,75,23,14,23,11,77,23,10,23,15,79,23,17,23,18,81,23,18,  0000019P0000017
23,18;                                                           0000019P0000018
110,0.315,0.,0.,0.315,0.,-5.;                                    0000021P0000019
502,18,0.315,0.,0.,0.315,0.,-5.,0.255,0.,0.,-0.1,-2.5E-02,-5.,   0000023P0000020
1.E-01,-2.5E-02,-5.,-0.1,2.5E-02,-5.,1.E-01,2.5E-02,-5.,0.255,   0000023P0000021
0.,1.,-0.1,-2.5E-02,-54.776153846,-1.181818182E-02,-2.5E-02,     0000023P0000022
-55.,1.181818182E-02,-2.5E-02,-55.,1.E-01,-2.5E-02,              0000023P0000023
-54.776153846,1.E-01,2.5E-02,-54.776153846,1.181818182E-02,      0000023P0000024
2.5E-02,-55.,-1.181818182E-02,2.5E-02,-55.,-0.1,2.5E-02,         0000023P0000025
-54.776153846,0.1,0.,1.,0.1,0.,10.;                              0000023P0000026
100,0.,0.,0.,0.315,0.,0.315,0.;                                  0000025P0000027
124,1.,0.,0.,0.,0.,1.,0.,0.,0.,0.,1.,-5.;                        0000027P0000028
100,0.,0.,0.,0.315,0.,0.315,0.;                                  0000029P0000029
100,0.,0.,0.,0.255,0.,0.255,0.;                                  0000031P0000030
110,-0.1,-2.5E-02,-5.,1.E-01,-2.5E-02,-5.;                       0000033P0000031
110,-0.1,2.5E-02,-5.,-0.1,-2.5E-02,-5.;                          0000035P0000032
110,1.E-01,2.5E-02,-5.,-0.1,2.5E-02,-5.;                         0000037P0000033
110,1.E-01,-2.5E-02,-5.,1.E-01,2.5E-02,-5.;                      0000039P0000034
110,0.255,0.,0.,0.255,0.,1.;                                     0000041P0000035
100,0.,0.,0.,0.255,0.,0.255,0.;                                  0000043P0000036
124,1.,0.,0.,0.,0.,1.,0.,0.,0.,0.,1.,1.;                         0000045P0000037
110,-0.1,-2.5E-02,-5.,-0.1,-2.5E-02,-54.776153846;               0000047P0000038
110,-1.181818182E-02,-2.5E-02,-55.,-0.1,-2.5E-02,-54.776153846;  0000049P0000039
110,-1.181818182E-02,-2.5E-02,-55.,1.181818182E-02,-2.5E-02,     0000051P0000040
-55.;                                                            0000051P0000041
110,0.1,-2.5E-02,-54.776153846,1.181818182E-02,-2.5E-02,-55.;    0000053P0000042
110,1.E-01,-2.5E-02,-5.,1.E-01,-2.5E-02,-54.776153846;           0000055P0000043
110,1.E-01,2.5E-02,-54.776153846,1.E-01,-2.5E-02,-54.776153846;  0000057P0000044
110,1.E-01,2.5E-02,-5.,1.E-01,2.5E-02,-54.776153846;             0000059P0000045
110,1.181818182E-02,2.5E-02,-55.,1.E-01,2.5E-02,-54.776153846;   0000061P0000046
110,1.181818182E-02,2.5E-02,-55.,-1.181818182E-02,2.5E-02,-55.;  0000063P0000047
110,-0.1,2.5E-02,-54.776153846,-1.181818182E-02,2.5E-02,-55.;    0000065P0000048
110,-0.1,2.5E-02,-5.,-0.1,2.5E-02,-54.776153846;                 0000067P0000049
110,-0.1,-2.5E-02,-54.776153846,-0.1,2.5E-02,-54.776153846;      0000069P0000050
100,0.,0.,0.,0.1,0.,0.1,0.;                                      0000071P0000051
124,1.,0.,0.,0.,0.,1.,0.,0.,0.,0.,1.,1.;                         0000073P0000052
110,1.181818182E-02,2.5E-02,-55.,1.181818182E-02,-2.5E-02,-55.;  0000075P0000053
110,-1.181818182E-02,-2.5E-02,-55.,-1.181818182E-02,2.5E-02,     0000077P0000054
-55.;                                                            0000077P0000055
110,0.1,0.,1.,0.1,0.,10.;                                        0000079P0000056
100,0.,0.,0.,0.1,0.,0.1,0.;                                      0000081P0000057
124,1.,0.,0.,0.,0.,1.,0.,0.,0.,0.,1.,10.;                        0000083P0000058
110,0.,0.,0.,0.,-5.,0.;                                          0000085P0000059
110,0.,-5.,0.,360.,-5.,0.;                                       0000087P0000060
110,360.,-5.,0.,360.,0.,0.;                                      0000089P0000061
110,360.,0.,0.,0.,0.,0.;                                         0000091P0000062
510,95,2,1,103,105;                                              0000093P0000063
190,97,99,101;                                                   0000095P0000064
116,-8.478671457E-18,2.105589444E-17,0.,0;                       0000097P0000065
123,0.,0.,1.;                                                    0000099P0000066
123,1.,0.,0.;                                                    0000101P0000067
508,1,0,19,3,1,0;                                                0000103P0000068
508,1,0,19,4,0,0;                                                0000105P0000069
510,109,2,1,117,119;                                             0000107P0000070
190,111,113,115;                                                 0000109P0000071
116,-8.478671457E-18,2.105589444E-17,-5.,0;                      0000111P0000072
123,0.,0.,1.;                                                    0000113P0000073
123,1.,0.,0.;                                                    0000115P0000074
508,1,0,19,2,1,0;                                                0000117P0000075
508,4,0,19,5,0,0,0,19,6,0,0,0,19,7,0,0,0,19,8,0,0;               0000119P0000076
510,123,1,1,131;                                                 0000121P0000077
192,125,127,0.255,129;                                           0000123P0000078
116,0.,0.,0.,0;                                                  0000125P0000079
123,-0.,-0.,-1.;                                                 0000127P0000080
123,1.,0.,0.;                                                    0000129P0000081
508,4,0,19,9,0,1,0,133,0,19,4,1,1,0,135,0,19,9,1,1,0,137,0,19,   0000131P0000082
10,0,1,0,139;                                                    0000131P0000083
110,0.,-1.,0.,0.,0.,0.;                                          0000133P0000084
110,0.,0.,0.,-360.,0.,0.;                                        0000135P0000085
110,-360.,0.,0.,-360.,-1.,0.;                                    0000137P0000086
110,-360.,-1.,0.,0.,-1.,0.;                                      0000139P0000087
510,143,1,1,151;                                                 0000141P0000088
190,145,147,149;                                                 0000143P0000089
116,-0.1,-2.5E-02,-5.,0;                                         0000145P0000090
123,0.,-1.,0.;                                                   0000147P0000091
123,1.,0.,0.;                                                    0000149P0000092
508,6,0,19,5,0,0,0,19,11,1,0,0,19,12,0,0,0,19,13,1,0,0,19,14,0,  0000151P0000093
0,0,19,15,0,0;                                                   0000151P0000094
510,155,1,1,163;                                                 0000153P0000095
190,157,159,161;                                                 0000155P0000096
116,1.E-01,-2.5E-02,-5.,0;                                       0000157P0000097
123,1.,0.,0.;                                                    0000159P0000098
123,0.,1.,0.;                                                    0000161P0000099
508,4,0,19,8,0,0,0,19,15,1,0,0,19,16,0,0,0,19,17,0,0;            0000163P0000100
510,167,1,1,175;                                                 0000165P0000101
190,169,171,173;                                                 0000167P0000102
116,1.E-01,2.5E-02,-5.,0;                                        0000169P0000103
123,0.,1.,0.;                                                    0000171P0000104
123,-1.,0.,0.;                                                   0000173P0000105
508,6,0,19,7,0,0,0,19,17,1,0,0,19,18,0,0,0,19,19,1,0,0,19,20,0,  0000175P0000106
0,0,19,21,0,0;                                                   0000175P0000107
510,179,1,1,187;                                                 0000177P0000108
190,181,183,185;                                                 0000179P0000109
116,-0.1,2.5E-02,-5.,0;                                          0000181P0000110
123,-1.,-0.,-0.;                                                 0000183P0000111
123,0.,-1.,0.;                                                   0000185P0000112
508,4,0,19,6,0,0,0,19,21,1,0,0,19,22,0,0,0,19,11,0,0;            0000187P0000113
510,191,2,1,199,201;                                             0000189P0000114
190,193,195,197;                                                 0000191P0000115
116,-5.236826488E-18,1.053780816E-17,1.,0;                       0000193P0000116
123,0.,0.,1.;                                                    0000195P0000117
123,1.,0.,0.;                                                    0000197P0000118
508,1,0,19,10,1,0;                                               0000199P0000119
508,1,0,19,23,0,0;                                               0000201P0000120
510,205,1,1,213;                                                 0000203P0000121
190,207,209,211;                                                 0000205P0000122
116,0.13,-2.5E-02,-54.7,0;                                       0000207P0000123
123,-0.930408393,8.138479188E-17,0.366524518;                    0000209P0000124
123,-0.366524518,-2.06592164E-16,-0.930408393;                   0000211P0000125
508,4,0,19,14,0,0,0,19,16,0,0,0,19,18,0,0,0,19,24,1,0;           0000213P0000126
510,217,1,1,225;                                                 0000215P0000127
190,219,221,223;                                                 0000217P0000128
116,-1.804112415E-16,9.597357631E-16,-55.,0;                     0000219P0000129
123,1.924390591E-47,-4.437342592E-30,1.;                         0000221P0000130
123,0.,1.,4.437342592E-30;                                       0000223P0000131
508,4,0,19,25,0,0,0,19,13,1,0,0,19,24,0,0,0,19,19,1,0;           0000225P0000132
510,229,1,1,237;                                                 0000227P0000133
190,231,233,235;                                                 0000229P0000134
116,0.,-2.5E-02,-55.03,0;                                        0000231P0000135
123,0.930408393,8.138479188E-17,0.366524518;                     0000233P0000136
123,-0.366524518,2.06592164E-16,0.930408393;                     0000235P0000137
508,4,0,19,12,0,0,0,19,25,1,0,0,19,20,0,0,0,19,22,0,0;           0000237P0000138
510,241,1,1,249;                                                 0000239P0000139
192,243,245,0.1,247;                                             0000241P0000140
116,0.,0.,1.,0;                                                  0000243P0000141
123,-0.,-0.,-1.;                                                 0000245P0000142
123,1.,0.,0.;                                                    0000247P0000143
508,4,0,19,26,0,1,0,251,0,19,23,1,1,0,253,0,19,26,1,1,0,255,0,   0000249P0000144
19,27,0,1,0,257;                                                 0000249P0000145
110,0.,-9.,0.,0.,0.,0.;                                          0000251P0000146
110,0.,0.,0.,-360.,0.,0.;                                        0000253P0000147
110,-360.,0.,0.,-360.,-9.,0.;                                    0000255P0000148
110,-360.,-9.,0.,0.,-9.,0.;                                      0000257P0000149
510,261,1,1,269;                                                 0000259P0000150
190,263,265,267;                                                 0000261P0000151
116,-3.338476886E-18,9.271751547E-18,10.,0;                      0000263P0000152
123,0.,0.,1.;                                                    0000265P0000153
123,1.,0.,0.;                                                    0000267P0000154
508,1,0,19,27,1,0;                                               0000269P0000155
S      1G      4D    270P    155                                        T0000001
