                                                                        S0000001
,,31HOpen CASCADE IGES processor 7.5,13HFilename.iges,                  G0000001
16HOpen CASCADE 7.5,31HOpen CASCADE IGES processor 7.5,32,308,15,308,15,G0000002
,1.,2,2HMM,1,0.01,15H20220318.152536,1E-07,11.07125,,,11,0,             G0000003
15H20220318.152536,;                                                    G0000004
     402       1       0       0       0       0       0       000000000D0000001
     402       0       0       1       1                               0D0000002
     186       2       0       0       0       0       0       000020000D0000003
     186       0       0       1       0                               0D0000004
     514       3       0       0       0       0       0       000010000D0000005
     514       0       0       2       1                               0D0000006
     510       5       0       0       0       0       0       000010000D0000007
     510       0       0       1       1                               0D0000008
     190       6       0       0       0       0       0       000010000D0000009
     190       0       0       1       1                               0D0000010
     116       7       0       0       0       0       0       000010400D0000011
     116       0       0       1       0                               0D0000012
     123       8       0       0       0       0       0       000010200D0000013
     123       0       0       1       0                               0D0000014
     123       9       0       0       0       0       0       000010200D0000015
     123       0       0       1       0                               0D0000016
     508      10       0       0       0       0       0       000010000D0000017
     508       0       0       1       1                               0D0000018
     504      11       0       0       0       0       0       000010001D0000019
     504       0       0      11       1                               0D0000020
     110      22       0       0       0       0       0       000010000D0000021
     110       0       0       1       0                               0D0000022
     502      23       0       0       0       0       0       000010000D0000023
     502       0       0      10       1                               0D0000024
     110      33       0       0       0       0       0       000010000D0000025
     110       0       0       1       0                               0D0000026
     110      34       0       0       0       0       0       000010000D0000027
     110       0       0       1       0                               0D0000028
     110      35       0       0       0       0       0       000010000D0000029
     110       0       0       1       0                               0D0000030
     110      36       0       0       0       0       0       000010000D0000031
     110       0       0       1       0                               0D0000032
     110      37       0       0       0       0       0       000010000D0000033
     110       0       0       1       0                               0D0000034
     110      38       0       0       0       0       0       000010000D0000035
     110       0       0       1       0                               0D0000036
     110      39       0       0       0       0       0       000010000D0000037
     110       0       0       1       0                               0D0000038
     110      40       0       0       0       0       0       000010000D0000039
     110       0       0       1       0                               0D0000040
     110      41       0       0       0       0       0       000010000D0000041
     110       0       0       1       0                               0D0000042
     110      42       0       0       0       0       0       000010000D0000043
     110       0       0       1       0                               0D0000044
     110      43       0       0       0       0       0       000010000D0000045
     110       0       0       1       0                               0D0000046
     110      44       0       0       0       0       0       000010000D0000047
     110       0       0       1       0                               0D0000048
     110      45       0       0       0       0       0       000010000D0000049
     110       0       0       1       0                               0D0000050
     110      46       0       0       0       0       0       000010000D0000051
     110       0       0       1       0                               0D0000052
     110      47       0       0       0       0       0       000010000D0000053
     110       0       0       1       0                               0D0000054
     110      48       0       0       0       0       0       000010000D0000055
     110       0       0       1       0                               0D0000056
     110      49       0       0       0       0       0       000010000D0000057
     110       0       0       1       0                               0D0000058
     110      50       0       0       0       0       0       000010000D0000059
     110       0       0       1       0                               0D0000060
     110      51       0       0       0       0       0       000010000D0000061
     110       0       0       1       0                               0D0000062
     110      52       0       0       0       0       0       000010000D0000063
     110       0       0       1       0                               0D0000064
     110      53       0       0       0       0       0       000010000D0000065
     110       0       0       1       0                               0D0000066
     110      54       0       0       0       0       0       000010000D0000067
     110       0       0       1       0                               0D0000068
     110      55       0       0       0       0       0       000010000D0000069
     110       0       0       1       0                               0D0000070
     110      56       0       0       0       0       0       000010000D0000071
     110       0       0       1       0                               0D0000072
     110      57       0       0       0       0       0       000010000D0000073
     110       0       0       1       0                               0D0000074
     110      58       0       0       0       0       0       000010000D0000075
     110       0       0       1       0                               0D0000076
     110      59       0       0       0       0       0       000010000D0000077
     110       0       0       1       0                               0D0000078
     110      60       0       0       0       0       0       000010000D0000079
     110       0       0       1       0                               0D0000080
     110      61       0       0       0       0       0       000010000D0000081
     110       0       0       1       0                               0D0000082
     110      62       0       0       0       0       0       000010000D0000083
     110       0       0       1       0                               0D0000084
     110      63       0       0       0       0       0       000010000D0000085
     110       0       0       1       0                               0D0000086
     110      64       0       0       0       0       0       000010000D0000087
     110       0       0       1       0                               0D0000088
     110      65       0       0       0       0       0       000010000D0000089
     110       0       0       1       0                               0D0000090
     110      66       0       0       0       0       0       000010000D0000091
     110       0       0       1       0                               0D0000092
     110      67       0       0       0       0       0       000010000D0000093
     110       0       0       1       0                               0D0000094
     110      68       0       0       0       0       0       000010000D0000095
     110       0       0       1       0                               0D0000096
     100      69       0       0       0       0      99       000010000D0000097
     100       0       0       1       0                               0D0000098
     124      70       0       0       0       0       0       000000000D0000099
     124       0       0       2       0                               0D0000100
     100      72       0       0       0       0     103       000010000D0000101
     100       0       0       1       0                               0D0000102
     124      73       0       0       0       0       0       000000000D0000103
     124       0       0       2       0                               0D0000104
     110      75       0       0       0       0       0       000010000D0000105
     110       0       0       1       0                               0D0000106
     100      76       0       0       0       0     109       000010000D0000107
     100       0       0       1       0                               0D0000108
     124      77       0       0       0       0       0       000000000D0000109
     124       0       0       2       0                               0D0000110
     100      79       0       0       0       0     113       000010000D0000111
     100       0       0       1       0                               0D0000112
     124      80       0       0       0       0       0       000000000D0000113
     124       0       0       2       0                               0D0000114
     110      82       0       0       0       0       0       000010000D0000115
     110       0       0       1       0                               0D0000116
     100      83       0       0       0       0     119       000010000D0000117
     100       0       0       1       0                               0D0000118
     124      84       0       0       0       0       0       000000000D0000119
     124       0       0       2       0                               0D0000120
     100      86       0       0       0       0     123       000010000D0000121
     100       0       0       1       0                               0D0000122
     124      87       0       0       0       0       0       000000000D0000123
     124       0       0       2       0                               0D0000124
     510      89       0       0       0       0       0       000010000D0000125
     510       0       0       1       1                               0D0000126
     190      90       0       0       0       0       0       000010000D0000127
     190       0       0       1       1                               0D0000128
     116      91       0       0       0       0       0       000010400D0000129
     116       0       0       1       0                               0D0000130
     123      92       0       0       0       0       0       000010200D0000131
     123       0       0       1       0                               0D0000132
     123      93       0       0       0       0       0       000010200D0000133
     123       0       0       1       0                               0D0000134
     508      94       0       0       0       0       0       000010000D0000135
     508       0       0       1       1                               0D0000136
     510      95       0       0       0       0       0       000010000D0000137
     510       0       0       1       1                               0D0000138
     190      96       0       0       0       0       0       000010000D0000139
     190       0       0       1       1                               0D0000140
     116      97       0       0       0       0       0       000010400D0000141
     116       0       0       1       0                               0D0000142
     123      98       0       0       0       0       0       000010200D0000143
     123       0       0       1       0                               0D0000144
     123      99       0       0       0       0       0       000010200D0000145
     123       0       0       1       0                               0D0000146
     508     100       0       0       0       0       0       000010000D0000147
     508       0       0       1       1                               0D0000148
     510     101       0       0       0       0       0       000010000D0000149
     510       0       0       1       1                               0D0000150
     190     102       0       0       0       0       0       000010000D0000151
     190       0       0       1       1                               0D0000152
     116     103       0       0       0       0       0       000010400D0000153
     116       0       0       1       0                               0D0000154
     123     104       0       0       0       0       0       000010200D0000155
     123       0       0       1       0                               0D0000156
     123     105       0       0       0       0       0       000010200D0000157
     123       0       0       1       0                               0D0000158
     508     106       0       0       0       0       0       000010000D0000159
     508       0       0       1       1                               0D0000160
     510     107       0       0       0       0       0       000010000D0000161
     510       0       0       1       1                               0D0000162
     190     108       0       0       0       0       0       000010000D0000163
     190       0       0       1       1                               0D0000164
     116     109       0       0       0       0       0       000010400D0000165
     116       0       0       1       0                               0D0000166
     123     110       0       0       0       0       0       000010200D0000167
     123       0       0       1       0                               0D0000168
     123     111       0       0       0       0       0       000010200D0000169
     123       0       0       1       0                               0D0000170
     508     112       0       0       0       0       0       000010000D0000171
     508       0       0       1       1                               0D0000172
     510     113       0       0       0       0       0       000010000D0000173
     510       0       0       1       1                               0D0000174
     190     114       0       0       0       0       0       000010000D0000175
     190       0       0       1       1                               0D0000176
     116     115       0       0       0       0       0       000010400D0000177
     116       0       0       1       0                               0D0000178
     123     116       0       0       0       0       0       000010200D0000179
     123       0       0       1       0                               0D0000180
     123     117       0       0       0       0       0       000010200D0000181
     123       0       0       1       0                               0D0000182
     508     118       0       0       0       0       0       000010000D0000183
     508       0       0       1       1                               0D0000184
     510     119       0       0       0       0       0       000010000D0000185
     510       0       0       1       1                               0D0000186
     190     120       0       0       0       0       0       000010000D0000187
     190       0       0       1       1                               0D0000188
     116     121       0       0       0       0       0       000010400D0000189
     116       0       0       1       0                               0D0000190
     123     122       0       0       0       0       0       000010200D0000191
     123       0       0       1       0                               0D0000192
     123     123       0       0       0       0       0       000010200D0000193
     123       0       0       1       0                               0D0000194
     508     124       0       0       0       0       0       000010000D0000195
     508       0       0       1       1                               0D0000196
     510     125       0       0       0       0       0       000010000D0000197
     510       0       0       1       1                               0D0000198
     190     126       0       0       0       0       0       000010000D0000199
     190       0       0       1       1                               0D0000200
     116     127       0       0       0       0       0       000010400D0000201
     116       0       0       1       0                               0D0000202
     123     128       0       0       0       0       0       000010200D0000203
     123       0       0       1       0                               0D0000204
     123     129       0       0       0       0       0       000010200D0000205
     123       0       0       1       0                               0D0000206
     508     130       0       0       0       0       0       000010000D0000207
     508       0       0       1       1                               0D0000208
     510     131       0       0       0       0       0       000010000D0000209
     510       0       0       1       1                               0D0000210
     190     132       0       0       0       0       0       000010000D0000211
     190       0       0       1       1                               0D0000212
     116     133       0       0       0       0       0       000010400D0000213
     116       0       0       1       0                               0D0000214
     123     134       0       0       0       0       0       000010200D0000215
     123       0       0       1       0                               0D0000216
     123     135       0       0       0       0       0       000010200D0000217
     123       0       0       1       0                               0D0000218
     508     136       0       0       0       0       0       000010000D0000219
     508       0       0       1       1                               0D0000220
     510     137       0       0       0       0       0       000010000D0000221
     510       0       0       1       1                               0D0000222
     190     138       0       0       0       0       0       000010000D0000223
     190       0       0       1       1                               0D0000224
     116     139       0       0       0       0       0       000010400D0000225
     116       0       0       1       0                               0D0000226
     123     140       0       0       0       0       0       000010200D0000227
     123       0       0       1       0                               0D0000228
     123     141       0       0       0       0       0       000010200D0000229
     123       0       0       1       0                               0D0000230
     508     142       0       0       0       0       0       000010000D0000231
     508       0       0       1       1                               0D0000232
     510     143       0       0       0       0       0       000010000D0000233
     510       0       0       1       1                               0D0000234
     190     144       0       0       0       0       0       000010000D0000235
     190       0       0       1       1                               0D0000236
     116     145       0       0       0       0       0       000010400D0000237
     116       0       0       1       0                               0D0000238
     123     146       0       0       0       0       0       000010200D0000239
     123       0       0       1       0                               0D0000240
     123     147       0       0       0       0       0       000010200D0000241
     123       0       0       1       0                               0D0000242
     508     148       0       0       0       0       0       000010000D0000243
     508       0       0       1       1                               0D0000244
     510     149       0       0       0       0       0       000010000D0000245
     510       0       0       1       1                               0D0000246
     190     150       0       0       0       0       0       000010000D0000247
     190       0       0       1       1                               0D0000248
     116     151       0       0       0       0       0       000010400D0000249
     116       0       0       1       0                               0D0000250
     123     152       0       0       0       0       0       000010200D0000251
     123       0       0       1       0                               0D0000252
     123     153       0       0       0       0       0       000010200D0000253
     123       0       0       1       0                               0D0000254
     508     154       0       0       0       0       0       000010000D0000255
     508       0       0       1       1                               0D0000256
     510     155       0       0       0       0       0       000010000D0000257
     510       0       0       1       1                               0D0000258
     192     156       0       0       0       0       0       000010000D0000259
     192       0       0       1       1                               0D0000260
     116     157       0       0       0       0       0       000010400D0000261
     116       0       0       1       0                               0D0000262
     123     158       0       0       0       0       0       000010200D0000263
     123       0       0       1       0                               0D0000264
     123     159       0       0       0       0       0       000010200D0000265
     123       0       0       1       0                               0D0000266
     508     160       0       0       0       0       0       000010000D0000267
     508       0       0       2       1                               0D0000268
     110     162       0       0       0       0       0       000010000D0000269
     110       0       0       1       0                               0D0000270
     110     163       0       0       0       0       0       000010000D0000271
     110       0       0       1       0                               0D0000272
     110     164       0       0       0       0       0       000010000D0000273
     110       0       0       1       0                               0D0000274
     110     165       0       0       0       0       0       000010000D0000275
     110       0       0       1       0                               0D0000276
     510     166       0       0       0       0       0       000010000D0000277
     510       0       0       1       1                               0D0000278
     192     167       0       0       0       0       0       000010000D0000279
     192       0       0       1       1                               0D0000280
     116     168       0       0       0       0       0       000010400D0000281
     116       0       0       1       0                               0D0000282
     123     169       0       0       0       0       0       000010200D0000283
     123       0       0       1       0                               0D0000284
     123     170       0       0       0       0       0       000010200D0000285
     123       0       0       1       0                               0D0000286
     508     171       0       0       0       0       0       000010000D0000287
     508       0       0       2       1                               0D0000288
     110     173       0       0       0       0       0       000010000D0000289
     110       0       0       1       0                               0D0000290
     110     174       0       0       0       0       0       000010000D0000291
     110       0       0       1       0                               0D0000292
     110     175       0       0       0       0       0       000010000D0000293
     110       0       0       1       0                               0D0000294
     110     176       0       0       0       0       0       000010000D0000295
     110       0       0       1       0                               0D0000296
     510     177       0       0       0       0       0       000010000D0000297
     510       0       0       1       1                               0D0000298
     192     178       0       0       0       0       0       000010000D0000299
     192       0       0       1       1                               0D0000300
     116     179       0       0       0       0       0       000010400D0000301
     116       0       0       1       0                               0D0000302
     123     180       0       0       0       0       0       000010200D0000303
     123       0       0       1       0                               0D0000304
     123     181       0       0       0       0       0       000010200D0000305
     123       0       0       1       0                               0D0000306
     508     182       0       0       0       0       0       000010000D0000307
     508       0       0       2       1                               0D0000308
     110     184       0       0       0       0       0       000010000D0000309
     110       0       0       1       0                               0D0000310
     110     185       0       0       0       0       0       000010000D0000311
     110       0       0       1       0                               0D0000312
     110     186       0       0       0       0       0       000010000D0000313
     110       0       0       1       0                               0D0000314
     110     187       0       0       0       0       0       000010000D0000315
     110       0       0       1       0                               0D0000316
     510     188       0       0       0       0       0       000010000D0000317
     510       0       0       1       1                               0D0000318
     190     189       0       0       0       0       0       000010000D0000319
     190       0       0       1       1                               0D0000320
     116     190       0       0       0       0       0       000010400D0000321
     116       0       0       1       0                               0D0000322
     123     191       0       0       0       0       0       000010200D0000323
     123       0       0       1       0                               0D0000324
     123     192       0       0       0       0       0       000010200D0000325
     123       0       0       1       0                               0D0000326
     508     193       0       0       0       0       0       000010000D0000327
     508       0       0       3       1                               0D0000328
     508     196       0       0       0       0       0       000010000D0000329
     508       0       0       1       1                               0D0000330
     508     197       0       0       0       0       0       000010000D0000331
     508       0       0       1       1                               0D0000332
     508     198       0       0       0       0       0       000010000D0000333
     508       0       0       1       1                               0D0000334
     510     199       0       0       0       0       0       000010000D0000335
     510       0       0       1       1                               0D0000336
     190     200       0       0       0       0       0       000010000D0000337
     190       0       0       1       1                               0D0000338
     116     201       0       0       0       0       0       000010400D0000339
     116       0       0       1       0                               0D0000340
     123     202       0       0       0       0       0       000010200D0000341
     123       0       0       1       0                               0D0000342
     123     203       0       0       0       0       0       000010200D0000343
     123       0       0       1       0                               0D0000344
     508     204       0       0       0       0       0       000010000D0000345
     508       0       0       3       1                               0D0000346
     508     207       0       0       0       0       0       000010000D0000347
     508       0       0       1       1                               0D0000348
     508     208       0       0       0       0       0       000010000D0000349
     508       0       0       1       1                               0D0000350
     508     209       0       0       0       0       0       000010000D0000351
     508       0       0       1       1                               0D0000352
402,1,3;                                                         0000001P0000001
186,5,0,0;                                                       0000003P0000002
514,17,7,1,125,1,137,1,149,1,161,1,173,1,185,1,197,1,209,1,221,  0000005P0000003
0,233,1,245,0,257,1,277,1,297,1,317,1,335,0;                     0000005P0000004
510,9,1,1,17;                                                    0000007P0000005
190,11,13,15;                                                    0000009P0000006
116,8.5,6.661338148E-15,10.,0;                                   0000011P0000007
123,0.,-6.661338148E-16,-1.;                                     0000013P0000008
123,-1.,0.,0.;                                                   0000015P0000009
508,4,0,19,1,1,0,0,19,2,1,0,0,19,3,0,0,0,19,4,0,0;               0000017P0000010
504,45,21,23,1,23,2,25,23,2,23,3,27,23,4,23,3,29,23,1,23,4,31,   0000019P0000011
23,3,23,5,33,23,6,23,5,35,23,4,23,6,37,23,5,23,7,39,23,8,23,7,   0000019P0000012
41,23,6,23,8,43,23,7,23,9,45,23,10,23,9,47,23,8,23,10,49,23,9,   0000019P0000013
23,11,51,23,12,23,11,53,23,10,23,12,55,23,11,23,13,57,23,14,23,  0000019P0000014
13,59,23,12,23,14,61,23,13,23,15,63,23,16,23,15,65,23,14,23,16,  0000019P0000015
67,23,15,23,17,69,23,18,23,17,71,23,16,23,18,73,23,17,23,19,75,  0000019P0000016
23,20,23,19,77,23,18,23,20,79,23,21,23,22,81,23,22,23,19,83,23,  0000019P0000017
21,23,20,85,23,22,23,23,87,23,24,23,23,89,23,21,23,24,91,23,2,   0000019P0000018
23,23,93,23,1,23,24,95,23,25,23,26,97,23,25,23,25,101,23,26,23,  0000019P0000019
26,105,23,27,23,28,107,23,27,23,27,111,23,28,23,28,115,23,29,23, 0000019P0000020
30,117,23,29,23,29,121,23,30,23,30;                              0000019P0000021
110,8.5,6.661338148E-15,10.,8.5,-0.75,10.;                       0000021P0000022
502,30,8.5,6.661338148E-15,10.,8.5,-0.75,10.,-8.5,-0.75,10.,     0000023P0000023
-8.5,6.661338148E-15,10.,-10.,-0.75,8.5,-10.,5.662137426E-15,    0000023P0000024
8.5,-10.,-0.75,2.,-10.,1.33226763E-15,2.,-10.5,-0.75,1.5,-10.5,  0000023P0000025
9.992007222E-16,1.5,-10.5,-0.75,-10.,-10.5,-6.661338148E-15,     0000023P0000026
-10.,-9.5,-0.75,-11.,-9.5,-7.327471963E-15,-11.,9.5,-0.75,-11.,  0000023P0000027
9.5,-7.327471963E-15,-11.,10.5,-0.75,-10.,10.5,-6.661338148E-15, 0000023P0000028
-10.,10.5,-0.75,1.5,10.5,9.992007222E-16,1.5,10.,1.33226763E-15, 0000023P0000029
2.,10.,-0.75,2.,10.,-0.75,8.5,10.,5.662137426E-15,8.5,0.865,0.,  0000023P0000030
0.,0.865,-0.75,4.996003611E-16,5.35,0.,0.,5.35,-0.75,            0000023P0000031
4.996003611E-16,-4.65,0.,0.,-4.65,-0.75,4.996003611E-16;         0000023P0000032
110,8.5,-0.75,10.,-8.5,-0.75,10.;                                0000025P0000033
110,-8.5,6.661338148E-15,10.,-8.5,-0.75,10.;                     0000027P0000034
110,8.5,6.661338148E-15,10.,-8.5,6.661338148E-15,10.;            0000029P0000035
110,-8.5,-0.75,10.,-10.,-0.75,8.5;                               0000031P0000036
110,-10.,5.662137426E-15,8.5,-10.,-0.75,8.5;                     0000033P0000037
110,-8.5,6.661338148E-15,10.,-10.,5.662137426E-15,8.5;           0000035P0000038
110,-10.,-0.75,8.5,-10.,-0.75,2.;                                0000037P0000039
110,-10.,1.33226763E-15,2.,-10.,-0.75,2.;                        0000039P0000040
110,-10.,5.662137426E-15,8.5,-10.,1.33226763E-15,2.;             0000041P0000041
110,-10.,-0.75,2.,-10.5,-0.75,1.5;                               0000043P0000042
110,-10.5,9.992007222E-16,1.5,-10.5,-0.75,1.5;                   0000045P0000043
110,-10.,1.33226763E-15,2.,-10.5,9.992007222E-16,1.5;            0000047P0000044
110,-10.5,-0.75,1.5,-10.5,-0.75,-10.;                            0000049P0000045
110,-10.5,-6.661338148E-15,-10.,-10.5,-0.75,-10.;                0000051P0000046
110,-10.5,9.992007222E-16,1.5,-10.5,-6.661338148E-15,-10.;       0000053P0000047
110,-10.5,-0.75,-10.,-9.5,-0.75,-11.;                            0000055P0000048
110,-9.5,-7.327471963E-15,-11.,-9.5,-0.75,-11.;                  0000057P0000049
110,-10.5,-6.661338148E-15,-10.,-9.5,-7.327471963E-15,-11.;      0000059P0000050
110,-9.5,-0.75,-11.,9.5,-0.75,-11.;                              0000061P0000051
110,9.5,-7.327471963E-15,-11.,9.5,-0.75,-11.;                    0000063P0000052
110,-9.5,-7.327471963E-15,-11.,9.5,-7.327471963E-15,-11.;        0000065P0000053
110,9.5,-0.75,-11.,10.5,-0.75,-10.;                              0000067P0000054
110,10.5,-6.661338148E-15,-10.,10.5,-0.75,-10.;                  0000069P0000055
110,9.5,-7.327471963E-15,-11.,10.5,-6.661338148E-15,-10.;        0000071P0000056
110,10.5,-0.75,-10.,10.5,-0.75,1.5;                              0000073P0000057
110,10.5,9.992007222E-16,1.5,10.5,-0.75,1.5;                     0000075P0000058
110,10.5,-6.661338148E-15,-10.,10.5,9.992007222E-16,1.5;         0000077P0000059
110,10.,1.33226763E-15,2.,10.,-0.75,2.;                          0000079P0000060
110,10.,-0.75,2.,10.5,-0.75,1.5;                                 0000081P0000061
110,10.,1.33226763E-15,2.,10.5,9.992007222E-16,1.5;              0000083P0000062
110,10.,-0.75,2.,10.,-0.75,8.5;                                  0000085P0000063
110,10.,5.662137426E-15,8.5,10.,-0.75,8.5;                       0000087P0000064
110,10.,1.33226763E-15,2.,10.,5.662137426E-15,8.5;               0000089P0000065
110,8.5,-0.75,10.,10.,-0.75,8.5;                                 0000091P0000066
110,8.5,6.661338148E-15,10.,10.,5.662137426E-15,8.5;             0000093P0000067
110,0.865,0.,0.,0.865,-0.75,4.996003611E-16;                     0000095P0000068
100,0.,0.,0.,0.865,0.,0.865,0.;                                  0000097P0000069
124,1.,0.,0.,0.,0.,6.661338148E-16,-1.,0.,0.,1.,6.661338148E-16, 0000099P0000070
0.;                                                              0000099P0000071
100,0.,0.,0.,0.865,0.,0.865,0.;                                  0000101P0000072
124,1.,0.,0.,0.,0.,6.661338148E-16,-1.,-0.75,0.,1.,              0000103P0000073
6.661338148E-16,4.996003611E-16;                                 0000103P0000074
110,5.35,0.,0.,5.35,-0.75,4.996003611E-16;                       0000105P0000075
100,0.,0.,0.,0.35,0.,0.35,0.;                                    0000107P0000076
124,1.,0.,0.,5.,0.,6.661338148E-16,-1.,0.,0.,1.,6.661338148E-16, 0000109P0000077
0.;                                                              0000109P0000078
100,0.,0.,0.,0.35,0.,0.35,0.;                                    0000111P0000079
124,1.,0.,0.,5.,0.,6.661338148E-16,-1.,-0.75,0.,1.,              0000113P0000080
6.661338148E-16,4.996003611E-16;                                 0000113P0000081
110,-4.65,0.,0.,-4.65,-0.75,4.996003611E-16;                     0000115P0000082
100,0.,0.,0.,0.35,0.,0.35,0.;                                    0000117P0000083
124,1.,0.,0.,-5.,0.,6.661338148E-16,-1.,0.,0.,1.,                0000119P0000084
6.661338148E-16,0.;                                              0000119P0000085
100,0.,0.,0.,0.35,0.,0.35,0.;                                    0000121P0000086
124,1.,0.,0.,-5.,0.,6.661338148E-16,-1.,-0.75,0.,1.,             0000123P0000087
6.661338148E-16,4.996003611E-16;                                 0000123P0000088
510,127,1,1,135;                                                 0000125P0000089
190,129,131,133;                                                 0000127P0000090
116,-8.5,6.661338148E-15,10.,0;                                  0000129P0000091
123,0.707106781,-4.710277376E-16,-0.707106781;                   0000131P0000092
123,-0.707106781,-4.710277376E-16,-0.707106781;                  0000133P0000093
508,4,0,19,3,1,0,0,19,5,1,0,0,19,6,0,0,0,19,7,0,0;               0000135P0000094
510,139,1,1,147;                                                 0000137P0000095
190,141,143,145;                                                 0000139P0000096
116,-10.,5.662137426E-15,8.5,0;                                  0000141P0000097
123,1.,0.,0.;                                                    0000143P0000098
123,0.,-6.661338148E-16,-1.;                                     0000145P0000099
508,4,0,19,6,1,0,0,19,8,1,0,0,19,9,0,0,0,19,10,0,0;              0000147P0000100
510,151,1,1,159;                                                 0000149P0000101
190,153,155,157;                                                 0000151P0000102
116,-10.,1.33226763E-15,2.,0;                                    0000153P0000103
123,0.707106781,-4.710277376E-16,-0.707106781;                   0000155P0000104
123,-0.707106781,-4.710277376E-16,-0.707106781;                  0000157P0000105
508,4,0,19,9,1,0,0,19,11,1,0,0,19,12,0,0,0,19,13,0,0;            0000159P0000106
510,163,1,1,171;                                                 0000161P0000107
190,165,167,169;                                                 0000163P0000108
116,-10.5,9.992007222E-16,1.5,0;                                 0000165P0000109
123,1.,0.,0.;                                                    0000167P0000110
123,0.,-6.661338148E-16,-1.;                                     0000169P0000111
508,4,0,19,12,1,0,0,19,14,1,0,0,19,15,0,0,0,19,16,0,0;           0000171P0000112
510,175,1,1,183;                                                 0000173P0000113
190,177,179,181;                                                 0000175P0000114
116,-10.5,-6.661338148E-15,-10.,0;                               0000177P0000115
123,0.707106781,4.710277376E-16,0.707106781;                     0000179P0000116
123,0.707106781,-4.710277376E-16,-0.707106781;                   0000181P0000117
508,4,0,19,15,1,0,0,19,17,1,0,0,19,18,0,0,0,19,19,0,0;           0000183P0000118
510,187,1,1,195;                                                 0000185P0000119
190,189,191,193;                                                 0000187P0000120
116,-9.5,-7.327471963E-15,-11.,0;                                0000189P0000121
123,0.,6.661338148E-16,1.;                                       0000191P0000122
123,1.,0.,0.;                                                    0000193P0000123
508,4,0,19,18,1,0,0,19,20,1,0,0,19,21,0,0,0,19,22,0,0;           0000195P0000124
510,199,1,1,207;                                                 0000197P0000125
190,201,203,205;                                                 0000199P0000126
116,9.5,-7.327471963E-15,-11.,0;                                 0000201P0000127
123,-0.707106781,4.710277376E-16,0.707106781;                    0000203P0000128
123,0.707106781,4.710277376E-16,0.707106781;                     0000205P0000129
508,4,0,19,21,1,0,0,19,23,1,0,0,19,24,0,0,0,19,25,0,0;           0000207P0000130
510,211,1,1,219;                                                 0000209P0000131
190,213,215,217;                                                 0000211P0000132
116,10.5,-6.661338148E-15,-10.,0;                                0000213P0000133
123,-1.,0.,0.;                                                   0000215P0000134
123,0.,6.661338148E-16,1.;                                       0000217P0000135
508,4,0,19,24,1,0,0,19,26,1,0,0,19,27,0,0,0,19,28,0,0;           0000219P0000136
510,223,1,1,231;                                                 0000221P0000137
190,225,227,229;                                                 0000223P0000138
116,10.,1.33226763E-15,2.,0;                                     0000225P0000139
123,0.707106781,4.710277376E-16,0.707106781;                     0000227P0000140
123,0.707106781,-4.710277376E-16,-0.707106781;                   0000229P0000141
508,4,0,19,29,1,0,0,19,30,1,0,0,19,27,0,0,0,19,31,0,0;           0000231P0000142
510,235,1,1,243;                                                 0000233P0000143
190,237,239,241;                                                 0000235P0000144
116,10.,1.33226763E-15,2.,0;                                     0000237P0000145
123,-1.,0.,0.;                                                   0000239P0000146
123,0.,6.661338148E-16,1.;                                       0000241P0000147
508,4,0,19,29,1,0,0,19,32,1,0,0,19,33,0,0,0,19,34,0,0;           0000243P0000148
510,247,1,1,255;                                                 0000245P0000149
190,249,251,253;                                                 0000247P0000150
116,8.5,6.661338148E-15,10.,0;                                   0000249P0000151
123,0.707106781,4.710277376E-16,0.707106781;                     0000251P0000152
123,0.707106781,-4.710277376E-16,-0.707106781;                   0000253P0000153
508,4,0,19,1,1,0,0,19,35,1,0,0,19,33,0,0,0,19,36,0,0;            0000255P0000154
510,259,1,1,267;                                                 0000257P0000155
192,261,263,0.865,265;                                           0000259P0000156
116,0.,0.,0.,0;                                                  0000261P0000157
123,0.,1.,-6.661338148E-16;                                      0000263P0000158
123,1.,0.,0.;                                                    0000265P0000159
508,4,0,19,37,0,1,0,269,0,19,38,1,1,0,271,0,19,37,1,1,0,273,0,   0000267P0000160
19,39,0,1,0,275;                                                 0000267P0000161
110,0.,-0.75,0.,0.,0.,0.;                                        0000269P0000162
110,0.,0.,0.,-360.,0.,0.;                                        0000271P0000163
110,-360.,0.,0.,-360.,-0.75,0.;                                  0000273P0000164
110,-360.,-0.75,0.,0.,-0.75,0.;                                  0000275P0000165
510,279,1,1,287;                                                 0000277P0000166
192,281,283,0.35,285;                                            0000279P0000167
116,5.,0.,0.,0;                                                  0000281P0000168
123,0.,1.,-6.661338148E-16;                                      0000283P0000169
123,1.,0.,0.;                                                    0000285P0000170
508,4,0,19,40,0,1,0,289,0,19,41,1,1,0,291,0,19,40,1,1,0,293,0,   0000287P0000171
19,42,0,1,0,295;                                                 0000287P0000172
110,0.,-0.75,0.,0.,0.,0.;                                        0000289P0000173
110,0.,0.,0.,-360.,0.,0.;                                        0000291P0000174
110,-360.,0.,0.,-360.,-0.75,0.;                                  0000293P0000175
110,-360.,-0.75,0.,0.,-0.75,0.;                                  0000295P0000176
510,299,1,1,307;                                                 0000297P0000177
192,301,303,0.35,305;                                            0000299P0000178
116,-5.,0.,0.,0;                                                 0000301P0000179
123,0.,1.,-6.661338148E-16;                                      0000303P0000180
123,1.,0.,0.;                                                    0000305P0000181
508,4,0,19,43,0,1,0,309,0,19,44,1,1,0,311,0,19,43,1,1,0,313,0,   0000307P0000182
19,45,0,1,0,315;                                                 0000307P0000183
110,0.,-0.75,0.,0.,0.,0.;                                        0000309P0000184
110,0.,0.,0.,-360.,0.,0.;                                        0000311P0000185
110,-360.,0.,0.,-360.,-0.75,0.;                                  0000313P0000186
110,-360.,-0.75,0.,0.,-0.75,0.;                                  0000315P0000187
510,319,4,1,327,329,331,333;                                     0000317P0000188
190,321,323,325;                                                 0000319P0000189
116,-4.414115995E-16,-4.674481362E-16,-0.701733084,0;            0000321P0000190
123,1.094764425E-47,-1.,6.661338148E-16;                         0000323P0000191
123,0.,-6.661338148E-16,-1.;                                     0000325P0000192
508,12,0,19,4,1,0,0,19,7,1,0,0,19,10,1,0,0,19,13,1,0,0,19,16,1,  0000327P0000193
0,0,19,19,1,0,0,19,22,1,0,0,19,25,1,0,0,19,28,1,0,0,19,31,0,0,0, 0000327P0000194
19,34,1,0,0,19,36,0,0;                                           0000327P0000195
508,1,0,19,38,0,0;                                               0000329P0000196
508,1,0,19,41,0,0;                                               0000331P0000197
508,1,0,19,44,0,0;                                               0000333P0000198
510,337,4,1,345,347,349,351;                                     0000335P0000199
190,339,341,343;                                                 0000337P0000200
116,-4.414115995E-16,-0.75,-0.701733084,0;                       0000339P0000201
123,1.094764425E-47,-1.,6.661338148E-16;                         0000341P0000202
123,0.,-6.661338148E-16,-1.;                                     0000343P0000203
508,12,0,19,2,1,0,0,19,5,1,0,0,19,8,1,0,0,19,11,1,0,0,19,14,1,0, 0000345P0000204
0,19,17,1,0,0,19,20,1,0,0,19,23,1,0,0,19,26,1,0,0,19,30,0,0,0,   0000345P0000205
19,32,1,0,0,19,35,0,0;                                           0000345P0000206
508,1,0,19,39,0,0;                                               0000347P0000207
508,1,0,19,42,0,0;                                               0000349P0000208
508,1,0,19,45,0,0;                                               0000351P0000209
S      1G      4D    352P    209                                        T0000001
