                                                                        S      1
,,57Htriad-v2c-left-arm-close-spaced-nn-1mm-extended-Protolabs,57Htriad-G      1
v2c-left-arm-close-spaced-nn-1mm-extended-Protolabs,7Hunknown,7Hunknown,G      2
32,38,7,99,15,,1.,2,2HMM,1,0.08,15H20211119.000606,0.01,10000.,7HunknownG      3
,7Hunknown,11,0,15H20211119.052907;                                     G      4
     186       1                                                00000000D      1
     186            -175       1       0                               0D      2
     514       2                                                00010000D      3
     514                       2       1                               0D      4
     510       4                                                00010000D      5
     510            -175       1       1                               0D      6
     510       5                                                00010000D      7
     510            -175       1       1                               0D      8
     510       6                                                00010000D      9
     510            -175       1       1                               0D     10
     510       7                                                00010000D     11
     510            -175       1       1                               0D     12
     510       8                                                00010000D     13
     510            -175       1       1                               0D     14
     510       9                                                00010000D     15
     510            -175       1       1                               0D     16
     510      10                                                00010000D     17
     510            -175       1       1                               0D     18
     510      11                                                00010000D     19
     510            -175       1       1                               0D     20
     510      12                                                00010000D     21
     510            -175       1       1                               0D     22
     510      13                                                00010000D     23
     510            -175       1       1                               0D     24
     510      14                                                00010000D     25
     510            -175       1       1                               0D     26
     510      15                                                00010000D     27
     510            -175       1       1                               0D     28
     510      16                                                00010000D     29
     510            -175       1       1                               0D     30
     510      17                                                00010000D     31
     510            -175       1       1                               0D     32
     508      18                                                00010000D     33
     508                       3       1                               0D     34
     508      21                                                00010000D     35
     508                       1       1                               0D     36
     508      22                                                00010000D     37
     508                       1       1                               0D     38
     508      23                                                00010000D     39
     508                       1       1                               0D     40
     508      24                                                00010000D     41
     508                       3       1                               0D     42
     508      27                                                00010000D     43
     508                       1       1                               0D     44
     508      28                                                00010000D     45
     508                       1       1                               0D     46
     508      29                                                00010000D     47
     508                       1       1                               0D     48
     508      30                                                00010000D     49
     508                       1       1                               0D     50
     508      31                                                00010000D     51
     508                       1       1                               0D     52
     508      32                                                00010000D     53
     508                       1       1                               0D     54
     508      33                                                00010000D     55
     508                       1       1                               0D     56
     508      34                                                00010000D     57
     508                       1       1                               0D     58
     508      35                                                00010000D     59
     508                       1       1                               0D     60
     508      36                                                00010000D     61
     508                       1       1                               0D     62
     508      37                                                00010000D     63
     508                       1       1                               0D     64
     508      38                                                00010000D     65
     508                       1       1                               0D     66
     508      39                                                00010000D     67
     508                       1       1                               0D     68
     126      40                                                00010000D     69
     126       0               4       0                               0D     70
     126      44                                                00010000D     71
     126       0               4       0                               0D     72
     126      48                                                00010000D     73
     126       0               4       0                               0D     74
     126      52                                                00010000D     75
     126       0               4       0                               0D     76
     126      56                                                00010000D     77
     126       0               4       0                               0D     78
     126      60                                                00010000D     79
     126       0               3       0                               0D     80
     126      63                                                00010000D     81
     126       0               4       0                               0D     82
     126      67                                                00010000D     83
     126       0               4       0                               0D     84
     126      71                                                00010000D     85
     126       0               3       0                               0D     86
     126      74                                                00010000D     87
     126       0               4       0                               0D     88
     126      78                                                00010000D     89
     126       0              12       0                               0D     90
     126      90                                                00010000D     91
     126       0               3       0                               0D     92
     126      93                                                00010000D     93
     126       0               4       0                               0D     94
     126      97                                                00010000D     95
     126       0               3       0                               0D     96
     126     100                                                00010000D     97
     126       0               3       0                               0D     98
     126     103                                                00010000D     99
     126       0               4       0                               0D    100
     126     107                                                00010000D    101
     126       0               4       0                               0D    102
     126     111                                                00010000D    103
     126       0               5       0                               0D    104
     126     116                                                00010000D    105
     126       0               3       0                               0D    106
     126     119                                                00010000D    107
     126       0               4       0                               0D    108
     126     123                                                00010000D    109
     126       0               4       0                               0D    110
     126     127                                                00010000D    111
     126       0               3       0                               0D    112
     126     130                                                00010000D    113
     126       0               4       0                               0D    114
     126     134                                                00010000D    115
     126       0               4       0                               0D    116
     126     138                                                00010000D    117
     126       0              12       0                               0D    118
     126     150                                                00010000D    119
     126       0               3       0                               0D    120
     126     153                                                00010000D    121
     126       0               3       0                               0D    122
     126     156                                                00010000D    123
     126       0               4       0                               0D    124
     126     160                                                00010000D    125
     126       0               3       0                               0D    126
     126     163                                                00010000D    127
     126       0              16       0                               0D    128
     126     179                                                00010000D    129
     126       0               3       0                               0D    130
     126     182                                                00010000D    131
     126       0               3       0                               0D    132
     126     185                                                00010000D    133
     126       0              16       0                               0D    134
     126     201                                                00010000D    135
     126       0               5       0                               0D    136
     126     206                                                00010000D    137
     126       0               3       0                               0D    138
     126     209                                                00010000D    139
     126       0               3       0                               0D    140
     128     212                                                00010000D    141
     128       0    -175       7       0                               0D    142
     128     219                                                00010000D    143
     128       0    -175       6       0                               0D    144
     128     225                                                00010000D    145
     128       0    -175       6       0                               0D    146
     128     231                                                00010000D    147
     128       0    -175       7       0                               0D    148
     128     238                                                00010000D    149
     128       0    -175       6       0                               0D    150
     128     244                                                00010000D    151
     128       0    -175       7       0                               0D    152
     128     251                                                00010000D    153
     128       0    -175       7       0                               0D    154
     128     258                                                00010000D    155
     128       0    -175       8       0                               0D    156
     128     266                                                00010000D    157
     128       0    -175       7       0                               0D    158
     128     273                                                00010000D    159
     128       0    -175       8       0                               0D    160
     128     281                                                00010000D    161
     128       0    -175      27       0                               0D    162
     128     308                                                00010000D    163
     128       0    -175       7       0                               0D    164
     128     315                                                00010000D    165
     128       0    -175      20       0                               0D    166
     128     335                                                00010000D    167
     128       0    -175       6       0                               0D    168
     502     341                                                00010000D    169
     502                      19       1                               0D    170
     504     360                                                00010001D    171
     504                      10       1                               0D    172
     406     370                                                00000000D    173
     406                       1      15                               0D    174
     314     371                                                00000200D    175
     314                       2       0                               0D    176
     314     373                                                00000200D    177
     314                       2       0                               0D    178
186,3,1,0,0,1,173;                                                     1P      1
514,14,5,1,7,1,9,1,11,1,13,1,15,1,17,1,19,1,21,1,23,1,25,1,27,1,       3P      2
29,1,31,1;                                                             3P      3
510,141,2,1,33,35;                                                     5P      4
510,143,1,1,37;                                                        7P      5
510,145,1,1,39;                                                        9P      6
510,147,2,1,41,43;                                                    11P      7
510,149,1,1,45;                                                       13P      8
510,151,1,1,47;                                                       15P      9
510,153,1,1,49;                                                       17P     10
510,155,2,1,51,53;                                                    19P     11
510,157,2,1,55,57;                                                    21P     12
510,159,1,1,59;                                                       23P     13
510,161,1,1,61;                                                       25P     14
510,163,1,1,63;                                                       27P     15
510,165,1,1,65;                                                       29P     16
510,167,1,1,67;                                                       31P     17
508,10,0,171,1,1,0,0,171,2,1,0,0,171,3,1,0,0,171,4,1,0,0,171,5,       33P     18
1,0,0,171,6,0,0,0,171,7,0,0,0,171,8,1,0,0,171,9,1,0,0,171,10,1,       33P     19
0;                                                                    33P     20
508,1,0,171,11,0,0;                                                   35P     21
508,4,0,171,5,0,0,0,171,12,0,0,0,171,13,0,0,0,171,14,0,0;             37P     22
508,4,0,171,15,0,0,0,171,16,0,0,0,171,12,1,0,0,171,4,0,0;             39P     23
508,10,0,171,17,1,0,0,171,18,1,0,0,171,19,1,0,0,171,20,1,0,0,         41P     24
171,21,1,0,0,171,22,1,0,0,171,13,1,0,0,171,16,1,0,0,171,23,1,0,       41P     25
0,171,24,1,0;                                                         41P     26
508,1,0,171,25,1,0;                                                   43P     27
508,4,0,171,15,1,0,0,171,3,0,0,0,171,26,0,0,0,171,23,0,0;             45P     28
508,4,0,171,26,1,0,0,171,2,0,0,0,171,27,0,0,0,171,24,0,0;             47P     29
508,4,0,171,27,1,0,0,171,1,0,0,0,171,28,0,0,0,171,17,0,0;             49P     30
508,4,0,171,28,1,0,0,171,10,0,0,0,171,29,0,0,0,171,18,0,0;            51P     31
508,1,0,171,30,1,0;                                                   53P     32
508,4,0,171,20,0,0,0,171,31,1,0,0,171,8,0,0,0,171,32,0,0;             55P     33
508,1,0,171,33,1,0;                                                   57P     34
508,4,0,171,19,0,0,0,171,29,1,0,0,171,9,0,0,0,171,31,0,0;             59P     35
508,4,0,171,30,0,0,0,171,34,1,0,0,171,33,0,0,0,171,34,0,0;            61P     36
508,4,0,171,7,1,0,0,171,35,1,0,0,171,21,0,0,0,171,32,1,0;             63P     37
508,4,0,171,25,0,0,0,171,36,1,0,0,171,11,1,0,0,171,36,0,0;            65P     38
508,4,0,171,6,1,0,0,171,14,1,0,0,171,22,0,0,0,171,35,0,0;             67P     39
126,1,1,0,0,1,0,-0.22590710942026,-0.22590710942026,                  69P     40
1.05140710405584,1.05140710405584,1.,1.,4.4886356269393,              69P     41
-22.7310675602788,0.,4.48863562693944,-9.95792542551784,0.,           69P     42
-0.22590710942026,1.05140710405584,0.,0.,0.;                          69P     43
126,1,1,0,0,1,0,-0.166875010021016,-0.166875010021016,                71P     44
0.11312497209759,0.11312497209759,1.,1.,4.48863562693935,             71P     45
-9.95792542551784,0.,7.28863544812541,-9.95792542551786,0.,           71P     46
-0.166875010021016,0.11312497209759,0.,0.,0.;                         71P     47
126,1,1,0,0,1,0,-0.562750003278254,-0.562750003278254,                73P     48
-0.292749991357325,-0.292749991357325,1.,1.,7.28863544812541,         73P     49
-9.95792542551786,0.,7.28863544812538,-12.6579255447271,0.,           73P     50
-0.562750003278254,-0.292749991357325,0.,0.,0.;                       73P     51
126,1,1,0,0,1,0,-0.150624966137127,-0.150624966137127,                75P     52
-0.0756249780580563,-0.0756249780580563,1.,1.,7.2886354481254,        75P     53
-12.6579255447271,0.,6.53863556733469,-12.6579255447271,0.,           75P     54
-0.150624966137127,-0.0756249780580563,0.,0.,0.;                      75P     55
126,1,1,0,0,1,0,-0.392749985396859,-0.392749985396859,                77P     56
-0.172749997317788,-0.172749997317788,1.,1.,6.53863556733467,         77P     57
-12.6579255447271,0.,6.53863556733467,-14.8579254255179,0.,           77P     58
-0.392749985396859,-0.172749997317788,0.,0.,0.;                       77P     59
126,1,1,0,0,1,0,0.,0.,0.0649999880790711,0.0649999880790711,1.,       79P     60
1.,7.18863544812539,-14.8579254255179,0.,6.53863556733467,            79P     61
-14.8579254255179,0.,0.,0.0649999880790711,0.,0.,0.;                  79P     62
126,1,1,0,0,1,0,-0.219182172373491,-0.219182172373491,                81P     63
0.625999988867067,0.625999988867067,1.,1.,7.18863544812534,           81P     64
-23.3097470379234,0.,7.18863544812539,-14.8579254255179,0.,           81P     65
-0.219182172373491,0.625999988867067,0.,0.,0.;                        81P     66
126,1,1,0,0,1,0,-0.177646778258904,-0.177646778258904,0.,0.,1.,       83P     67
1.,7.18863544812535,-23.3097470379234,-1.14898624122489D-14,          83P     68
8.44478786375349,-24.5658994535516,-1.22124532708767D-14,             83P     69
-0.177646778258904,0.,0.,0.,0.;                                       83P     70
126,1,1,0,0,1,0,-0.15,-0.15,0.,0.,1.,1.,8.44478786375349,             85P     71
-24.5658994535516,-1.27696333777321D-14,7.38412769197367,             85P     72
-25.6265596253314,-1.33226762955019D-14,-0.15,0.,0.,0.,0.;            85P     73
126,1,1,0,0,1,0,-0.521937084402328,-0.521937084402328,                87P     74
-0.11245266958951,-0.11245266958951,1.,1.,7.3841276919828,            87P     75
-25.6265596253223,0.,4.4886356269393,-22.7310675602788,0.,            87P     76
-0.521937084402328,-0.11245266958951,0.,0.,0.;                        87P     77
126,8,2,0,1,0,0,-3.14159265358979,-3.14159265358979,                  89P     78
-3.14159265358979,-1.5707963267949,-1.5707963267949,0.,0.,            89P     79
1.5707963267949,1.5707963267949,3.14159265358979,                     89P     80
3.14159265358979,3.14159265358979,1.,0.707106781186545,1.,            89P     81
0.707106781186545,1.,0.707106781186545,1.,0.707106781186545,1.,       89P     82
6.17863562693934,-11.0479254255178,0.,6.17863562693934,               89P     83
-11.6479254255179,0.,5.57863562693934,-11.6479254255179,0.,           89P     84
4.97863562693934,-11.6479254255179,0.,4.97863562693934,               89P     85
-11.0479254255178,0.,4.97863562693934,-10.4479254255178,0.,           89P     86
5.57863562693934,-10.4479254255178,0.,6.17863562693934,               89P     87
-10.4479254255178,0.,6.17863562693934,-11.0479254255178,0.,           89P     88
-3.14159265358979,3.14159265358979,0.,0.,0.;                          89P     89
126,1,1,0,0,1,0,-0.6,-0.6,0.,0.,1.,1.,6.53863556733469,               91P     90
-12.6579255447271,6.,6.53863556733469,-12.6579255447271,0.,-0.6,      91P     91
0.,0.,0.,0.;                                                          91P     92
126,1,1,0,0,1,0,0.172749997317788,0.172749997317788,                  93P     93
0.392749985396859,0.392749985396859,1.,1.,6.53863556733467,           93P     94
-14.8579254255179,6.,6.53863556733467,-12.6579255447271,6.,           93P     95
0.172749997317788,0.392749985396859,0.,0.,0.;                         93P     96
126,1,1,0,0,1,0,0.,0.,0.6,0.6,1.,1.,6.53863556733467,                 95P     97
-14.8579254255179,0.,6.53863556733467,-14.8579254255179,6.,0.,        95P     98
0.6,0.,0.,0.;                                                         95P     99
126,1,1,0,0,1,0,-0.6,-0.6,0.,0.,1.,1.,7.28863544812538,               97P    100
-12.6579255447271,6.,7.28863544812538,-12.6579255447271,0.,-0.6,      97P    101
0.,0.,0.,0.;                                                          97P    102
126,1,1,0,0,1,0,0.0756249780580563,0.0756249780580563,                99P    103
0.150624966137127,0.150624966137127,1.,1.,6.53863556733469,           99P    104
-12.6579255447271,6.,7.2886354481254,-12.6579255447271,6.,            99P    105
0.0756249780580563,0.150624966137127,0.,0.,0.;                        99P    106
126,1,1,0,0,1,0,-1.05140710405584,-1.05140710405584,                 101P    107
0.225907109417804,0.225907109417804,1.,1.,4.48863562693944,          101P    108
-9.95792542551784,6.,4.4886356269393,-22.7310675602543,6.,           101P    109
-1.05140710405584,0.225907109417804,0.,0.,0.;                        101P    110
126,1,1,0,0,1,0,-0.134484414814908,-0.134484414814908,               103P    111
0.274999999999646,0.274999999999646,1.,1.,4.4886356269393,           103P    112
-22.7310675602543,5.99999999999999,7.38412769195769,                 103P    113
-25.6265596253474,5.99999999999999,-0.134484414814908,               103P    114
0.274999999999646,0.,0.,0.;                                          103P    115
126,1,1,0,0,1,0,0.,0.,0.15,0.15,1.,1.,7.38412769197367,              105P    116
-25.6265596253314,5.99999999999999,8.44478786375349,                 105P    117
-24.5658994535516,5.99999999999999,0.,0.15,0.,0.,0.;                 105P    118
126,1,1,0,0,1,0,0.,0.,0.177646778258904,0.177646778258904,1.,1.,     107P    119
8.44478786375349,-24.5658994535516,5.99999999999999,                 107P    120
7.18863544812535,-23.3097470379234,5.99999999999999,0.,              107P    121
0.177646778258904,0.,0.,0.;                                          107P    122
126,1,1,0,0,1,0,-0.219182172373491,-0.219182172373491,               109P    123
0.625999988867067,0.625999988867067,1.,1.,7.18863544812534,          109P    124
-23.3097470379234,6.,7.18863544812539,-14.8579254255179,6.,          109P    125
-0.219182172373491,0.625999988867067,0.,0.,0.;                       109P    126
126,1,1,0,0,1,0,0.,0.,0.0649999880790711,0.0649999880790711,1.,      111P    127
1.,7.18863544812539,-14.8579254255179,6.,6.53863556733467,           111P    128
-14.8579254255179,6.,0.,0.0649999880790711,0.,0.,0.;                 111P    129
126,1,1,0,0,1,0,0.292749991357325,0.292749991357325,                 113P    130
0.562750003278254,0.562750003278254,1.,1.,7.28863544812538,          113P    131
-12.6579255447271,6.,7.28863544812541,-9.95792542551786,6.,          113P    132
0.292749991357325,0.562750003278254,0.,0.,0.;                        113P    133
126,1,1,0,0,1,0,-0.11312497209759,-0.11312497209759,                 115P    134
0.166875010021016,0.166875010021016,1.,1.,7.28863544812541,          115P    135
-9.95792542551786,6.,4.48863562693935,-9.95792542551784,6.,          115P    136
-0.11312497209759,0.166875010021016,0.,0.,0.;                        115P    137
126,8,2,0,1,0,0,-3.14159265358979,-3.14159265358979,                 117P    138
-3.14159265358979,-1.5707963267949,-1.5707963267949,0.,0.,           117P    139
1.5707963267949,1.5707963267949,3.14159265358979,                    117P    140
3.14159265358979,3.14159265358979,1.,0.707106781186545,1.,           117P    141
0.707106781186545,1.,0.707106781186545,1.,0.707106781186545,1.,      117P    142
6.17863562693934,-11.0479254255178,6.,6.17863562693934,              117P    143
-11.6479254255179,6.,5.57863562693934,-11.6479254255179,6.,          117P    144
4.97863562693934,-11.6479254255179,6.,4.97863562693934,              117P    145
-11.0479254255178,6.,4.97863562693934,-10.4479254255178,6.,          117P    146
5.57863562693934,-10.4479254255178,6.,6.17863562693934,              117P    147
-10.4479254255178,6.,6.17863562693934,-11.0479254255178,6.,          117P    148
-3.14159265358979,3.14159265358979,0.,0.,0.;                         117P    149
126,1,1,0,0,1,0,-0.6,-0.6,0.,0.,1.,1.,7.28863544812541,              119P    150
-9.95792542551786,6.,7.28863544812541,-9.95792542551786,0.,-0.6,     119P    151
0.,0.,0.,0.;                                                         119P    152
126,1,1,0,0,1,0,-0.6,-0.6,0.,0.,1.,1.,4.48863562693935,              121P    153
-9.95792542551784,6.,4.48863562693935,-9.95792542551784,0.,-0.6,     121P    154
0.,0.,0.,0.;                                                         121P    155
126,1,1,0,0,1,0,-0.3,-0.3,0.299999999999999,0.299999999999999,       123P    156
1.,1.,4.4886356269393,-22.7310675602543,5.99999999999999,            123P    157
4.4886356269393,-22.7310675602542,0.,-0.3,0.299999999999999,0.,      123P    158
0.,0.;                                                               123P    159
126,1,1,0,0,1,0,0.,0.,0.6,0.6,1.,1.,7.38412769197367,                125P    160
-25.6265596253314,5.99999999999999,7.38412769197367,                 125P    161
-25.6265596253314,-1.33226762955019D-14,0.,0.6,0.,0.,0.;             125P    162
126,8,2,0,1,0,0,-3.14159265358979,-3.14159265358979,                 127P    163
-3.14159265358979,-1.5707963267949,-1.5707963267949,                 127P    164
-4.44089209850063D-16,-4.44089209850063D-16,1.5707963267949,         127P    165
1.5707963267949,3.14159265358979,3.14159265358979,                   127P    166
3.14159265358979,1.,0.707106781186536,1.,0.707106781186536,1.,       127P    167
0.707106781186536,1.,0.707106781186536,1.,6.18204616395608,          127P    168
-24.4244780973148,2.99999999999999,6.18204616395608,                 127P    169
-24.4244780973148,3.19999999999999,6.32346752019157,                 127P    170
-24.5658994535539,3.19999999999999,6.46488887642705,                 127P    171
-24.707320809793,3.19999999999999,6.46488887642705,                  127P    172
-24.707320809793,2.99999999999999,6.46488887642705,                  127P    173
-24.707320809793,2.79999999999999,6.32346752019157,                  127P    174
-24.5658994535539,2.79999999999999,6.18204616395608,                 127P    175
-24.4244780973148,2.79999999999999,6.18204616395608,                 127P    176
-24.4244780973148,2.99999999999999,-3.14159265358979,                127P    177
3.14159265358979,0.,0.,0.;                                           127P    178
126,1,1,0,0,1,0,0.,0.,0.6,0.6,1.,1.,8.44478786375349,                129P    179
-24.5658994535516,5.99999999999999,8.44478786375349,                 129P    180
-24.5658994535516,-1.22124532708767D-14,0.,0.6,0.,0.,0.;             129P    181
126,1,1,0,0,1,0,0.,0.,0.6,0.6,1.,1.,7.18863544812535,                131P    182
-23.3097470379234,5.99999999999999,7.18863544812535,                 131P    183
-23.3097470379234,-1.22124532708767D-14,0.,0.6,0.,0.,0.;             131P    184
126,8,2,0,1,0,0,-3.14159265358979,-3.14159265358979,                 133P    185
-3.14159265358979,-1.5707963267949,-1.5707963267949,                 133P    186
4.44089209850063D-16,4.44089209850063D-16,1.5707963267949,           133P    187
1.5707963267949,3.14159265358979,3.14159265358979,                   133P    188
3.14159265358979,1.,0.707106781186536,1.,0.707106781186536,1.,       133P    189
0.707106781186536,1.,0.707106781186536,1.,7.24270633574936,          133P    190
-23.3638179255489,2.99999999999999,7.24270633574936,                 133P    191
-23.3638179255489,2.79999999999999,7.38412769198485,                 133P    192
-23.505239281788,2.79999999999999,7.52554904822033,                  133P    193
-23.6466606380271,2.79999999999999,7.52554904822033,                 133P    194
-23.6466606380271,2.99999999999999,7.52554904822033,                 133P    195
-23.6466606380271,3.19999999999999,7.38412769198485,                 133P    196
-23.505239281788,3.19999999999999,7.24270633574936,                  133P    197
-23.3638179255489,3.19999999999999,7.24270633574936,                 133P    198
-23.3638179255489,2.99999999999999,-3.14159265358979,                133P    199
3.14159265358979,0.,0.,0.;                                           133P    200
126,1,1,0,0,1,0,5.57027288784851D-14,5.57027288784851D-14,           135P    201
7.49999999999844,7.49999999999844,1.,1.,6.18204616395608,            135P    202
-24.4244780973148,2.99999999999999,7.24270633574936,                 135P    203
-23.3638179255489,2.99999999999999,5.57027288784851D-14,             135P    204
7.49999999999844,0.,0.,0.;                                           135P    205
126,1,1,0,0,1,0,0.,0.,0.6,0.6,1.,1.,7.18863544812539,                137P    206
-14.8579254255179,0.,7.18863544812539,-14.8579254255179,6.,0.,       137P    207
0.6,0.,0.,0.;                                                        137P    208
126,1,1,0,0,1,0,-9.99999999999999,-9.99999999999999,0.,0.,1.,1.,     139P    209
6.17863562693934,-11.0479254255178,6.,6.17863562693934,              139P    210
-11.0479254255178,0.,-9.99999999999999,0.,0.,0.,0.;                  139P    211
128,1,1,1,1,0,0,1,0,0,-0.0447500379234263,-0.0447500379234263,       141P    212
0.352865185757992,0.352865185757992,-0.732363425345779,              141P    213
-0.732363425345779,0.836499994635578,0.836499994635578,1.,1.,1.,     141P    214
1.,8.45478786375349,-25.6365596253314,0.,4.4786356269393,            141P    215
-25.6365596253314,0.,8.45478786375349,-9.94792542551784,0.,          141P    216
4.4786356269393,-9.94792542551784,0.,-0.0447500379234263,            141P    217
0.352865185757992,-0.732363425345779,0.836499994635578;              141P    218
128,1,1,1,1,0,0,1,0,0,-0.001,-0.001,0.601,0.601,-0.001,-0.001,       143P    219
0.220999988079071,0.220999988079071,1.,1.,1.,1.,                     143P    220
6.53863556733467,-14.8679254255179,6.01,6.53863556733467,            143P    221
-14.8679254255179,-0.01,6.53863556733467,-12.6479255447271,6.01,     143P    222
6.53863556733467,-12.6479255447271,-0.01,-0.001,0.601,-0.001,        143P    223
0.220999988079071;                                                   143P    224
128,1,1,1,1,0,0,1,0,0,-0.001,-0.001,0.601,0.601,-0.011,-0.011,       145P    225
0.065999988079071,0.065999988079071,1.,1.,1.,1.,                     145P    226
6.52863556733469,-12.6579255447271,6.01,6.52863556733469,            145P    227
-12.6579255447271,-0.01,7.2986354481254,-12.6579255447271,6.01,      145P    228
7.2986354481254,-12.6579255447271,-0.01,-0.001,0.601,-0.011,         145P    229
0.065999988079071;                                                   145P    230
128,1,1,1,1,0,0,1,0,0,-0.0447500379234263,-0.0447500379234263,       147P    231
0.352865185757992,0.352865185757992,-0.732363425347378,              147P    232
-0.732363425347378,0.836499994635578,0.836499994635578,1.,1.,1.,     147P    233
1.,4.4786356269393,-25.6365596253474,6.,8.45478786375349,            147P    234
-25.6365596253474,6.,4.4786356269393,-9.94792542551784,6.,           147P    235
8.45478786375349,-9.94792542551784,6.,-0.0447500379234263,           147P    236
0.352865185757992,-0.732363425347378,0.836499994635578;              147P    237
128,1,1,1,1,0,0,1,0,0,-0.001,-0.001,0.601,0.601,0.019,0.019,         149P    238
0.291000011920929,0.291000011920929,1.,1.,1.,1.,                     149P    239
7.28863544812538,-12.6679255447271,6.01,7.28863544812538,            149P    240
-12.6679255447271,-0.01,7.28863544812541,-9.94792542551786,6.01,     149P    241
7.28863544812541,-9.94792542551786,-0.01,-0.001,0.601,0.019,         149P    242
0.291000011920929;                                                   149P    243
128,1,1,1,1,0,0,1,0,0,-0.601,-0.601,0.001,0.001,                     151P    244
-0.290999982118607,-0.290999982118607,-0.00900000000000001,          151P    245
-0.00900000000000001,1.,1.,1.,1.,4.47863562693935,                   151P    246
-9.95792542551784,-0.01,4.47863562693935,-9.95792542551784,6.01,     151P    247
7.29863544812541,-9.95792542551786,-0.01,7.29863544812541,           151P    248
-9.95792542551786,6.01,-0.601,0.001,-0.290999982118607,              151P    249
-0.00900000000000001;                                                151P    250
128,1,1,1,1,0,0,1,0,0,-0.601,-0.601,0.001,0.001,                     153P    251
-1.2883142134761,-1.2883142134761,-0.0089999999999999,               153P    252
-0.0089999999999999,1.,1.,1.,1.,4.48863562693921,                    153P    253
-22.7410675602788,-0.01,4.48863562693921,-22.7410675602788,6.01,     153P    254
4.48863562693935,-9.94792542551784,-0.01,4.48863562693935,           153P    255
-9.94792542551784,6.01,-0.601,0.001,-1.2883142134761,                153P    256
-0.0089999999999999;                                                 153P    257
128,1,1,1,1,0,0,1,0,0,-0.001,-0.001,0.410484414814557,               155P    258
0.410484414814557,-0.00100000000000044,-0.00100000000000044,         155P    259
0.601000000000001,0.601000000000001,1.,1.,1.,1.,                     155P    260
7.39119875976947,-25.6336306931594,6.01,4.48156455912751,            155P    261
-22.7239964924423,6.00999999999999,7.39119875976948,                 155P    262
-25.6336306931594,-0.0100000000000133,4.48156455912752,              155P    263
-22.7239964924423,-0.0100000000000211,-0.001,0.410484414814557,      155P    264
-0.00100000000000044,0.601000000000001;                              155P    265
128,1,1,1,1,0,0,1,0,0,-0.00100000000000054,-0.00100000000000054,     157P    266
0.178646778258904,0.178646778258904,-0.001,-0.001,0.601,0.601,       157P    267
1.,1.,1.,1.,7.18156438031349,-23.3026759701116,6.00999999999999,     157P    268
8.45185893156535,-24.5729705213635,6.00999999999999,                 157P    269
7.18156438031349,-23.3026759701116,-0.0100000000000133,              157P    270
8.45185893156535,-24.5729705213635,-0.0100000000000144,              157P    271
-0.00100000000000054,0.178646778258904,-0.001,0.601;                 157P    272
128,1,1,1,1,0,0,1,0,0,-0.00100000000000029,-0.00100000000000029,     159P    273
0.151,0.151,-0.00100000000000011,-0.00100000000000011,0.601,         159P    274
0.601,1.,1.,1.,1.,8.45185893156535,-24.5588283857397,                159P    275
6.00999999999999,7.3770566241618,-25.6336306931433,                  159P    276
6.00999999999999,8.45185893156535,-24.5588283857397,                 159P    277
-0.0100000000000133,7.3770566241618,-25.6336306931433,               159P    278
-0.0100000000000144,-0.00100000000000029,0.151,                      159P    279
-0.00100000000000011,0.601;                                          159P    280
128,1,8,1,2,0,1,0,0,1,5.57027288784851D-14,5.57027288784851D-14,     161P    281
7.49999999999844,7.49999999999844,-3.14159265358979,                 161P    282
-3.14159265358979,-3.14159265358979,-1.5707963267949,                161P    283
-1.5707963267949,0.,0.,1.5707963267949,1.5707963267949,              161P    284
3.14159265358979,3.14159265358979,3.14159265358979,1.,1.,            161P    285
0.707106781186548,0.707106781186548,1.,1.,0.707106781186548,         161P    286
0.707106781186548,1.,1.,0.707106781186548,0.707106781186548,1.,      161P    287
1.,0.707106781186548,0.707106781186548,1.,1.,6.18204616395608,       161P    288
-24.4244780973148,2.99999999999999,7.24270633574936,                 161P    289
-23.3638179255489,2.99999999999999,6.18204616395608,                 161P    290
-24.4244780973148,3.19999999999999,7.24270633574936,                 161P    291
-23.3638179255489,3.19999999999999,6.32346752019157,                 161P    292
-24.5658994535539,3.19999999999999,7.38412769198485,                 161P    293
-23.505239281788,3.19999999999999,6.46488887642705,                  161P    294
-24.707320809793,3.19999999999999,7.52554904822033,                  161P    295
-23.6466606380271,3.19999999999999,6.46488887642705,                 161P    296
-24.707320809793,2.99999999999999,7.52554904822033,                  161P    297
-23.6466606380271,2.99999999999999,6.46488887642705,                 161P    298
-24.707320809793,2.79999999999999,7.52554904822033,                  161P    299
-23.6466606380271,2.79999999999999,6.32346752019157,                 161P    300
-24.5658994535539,2.79999999999999,7.38412769198485,                 161P    301
-23.505239281788,2.79999999999999,6.18204616395608,                  161P    302
-24.4244780973148,2.79999999999999,7.24270633574936,                 161P    303
-23.3638179255489,2.79999999999999,6.18204616395608,                 161P    304
-24.4244780973148,2.99999999999999,7.24270633574936,                 161P    305
-23.3638179255489,2.99999999999999,5.57027288784851D-14,             161P    306
7.49999999999844,-3.14159265358979,3.14159265358979;                 161P    307
128,1,1,1,1,0,0,1,0,0,-0.220182172373491,-0.220182172373491,         163P    308
0.626999988867068,0.626999988867068,-0.00100000000000122,            163P    309
-0.00100000000000122,0.601,0.601,1.,1.,1.,1.,7.18863544812534,       163P    310
-23.3197470379234,-0.0100000000000122,7.18863544812539,              163P    311
-14.8479254255179,-0.0100000000000122,7.18863544812534,              163P    312
-23.3197470379234,6.01,7.18863544812538,-14.8479254255179,6.01,      163P    313
-0.220182172373491,0.626999988867068,-0.00100000000000122,0.601;     163P    314
128,1,8,1,2,0,1,0,0,1,0.,0.,9.99999999999999,9.99999999999999,       165P    315
-3.14159265358979,-3.14159265358979,-3.14159265358979,               165P    316
-1.5707963267949,-1.5707963267949,0.,0.,1.5707963267949,             165P    317
1.5707963267949,3.14159265358979,3.14159265358979,                   165P    318
3.14159265358979,1.,1.,0.707106781186548,0.707106781186548,1.,       165P    319
1.,0.707106781186548,0.707106781186548,1.,1.,0.707106781186548,      165P    320
0.707106781186548,1.,1.,0.707106781186548,0.707106781186548,1.,      165P    321
1.,6.17863562693934,-11.0479254255178,0.,6.17863562693934,           165P    322
-11.0479254255178,6.,6.17863562693934,-10.4479254255178,0.,          165P    323
6.17863562693934,-10.4479254255178,6.,5.57863562693934,              165P    324
-10.4479254255178,0.,5.57863562693934,-10.4479254255178,6.,          165P    325
4.97863562693934,-10.4479254255178,0.,4.97863562693934,              165P    326
-10.4479254255178,6.,4.97863562693934,-11.0479254255178,0.,          165P    327
4.97863562693934,-11.0479254255178,6.,4.97863562693934,              165P    328
-11.6479254255179,0.,4.97863562693934,-11.6479254255179,6.,          165P    329
5.57863562693934,-11.6479254255179,0.,5.57863562693934,              165P    330
-11.6479254255179,6.,6.17863562693934,-11.6479254255179,0.,          165P    331
6.17863562693934,-11.6479254255179,6.,6.17863562693934,              165P    332
-11.0479254255178,0.,6.17863562693934,-11.0479254255178,6.,0.,       165P    333
9.99999999999999,-3.14159265358979,3.14159265358979;                 165P    334
128,1,1,1,1,0,0,1,0,0,-0.001,-0.001,0.0659999880790711,              167P    335
0.0659999880790711,-0.001,-0.001,0.601,0.601,1.,1.,1.,1.,            167P    336
7.19863544812539,-14.8579254255179,-0.01,6.52863556733467,           167P    337
-14.8579254255179,-0.01,7.19863544812539,-14.8579254255179,6.01,     167P    338
6.52863556733467,-14.8579254255179,6.01,-0.001,                      167P    339
0.0659999880790711,-0.001,0.601;                                     167P    340
502,24,4.4886356269393,-22.7310675602788,0.,4.48863562693935,        169P    341
-9.95792542551784,0.,7.28863544812541,-9.95792542551786,0.,          169P    342
7.2886354481254,-12.6579255447271,0.,6.53863556733469,               169P    343
-12.6579255447271,0.,6.53863556733467,-14.8579254255179,0.,          169P    344
7.18863544812539,-14.8579254255179,0.,7.18863544812535,              169P    345
-23.3097470379234,-1.22124532708767D-14,8.44478786375349,            169P    346
-24.5658994535516,-1.22124532708767D-14,7.38412769197367,            169P    347
-25.6265596253314,-1.33226762955019D-14,6.17863562693934,            169P    348
-11.0479254255178,0.,6.53863556733469,-12.6579255447271,6.,          169P    349
6.53863556733467,-14.8579254255179,6.,7.2886354481254,               169P    350
-12.6579255447271,6.,4.48863562693935,-9.95792542551784,6.,          169P    351
4.4886356269393,-22.7310675602543,5.99999999999999,                  169P    352
7.38412769197367,-25.6265596253314,5.99999999999999,                 169P    353
8.44478786375349,-24.5658994535516,5.99999999999999,                 169P    354
7.18863544812535,-23.3097470379234,5.99999999999999,                 169P    355
7.18863544812539,-14.8579254255179,6.,7.28863544812541,              169P    356
-9.95792542551786,6.,6.17863562693934,-11.0479254255178,6.,          169P    357
6.18204616395607,-24.4244780973148,2.99999999999999,                 169P    358
7.24270633574959,-23.3638179255486,2.99999999999999;                 169P    359
504,36,69,169,1,169,2,71,169,2,169,3,73,169,3,169,4,75,169,4,        171P    360
169,5,77,169,5,169,6,79,169,7,169,6,81,169,8,169,7,83,169,8,169,     171P    361
9,85,169,9,169,10,87,169,10,169,1,89,169,11,169,11,91,169,12,        171P    362
169,5,93,169,13,169,12,95,169,6,169,13,97,169,14,169,4,99,169,       171P    363
12,169,14,101,169,15,169,16,103,169,16,169,17,105,169,17,169,18,     171P    364
107,169,18,169,19,109,169,19,169,20,111,169,20,169,13,113,169,       171P    365
14,169,21,115,169,21,169,15,117,169,22,169,22,119,169,21,169,3,      171P    366
121,169,15,169,2,123,169,16,169,1,125,169,17,169,10,127,169,23,      171P    367
169,23,129,169,18,169,9,131,169,19,169,8,133,169,24,169,24,135,      171P    368
169,23,169,24,137,169,7,169,20,139,169,22,169,11;                    171P    369
406,1,5HBody2;                                                       173P    370
314,88.6274509803922,60.3921568627451,57.6470588235294,27HPaint      175P    371
- Enamel Glossy (Red);                                               175P    372
314,62.7450980392157,62.7450980392157,62.7450980392157,13HSteel      177P    373
- Satin;                                                             177P    374
S      1G      4D    178P    374                                        T      1
