                                                                        S      1
,,63Htriad-v2c-middle-arm-close-spaced-nn-1.23mm-extended-Protola v2,63HG      1
triad-v2c-middle-arm-close-spaced-nn-1.23mm-extended-Protola v2,7HunknowG      2
n,7Hunknown,32,38,7,99,15,,1.,2,2HMM,1,0.08,15H20211119.000636,0.01,    G      3
10000.,7Hunknown,7Hunknown,11,0,15H20211119.053546;                     G      4
     186       1                                                00000000D      1
     186            -175       1       0                               0D      2
     514       2                                                00010000D      3
     514                       2       1                               0D      4
     510       4                                                00010000D      5
     510            -175       1       1                               0D      6
     510       5                                                00010000D      7
     510            -175       1       1                               0D      8
     510       6                                                00010000D      9
     510            -175       1       1                               0D     10
     510       7                                                00010000D     11
     510            -175       1       1                               0D     12
     510       8                                                00010000D     13
     510            -175       1       1                               0D     14
     510       9                                                00010000D     15
     510            -175       1       1                               0D     16
     510      10                                                00010000D     17
     510            -175       1       1                               0D     18
     510      11                                                00010000D     19
     510            -175       1       1                               0D     20
     510      12                                                00010000D     21
     510            -175       1       1                               0D     22
     510      13                                                00010000D     23
     510            -175       1       1                               0D     24
     510      14                                                00010000D     25
     510            -175       1       1                               0D     26
     510      15                                                00010000D     27
     510            -175       1       1                               0D     28
     510      16                                                00010000D     29
     510            -175       1       1                               0D     30
     510      17                                                00010000D     31
     510            -175       1       1                               0D     32
     508      18                                                00010000D     33
     508                       1       1                               0D     34
     508      19                                                00010000D     35
     508                       3       1                               0D     36
     508      22                                                00010000D     37
     508                       1       1                               0D     38
     508      23                                                00010000D     39
     508                       1       1                               0D     40
     508      24                                                00010000D     41
     508                       1       1                               0D     42
     508      25                                                00010000D     43
     508                       1       1                               0D     44
     508      26                                                00010000D     45
     508                       1       1                               0D     46
     508      27                                                00010000D     47
     508                       1       1                               0D     48
     508      28                                                00010000D     49
     508                       1       1                               0D     50
     508      29                                                00010000D     51
     508                       1       1                               0D     52
     508      30                                                00010000D     53
     508                       1       1                               0D     54
     508      31                                                00010000D     55
     508                       1       1                               0D     56
     508      32                                                00010000D     57
     508                       1       1                               0D     58
     508      33                                                00010000D     59
     508                       1       1                               0D     60
     508      34                                                00010000D     61
     508                       3       1                               0D     62
     508      37                                                00010000D     63
     508                       1       1                               0D     64
     508      38                                                00010000D     65
     508                       1       1                               0D     66
     508      39                                                00010000D     67
     508                       1       1                               0D     68
     126      40                                                00010000D     69
     126       0               4       0                               0D     70
     126      44                                                00010000D     71
     126       0               3       0                               0D     72
     126      47                                                00010000D     73
     126       0               4       0                               0D     74
     126      51                                                00010000D     75
     126       0               3       0                               0D     76
     126      54                                                00010000D     77
     126       0               3       0                               0D     78
     126      57                                                00010000D     79
     126       0               4       0                               0D     80
     126      61                                                00010000D     81
     126       0               4       0                               0D     82
     126      65                                                00010000D     83
     126       0               4       0                               0D     84
     126      69                                                00010000D     85
     126       0               4       0                               0D     86
     126      73                                                00010000D     87
     126       0               4       0                               0D     88
     126      77                                                00010000D     89
     126       0               5       0                               0D     90
     126      82                                                00010000D     91
     126       0               4       0                               0D     92
     126      86                                                00010000D     93
     126       0               3       0                               0D     94
     126      89                                                00010000D     95
     126       0              12       0                               0D     96
     126     101                                                00010000D     97
     126       0               3       0                               0D     98
     126     104                                                00010000D     99
     126       0               4       0                               0D    100
     126     108                                                00010000D    101
     126       0               4       0                               0D    102
     126     112                                                00010000D    103
     126       0               3       0                               0D    104
     126     115                                                00010000D    105
     126       0               4       0                               0D    106
     126     119                                                00010000D    107
     126       0               3       0                               0D    108
     126     122                                                00010000D    109
     126       0               4       0                               0D    110
     126     126                                                00010000D    111
     126       0               3       0                               0D    112
     126     129                                                00010000D    113
     126       0              15       0                               0D    114
     126     144                                                00010000D    115
     126       0               4       0                               0D    116
     126     148                                                00010000D    117
     126       0              16       0                               0D    118
     126     164                                                00010000D    119
     126       0               5       0                               0D    120
     126     169                                                00010000D    121
     126       0               4       0                               0D    122
     126     173                                                00010000D    123
     126       0               3       0                               0D    124
     126     176                                                00010000D    125
     126       0               3       0                               0D    126
     126     179                                                00010000D    127
     126       0               5       0                               0D    128
     126     184                                                00010000D    129
     126       0               4       0                               0D    130
     126     188                                                00010000D    131
     126       0               3       0                               0D    132
     126     191                                                00010000D    133
     126       0               3       0                               0D    134
     126     194                                                00010000D    135
     126       0               3       0                               0D    136
     126     197                                                00010000D    137
     126       0              12       0                               0D    138
     126     209                                                00010000D    139
     126       0               3       0                               0D    140
     128     212                                                00010000D    141
     128       0    -175       6       0                               0D    142
     128     218                                                00010000D    143
     128       0    -175       7       0                               0D    144
     128     225                                                00010000D    145
     128       0    -175       6       0                               0D    146
     128     231                                                00010000D    147
     128       0    -175       6       0                               0D    148
     128     237                                                00010000D    149
     128       0    -175       6       0                               0D    150
     128     243                                                00010000D    151
     128       0    -175       8       0                               0D    152
     128     251                                                00010000D    153
     128       0    -175      28       0                               0D    154
     128     279                                                00010000D    155
     128       0    -175       7       0                               0D    156
     128     286                                                00010000D    157
     128       0    -175       8       0                               0D    158
     128     294                                                00010000D    159
     128       0    -175       8       0                               0D    160
     128     302                                                00010000D    161
     128       0    -175       6       0                               0D    162
     128     308                                                00010000D    163
     128       0    -175      20       0                               0D    164
     128     328                                                00010000D    165
     128       0    -175       7       0                               0D    166
     128     335                                                00010000D    167
     128       0    -175       6       0                               0D    168
     502     341                                                00010000D    169
     502                      19       1                               0D    170
     504     360                                                00010001D    171
     504                      10       1                               0D    172
     406     370                                                00000000D    173
     406                       1      15                               0D    174
     314     371                                                00000200D    175
     314                       2       0                               0D    176
     314     373                                                00000200D    177
     314                       2       0                               0D    178
186,3,1,0,0,1,173;                                                     1P      1
514,14,5,1,7,1,9,1,11,1,13,1,15,1,17,1,19,1,21,1,23,1,25,1,27,1,       3P      2
29,1,31,1;                                                             3P      3
510,141,1,1,33;                                                        5P      4
510,143,2,1,35,37;                                                     7P      5
510,145,1,1,39;                                                        9P      6
510,147,1,1,41;                                                       11P      7
510,149,1,1,43;                                                       13P      8
510,151,1,1,45;                                                       15P      9
510,153,1,1,47;                                                       17P     10
510,155,1,1,49;                                                       19P     11
510,157,2,1,51,53;                                                    21P     12
510,159,1,1,55;                                                       23P     13
510,161,1,1,57;                                                       25P     14
510,163,1,1,59;                                                       27P     15
510,165,2,1,61,63;                                                    29P     16
510,167,2,1,65,67;                                                    31P     17
508,4,0,171,1,0,0,0,171,2,0,0,0,171,3,0,0,0,171,4,0,0;                33P     18
508,10,0,171,5,1,0,0,171,3,1,0,0,171,6,1,0,0,171,7,1,0,0,171,8,       35P     19
1,0,0,171,9,1,0,0,171,10,1,0,0,171,11,1,0,0,171,12,1,0,0,171,13,      35P     20
1,0;                                                                  35P     21
508,1,0,171,14,1,0;                                                   37P     22
508,4,0,171,15,0,0,0,171,6,0,0,0,171,2,1,0,0,171,16,0,0;              39P     23
508,4,0,171,15,1,0,0,171,17,0,0,0,171,18,0,0,0,171,7,0,0;             41P     24
508,4,0,171,18,1,0,0,171,19,0,0,0,171,20,0,0,0,171,8,0,0;             43P     25
508,4,0,171,20,1,0,0,171,21,0,0,0,171,22,0,0,0,171,9,0,0;             45P     26
508,4,0,171,23,0,0,0,171,24,1,0,0,171,25,0,0,0,171,24,0,0;            47P     27
508,4,0,171,26,0,0,0,171,27,0,0,0,171,28,0,0,0,171,12,0,0;            49P     28
508,4,0,171,26,1,0,0,171,11,0,0,0,171,29,1,0,0,171,30,1,0;            51P     29
508,1,0,171,23,1,0;                                                   53P     30
508,4,0,171,22,1,0,0,171,31,0,0,0,171,29,0,0,0,171,10,0,0;            55P     31
508,4,0,171,32,1,0,0,171,4,1,0,0,171,5,0,0,0,171,33,0,0;              57P     32
508,4,0,171,14,0,0,0,171,34,1,0,0,171,35,1,0,0,171,34,0,0;            59P     33
508,10,0,171,32,0,0,0,171,36,0,0,0,171,27,1,0,0,171,30,0,0,0,         61P     34
171,31,1,0,0,171,21,1,0,0,171,19,1,0,0,171,17,1,0,0,171,16,1,0,       61P     35
0,171,1,1,0;                                                          61P     36
508,1,0,171,35,0,0;                                                   63P     37
508,4,0,171,36,1,0,0,171,33,1,0,0,171,13,0,0,0,171,28,1,0;            65P     38
508,1,0,171,25,1,0;                                                   67P     39
126,1,1,0,0,1,0,-0.392749985396856,-0.392749985396856,                69P     40
-0.172749997317785,-0.172749997317785,1.,1.,8.89999988079117,         69P     41
-4.78999997019797,0.,8.89999988079117,-6.98999985098868,0.,           69P     42
-0.392749985396856,-0.172749997317785,0.,0.,0.;                       69P     43
126,1,1,0,0,1,0,-0.6,-0.6,0.,0.,1.,1.,8.89999988079117,               71P     44
-4.78999997019797,6.,8.89999988079117,-4.78999997019797,0.,-0.6,      71P     45
0.,0.,0.,0.;                                                          71P     46
126,1,1,0,0,1,0,0.172749997317785,0.172749997317785,                  73P     47
0.392749985396856,0.392749985396856,1.,1.,8.89999988079117,           73P     48
-6.98999985098868,6.,8.89999988079117,-4.78999997019797,6.,           73P     49
0.172749997317785,0.392749985396856,0.,0.,0.;                         73P     50
126,1,1,0,0,1,0,0.,0.,0.6,0.6,1.,1.,8.89999988079117,                 75P     51
-6.98999985098868,0.,8.89999988079117,-6.98999985098868,6.,0.,        75P     52
0.6,0.,0.,0.;                                                         75P     53
126,1,1,0,0,1,0,0.,0.,0.0849999880790711,0.0849999880790711,1.,       77P     54
1.,9.74999976158188,-6.98999985098868,6.,8.89999988079117,            77P     55
-6.98999985098868,6.,0.,0.0849999880790711,0.,0.,0.;                  77P     56
126,1,1,0,0,1,0,0.038749982714663,0.038749982714663,                  79P     57
0.113749970793734,0.113749970793734,1.,1.,8.89999988079117,           79P     58
-4.78999997019797,6.,9.64999976158188,-4.78999997019797,6.,           79P     59
0.038749982714663,0.113749970793734,0.,0.,0.;                         79P     60
126,1,1,0,0,1,0,0.29274999135732,0.29274999135732,                    81P     61
0.562750003278249,0.562750003278249,1.,1.,9.64999976158188,           81P     62
-4.78999997019797,6.,9.64999976158187,-2.08999985098868,6.,           81P     63
0.29274999135732,0.562750003278249,0.,0.,0.;                          81P     64
126,1,1,0,0,1,0,-0.0762499767541983,-0.0762499767541983,              83P     65
0.153750023245802,0.153750023245802,1.,1.,9.64999976158187,           83P     66
-2.08999985098868,6.,7.34999976158187,-2.08999985098868,6.,           83P     67
-0.0762499767541983,0.153750023245802,0.,0.,0.;                       83P     68
126,1,1,0,0,1,0,-0.412749997317785,-0.412749997317785,                85P     69
0.629250003307875,0.629250003307875,1.,1.,7.34999976158187,           85P     70
-2.08999985098868,6.,7.3499997615819,-12.5099998572453,6.,            85P     71
-0.412749997317785,0.629250003307875,0.,0.,0.;                        85P     72
126,1,1,0,0,1,0,-0.0287500232458008,-0.0287500232458008,              87P     73
0.0852499315640071,0.0852499315640071,1.,1.,7.34999976158189,         87P     74
-12.5099998572453,6.,8.48999930967997,-12.5099998572453,6.,           87P     75
-0.0287500232458008,0.0852499315640071,0.,0.,0.;                      87P     76
126,1,1,0,0,1,0,-0.316999988645479,-0.316999988645479,                89P     77
0.00590000000000002,0.00590000000000002,1.,1.,8.48999930968017,       89P     78
-12.5099998572453,5.99999999999999,8.48999930968017,                  89P     79
-15.7389997437001,5.99999999999999,-0.316999988645479,                89P     80
0.00590000000000002,0.,0.,0.;                                         89P     81
126,1,1,0,0,1,0,0.132749885072423,0.132749885072423,                  91P     82
0.258749930262595,0.258749930262595,1.,1.,8.48999930968017,           91P     83
-15.7389997437001,6.,9.74999976158189,-15.7389997437001,6.,           91P     84
0.132749885072423,0.258749930262595,0.,0.,0.;                         91P     85
126,1,1,0,0,1,0,0.4391,0.4391,1.31399998927114,1.31399998927114,      93P     86
1.,1.,9.7499997615819,-15.7389997437001,6.,9.7499997615819,           93P     87
-6.98999985098868,6.,0.4391,1.31399998927114,0.,0.,0.;                93P     88
126,8,2,0,1,0,0,-3.14159265358979,-3.14159265358979,                  95P     89
-3.14159265358979,-1.5707963267949,-1.5707963267949,0.,0.,            95P     90
1.5707963267949,1.5707963267949,3.14159265358979,                     95P     91
3.14159265358979,3.14159265358979,1.,0.707106781186548,1.,            95P     92
0.707106781186548,1.,0.707106781186548,1.,0.707106781186548,1.,       95P     93
9.09999930974571,-9.17999985724528,6.,9.09999930974571,               95P     94
-9.77999985724528,6.,8.49999930974571,-9.77999985724528,6.,           95P     95
7.89999930974571,-9.77999985724528,6.,7.89999930974571,               95P     96
-9.17999985724528,6.,7.89999930974571,-8.57999985724528,6.,           95P     97
8.49999930974571,-8.57999985724528,6.,9.09999930974571,               95P     98
-8.57999985724528,6.,9.09999930974571,-9.17999985724528,6.,           95P     99
-3.14159265358979,3.14159265358979,0.,0.,0.;                          95P    100
126,1,1,0,0,1,0,-0.6,-0.6,0.,0.,1.,1.,9.64999976158188,               97P    101
-4.78999997019797,6.,9.64999976158188,-4.78999997019797,0.,-0.6,      97P    102
0.,0.,0.,0.;                                                          97P    103
126,1,1,0,0,1,0,-0.113749970793734,-0.113749970793734,                99P    104
-0.038749982714663,-0.038749982714663,1.,1.,9.64999976158188,         99P    105
-4.78999997019797,0.,8.89999988079117,-4.78999997019797,0.,           99P    106
-0.113749970793734,-0.038749982714663,0.,0.,0.;                       99P    107
126,1,1,0,0,1,0,-0.562750003278249,-0.562750003278249,               101P    108
-0.29274999135732,-0.29274999135732,1.,1.,9.64999976158187,          101P    109
-2.08999985098868,0.,9.64999976158188,-4.78999997019797,0.,          101P    110
-0.562750003278249,-0.29274999135732,0.,0.,0.;                       101P    111
126,1,1,0,0,1,0,-0.6,-0.6,0.,0.,1.,1.,9.64999976158187,              103P    112
-2.08999985098868,6.,9.64999976158187,-2.08999985098868,0.,-0.6,     103P    113
0.,0.,0.,0.;                                                         103P    114
126,1,1,0,0,1,0,-0.153750023245802,-0.153750023245802,               105P    115
0.0762499767541983,0.0762499767541983,1.,1.,7.34999976158187,        105P    116
-2.08999985098868,0.,9.64999976158187,-2.08999985098868,0.,          105P    117
-0.153750023245802,0.0762499767541983,0.,0.,0.;                      105P    118
126,1,1,0,0,1,0,-0.6,-0.6,0.,0.,1.,1.,7.34999976158187,              107P    119
-2.08999985098868,6.,7.34999976158187,-2.08999985098868,0.,-0.6,     107P    120
0.,0.,0.,0.;                                                         107P    121
126,1,1,0,0,1,0,-0.629250003307875,-0.629250003307875,               109P    122
0.412749997317785,0.412749997317785,1.,1.,7.3499997615819,           109P    123
-12.5099998572453,0.,7.34999976158187,-2.08999985098868,0.,          109P    124
-0.629250003307875,0.412749997317785,0.,0.,0.;                       109P    125
126,1,1,0,0,1,0,-0.3,-0.3,0.3,0.3,1.,1.,7.3499997615819,             111P    126
-12.5099998572453,6.,7.3499997615819,-12.5099998572453,              111P    127
-4.44089209850063D-15,-0.3,0.3,0.,0.,0.;                             111P    128
126,8,2,0,1,0,0,-3.14159265358979,-3.14159265358979,                 113P    129
-3.14159265358979,-1.57079632679489,-1.57079632679489,               113P    130
2.22044604925031D-15,2.22044604925031D-15,1.5707963267949,           113P    131
1.5707963267949,3.1415926535898,3.1415926535898,3.1415926535898,     113P    132
1.,0.707106781186556,1.,0.707106781186551,1.,0.707106781186556,      113P    133
1.,0.707106781186551,1.,8.48999930968016,-14.0389997437001,          113P    134
3.00000004470348,8.48999930968016,-14.0389997437001,                 113P    135
3.20000004470348,8.48999930968016,-14.2389997437001,                 113P    136
3.20000004470348,8.48999930968016,-14.4389997437001,                 113P    137
3.20000004470348,8.48999930968016,-14.4389997437001,                 113P    138
3.00000004470348,8.48999930968016,-14.4389997437001,                 113P    139
2.80000004470347,8.48999930968016,-14.2389997437001,                 113P    140
2.80000004470348,8.48999930968016,-14.0389997437001,                 113P    141
2.80000004470348,8.48999930968016,-14.0389997437001,                 113P    142
3.00000004470348,-3.14159265358979,3.1415926535898,0.,0.,0.;         113P    143
126,1,1,0,0,1,0,-2.97821732002621D-14,-2.97821732002621D-14,6.3,     115P    144
6.3,1.,1.,8.48999930968016,-14.0389997437001,3.00000004470348,       115P    145
9.74999930968016,-14.0389997437001,3.00000004470348,                 115P    146
-2.97821732002621D-14,6.3,0.,0.,0.;                                  115P    147
126,8,2,0,1,0,0,-3.1415926535898,-3.1415926535898,                   117P    148
-3.1415926535898,-1.5707963267949,-1.5707963267949,                  117P    149
-2.22044604925031D-15,-2.22044604925031D-15,1.57079632679489,        117P    150
1.57079632679489,3.14159265358979,3.14159265358979,                  117P    151
3.14159265358979,1.,0.707106781186551,1.,0.707106781186556,1.,       117P    152
0.707106781186551,1.,0.707106781186556,1.,9.74999976158188,          117P    153
-14.0389997437001,3.00000004470348,9.74999976158188,                 117P    154
-14.0389997437001,2.80000004470348,9.74999976158188,                 117P    155
-14.2389997437001,2.80000004470348,9.74999976158188,                 117P    156
-14.4389997437001,2.80000004470347,9.74999976158188,                 117P    157
-14.4389997437001,3.00000004470348,9.74999976158188,                 117P    158
-14.4389997437001,3.20000004470348,9.74999976158188,                 117P    159
-14.2389997437001,3.20000004470348,9.74999976158188,                 117P    160
-14.0389997437001,3.20000004470348,9.74999976158188,                 117P    161
-14.0389997437001,3.00000004470348,-3.1415926535898,                 117P    162
3.14159265358979,0.,0.,0.;                                           117P    163
126,1,1,0,0,1,0,-0.600000000000001,-0.600000000000001,               119P    164
-4.44089209850063D-16,-4.44089209850063D-16,1.,1.,                   119P    165
8.48999930968017,-15.7389997437001,-6.66133814775094D-15,            119P    166
8.48999930968017,-15.7389997437001,5.99999999999999,                 119P    167
-0.600000000000001,-4.44089209850063D-16,0.,0.,0.;                   119P    168
126,1,1,0,0,1,0,-0.258749930262595,-0.258749930262595,               121P    169
-0.132749885072423,-0.132749885072423,1.,1.,9.74999976158189,        121P    170
-15.7389997437001,0.,8.48999930968017,-15.7389997437001,0.,          121P    171
-0.258749930262595,-0.132749885072423,0.,0.,0.;                      121P    172
126,1,1,0,0,1,0,-0.3,-0.3,0.3,0.3,1.,1.,9.7499997615819,             123P    173
-15.7389997437001,6.,9.7499997615819,-15.7389997437001,              123P    174
2.22044604925031D-15,-0.3,0.3,0.,0.,0.;                              123P    175
126,1,1,0,0,1,0,0.,0.,0.6,0.6,1.,1.,8.48999930967997,                125P    176
-12.5099998572453,6.,8.48999930967997,-12.5099998572453,             125P    177
-4.44089209850063D-15,0.,0.6,0.,0.,0.;                               125P    178
126,1,1,0,0,1,0,-0.316999988645479,-0.316999988645479,               127P    179
0.00590000000000002,0.00590000000000002,1.,1.,8.48999930968017,      127P    180
-12.5099998572453,-6.66133814775094D-15,8.48999930968017,            127P    181
-15.7389997437001,-6.66133814775094D-15,-0.316999988645479,          127P    182
0.00590000000000002,0.,0.,0.;                                        127P    183
126,1,1,0,0,1,0,-0.0852499315640071,-0.0852499315640071,             129P    184
0.0287500232458008,0.0287500232458008,1.,1.,8.48999930967997,        129P    185
-12.5099998572453,0.,7.34999976158189,-12.5099998572453,0.,          129P    186
-0.0852499315640071,0.0287500232458008,0.,0.,0.;                     129P    187
126,1,1,0,0,1,0,0.,0.,0.0849999880790711,0.0849999880790711,1.,      131P    188
1.,9.74999976158188,-6.98999985098868,0.,8.89999988079117,           131P    189
-6.98999985098868,0.,0.,0.0849999880790711,0.,0.,0.;                 131P    190
126,1,1,0,0,1,0,0.,0.,0.6,0.6,1.,1.,9.74999976158188,                133P    191
-6.98999985098868,0.,9.74999976158188,-6.98999985098868,6.,0.,       133P    192
0.6,0.,0.,0.;                                                        133P    193
126,1,1,0,0,1,0,-10.,-10.,0.,0.,1.,1.,9.09999930974571,              135P    194
-9.17999985724528,6.,9.09999930974571,-9.17999985724528,0.,-10.,     135P    195
0.,0.,0.,0.;                                                         135P    196
126,8,2,0,1,0,0,-3.14159265358979,-3.14159265358979,                 137P    197
-3.14159265358979,-1.5707963267949,-1.5707963267949,0.,0.,           137P    198
1.5707963267949,1.5707963267949,3.14159265358979,                    137P    199
3.14159265358979,3.14159265358979,1.,0.707106781186548,1.,           137P    200
0.707106781186548,1.,0.707106781186548,1.,0.707106781186548,1.,      137P    201
9.09999930974571,-9.17999985724528,0.,9.09999930974571,              137P    202
-9.77999985724528,0.,8.49999930974571,-9.77999985724528,0.,          137P    203
7.89999930974571,-9.77999985724528,0.,7.89999930974571,              137P    204
-9.17999985724528,0.,7.89999930974571,-8.57999985724528,0.,          137P    205
8.49999930974571,-8.57999985724528,0.,9.09999930974571,              137P    206
-8.57999985724528,0.,9.09999930974571,-9.17999985724528,0.,          137P    207
-3.14159265358979,3.14159265358979,0.,0.,0.;                         137P    208
126,1,1,0,0,1,0,0.4391,0.4391,1.31399998927114,1.31399998927114,     139P    209
1.,1.,9.7499997615819,-15.7389997437001,0.,9.7499997615819,          139P    210
-6.98999985098868,0.,0.4391,1.31399998927114,0.,0.,0.;               139P    211
128,1,1,1,1,0,0,1,0,0,-0.001,-0.001,0.601,0.601,-0.001,-0.001,       141P    212
0.220999988079071,0.220999988079071,1.,1.,1.,1.,                     141P    213
8.89999988079117,-6.99999985098868,6.01,8.89999988079117,            141P    214
-6.99999985098868,-0.01,8.89999988079117,-4.77999997019797,6.01,     141P    215
8.89999988079117,-4.77999997019797,-0.01,-0.001,0.601,-0.001,        141P    216
0.220999988079071;                                                   141P    217
128,1,1,1,1,0,0,1,0,0,-0.0685000464916035,-0.0685000464916035,       143P    218
0.173499953508399,0.173499953508399,-0.530399994635569,              143P    219
-0.530399994635569,0.83649999463557,0.83649999463557,1.,1.,1.,       143P    220
1.,7.33999976158187,-15.7489997437001,6.,9.7599997615819,            143P    221
-15.7489997437001,6.,7.33999976158187,-2.07999985098868,6.,          143P    222
9.7599997615819,-2.07999985098868,6.,-0.0685000464916035,            143P    223
0.173499953508399,-0.530399994635569,0.83649999463557;               143P    224
128,1,1,1,1,0,0,1,0,0,-0.001,-0.001,0.601,0.601,-0.011,-0.011,       145P    225
0.0659999880790714,0.0659999880790714,1.,1.,1.,1.,                   145P    226
8.88999988079117,-4.78999997019797,6.01,8.88999988079117,            145P    227
-4.78999997019797,-0.01,9.65999976158188,-4.78999997019797,6.01,     145P    228
9.65999976158188,-4.78999997019797,-0.01,-0.001,0.601,-0.011,        145P    229
0.0659999880790714;                                                  145P    230
128,1,1,1,1,0,0,1,0,0,-0.001,-0.001,0.601,0.601,0.019,0.019,         147P    231
0.291000011920929,0.291000011920929,1.,1.,1.,1.,                     147P    232
9.64999976158188,-4.79999997019797,6.01,9.64999976158188,            147P    233
-4.79999997019797,-0.01,9.64999976158187,-2.07999985098868,6.01,     147P    234
9.64999976158187,-2.07999985098868,-0.01,-0.001,0.601,0.019,         147P    235
0.291000011920929;                                                   147P    236
128,1,1,1,1,0,0,1,0,0,-0.601,-0.601,0.001,0.001,-0.241,-0.241,       149P    237
-0.00900000000000001,-0.00900000000000001,1.,1.,1.,1.,               149P    238
7.33999976158187,-2.08999985098868,-0.01,7.33999976158187,           149P    239
-2.08999985098868,6.01,9.65999976158187,-2.08999985098868,-0.01,     149P    240
9.65999976158187,-2.08999985098868,6.01,-0.601,0.001,-0.241,         149P    241
-0.00900000000000001;                                                149P    242
128,1,1,1,1,0,0,1,0,0,-0.601,-0.601,0.00100000000000044,             151P    243
0.00100000000000044,-1.05300000062566,-1.05300000062566,             151P    244
-0.00900000000000001,-0.00900000000000001,1.,1.,1.,1.,               151P    245
7.3499997615819,-12.5199998572453,-0.0100000000000044,               151P    246
7.3499997615819,-12.5199998572453,6.01,7.34999976158187,             151P    247
-2.07999985098868,-0.0100000000000044,7.34999976158187,              151P    248
-2.07999985098868,6.01,-0.601,0.00100000000000044,                   151P    249
-1.05300000062566,-0.00900000000000001;                              151P    250
128,1,8,1,2,0,1,0,0,1,-2.97821732002621D-14,                         153P    251
-2.97821732002621D-14,6.30000225950858,6.30000225950858,             153P    252
-3.14159265358979,-3.14159265358979,-3.14159265358979,               153P    253
-1.5707963267949,-1.5707963267949,0.,0.,1.5707963267949,             153P    254
1.5707963267949,3.14159265358979,3.14159265358979,                   153P    255
3.14159265358979,1.,1.,0.707106781186548,0.707106781186548,1.,       153P    256
1.,0.707106781186548,0.707106781186548,1.,1.,0.707106781186548,      153P    257
0.707106781186548,1.,1.,0.707106781186548,0.707106781186548,1.,      153P    258
1.,8.48999930968016,-14.0389997437001,3.00000004470348,              153P    259
9.74999976158188,-14.0389997437001,3.00000004470348,                 153P    260
8.48999930968016,-14.0389997437001,3.20000004470348,                 153P    261
9.74999976158188,-14.0389997437001,3.20000004470348,                 153P    262
8.48999930968016,-14.2389997437001,3.20000004470348,                 153P    263
9.74999976158188,-14.2389997437001,3.20000004470348,                 153P    264
8.48999930968016,-14.4389997437001,3.20000004470348,                 153P    265
9.74999976158188,-14.4389997437001,3.20000004470348,                 153P    266
8.48999930968016,-14.4389997437001,3.00000004470348,                 153P    267
9.74999976158188,-14.4389997437001,3.00000004470348,                 153P    268
8.48999930968016,-14.4389997437001,2.80000004470348,                 153P    269
9.74999976158188,-14.4389997437001,2.80000004470348,                 153P    270
8.48999930968016,-14.2389997437001,2.80000004470348,                 153P    271
9.74999976158188,-14.2389997437001,2.80000004470348,                 153P    272
8.48999930968016,-14.0389997437001,2.80000004470348,                 153P    273
9.74999976158188,-14.0389997437001,2.80000004470348,                 153P    274
8.48999930968016,-14.0389997437001,3.00000004470348,                 153P    275
9.74999976158188,-14.0389997437001,3.00000004470348,                 153P    276
-2.97821732002621D-14,6.30000225950858,-3.14159265358979,            153P    277
3.14159265358979;                                                    153P    278
128,1,1,1,1,0,0,1,0,0,-0.601000000000001,-0.601000000000001,         155P    279
0.001,0.001,0.21799986182662,0.21799986182662,0.345999907016793,     155P    280
0.345999907016793,1.,1.,1.,1.,8.47999930968017,                      155P    281
-15.7389997437001,6.01,8.47999930968017,-15.7389997437001,           155P    282
-0.0100000000000067,9.7599997615819,-15.7389997437001,6.01,          155P    283
9.7599997615819,-15.7389997437001,-0.0100000000000067,               155P    284
-0.601000000000001,0.001,0.21799986182662,0.345999907016793;         155P    285
128,1,1,1,1,0,0,1,0,0,-0.00100000000000014,-0.00100000000000014,     157P    286
0.323899988645479,0.323899988645479,-0.00100000000000011,            157P    287
-0.00100000000000011,0.601,0.601,1.,1.,1.,1.,8.48999930968017,       157P    288
-15.7489997437001,6.00999999999999,8.48999930968015,                 157P    289
-12.4999998572453,6.01,8.48999930968017,-15.7489997437001,           157P    290
-0.0100000000000089,8.48999930968015,-12.4999998572453,              157P    291
-0.0100000000000067,-0.00100000000000014,0.323899988645479,          157P    292
-0.00100000000000011,0.601;                                          157P    293
128,1,1,1,1,0,0,1,0,0,0.00900000000000001,0.00900000000000001,       159P    294
0.124999954809808,0.124999954809808,-0.00100000000000045,            159P    295
-0.00100000000000045,0.601,0.601,1.,1.,1.,1.,8.49999930967997,       159P    296
-12.5099998572453,6.01,7.33999976158189,-12.5099998572453,6.01,      159P    297
8.49999930967997,-12.5099998572453,-0.0100000000000044,              159P    298
7.33999976158189,-12.5099998572453,-0.0100000000000044,              159P    299
0.00900000000000001,0.124999954809808,-0.00100000000000045,          159P    300
0.601;                                                               159P    301
128,1,1,1,1,0,0,1,0,0,-0.001,-0.001,0.0859999880790711,              161P    302
0.0859999880790711,-0.001,-0.001,0.601,0.601,1.,1.,1.,1.,            161P    303
9.75999976158188,-6.98999985098868,-0.01,8.88999988079117,           161P    304
-6.98999985098868,-0.01,9.75999976158188,-6.98999985098868,6.01,     161P    305
8.88999988079117,-6.98999985098868,6.01,-0.001,                      161P    306
0.0859999880790711,-0.001,0.601;                                     161P    307
128,1,8,1,2,0,1,0,0,1,0.,0.,10.,10.,-3.14159265358979,               163P    308
-3.14159265358979,-3.14159265358979,-1.5707963267949,                163P    309
-1.5707963267949,0.,0.,1.5707963267949,1.5707963267949,              163P    310
3.14159265358979,3.14159265358979,3.14159265358979,1.,1.,            163P    311
0.707106781186548,0.707106781186548,1.,1.,0.707106781186548,         163P    312
0.707106781186548,1.,1.,0.707106781186548,0.707106781186548,1.,      163P    313
1.,0.707106781186548,0.707106781186548,1.,1.,9.09999930974571,       163P    314
-9.17999985724528,0.,9.09999930974571,-9.17999985724528,6.,          163P    315
9.09999930974571,-8.57999985724528,0.,9.09999930974571,              163P    316
-8.57999985724528,6.,8.49999930974571,-8.57999985724528,0.,          163P    317
8.49999930974571,-8.57999985724528,6.,7.89999930974571,              163P    318
-8.57999985724528,0.,7.89999930974571,-8.57999985724528,6.,          163P    319
7.89999930974571,-9.17999985724528,0.,7.89999930974571,              163P    320
-9.17999985724528,6.,7.89999930974571,-9.77999985724528,0.,          163P    321
7.89999930974571,-9.77999985724528,6.,8.49999930974571,              163P    322
-9.77999985724528,0.,8.49999930974571,-9.77999985724528,6.,          163P    323
9.09999930974571,-9.77999985724528,0.,9.09999930974571,              163P    324
-9.77999985724528,6.,9.09999930974571,-9.17999985724528,0.,          163P    325
9.09999930974571,-9.17999985724528,6.,0.,10.,-3.14159265358979,      163P    326
3.14159265358979;                                                    163P    327
128,1,1,1,1,0,0,1,0,0,-0.0685000464916035,-0.0685000464916035,       165P    328
0.173499953508399,0.173499953508399,-0.530399994635569,              165P    329
-0.530399994635569,0.83649999463557,0.83649999463557,1.,1.,1.,       165P    330
1.,9.7599997615819,-15.7489997437001,0.,7.33999976158187,            165P    331
-15.7489997437001,0.,9.7599997615819,-2.07999985098868,0.,           165P    332
7.33999976158187,-2.07999985098868,0.,-0.0685000464916035,           165P    333
0.173499953508399,-0.530399994635569,0.83649999463557;               165P    334
128,1,1,1,1,0,0,1,0,0,0.3151,0.3151,1.19199998927114,                167P    335
1.19199998927114,-0.001,-0.001,0.601,0.601,1.,1.,1.,1.,              167P    336
9.7499997615819,-15.7489997437001,-0.01,9.7499997615819,             167P    337
-6.97999985098868,-0.01,9.7499997615819,-15.7489997437001,6.01,      167P    338
9.7499997615819,-6.97999985098868,6.01,0.3151,1.19199998927114,      167P    339
-0.001,0.601;                                                        167P    340
502,24,8.89999988079117,-4.78999997019797,0.,8.89999988079117,       169P    341
-6.98999985098868,0.,8.89999988079117,-4.78999997019797,6.,          169P    342
8.89999988079117,-6.98999985098868,6.,9.74999976158188,              169P    343
-6.98999985098868,6.,9.64999976158188,-4.78999997019797,6.,          169P    344
9.64999976158187,-2.08999985098868,6.,7.34999976158187,              169P    345
-2.08999985098868,6.,7.34999976158189,-12.5099998572453,6.,          169P    346
8.48999930967997,-12.5099998572453,6.,8.48999930968017,              169P    347
-15.7389997437001,5.99999999999999,9.74999976158189,                 169P    348
-15.7389997437001,6.,9.09999930974571,-9.17999985724528,6.,          169P    349
9.64999976158188,-4.78999997019797,0.,9.64999976158187,              169P    350
-2.08999985098868,0.,7.34999976158187,-2.08999985098868,0.,          169P    351
7.34999976158189,-12.5099998572453,-4.44089209850063D-15,            169P    352
8.48999930968016,-14.0389997437001,3.00000004470348,                 169P    353
9.74999930968016,-14.0389997437001,3.00000004470348,                 169P    354
8.48999930968017,-15.7389997437001,-6.66133814775094D-15,            169P    355
9.74999976158189,-15.7389997437001,2.22044604925031D-15,             169P    356
8.48999930967997,-12.5099998572453,-4.44089209850063D-15,            169P    357
9.74999976158188,-6.98999985098868,0.,9.09999930974571,              169P    358
-9.17999985724528,0.;                                                169P    359
504,36,69,169,1,169,2,71,169,3,169,1,73,169,4,169,3,75,169,2,        171P    360
169,4,77,169,5,169,4,79,169,3,169,6,81,169,6,169,7,83,169,7,169,     171P    361
8,85,169,8,169,9,87,169,9,169,10,89,169,10,169,11,91,169,11,169,     171P    362
12,93,169,12,169,5,95,169,13,169,13,97,169,6,169,14,99,169,14,       171P    363
169,1,101,169,15,169,14,103,169,7,169,15,105,169,16,169,15,107,      171P    364
169,8,169,16,109,169,17,169,16,111,169,9,169,17,113,169,18,169,      171P    365
18,115,169,18,169,19,117,169,19,169,19,119,169,20,169,11,121,        171P    366
169,21,169,20,123,169,12,169,21,125,169,10,169,22,127,169,22,        171P    367
169,20,129,169,22,169,17,131,169,23,169,2,133,169,23,169,5,135,      171P    368
169,13,169,24,137,169,24,169,24,139,169,21,169,23;                   171P    369
406,1,5HBody1;                                                       173P    370
314,65.0980392156863,0.,100.,38HPaint - Enamel Glossy (Vibrant P     175P    371
urple);                                                              175P    372
314,62.7450980392157,62.7450980392157,62.7450980392157,13HSteel      177P    373
- Satin;                                                             177P    374
S      1G      4D    178P    374                                        T      1
