                                                                        S      1
,,63Htriad-v2c-right-arm-close-sp-nn-1mm-ext-0.5mm-shift-rig-Prot v2,63HG      1
triad-v2c-right-arm-close-sp-nn-1mm-ext-0.5mm-shift-rig-Prot v2,7HunknowG      2
n,7Hunknown,32,38,7,99,15,,1.,2,2HMM,1,0.08,15H20211119.000730,0.01,    G      3
10000.,7Hunknown,7Hunknown,11,0,15H20211119.053925;                     G      4
     186       1                                                00000000D      1
     186            -187       1       0                               0D      2
     514       2                                                00010000D      3
     514                       2       1                               0D      4
     510       4                                                00010000D      5
     510            -187       1       1                               0D      6
     510       5                                                00010000D      7
     510            -187       1       1                               0D      8
     510       6                                                00010000D      9
     510            -187       1       1                               0D     10
     510       7                                                00010000D     11
     510            -187       1       1                               0D     12
     510       8                                                00010000D     13
     510            -187       1       1                               0D     14
     510       9                                                00010000D     15
     510            -187       1       1                               0D     16
     510      10                                                00010000D     17
     510            -187       1       1                               0D     18
     510      11                                                00010000D     19
     510            -187       1       1                               0D     20
     510      12                                                00010000D     21
     510            -187       1       1                               0D     22
     510      13                                                00010000D     23
     510            -187       1       1                               0D     24
     510      14                                                00010000D     25
     510            -187       1       1                               0D     26
     510      15                                                00010000D     27
     510            -187       1       1                               0D     28
     510      16                                                00010000D     29
     510            -187       1       1                               0D     30
     510      17                                                00010000D     31
     510            -187       1       1                               0D     32
     510      18                                                00010000D     33
     510            -187       1       1                               0D     34
     508      19                                                00010000D     35
     508                       3       1                               0D     36
     508      22                                                00010000D     37
     508                       1       1                               0D     38
     508      23                                                00010000D     39
     508                       1       1                               0D     40
     508      24                                                00010000D     41
     508                       3       1                               0D     42
     508      27                                                00010000D     43
     508                       1       1                               0D     44
     508      28                                                00010000D     45
     508                       1       1                               0D     46
     508      29                                                00010000D     47
     508                       1       1                               0D     48
     508      30                                                00010000D     49
     508                       1       1                               0D     50
     508      31                                                00010000D     51
     508                       1       1                               0D     52
     508      32                                                00010000D     53
     508                       1       1                               0D     54
     508      33                                                00010000D     55
     508                       1       1                               0D     56
     508      34                                                00010000D     57
     508                       1       1                               0D     58
     508      35                                                00010000D     59
     508                       1       1                               0D     60
     508      36                                                00010000D     61
     508                       1       1                               0D     62
     508      37                                                00010000D     63
     508                       1       1                               0D     64
     508      38                                                00010000D     65
     508                       2       1                               0D     66
     508      40                                                00010000D     67
     508                       1       1                               0D     68
     508      41                                                00010000D     69
     508                       1       1                               0D     70
     508      42                                                00010000D     71
     508                       2       1                               0D     72
     126      44                                                00010000D     73
     126       0               4       0                               0D     74
     126      48                                                00010000D     75
     126       0               4       0                               0D     76
     126      52                                                00010000D     77
     126       0               4       0                               0D     78
     126      56                                                00010000D     79
     126       0               4       0                               0D     80
     126      60                                                00010000D     81
     126       0               4       0                               0D     82
     126      64                                                00010000D     83
     126       0               4       0                               0D     84
     126      68                                                00010000D     85
     126       0               4       0                               0D     86
     126      72                                                00010000D     87
     126       0               4       0                               0D     88
     126      76                                                00010000D     89
     126       0               4       0                               0D     90
     126      80                                                00010000D     91
     126       0               5       0                               0D     92
     126      85                                                00010000D     93
     126       0              12       0                               0D     94
     126      97                                                00010000D     95
     126       0               4       0                               0D     96
     126     101                                                00010000D     97
     126       0               3       0                               0D     98
     126     104                                                00010000D     99
     126       0               3       0                               0D    100
     126     107                                                00010000D    101
     126       0               4       0                               0D    102
     126     111                                                00010000D    103
     126       0               5       0                               0D    104
     126     116                                                00010000D    105
     126       0               4       0                               0D    106
     126     120                                                00010000D    107
     126       0               4       0                               0D    108
     126     124                                                00010000D    109
     126       0               4       0                               0D    110
     126     128                                                00010000D    111
     126       0               4       0                               0D    112
     126     132                                                00010000D    113
     126       0               4       0                               0D    114
     126     136                                                00010000D    115
     126       0               4       0                               0D    116
     126     140                                                00010000D    117
     126       0               4       0                               0D    118
     126     144                                                00010000D    119
     126       0              12       0                               0D    120
     126     156                                                00010000D    121
     126       0               3       0                               0D    122
     126     159                                                00010000D    123
     126       0               3       0                               0D    124
     126     162                                                00010000D    125
     126       0               3       0                               0D    126
     126     165                                                00010000D    127
     126       0               3       0                               0D    128
     126     168                                                00010000D    129
     126       0              13       0                               0D    130
     126     181                                                00010000D    131
     126       0              13       0                               0D    132
     126     194                                                00010000D    133
     126       0              15       0                               0D    134
     126     209                                                00010000D    135
     126       0               5       0                               0D    136
     126     214                                                00010000D    137
     126       0              15       0                               0D    138
     126     229                                                00010000D    139
     126       0               3       0                               0D    140
     126     232                                                00010000D    141
     126       0               3       0                               0D    142
     126     235                                                00010000D    143
     126       0               4       0                               0D    144
     126     239                                                00010000D    145
     126       0               4       0                               0D    146
     126     243                                                00010000D    147
     126       0               4       0                               0D    148
     126     247                                                00010000D    149
     126       0               3       0                               0D    150
     128     250                                                00010000D    151
     128       0    -187       7       0                               0D    152
     128     257                                                00010000D    153
     128       0    -187       6       0                               0D    154
     128     263                                                00010000D    155
     128       0    -187       7       0                               0D    156
     128     270                                                00010000D    157
     128       0    -187       7       0                               0D    158
     128     277                                                00010000D    159
     128       0    -187       7       0                               0D    160
     128     284                                                00010000D    161
     128       0    -187       7       0                               0D    162
     128     291                                                00010000D    163
     128       0    -187       7       0                               0D    164
     128     298                                                00010000D    165
     128       0    -187      23       0                               0D    166
     128     321                                                00010000D    167
     128       0    -187      28       0                               0D    168
     128     349                                                00010000D    169
     128       0    -187       8       0                               0D    170
     128     357                                                00010000D    171
     128       0    -187      20       0                               0D    172
     128     377                                                00010000D    173
     128       0    -187       8       0                               0D    174
     128     385                                                00010000D    175
     128       0    -187       8       0                               0D    176
     128     393                                                00010000D    177
     128       0    -187       6       0                               0D    178
     128     399                                                00010000D    179
     128       0    -187       7       0                               0D    180
     502     406                                                00010000D    181
     502                      21       1                               0D    182
     504     427                                                00010001D    183
     504                      11       1                               0D    184
     406     438                                                00000000D    185
     406                       1      15                               0D    186
     314     439                                                00000200D    187
     314                       2       0                               0D    188
186,3,1,0,0,1,185;                                                     1P      1
514,15,5,1,7,1,9,1,11,1,13,1,15,1,17,1,19,1,21,1,23,1,25,1,27,1,       3P      2
29,1,31,1,33,1;                                                        3P      3
510,151,2,1,35,37;                                                     5P      4
510,153,1,1,39;                                                        7P      5
510,155,2,1,41,43;                                                     9P      6
510,157,1,1,45;                                                       11P      7
510,159,1,1,47;                                                       13P      8
510,161,1,1,49;                                                       15P      9
510,163,1,1,51;                                                       17P     10
510,165,1,1,53;                                                       19P     11
510,167,1,1,55;                                                       21P     12
510,169,2,1,57,59;                                                    23P     13
510,171,1,1,61;                                                       25P     14
510,173,1,1,63;                                                       27P     15
510,175,2,1,65,67;                                                    29P     16
510,177,1,1,69;                                                       31P     17
510,179,1,1,71;                                                       33P     18
508,10,0,183,1,1,0,0,183,2,1,0,0,183,3,1,0,0,183,4,1,0,0,183,5,       35P     19
1,0,0,183,6,1,0,0,183,7,1,0,0,183,8,1,0,0,183,9,0,0,0,183,10,0,       35P     20
0;                                                                    35P     21
508,1,0,183,11,1,0;                                                   37P     22
508,4,0,183,12,0,0,0,183,13,0,0,0,183,5,0,0,0,183,14,0,0;             39P     23
508,10,0,183,15,1,0,0,183,16,1,0,0,183,17,1,0,0,183,18,1,0,0,         41P     24
183,19,1,0,0,183,20,0,0,0,183,12,1,0,0,183,21,1,0,0,183,22,1,0,       41P     25
0,183,23,1,0;                                                         41P     26
508,1,0,183,24,0,0;                                                   43P     27
508,4,0,183,25,0,0,0,183,21,0,0,0,183,14,1,0,0,183,4,0,0;             45P     28
508,4,0,183,25,1,0,0,183,3,0,0,0,183,26,0,0,0,183,22,0,0;             47P     29
508,4,0,183,26,1,0,0,183,2,0,0,0,183,27,0,0,0,183,23,0,0;             49P     30
508,4,0,183,27,1,0,0,183,1,0,0,0,183,28,0,0,0,183,15,0,0;             51P     31
508,2,0,183,29,0,0,0,183,30,1,0;                                      53P     32
508,4,0,183,31,0,0,0,183,32,1,0,0,183,33,1,0,0,183,32,0,0;            55P     33
508,4,0,183,28,1,0,0,183,10,1,0,0,183,34,1,0,0,183,16,0,0;            57P     34
508,1,0,183,31,1,0;                                                   59P     35
508,4,0,183,11,0,0,0,183,35,1,0,0,183,24,1,0,0,183,35,0,0;            61P     36
508,4,0,183,36,1,0,0,183,17,0,0,0,183,34,0,0,0,183,9,1,0;             63P     37
508,6,0,183,37,1,0,0,183,30,0,0,0,183,38,1,0,0,183,18,0,0,0,183,      65P     38
36,0,0,0,183,8,0,0;                                                   65P     39
508,1,0,183,33,0,0;                                                   67P     40
508,4,0,183,39,1,0,0,183,6,0,0,0,183,13,1,0,0,183,20,1,0;             69P     41
508,6,0,183,29,1,0,0,183,37,0,0,0,183,7,0,0,0,183,39,0,0,0,183,       71P     42
19,0,0,0,183,38,0,0;                                                  71P     43
126,1,1,0,0,1,0,-0.235350761996854,-0.235350761996854,                73P     44
1.06085075607414,1.06085075607414,1.,1.,13.669999823238,              73P     45
-15.0520150358212,6.,13.6699992888674,-2.08999985511118,6.,           73P     46
-0.235350761996854,1.06085075607414,0.,0.,0.;                         73P     47
126,1,1,0,0,1,0,-0.00674995291233604,-0.00674995291233604,            75P     48
0.273249999403948,0.273249999403948,1.,1.,13.6699992847448,           75P     49
-2.08999985511118,6.,10.8699997615819,-2.08999985511118,6.,           75P     50
-0.00674995291233604,0.273249999403948,0.,0.,0.;                      75P     51
126,1,1,0,0,1,0,-0.412749997317787,-0.412749997317787,                77P     52
-0.142749985396858,-0.142749985396858,1.,1.,10.8699997615819,         77P     53
-2.08999985098862,6.,10.8699997615819,-4.78999997019791,6.,           77P     54
-0.412749997317787,-0.142749985396858,0.,0.,0.;                       77P     55
126,1,1,0,0,1,0,-0.160749987483016,-0.160749987483016,                79P     56
-0.0857500590085905,-0.0857500590085905,1.,1.,10.8699997615819,       79P     57
-4.78999997019791,6.,11.6199990463262,-4.7899999701979,6.,            79P     58
-0.160749987483016,-0.0857500590085905,0.,0.,0.;                      79P     59
126,1,1,0,0,1,0,-0.292749991357323,-0.292749991357323,                81P     60
-0.0727500032782515,-0.0727500032782515,1.,1.,11.6199990463262,       81P     61
-4.7899999701979,6.,11.6199990463262,-6.98999985098861,6.,            81P     62
-0.292749991357323,-0.0727500032782515,0.,0.,0.;                      81P     63
126,1,1,0,0,1,0,-0.01,-0.01,0.0499999284744261,                       83P     64
0.0499999284744261,1.,1.,11.6199990463262,-6.98999985098861,6.,       83P     65
11.0199997615819,-6.98999985098862,6.,-0.01,0.0499999284744261,       83P     66
0.,0.,0.;                                                             83P     67
126,1,1,0,0,1,0,-0.172749997317787,-0.172749997317787,                85P     68
0.720260618498859,0.720260618498859,1.,1.,11.0199997615819,           85P     69
-6.98999985098862,6.,11.019999761582,-15.9201060091551,6.,            85P     70
-0.172749997317787,0.720260618498859,0.,0.,0.;                        85P     71
126,1,1,0,0,1,0,0.296635066318976,0.296635066318976,                  87P     72
0.408642197887199,0.408642197887199,1.,1.,11.0199997615819,           87P     73
-15.9201060091551,6.,10.22798973902,-16.712116032056,6.,              87P     74
0.296635066318976,0.408642197887199,0.,0.,0.;                         87P     75
126,1,1,0,0,1,0,0.,0.,0.125999999988452,0.125999999988452,1.,1.,      89P     76
11.118944283424,-17.6030705760787,5.99999999999999,                   89P     77
10.22798973902,-16.712116032056,5.99999999999999,0.,                  89P     78
0.125999999988452,0.,0.,0.;                                           89P     79
126,1,1,0,0,1,0,-0.360773734308562,-0.360773734308562,                91P     80
-2.73024079898212D-26,-2.73024079898212D-26,1.,1.,                    91P     81
13.669999823238,-15.0520150358212,6.,11.118944283424,                 91P     82
-17.6030705760787,6.,-0.360773734308562,-2.73024079898212D-26,        91P     83
0.,0.,0.;                                                             91P     84
126,8,2,0,1,0,0,-3.14159265358979,-3.14159265358979,                  93P     85
-3.14159265358979,-1.5707963267949,-1.5707963267949,0.,0.,            93P     86
1.5707963267949,1.5707963267949,3.14159265358979,                     93P     87
3.14159265358979,3.14159265358979,1.,0.707106781186545,1.,            93P     88
0.707106781186545,1.,0.707106781186545,1.,0.707106781186545,1.,       93P     89
13.1799998402214,-3.1799998678633,6.,13.1799998402214,                93P     90
-3.7799998678633,6.,12.5799998402214,-3.7799998678633,6.,             93P     91
11.9799998402214,-3.7799998678633,6.,11.9799998402214,                93P     92
-3.1799998678633,6.,11.9799998402214,-2.5799998678633,6.,             93P     93
12.5799998402214,-2.5799998678633,6.,13.1799998402214,                93P     94
-2.5799998678633,6.,13.1799998402214,-3.1799998678633,6.,             93P     95
-3.14159265358979,3.14159265358979,0.,0.,0.;                          93P     96
126,1,1,0,0,1,0,0.0727500032782515,0.0727500032782515,                95P     97
0.292749991357323,0.292749991357323,1.,1.,11.6199990463262,           95P     98
-6.98999985098861,0.,11.6199990463262,-4.7899999701979,0.,            95P     99
0.0727500032782515,0.292749991357323,0.,0.,0.;                        95P    100
126,1,1,0,0,1,0,-0.6,-0.6,0.,0.,1.,1.,11.6199990463262,               97P    101
-6.98999985098861,6.,11.6199990463262,-6.98999985098861,0.,-0.6,      97P    102
0.,0.,0.,0.;                                                          97P    103
126,1,1,0,0,1,0,0.,0.,0.6,0.6,1.,1.,11.6199990463262,                 99P    104
-4.7899999701979,0.,11.6199990463262,-4.7899999701979,6.,0.,0.6,      99P    105
0.,0.,0.;                                                             99P    106
126,1,1,0,0,1,0,-1.06085075607414,-1.06085075607414,                 101P    107
0.235350761996854,0.235350761996854,1.,1.,13.6699992888674,          101P    108
-2.08999985511118,0.,13.669999823238,-15.0520150358212,0.,           101P    109
-1.06085075607414,0.235350761996854,0.,0.,0.;                        101P    110
126,1,1,0,0,1,0,-0.360773734308562,-0.360773734308562,               103P    111
-2.7302354048703D-26,-2.7302354048703D-26,1.,1.,13.669999823238,     103P    112
-15.0520150358212,-5.01413744824165D-15,11.118944283424,             103P    113
-17.6030705760787,-4.98447879573307D-15,-0.360773734308562,          103P    114
-2.7302354048703D-26,0.,0.,0.;                                       103P    115
126,1,1,0,0,1,0,0.,0.,0.125999999988452,0.125999999988452,1.,1.,     105P    116
11.118944283424,-17.6030705760787,-6.66133814775094D-15,             105P    117
10.22798973902,-16.712116032056,-6.58484419961608D-15,0.,            105P    118
0.125999999988452,0.,0.,0.;                                          105P    119
126,1,1,0,0,1,0,-0.408642197887199,-0.408642197887199,               107P    120
-0.296635066318976,-0.296635066318976,1.,1.,10.22798973902,          107P    121
-16.712116032056,0.,11.0199997615819,-15.9201060091551,0.,           107P    122
-0.408642197887199,-0.296635066318976,0.,0.,0.;                      107P    123
126,1,1,0,0,1,0,-0.720260618498859,-0.720260618498859,               109P    124
0.172749997317787,0.172749997317787,1.,1.,11.019999761582,           109P    125
-15.9201060091551,0.,11.0199997615819,-6.98999985098861,0.,          109P    126
-0.720260618498859,0.172749997317787,0.,0.,0.;                       109P    127
126,1,1,0,0,1,0,-0.01,-0.01,0.0499999284744261,                      111P    128
0.0499999284744261,1.,1.,11.6199990463262,-6.98999985098861,0.,      111P    129
11.0199997615819,-6.98999985098862,0.,-0.01,0.0499999284744261,      111P    130
0.,0.,0.;                                                            111P    131
126,1,1,0,0,1,0,0.0857500590085905,0.0857500590085905,               113P    132
0.160749987483016,0.160749987483016,1.,1.,11.6199990463262,          113P    133
-4.7899999701979,0.,10.8699997615819,-4.78999997019791,0.,           113P    134
0.0857500590085905,0.160749987483016,0.,0.,0.;                       113P    135
126,1,1,0,0,1,0,0.142749985396858,0.142749985396858,                 115P    136
0.412749997317787,0.412749997317787,1.,1.,10.8699997615819,          115P    137
-4.78999997019791,0.,10.8699997615819,-2.08999985098862,0.,          115P    138
0.142749985396858,0.412749997317787,0.,0.,0.;                        115P    139
126,1,1,0,0,1,0,-0.273249999403948,-0.273249999403948,               117P    140
0.00674995291233604,0.00674995291233604,1.,1.,10.8699997615819,      117P    141
-2.08999985511118,0.,13.6699992847448,-2.08999985511118,0.,          117P    142
-0.273249999403948,0.00674995291233604,0.,0.,0.;                     117P    143
126,8,2,0,1,0,0,-3.14159265358979,-3.14159265358979,                 119P    144
-3.14159265358979,-1.5707963267949,-1.5707963267949,0.,0.,           119P    145
1.5707963267949,1.5707963267949,3.14159265358979,                    119P    146
3.14159265358979,3.14159265358979,1.,0.707106781186545,1.,           119P    147
0.707106781186545,1.,0.707106781186545,1.,0.707106781186545,1.,      119P    148
13.1799998402214,-3.1799998678633,0.,13.1799998402214,               119P    149
-3.7799998678633,0.,12.5799998402214,-3.7799998678633,0.,            119P    150
11.9799998402214,-3.7799998678633,0.,11.9799998402214,               119P    151
-3.1799998678633,0.,11.9799998402214,-2.5799998678633,0.,            119P    152
12.5799998402214,-2.5799998678633,0.,13.1799998402214,               119P    153
-2.5799998678633,0.,13.1799998402214,-3.1799998678633,0.,            119P    154
-3.14159265358979,3.14159265358979,0.,0.,0.;                         119P    155
126,1,1,0,0,1,0,0.,0.,0.6,0.6,1.,1.,10.8699997615819,                121P    156
-4.78999997019791,0.,10.8699997615819,-4.78999997019791,6.,0.,       121P    157
0.6,0.,0.,0.;                                                        121P    158
126,1,1,0,0,1,0,0.,0.,0.6,0.6,1.,1.,10.8699997615819,                123P    159
-2.08999985511118,0.,10.8699997615819,-2.08999985511118,6.,0.,       123P    160
0.6,0.,0.,0.;                                                        123P    161
126,1,1,0,0,1,0,-0.15,-0.15,0.45,0.45,1.,1.,13.6699992888673,        125P    162
-2.08999985511119,0.,13.6699992888673,-2.08999985511119,6.,          125P    163
-0.15,0.45,0.,0.,0.;                                                 125P    164
126,1,1,0,0,1,0,-0.45,-0.45,0.150000000000001,0.150000000000001,     127P    165
1.,1.,13.669999823238,-15.0520150358212,0.,13.669999823238,          127P    166
-15.0520150358212,6.,-0.45,0.150000000000001,0.,0.,0.;               127P    167
126,6,2,0,0,0,0,-2.10200007749199,-2.10200007749199,                 129P    168
-2.10200007749199,-0.700666692497332,-0.700666692497332,             129P    169
0.700666692497331,0.700666692497331,2.10200007749199,                129P    170
2.10200007749199,2.10200007749199,1.,0.76441252223948,1.,            129P    171
0.764412522239469,1.,0.764412522239482,1.,11.019999761582,           129P    172
-15.9201060091551,2.35335156792044,11.019999761582,                  129P    173
-15.1487913226412,2.03290881213412,11.019999761582,                  129P    174
-14.5720237938,2.51645440606706,11.019999761582,                     129P    175
-13.9952562649588,2.99999999999999,11.019999761582,                  129P    176
-14.5720237938,3.48354559393293,11.019999761582,                     129P    177
-15.1487913226412,3.96709118786587,11.019999761582,                  129P    178
-15.9201060091551,3.64664843207955,-2.10200007749199,                129P    179
2.10200007749199,0.,0.,0.;                                           129P    180
126,6,2,0,0,0,0,-2.10200007749204,-2.10200007749204,                 131P    181
-2.10200007749204,-0.700666692497346,-0.700666692497346,             131P    182
0.700666692497346,0.700666692497346,2.10200007749204,                131P    183
2.10200007749204,2.10200007749204,1.,0.764412522239473,1.,           131P    184
0.764412522239477,1.,0.764412522239471,1.,11.0199997615819,          131P    185
-15.9201060091551,2.35335156792046,11.4056571047899,                 131P    186
-15.5344486657821,2.03290881213411,11.6940408691739,                 131P    187
-15.2460649012747,2.51645440606705,11.9824246335578,                 131P    188
-14.9576811367673,2.99999999999999,11.6940408691739,                 131P    189
-15.2460649012747,3.48354559393294,11.4056571047899,                 131P    190
-15.5344486657821,3.96709118786588,11.0199997615819,                 131P    191
-15.9201060091551,3.64664843207953,-2.10200007749204,                131P    192
2.10200007749204,0.,0.,0.;                                           131P    193
126,8,2,0,1,0,0,-3.14159265358979,-3.14159265358979,                 133P    194
-3.14159265358979,-1.5707963267949,-1.5707963267949,0.,0.,           133P    195
1.5707963267949,1.5707963267949,3.14159265358979,                    133P    196
3.14159265358979,3.14159265358979,1.,0.707106781186556,1.,           133P    197
0.707106781186556,1.,0.707106781186556,1.,0.707106781186556,1.,      133P    198
12.0381830988866,-16.6838317604563,2.99999999999999,                 133P    199
12.0381830988866,-16.6838317604563,3.19999999999999,                 133P    200
12.1796044551117,-16.5424104042067,3.19999999999999,                 133P    201
12.3210258113367,-16.4009890479571,3.19999999999999,                 133P    202
12.3210258113367,-16.4009890479571,2.99999999999999,                 133P    203
12.3210258113367,-16.4009890479571,2.79999999999999,                 133P    204
12.1796044551117,-16.5424104042067,2.79999999999999,                 133P    205
12.0381830988866,-16.6838317604563,2.79999999999999,                 133P    206
12.0381830988866,-16.6838317604563,2.99999999999999,                 133P    207
-3.14159265358979,3.14159265358979,0.,0.,0.;                         133P    208
126,1,1,0,0,1,0,-7.60529800337226D-16,-7.60529800337226D-16,         135P    209
6.30000000050257,6.30000000050257,1.,1.,12.0381830988866,            135P    210
-16.6838317604563,2.99999999999999,11.1472285544431,                 135P    211
-15.7928772161676,2.99999999999999,-7.60529800337226D-16,            135P    212
6.30000000050257,0.,0.,0.;                                           135P    213
126,8,2,0,1,0,0,-3.14159265358979,-3.14159265358979,                 137P    214
-3.14159265358979,-1.5707963267949,-1.5707963267949,0.,0.,           137P    215
1.5707963267949,1.5707963267949,3.14159265358979,                    137P    216
3.14159265358979,3.14159265358979,1.,0.707106781186556,1.,           137P    217
0.707106781186556,1.,0.707106781186556,1.,0.707106781186556,1.,      137P    218
11.147228554479,-15.7928772162036,2.99999999999999,                  137P    219
11.147228554479,-15.7928772162036,3.19999999999999,                  137P    220
11.288649910686,-15.651455859936,3.19999999999999,                   137P    221
11.4300712668931,-15.5100345036684,3.19999999999999,                 137P    222
11.4300712668931,-15.5100345036684,2.99999999999999,                 137P    223
11.4300712668931,-15.5100345036684,2.79999999999999,                 137P    224
11.288649910686,-15.651455859936,2.79999999999999,                   137P    225
11.147228554479,-15.7928772162036,2.79999999999999,                  137P    226
11.147228554479,-15.7928772162036,2.99999999999999,                  137P    227
-3.14159265358979,3.14159265358979,0.,0.,0.;                         137P    228
126,1,1,0,0,1,0,0.,0.,0.6,0.6,1.,1.,11.118944283424,                 139P    229
-17.6030705760787,5.99999999999999,11.118944283424,                  139P    230
-17.6030705760787,-6.66133814775094D-15,0.,0.6,0.,0.,0.;             139P    231
126,1,1,0,0,1,0,-9.99999999999999,-9.99999999999999,0.,0.,1.,1.,     141P    232
13.1799998402214,-3.1799998678633,6.,13.1799998402214,               141P    233
-3.1799998678633,0.,-9.99999999999999,0.,0.,0.,0.;                   141P    234
126,1,1,0,0,1,0,-2.22044604925031D-16,-2.22044604925031D-16,0.6,     143P    235
0.6,1.,1.,10.22798973902,-16.712116032056,6.,10.22798973902,         143P    236
-16.712116032056,-1.11022302462516D-15,-2.22044604925031D-16,        143P    237
0.6,0.,0.,0.;                                                        143P    238
126,1,1,0,0,1,0,0.,0.,0.235335156792047,0.235335156792047,1.,1.,     145P    239
11.0199997615819,-15.9201060091551,6.,11.0199997615819,              145P    240
-15.9201060091551,3.64664843207953,0.,0.235335156792047,0.,0.,       145P    241
0.;                                                                  145P    242
126,1,1,0,0,1,0,0.364664843207954,0.364664843207954,0.6,0.6,1.,      147P    243
1.,11.0199997615819,-15.9201060091551,2.35335156792046,              147P    244
11.0199997615819,-15.9201060091551,0.,0.364664843207954,0.6,0.,      147P    245
0.,0.;                                                               147P    246
126,1,1,0,0,1,0,-0.3,-0.3,0.3,0.3,1.,1.,11.0199997615819,            149P    247
-6.98999985098862,1.11022302462516D-15,11.0199997615819,             149P    248
-6.98999985098862,6.,-0.3,0.3,0.,0.,0.;                              149P    249
128,1,1,1,1,0,0,1,0,0,-0.321701048747805,-0.321701048747805,         151P    250
0.0244999596739995,0.0244999596739995,-0.71680707787344,             151P    251
-0.71680707787344,0.836499994635573,0.836499994635573,1.,1.,1.,      151P    252
1.,10.21798973902,-17.6130705760787,6.,13.679999823238,              151P    253
-17.6130705760787,6.,10.21798973902,-2.07999985098862,6.,            151P    254
13.679999823238,-2.07999985098862,6.,-0.321701048747805,             151P    255
0.0244999596739995,-0.71680707787344,0.836499994635573;              151P    256
128,1,1,1,1,0,0,1,0,0,-0.601,-0.601,0.001,0.001,                     153P    257
-0.200999988079071,-0.200999988079071,0.021,0.021,1.,1.,1.,1.,       153P    258
11.6199990463262,-6.99999985098861,-0.01,11.6199990463262,           153P    259
-6.99999985098861,6.01,11.6199990463262,-4.7799999701979,-0.01,      153P    260
11.6199990463262,-4.7799999701979,6.01,-0.601,0.001,                 153P    261
-0.200999988079071,0.021;                                            153P    262
128,1,1,1,1,0,0,1,0,0,-0.321701048747805,-0.321701048747805,         155P    263
0.0244999596739995,0.0244999596739995,-0.71680707787344,             155P    264
-0.71680707787344,0.836499994635573,0.836499994635573,1.,1.,1.,      155P    265
1.,13.679999823238,-17.6130705760787,0.,10.21798973902,              155P    266
-17.6130705760787,0.,13.679999823238,-2.07999985098862,0.,           155P    267
10.21798973902,-2.07999985098862,0.,-0.321701048747805,              155P    268
0.0244999596739995,-0.71680707787344,0.836499994635573;              155P    269
128,1,1,1,1,0,0,1,0,0,-0.001,-0.001,0.601,0.601,                     157P    270
0.00900000000000001,0.00900000000000001,0.0859999284744261,          157P    271
0.0859999284744261,1.,1.,1.,1.,10.8599997615819,                     157P    272
-4.78999997019791,6.01,10.8599997615819,-4.78999997019791,-0.01,     157P    273
11.6299990463262,-4.7899999701979,6.01,11.6299990463262,             157P    274
-4.7899999701979,-0.01,-0.001,0.601,0.00900000000000001,             157P    275
0.0859999284744261;                                                  157P    276
128,1,1,1,1,0,0,1,0,0,-0.601,-0.601,0.001,0.001,                     159P    277
-0.281000011920929,-0.281000011920929,-0.00900000000000004,          159P    278
-0.00900000000000004,1.,1.,1.,1.,10.8699997615819,                   159P    279
-4.79999997019791,-0.01,10.8699997615819,-4.79999997019791,6.01,     159P    280
10.8699997615819,-2.07999985098862,-0.01,10.8699997615819,           159P    281
-2.07999985098862,6.01,-0.601,0.001,-0.281000011920929,              159P    282
-0.00900000000000004;                                                159P    283
128,1,1,1,1,0,0,1,0,0,-0.601,-0.601,0.001,0.001,                     161P    284
-0.290999952316284,-0.290999952316284,-0.00899999958774111,          161P    285
-0.00899999958774111,1.,1.,1.,1.,10.8599997615819,                   161P    286
-2.08999985511118,-0.0100000000000003,10.8599997615819,              161P    287
-2.08999985511118,6.01,13.6799992888673,-2.08999985511118,-0.01,     161P    288
13.6799992888673,-2.08999985511118,6.01,-0.601,0.001,                161P    289
-0.290999952316284,-0.00899999958774111;                             161P    290
128,1,1,1,1,0,0,1,0,0,-0.301,-0.301,0.301,0.301,                     163P    291
-0.65910075862411,-0.65910075862411,0.639100759446889,               163P    292
0.639100759446889,1.,1.,1.,1.,13.6699998236503,                      163P    293
-15.0620150358212,6.01,13.6699998236503,-15.0620150358212,-0.01,     163P    294
13.6699992884551,-2.07999985511118,6.01,13.6699992884551,            163P    295
-2.07999985511118,-0.01,-0.301,0.301,-0.65910075862411,              163P    296
0.639100759446889;                                                   163P    297
128,1,6,1,2,0,0,0,0,0,-6.44270062127001D-11,                         165P    298
-6.44270062127001D-11,1.5868304141988,1.5868304141988,               165P    299
-2.10200007749204,-2.10200007749204,-2.10200007749204,               165P    300
-0.700666692497346,-0.700666692497346,0.700666692497347,             165P    301
0.700666692497347,2.10200007749204,2.10200007749204,                 165P    302
2.10200007749204,1.,1.,0.764412522239471,0.764412522239471,1.,       165P    303
1.,0.764412522239471,0.764412522239471,1.,1.,0.764412522239471,      165P    304
0.764412522239471,1.,1.,11.019999761582,-15.9201060091551,           165P    305
3.64664843207953,10.1784558516199,-15.0785620993393,                 165P    306
3.64664843207953,11.4056571048389,-15.5344486658311,                 165P    307
3.96709118786588,10.5641131948768,-14.6929047560153,                 165P    308
3.96709118786588,11.6940408692595,-15.2460649013603,                 165P    309
3.48354559393294,10.8524969592974,-14.4045209915446,                 165P    310
3.48354559393294,11.9824246336801,-14.9576811368896,                 165P    311
2.99999999999999,11.140880723718,-14.1161372270738,                  165P    312
2.99999999999999,11.6940408692595,-15.2460649013603,                 165P    313
2.51645440606705,10.8524969592974,-14.4045209915446,                 165P    314
2.51645440606705,11.4056571048389,-15.5344486658311,                 165P    315
2.03290881213411,10.5641131948768,-14.6929047560153,                 165P    316
2.03290881213411,11.019999761582,-15.9201060091551,                  165P    317
2.35335156792046,10.1784558516199,-15.0785620993393,                 165P    318
2.35335156792046,-6.44270062127001D-11,1.5868304141988,              165P    319
-2.10200007749204,2.10200007749204;                                  165P    320
128,1,8,1,2,0,1,0,0,1,-7.60529800337226D-16,                         167P    321
-7.60529800337226D-16,6.30000000050257,6.30000000050257,             167P    322
-3.14159265358979,-3.14159265358979,-3.14159265358979,               167P    323
-1.5707963267949,-1.5707963267949,0.,0.,1.5707963267949,             167P    324
1.5707963267949,3.14159265358979,3.14159265358979,                   167P    325
3.14159265358979,1.,1.,0.707106781186548,0.707106781186548,1.,       167P    326
1.,0.707106781186548,0.707106781186548,1.,1.,0.707106781186548,      167P    327
0.707106781186548,1.,1.,0.707106781186548,0.707106781186548,1.,      167P    328
1.,12.0381830988866,-16.6838317604563,2.99999999999999,              167P    329
11.1472285544431,-15.7928772161676,2.99999999999999,                 167P    330
12.0381830988866,-16.6838317604563,3.19999999999999,                 167P    331
11.1472285544431,-15.7928772161676,3.19999999999999,                 167P    332
12.1796044551117,-16.5424104042067,3.19999999999999,                 167P    333
11.2886499106681,-15.651455859918,3.19999999999999,                  167P    334
12.3210258113367,-16.4009890479571,3.19999999999999,                 167P    335
11.4300712668931,-15.5100345036684,3.19999999999999,                 167P    336
12.3210258113367,-16.4009890479571,2.99999999999999,                 167P    337
11.4300712668931,-15.5100345036684,2.99999999999999,                 167P    338
12.3210258113367,-16.4009890479571,2.79999999999999,                 167P    339
11.4300712668931,-15.5100345036684,2.79999999999999,                 167P    340
12.1796044551117,-16.5424104042067,2.79999999999999,                 167P    341
11.2886499106681,-15.651455859918,2.79999999999999,                  167P    342
12.0381830988866,-16.6838317604563,2.79999999999999,                 167P    343
11.1472285544431,-15.7928772161676,2.79999999999999,                 167P    344
12.0381830988866,-16.6838317604563,2.99999999999999,                 167P    345
11.1472285544431,-15.7928772161676,2.99999999999999,                 167P    346
-7.60529800337226D-16,6.30000000050257,-3.14159265358979,            167P    347
3.14159265358979;                                                    167P    348
128,1,1,1,1,0,0,1,0,0,-0.301,-0.301,0.301000000000001,               169P    349
0.301000000000001,-0.22381330813534,-0.22381330813534,               169P    350
0.138960426173223,0.138960426173223,1.,1.,1.,1.,                     169P    351
11.1118732156128,-17.6101416438912,6.01,11.1118732156128,            169P    352
-17.6101416438912,-0.0100000000000067,13.6770708910493,              169P    353
-15.0449439680087,6.01,13.6770708910493,-15.0449439680087,           169P    354
-0.0100000000000076,-0.301,0.301000000000001,-0.22381330813534,      169P    355
0.138960426173223;                                                   169P    356
128,1,8,1,2,0,1,0,0,1,0.,0.,9.99999999999999,9.99999999999999,       171P    357
-3.14159265358979,-3.14159265358979,-3.14159265358979,               171P    358
-1.5707963267949,-1.5707963267949,0.,0.,1.5707963267949,             171P    359
1.5707963267949,3.14159265358979,3.14159265358979,                   171P    360
3.14159265358979,1.,1.,0.707106781186548,0.707106781186548,1.,       171P    361
1.,0.707106781186548,0.707106781186548,1.,1.,0.707106781186548,      171P    362
0.707106781186548,1.,1.,0.707106781186548,0.707106781186548,1.,      171P    363
1.,13.1799998402214,-3.1799998678633,0.,13.1799998402214,            171P    364
-3.1799998678633,6.,13.1799998402214,-2.5799998678633,0.,            171P    365
13.1799998402214,-2.5799998678633,6.,12.5799998402214,               171P    366
-2.5799998678633,0.,12.5799998402214,-2.5799998678633,6.,            171P    367
11.9799998402214,-2.5799998678633,0.,11.9799998402214,               171P    368
-2.5799998678633,6.,11.9799998402214,-3.1799998678633,0.,            171P    369
11.9799998402214,-3.1799998678633,6.,11.9799998402214,               171P    370
-3.7799998678633,0.,11.9799998402214,-3.7799998678633,6.,            171P    371
12.5799998402214,-3.7799998678633,0.,12.5799998402214,               171P    372
-3.7799998678633,6.,13.1799998402214,-3.7799998678633,0.,            171P    373
13.1799998402214,-3.7799998678633,6.,13.1799998402214,               171P    374
-3.1799998678633,0.,13.1799998402214,-3.1799998678633,6.,0.,         171P    375
9.99999999999999,-3.14159265358979,3.14159265358979;                 171P    376
128,1,1,1,1,0,0,1,0,0,-0.00100000000000002,-0.00100000000000002,     173P    377
0.126999999988453,0.126999999988453,-0.00100000000000056,            173P    378
-0.00100000000000056,0.601,0.601,1.,1.,1.,1.,11.1260153512374,       173P    379
-17.6101416438891,6.01,10.2209186712066,-16.7050449642457,6.01,      173P    380
11.1260153512374,-17.6101416438891,-0.0100000000000067,              173P    381
10.2209186712066,-16.7050449642456,-0.0100000000000067,              173P    382
-0.00100000000000002,0.126999999988453,-0.00100000000000056,         173P    383
0.601;                                                               173P    384
128,1,1,1,1,0,0,1,0,0,-0.0663967525666821,-0.0663967525666821,       175P    385
0.183717809702016,0.183717809702016,-0.00100000000000011,            175P    386
-0.00100000000000011,0.601,0.601,1.,1.,1.,1.,10.2209186712096,       175P    387
-16.7191870998694,6.01,11.9894957013682,-14.9506100689539,6.01,      175P    388
10.2209186712096,-16.7191870998694,-0.0100000000000022,              175P    389
11.9894957013682,-14.9506100689539,-0.0100000000000011,              175P    390
-0.0663967525666821,0.183717809702016,-0.00100000000000011,          175P    391
0.601;                                                               175P    392
128,1,1,1,1,0,0,1,0,0,-0.011,-0.011,0.0509999284744261,              177P    393
0.0509999284744261,-0.001,-0.001,0.601,0.601,1.,1.,1.,1.,            177P    394
11.6299990463262,-6.98999985098861,-0.01,11.0099997615819,           177P    395
-6.98999985098862,-0.01,11.6299990463262,-6.98999985098861,6.01,     177P    396
11.0099997615819,-6.98999985098862,6.01,-0.011,                      177P    397
0.0509999284744261,-0.001,0.601;                                     177P    398
128,1,1,1,1,0,0,1,0,0,-0.001,-0.001,0.894010615816648,               179P    399
0.894010615816648,-0.00100000000000012,-0.00100000000000012,         179P    400
0.601,0.601,1.,1.,1.,1.,11.019999761582,-15.9301060091551,6.01,      179P    401
11.0199997615819,-6.97999985098861,6.01,11.019999761582,             179P    402
-15.9301060091551,-0.0100000000000022,11.0199997615819,              179P    403
-6.97999985098861,-0.01,-0.001,0.894010615816648,                    179P    404
-0.00100000000000012,0.601;                                          179P    405
502,26,13.669999823238,-15.0520150358212,6.,13.6699992847448,        181P    406
-2.08999985511118,6.,10.8699997615819,-2.08999985098861,6.,          181P    407
10.8699997615819,-4.78999997019791,6.,11.6199990463262,              181P    408
-4.7899999701979,6.,11.6199990463262,-6.98999985098861,6.,           181P    409
11.0199997615819,-6.98999985098862,6.,11.0199997615819,              181P    410
-15.9201060091551,6.,10.22798973902,-16.712116032056,6.,             181P    411
11.118944283424,-17.6030705760787,5.99999999999999,                  181P    412
13.1799998402214,-3.1799998678633,6.,11.6199990463262,               181P    413
-6.98999985098861,0.,11.6199990463262,-4.7899999701979,0.,           181P    414
13.6699992847448,-2.08999985511118,0.,13.669999823238,               181P    415
-15.0520150358212,-3.45218570518528D-17,11.118944283424,             181P    416
-17.6030705760787,-6.66133814775094D-15,10.22798973902,              181P    417
-16.712116032056,-1.11022302462516D-15,11.0199997615819,             181P    418
-15.9201060091551,0.,11.0199997615819,-6.98999985098861,             181P    419
1.11022302462516D-15,10.8699997615819,-4.78999997019791,0.,          181P    420
10.8699997615819,-2.08999985098861,0.,13.1799998402214,              181P    421
-3.1799998678633,0.,11.0199997615819,-15.9201060091551,              181P    422
2.35335156792046,11.0199997615819,-15.9201060091551,                 181P    423
3.64664843207953,12.0381830988866,-16.6838317604563,                 181P    424
2.99999999999999,11.147228554479,-15.7928772162036,                  181P    425
2.99999999999999;                                                    181P    426
504,39,73,181,1,181,2,75,181,2,181,3,77,181,3,181,4,79,181,4,        183P    427
181,5,81,181,5,181,6,83,181,6,181,7,85,181,7,181,8,87,181,8,181,     183P    428
9,89,181,10,181,9,91,181,1,181,10,93,181,11,181,11,95,181,12,        183P    429
181,13,97,181,6,181,12,99,181,13,181,5,101,181,14,181,15,103,        183P    430
181,15,181,16,105,181,16,181,17,107,181,17,181,18,109,181,18,        183P    431
181,19,111,181,12,181,19,113,181,13,181,20,115,181,20,181,21,        183P    432
117,181,21,181,14,119,181,22,181,22,121,181,20,181,4,123,181,21,     183P    433
181,3,125,181,14,181,2,127,181,15,181,1,129,181,23,181,24,131,       183P    434
181,23,181,24,133,181,25,181,25,135,181,25,181,26,137,181,26,        183P    435
181,26,139,181,10,181,16,141,181,11,181,22,143,181,9,181,17,145,     183P    436
181,8,181,24,147,181,23,181,18,149,181,19,181,7;                     183P    437
406,1,6HBody66;                                                      185P    438
314,96.8627450980392,46.6666666666667,0.,38HPaint - Enamel Gloss     187P    439
y (Pumpkin Orange);                                                  187P    440
S      1G      4D    188P    440                                        T      1
