                                                                        S0000001
,,31HOpen CASCADE IGES processor 7.5,13HFilename.iges,                  G0000001
16HOpen CASCADE 7.5,31HOpen CASCADE IGES processor 7.5,32,308,15,308,15,G0000002
,1.,2,2HMM,1,0.01,15H20220325.094428,1E-07,19.548805,,,11,0,            G0000003
15H20220325.094428,;                                                    G0000004
     402       1       0       0       0       0       0       000000000D0000001
     402       0       0       1       1                               0D0000002
     186       2       0       0       0       0       0       000020000D0000003
     186       0       0       1       0                               0D0000004
     514       3       0       0       0       0       0       000010000D0000005
     514       0       0       2       1                               0D0000006
     510       5       0       0       0       0       0       000010000D0000007
     510       0       0       1       1                               0D0000008
     190       6       0       0       0       0       0       000010000D0000009
     190       0       0       1       1                               0D0000010
     116       7       0       0       0       0       0       000010400D0000011
     116       0       0       1       0                               0D0000012
     123       8       0       0       0       0       0       000010200D0000013
     123       0       0       1       0                               0D0000014
     123       9       0       0       0       0       0       000010200D0000015
     123       0       0       1       0                               0D0000016
     508      10       0       0       0       0       0       000010000D0000017
     508       0       0       1       1                               0D0000018
     504      11       0       0       0       0       0       000010001D0000019
     504       0       0      10       1                               0D0000020
     110      21       0       0       0       0       0       000010000D0000021
     110       0       0       1       0                               0D0000022
     502      22       0       0       0       0       0       000010000D0000023
     502       0       0       9       1                               0D0000024
     110      31       0       0       0       0       0       000010000D0000025
     110       0       0       1       0                               0D0000026
     110      32       0       0       0       0       0       000010000D0000027
     110       0       0       1       0                               0D0000028
     110      33       0       0       0       0       0       000010000D0000029
     110       0       0       1       0                               0D0000030
     110      34       0       0       0       0       0       000010000D0000031
     110       0       0       1       0                               0D0000032
     110      35       0       0       0       0       0       000010000D0000033
     110       0       0       1       0                               0D0000034
     110      36       0       0       0       0       0       000010000D0000035
     110       0       0       1       0                               0D0000036
     110      37       0       0       0       0       0       000010000D0000037
     110       0       0       1       0                               0D0000038
     110      38       0       0       0       0       0       000010000D0000039
     110       0       0       1       0                               0D0000040
     110      39       0       0       0       0       0       000010000D0000041
     110       0       0       1       0                               0D0000042
     110      40       0       0       0       0       0       000010000D0000043
     110       0       0       1       0                               0D0000044
     110      41       0       0       0       0       0       000010000D0000045
     110       0       0       1       0                               0D0000046
     110      42       0       0       0       0       0       000010000D0000047
     110       0       0       1       0                               0D0000048
     100      43       0       0       0       0      51       000010000D0000049
     100       0       0       1       0                               0D0000050
     124      44       0       0       0       0       0       000000000D0000051
     124       0       0       1       0                               0D0000052
     110      45       0       0       0       0       0       000010000D0000053
     110       0       0       1       0                               0D0000054
     110      46       0       0       0       0       0       000010000D0000055
     110       0       0       1       0                               0D0000056
     110      47       0       0       0       0       0       000010000D0000057
     110       0       0       1       0                               0D0000058
     110      48       0       0       0       0       0       000010000D0000059
     110       0       0       1       0                               0D0000060
     100      49       0       0       0       0      63       000010000D0000061
     100       0       0       1       0                               0D0000062
     124      50       0       0       0       0       0       000000000D0000063
     124       0       0       1       0                               0D0000064
     110      51       0       0       0       0       0       000010000D0000065
     110       0       0       1       0                               0D0000066
     110      52       0       0       0       0       0       000010000D0000067
     110       0       0       1       0                               0D0000068
     110      53       0       0       0       0       0       000010000D0000069
     110       0       0       1       0                               0D0000070
     100      54       0       0       0       0      73       000010000D0000071
     100       0       0       1       0                               0D0000072
     124      55       0       0       0       0       0       000000000D0000073
     124       0       0       1       0                               0D0000074
     110      56       0       0       0       0       0       000010000D0000075
     110       0       0       1       0                               0D0000076
     110      57       0       0       0       0       0       000010000D0000077
     110       0       0       1       0                               0D0000078
     110      58       0       0       0       0       0       000010000D0000079
     110       0       0       1       0                               0D0000080
     110      59       0       0       0       0       0       000010000D0000081
     110       0       0       1       0                               0D0000082
     100      60       0       0       0       0      85       000010000D0000083
     100       0       0       1       0                               0D0000084
     124      61       0       0       0       0       0       000000000D0000085
     124       0       0       1       0                               0D0000086
     110      62       0       0       0       0       0       000010000D0000087
     110       0       0       1       0                               0D0000088
     110      63       0       0       0       0       0       000010000D0000089
     110       0       0       1       0                               0D0000090
     100      64       0       0       0       0      93       000010000D0000091
     100       0       0       1       0                               0D0000092
     124      65       0       0       0       0       0       000000000D0000093
     124       0       0       2       0                               0D0000094
     110      67       0       0       0       0       0       000010000D0000095
     110       0       0       1       0                               0D0000096
     110      68       0       0       0       0       0       000010000D0000097
     110       0       0       1       0                               0D0000098
     110      69       0       0       0       0       0       000010000D0000099
     110       0       0       1       0                               0D0000100
     126      70       0       0       0       0       0       000010000D0000101
     126       0       0      16       0                               0D0000102
     126      86       0       0       0       0       0       000010000D0000103
     126       0       0      21       0                               0D0000104
     110     107       0       0       0       0       0       000010000D0000105
     110       0       0       1       0                               0D0000106
     110     108       0       0       0       0       0       000010000D0000107
     110       0       0       1       0                               0D0000108
     104     109       0       0       0       0     111       000010000D0000109
     104       0       0       2       1                               0D0000110
     124     111       0       0       0       0       0       000000000D0000111
     124       0       0       1       0                               0D0000112
     110     112       0       0       0       0       0       000010000D0000113
     110       0       0       1       0                               0D0000114
     110     113       0       0       0       0       0       000010000D0000115
     110       0       0       1       0                               0D0000116
     110     114       0       0       0       0       0       000010000D0000117
     110       0       0       2       0                               0D0000118
     510     116       0       0       0       0       0       000010000D0000119
     510       0       0       1       1                               0D0000120
     190     117       0       0       0       0       0       000010000D0000121
     190       0       0       1       1                               0D0000122
     116     118       0       0       0       0       0       000010400D0000123
     116       0       0       1       0                               0D0000124
     123     119       0       0       0       0       0       000010200D0000125
     123       0       0       1       0                               0D0000126
     123     120       0       0       0       0       0       000010200D0000127
     123       0       0       1       0                               0D0000128
     508     121       0       0       0       0       0       000010000D0000129
     508       0       0       1       1                               0D0000130
     510     122       0       0       0       0       0       000010000D0000131
     510       0       0       1       1                               0D0000132
     190     123       0       0       0       0       0       000010000D0000133
     190       0       0       1       1                               0D0000134
     116     124       0       0       0       0       0       000010400D0000135
     116       0       0       1       0                               0D0000136
     123     125       0       0       0       0       0       000010200D0000137
     123       0       0       1       0                               0D0000138
     123     126       0       0       0       0       0       000010200D0000139
     123       0       0       1       0                               0D0000140
     508     127       0       0       0       0       0       000010000D0000141
     508       0       0       1       1                               0D0000142
     510     128       0       0       0       0       0       000010000D0000143
     510       0       0       1       1                               0D0000144
     190     129       0       0       0       0       0       000010000D0000145
     190       0       0       1       1                               0D0000146
     116     130       0       0       0       0       0       000010400D0000147
     116       0       0       1       0                               0D0000148
     123     131       0       0       0       0       0       000010200D0000149
     123       0       0       1       0                               0D0000150
     123     132       0       0       0       0       0       000010200D0000151
     123       0       0       1       0                               0D0000152
     508     133       0       0       0       0       0       000010000D0000153
     508       0       0       3       1                               0D0000154
     508     136       0       0       0       0       0       000010000D0000155
     508       0       0       1       1                               0D0000156
     510     137       0       0       0       0       0       000010000D0000157
     510       0       0       1       1                               0D0000158
     190     138       0       0       0       0       0       000010000D0000159
     190       0       0       1       1                               0D0000160
     116     139       0       0       0       0       0       000010400D0000161
     116       0       0       1       0                               0D0000162
     123     140       0       0       0       0       0       000010200D0000163
     123       0       0       1       0                               0D0000164
     123     141       0       0       0       0       0       000010200D0000165
     123       0       0       1       0                               0D0000166
     508     142       0       0       0       0       0       000010000D0000167
     508       0       0       3       1                               0D0000168
     508     145       0       0       0       0       0       000010000D0000169
     508       0       0       1       1                               0D0000170
     510     146       0       0       0       0       0       000010000D0000171
     510       0       0       1       1                               0D0000172
     190     147       0       0       0       0       0       000010000D0000173
     190       0       0       1       1                               0D0000174
     116     148       0       0       0       0       0       000010400D0000175
     116       0       0       1       0                               0D0000176
     123     149       0       0       0       0       0       000010200D0000177
     123       0       0       1       0                               0D0000178
     123     150       0       0       0       0       0       000010200D0000179
     123       0       0       1       0                               0D0000180
     508     151       0       0       0       0       0       000010000D0000181
     508       0       0       1       1                               0D0000182
     510     152       0       0       0       0       0       000010000D0000183
     510       0       0       1       1                               0D0000184
     190     153       0       0       0       0       0       000010000D0000185
     190       0       0       1       1                               0D0000186
     116     154       0       0       0       0       0       000010400D0000187
     116       0       0       1       0                               0D0000188
     123     155       0       0       0       0       0       000010200D0000189
     123       0       0       1       0                               0D0000190
     123     156       0       0       0       0       0       000010200D0000191
     123       0       0       1       0                               0D0000192
     508     157       0       0       0       0       0       000010000D0000193
     508       0       0       1       1                               0D0000194
     508     158       0       0       0       0       0       000010000D0000195
     508       0       0       1       1                               0D0000196
     510     159       0       0       0       0       0       000010000D0000197
     510       0       0       1       1                               0D0000198
     190     160       0       0       0       0       0       000010000D0000199
     190       0       0       1       1                               0D0000200
     116     161       0       0       0       0       0       000010400D0000201
     116       0       0       1       0                               0D0000202
     123     162       0       0       0       0       0       000010200D0000203
     123       0       0       1       0                               0D0000204
     123     163       0       0       0       0       0       000010200D0000205
     123       0       0       1       0                               0D0000206
     508     164       0       0       0       0       0       000010000D0000207
     508       0       0       1       1                               0D0000208
     510     165       0       0       0       0       0       000010000D0000209
     510       0       0       1       1                               0D0000210
     190     166       0       0       0       0       0       000010000D0000211
     190       0       0       1       1                               0D0000212
     116     167       0       0       0       0       0       000010400D0000213
     116       0       0       1       0                               0D0000214
     123     168       0       0       0       0       0       000010200D0000215
     123       0       0       1       0                               0D0000216
     123     169       0       0       0       0       0       000010200D0000217
     123       0       0       1       0                               0D0000218
     508     170       0       0       0       0       0       000010000D0000219
     508       0       0       1       1                               0D0000220
     510     171       0       0       0       0       0       000010000D0000221
     510       0       0       1       1                               0D0000222
     192     172       0       0       0       0       0       000010000D0000223
     192       0       0       1       1                               0D0000224
     116     173       0       0       0       0       0       000010400D0000225
     116       0       0       1       0                               0D0000226
     123     174       0       0       0       0       0       000010200D0000227
     123       0       0       1       0                               0D0000228
     123     175       0       0       0       0       0       000010200D0000229
     123       0       0       1       0                               0D0000230
     508     176       0       0       0       0       0       000010000D0000231
     508       0       0       3       1                               0D0000232
     110     179       0       0       0       0       0       000010000D0000233
     110       0       0       1       0                               0D0000234
     110     180       0       0       0       0       0       000010000D0000235
     110       0       0       1       0                               0D0000236
     110     181       0       0       0       0       0       000010000D0000237
     110       0       0       1       0                               0D0000238
     110     182       0       0       0       0       0       000010000D0000239
     110       0       0       1       0                               0D0000240
     126     183       0       0       0       0       0       000010000D0000241
     126       0       0      13       0                               0D0000242
     126     196       0       0       0       0       0       000010000D0000243
     126       0       0      17       0                               0D0000244
     110     213       0       0       0       0       0       000010000D0000245
     110       0       0       1       0                               0D0000246
     510     214       0       0       0       0       0       000010000D0000247
     510       0       0       1       1                               0D0000248
     190     215       0       0       0       0       0       000010000D0000249
     190       0       0       1       1                               0D0000250
     116     216       0       0       0       0       0       000010400D0000251
     116       0       0       1       0                               0D0000252
     123     217       0       0       0       0       0       000010200D0000253
     123       0       0       1       0                               0D0000254
     123     218       0       0       0       0       0       000010200D0000255
     123       0       0       1       0                               0D0000256
     508     219       0       0       0       0       0       000010000D0000257
     508       0       0       2       1                               0D0000258
     510     221       0       0       0       0       0       000010000D0000259
     510       0       0       1       1                               0D0000260
     190     222       0       0       0       0       0       000010000D0000261
     190       0       0       1       1                               0D0000262
     116     223       0       0       0       0       0       000010400D0000263
     116       0       0       1       0                               0D0000264
     123     224       0       0       0       0       0       000010200D0000265
     123       0       0       1       0                               0D0000266
     123     225       0       0       0       0       0       000010200D0000267
     123       0       0       1       0                               0D0000268
     508     226       0       0       0       0       0       000010000D0000269
     508       0       0       1       1                               0D0000270
     510     227       0       0       0       0       0       000010000D0000271
     510       0       0       1       1                               0D0000272
     190     228       0       0       0       0       0       000010000D0000273
     190       0       0       1       1                               0D0000274
     116     229       0       0       0       0       0       000010400D0000275
     116       0       0       1       0                               0D0000276
     123     230       0       0       0       0       0       000010200D0000277
     123       0       0       1       0                               0D0000278
     123     231       0       0       0       0       0       000010200D0000279
     123       0       0       1       0                               0D0000280
     508     232       0       0       0       0       0       000010000D0000281
     508       0       0       1       1                               0D0000282
     510     233       0       0       0       0       0       000010000D0000283
     510       0       0       1       1                               0D0000284
     192     234       0       0       0       0       0       000010000D0000285
     192       0       0       1       1                               0D0000286
     116     235       0       0       0       0       0       000010400D0000287
     116       0       0       1       0                               0D0000288
     123     236       0       0       0       0       0       000010200D0000289
     123       0       0       1       0                               0D0000290
     123     237       0       0       0       0       0       000010200D0000291
     123       0       0       1       0                               0D0000292
     508     238       0       0       0       0       0       000010000D0000293
     508       0       0       2       1                               0D0000294
     110     240       0       0       0       0       0       000010000D0000295
     110       0       0       1       0                               0D0000296
     110     241       0       0       0       0       0       000010000D0000297
     110       0       0       1       0                               0D0000298
     110     242       0       0       0       0       0       000010000D0000299
     110       0       0       1       0                               0D0000300
     110     243       0       0       0       0       0       000010000D0000301
     110       0       0       1       0                               0D0000302
     510     244       0       0       0       0       0       000010000D0000303
     510       0       0       1       1                               0D0000304
     192     245       0       0       0       0       0       000010000D0000305
     192       0       0       1       1                               0D0000306
     116     246       0       0       0       0       0       000010400D0000307
     116       0       0       1       0                               0D0000308
     123     247       0       0       0       0       0       000010200D0000309
     123       0       0       1       0                               0D0000310
     123     248       0       0       0       0       0       000010200D0000311
     123       0       0       1       0                               0D0000312
     508     249       0       0       0       0       0       000010000D0000313
     508       0       0       2       1                               0D0000314
     110     251       0       0       0       0       0       000010000D0000315
     110       0       0       1       0                               0D0000316
     110     252       0       0       0       0       0       000010000D0000317
     110       0       0       1       0                               0D0000318
     126     253       0       0       0       0       0       000010000D0000319
     126       0       0      13       0                               0D0000320
     126     266       0       0       0       0       0       000010000D0000321
     126       0       0      15       0                               0D0000322
     126     281       0       0       0       0       0       000010000D0000323
     126       0       0      17       0                               0D0000324
     110     298       0       0       0       0       0       000010000D0000325
     110       0       0       1       0                               0D0000326
402,1,3;                                                         0000001P0000001
186,5,1,0;                                                       0000003P0000002
514,15,7,0,119,1,131,0,143,0,157,1,171,1,183,0,197,0,209,0,221,  0000005P0000003
0,247,1,259,1,271,1,283,0,303,0;                                 0000005P0000004
510,9,1,1,17;                                                    0000007P0000005
190,11,13,15;                                                    0000009P0000006
116,-2.35,9.9,13.5,0;                                            0000011P0000007
123,0.,-1.,0.;                                                   0000013P0000008
123,-1.,0.,0.;                                                   0000015P0000009
508,4,0,19,1,1,0,0,19,2,1,0,0,19,3,0,0,0,19,4,0,0;               0000017P0000010
504,42,21,23,1,23,2,25,23,2,23,3,27,23,4,23,3,29,23,1,23,4,31,   0000019P0000011
23,2,23,5,33,23,6,23,5,35,23,1,23,6,37,23,3,23,7,39,23,8,23,7,   0000019P0000012
41,23,4,23,8,43,23,8,23,9,45,23,9,23,10,47,23,10,23,11,49,23,12, 0000019P0000013
23,11,53,23,13,23,12,55,23,14,23,13,57,23,15,23,14,59,23,6,23,   0000019P0000014
15,61,23,16,23,16,65,23,7,23,17,67,23,17,23,18,69,23,18,23,19,   0000019P0000015
71,23,20,23,19,75,23,21,23,20,77,23,22,23,21,79,23,23,23,22,81,  0000019P0000016
23,5,23,23,83,23,24,23,24,87,23,15,23,23,89,23,9,23,17,91,23,25, 0000019P0000017
23,25,95,23,10,23,18,97,23,11,23,19,99,23,26,23,20,101,23,27,23, 0000019P0000018
26,103,23,28,23,27,105,23,12,23,28,107,23,13,23,21,109,23,28,23, 0000019P0000019
26,113,23,14,23,22,115,23,16,23,24,117,23,25,23,27;              0000019P0000020
110,-2.35,9.9,13.5,-2.35,9.9,19.5;                               0000021P0000021
502,28,-2.35,9.9,13.5,-2.35,9.9,19.5,-5.15,9.9,19.5,-5.15,9.9,   0000023P0000022
13.5,-2.35,7.15,19.5,-2.35,7.15,13.5,-5.15,-7.3,19.5,-5.15,-7.3, 0000023P0000023
13.5,-2.45,-10.,13.5,-2.,-9.55,13.5,-2.,-8.,13.5,-2.35,          0000023P0000024
-7.155025253,13.5,-2.35,4.9,13.5,-3.05,4.9,13.5,-3.05,7.15,13.5, 0000023P0000025
-3.46,8.81,13.5,-2.45,-10.,19.5,-2.,-9.55,19.5,-2.,-8.,19.5,     0000023P0000026
-2.35,-7.155025253,19.5,-2.35,4.9,19.5,-3.05,4.9,19.5,-3.05,     0000023P0000027
7.15,19.5,-3.46,8.81,19.5,-3.417588386,-9.032411614,16.5,-2.35,  0000023P0000028
-7.155025253,16.86083865,-2.170348126,-7.785171354,16.5,-2.35,   0000023P0000029
-7.155025253,16.13916135;                                        0000023P0000030
110,-2.35,9.9,19.5,-5.15,9.9,19.5;                               0000025P0000031
110,-5.15,9.9,13.5,-5.15,9.9,19.5;                               0000027P0000032
110,-2.35,9.9,13.5,-5.15,9.9,13.5;                               0000029P0000033
110,-2.35,9.9,19.5,-2.35,7.15,19.5;                              0000031P0000034
110,-2.35,7.15,13.5,-2.35,7.15,19.5;                             0000033P0000035
110,-2.35,9.9,13.5,-2.35,7.15,13.5;                              0000035P0000036
110,-5.15,9.9,19.5,-5.15,-7.3,19.5;                              0000037P0000037
110,-5.15,-7.3,13.5,-5.15,-7.3,19.5;                             0000039P0000038
110,-5.15,9.9,13.5,-5.15,-7.3,13.5;                              0000041P0000039
110,-5.15,-7.3,13.5,-2.45,-10.,13.5;                             0000043P0000040
110,-2.45,-10.,13.5,-2.,-9.55,13.5;                              0000045P0000041
110,-2.,-9.55,13.5,-2.,-8.,13.5;                                 0000047P0000042
100,0.,0.,0.,-1.194974747,0.,-0.844974747,-0.844974747;          0000049P0000043
124,1.,0.,0.,-1.155025253,0.,1.,0.,-7.155025253,0.,0.,1.,13.5;   0000051P0000044
110,-2.35,4.9,13.5,-2.35,-7.155025253,13.5;                      0000053P0000045
110,-3.05,4.9,13.5,-2.35,4.9,13.5;                               0000055P0000046
110,-3.05,7.15,13.5,-3.05,4.9,13.5;                              0000057P0000047
110,-2.35,7.15,13.5,-3.05,7.15,13.5;                             0000059P0000048
100,0.,0.,0.,0.6,0.,0.6,0.;                                      0000061P0000049
124,1.,0.,0.,-4.06,0.,1.,0.,8.81,0.,0.,1.,13.5;                  0000063P0000050
110,-5.15,-7.3,19.5,-2.45,-10.,19.5;                             0000065P0000051
110,-2.45,-10.,19.5,-2.,-9.55,19.5;                              0000067P0000052
110,-2.,-9.55,19.5,-2.,-8.,19.5;                                 0000069P0000053
100,0.,0.,0.,-1.194974747,0.,-0.844974747,-0.844974747;          0000071P0000054
124,1.,0.,0.,-1.155025253,0.,1.,0.,-7.155025253,0.,0.,1.,19.5;   0000073P0000055
110,-2.35,4.9,19.5,-2.35,-7.155025253,19.5;                      0000075P0000056
110,-3.05,4.9,19.5,-2.35,4.9,19.5;                               0000077P0000057
110,-3.05,7.15,19.5,-3.05,4.9,19.5;                              0000079P0000058
110,-2.35,7.15,19.5,-3.05,7.15,19.5;                             0000081P0000059
100,0.,0.,0.,0.6,0.,0.6,0.;                                      0000083P0000060
124,1.,0.,0.,-4.06,0.,1.,0.,8.81,0.,0.,1.,19.5;                  0000085P0000061
110,-3.05,7.15,13.5,-3.05,7.15,19.5;                             0000087P0000062
110,-2.45,-10.,13.5,-2.45,-10.,19.5;                             0000089P0000063
100,0.,0.,0.,0.4,0.,0.4,0.;                                      0000091P0000064
124,0.707106781,0.,-0.707106781,-3.700431099,-0.707106781,0.,    0000093P0000065
-0.707106781,-8.749568901,0.,1.,0.,16.5;                         0000093P0000066
110,-2.,-9.55,13.5,-2.,-9.55,19.5;                               0000095P0000067
110,-2.,-8.,13.5,-2.,-8.,19.5;                                   0000097P0000068
110,-2.35,-7.155025253,16.86083865,-2.35,-7.155025253,19.5;      0000099P0000069
126,16,6,0,0,1,0,0.,0.,0.,0.,0.,0.,0.,0.300749357,0.300749357,   0000101P0000070
0.300749357,0.300749357,0.300749357,0.552076596,0.552076596,     0000101P0000071
0.552076596,0.552076596,0.552076596,1.,1.,1.,1.,1.,1.,1.,1.,1.,  0000101P0000072
1.,1.,1.,1.,1.,1.,1.,1.,1.,1.,1.,1.,1.,1.,1.,-2.170348126,       0000101P0000073
-7.785171354,16.5,-2.170348129,-7.785171351,16.541530294,        0000101P0000074
-2.173150339,-7.78065603,16.583094003,-2.178763918,-7.771612335, 0000101P0000075
16.623863906,-2.186966098,-7.758057501,16.66302132,-2.197321307, 0000101P0000076
-7.740028296,16.699814735,-2.219269887,-7.698898788,16.76181612, 0000101P0000077
-2.230382143,-7.677114714,16.78794021,-2.242268495,-7.652371861, 0000101P0000078
16.811508971,-2.254511146,-7.624838125,16.832169682,             0000101P0000079
-2.266688808,-7.594744853,16.849680642,-2.299331956,             0000101P0000080
-7.504724165,16.889258386,-2.318658025,-7.440345314,             0000101P0000081
16.903966079,-2.334372787,-7.370926755,16.907684529,             0000101P0000082
-2.345000828,-7.298504132,16.90089024,-2.35,-7.225583108,        0000101P0000083
16.884705353,-2.35,-7.155025253,16.86083865,0.,1.,0.958380874,   0000101P0000084
0.212901989,0.19020737;                                          0000101P0000085
126,21,6,0,0,1,0,0.,0.,0.,0.,0.,0.,0.,0.166001192,0.166001192,   0000103P0000086
0.166001192,0.166001192,0.166001192,0.449983264,0.449983264,     0000103P0000087
0.449983264,0.449983264,0.449983264,0.699345238,0.699345238,     0000103P0000088
0.699345238,0.699345238,0.699345238,1.,1.,1.,1.,1.,1.,1.,1.,1.,  0000103P0000089
1.,1.,1.,1.,1.,1.,1.,1.,1.,1.,1.,1.,1.,1.,1.,1.,1.,1.,1.,1.,     0000103P0000090
-2.35,-7.155025253,16.13916135,-2.35,-7.181289984,16.130277115,  0000103P0000091
-2.349307247,-7.207799103,16.122485415,-2.347897644,             0000103P0000092
-7.234436253,16.115849949,-2.345763955,-7.261091307,             0000103P0000093
16.110432364,-2.342914687,-7.287659106,16.106291309,             0000103P0000094
-2.333314082,-7.359165573,16.098674702,-2.325220793,             0000103P0000095
-7.403799803,16.097757643,-2.315226764,-7.447227166,             0000103P0000096
16.101045357,-2.303649636,-7.488815069,16.10870326,-2.29095457,  0000103P0000097
-7.528025875,16.120740757,-2.266033097,-7.596367478,             0000103P0000098
16.151261486,-2.253959996,-7.626084694,16.168753367,             0000103P0000099
-2.241836834,-7.653279474,16.189331477,-2.230073661,             0000103P0000100
-7.677728389,16.212758142,-2.219076326,-7.69926911,16.238688867, 0000103P0000101
-2.197251621,-7.740149627,16.30043296,-2.186921963,-7.758130427, 0000103P0000102
16.337189581,-2.178741328,-7.771648717,16.376300544,             0000103P0000103
-2.173142864,-7.780668083,16.417017443,-2.170348129,             0000103P0000104
-7.785171351,16.458525159,-2.170348126,-7.785171354,16.5,0.,1.,  0000103P0000105
-0.958964597,-0.213256272,0.186838605;                           0000103P0000106
110,-2.35,-7.155025253,13.5,-2.35,-7.155025253,16.13916135;      0000105P0000107
110,-2.35,4.9,13.5,-2.35,4.9,19.5;                               0000107P0000108
104,3.125,0.,6.25,0.,-0.,-1.,0.,-0.24411255,0.36083865,          0000109P0000109
-0.24411255,-0.36083865;                                         0000109P0000110
124,0.,0.,1.,-2.35,-1.,0.,0.,-7.399137803,0.,-1.,0.,16.5;        0000111P0000111
110,-3.05,4.9,13.5,-3.05,4.9,19.5;                               0000113P0000112
110,-3.46,8.81,13.5,-3.46,8.81,19.5;                             0000115P0000113
110,-3.417588386,-9.032411614,16.5,-2.170348126,-7.785171354,    0000117P0000114
16.5;                                                            0000117P0000115
510,121,1,1,129;                                                 0000119P0000116
190,123,125,127;                                                 0000121P0000117
116,-2.35,9.9,13.5,0;                                            0000123P0000118
123,1.,0.,0.;                                                    0000125P0000119
123,0.,-1.,0.;                                                   0000127P0000120
508,4,0,19,1,1,0,0,19,5,1,0,0,19,6,0,0,0,19,7,0,0;               0000129P0000121
510,133,1,1,141;                                                 0000131P0000122
190,135,137,139;                                                 0000133P0000123
116,-5.15,9.9,13.5,0;                                            0000135P0000124
123,1.,0.,0.;                                                    0000137P0000125
123,0.,-1.,0.;                                                   0000139P0000126
508,4,0,19,3,1,0,0,19,8,1,0,0,19,9,0,0,0,19,10,0,0;              0000141P0000127
510,145,2,1,153,155;                                             0000143P0000128
190,147,149,151;                                                 0000145P0000129
116,-3.648414269,0.483771278,13.5,0;                             0000147P0000130
123,0.,0.,1.;                                                    0000149P0000131
123,1.,0.,0.;                                                    0000151P0000132
508,11,0,19,4,1,0,0,19,10,1,0,0,19,11,1,0,0,19,12,1,0,0,19,13,1, 0000153P0000133
0,0,19,14,0,0,0,19,15,0,0,0,19,16,0,0,0,19,17,0,0,0,19,18,0,0,0, 0000153P0000134
19,7,0,0;                                                        0000153P0000135
508,1,0,19,19,0,0;                                               0000155P0000136
510,159,2,1,167,169;                                             0000157P0000137
190,161,163,165;                                                 0000159P0000138
116,-3.648414269,0.483771278,19.5,0;                             0000161P0000139
123,0.,0.,1.;                                                    0000163P0000140
123,1.,0.,0.;                                                    0000165P0000141
508,11,0,19,2,1,0,0,19,8,1,0,0,19,20,1,0,0,19,21,1,0,0,19,22,1,  0000167P0000142
0,0,19,23,0,0,0,19,24,0,0,0,19,25,0,0,0,19,26,0,0,0,19,27,0,0,0, 0000167P0000143
19,5,0,0;                                                        0000167P0000144
508,1,0,19,28,0,0;                                               0000169P0000145
510,173,1,1,181;                                                 0000171P0000146
190,175,177,179;                                                 0000173P0000147
116,-2.35,7.15,13.5,0;                                           0000175P0000148
123,0.,-1.,0.;                                                   0000177P0000149
123,-1.,0.,0.;                                                   0000179P0000150
508,4,0,19,6,1,0,0,19,27,1,0,0,19,29,0,0,0,19,18,0,0;            0000181P0000151
510,185,2,1,193,195;                                             0000183P0000152
190,187,189,191;                                                 0000185P0000153
116,-5.15,-7.3,13.5,0;                                           0000187P0000154
123,0.707106781,0.707106781,0.;                                  0000189P0000155
123,0.707106781,-0.707106781,0.;                                 0000191P0000156
508,4,0,19,9,1,0,0,19,20,1,0,0,19,30,0,0,0,19,11,0,0;            0000193P0000157
508,1,0,19,31,1,0;                                               0000195P0000158
510,199,1,1,207;                                                 0000197P0000159
190,201,203,205;                                                 0000199P0000160
116,-2.45,-10.,13.5,0;                                           0000201P0000161
123,-0.707106781,0.707106781,0.;                                 0000203P0000162
123,0.707106781,0.707106781,0.;                                  0000205P0000163
508,4,0,19,30,1,0,0,19,21,1,0,0,19,32,0,0,0,19,12,0,0;           0000207P0000164
510,211,1,1,219;                                                 0000209P0000165
190,213,215,217;                                                 0000211P0000166
116,-2.,-9.55,13.5,0;                                            0000213P0000167
123,-1.,0.,0.;                                                   0000215P0000168
123,0.,1.,0.;                                                    0000217P0000169
508,4,0,19,32,1,0,0,19,22,1,0,0,19,33,0,0,0,19,13,0,0;           0000219P0000170
510,223,1,1,231;                                                 0000221P0000171
192,225,227,1.194974747,229;                                     0000223P0000172
116,-1.155025253,-7.155025253,13.5,0;                            0000225P0000173
123,-0.,-0.,-1.;                                                 0000227P0000174
123,1.,0.,0.;                                                    0000229P0000175
508,7,0,19,14,1,1,0,233,0,19,33,1,1,0,235,0,19,23,0,1,0,237,0,   0000231P0000176
19,34,0,1,0,239,0,19,35,0,1,0,241,0,19,36,0,1,0,243,0,19,37,0,1, 0000231P0000177
0,245;                                                           0000231P0000178
110,-180.,0.,0.,-225.,0.,0.;                                     0000233P0000179
110,-225.,0.,0.,-225.,-6.,0.;                                    0000235P0000180
110,-225.,-6.,0.,-180.,-6.,0.;                                   0000237P0000181
110,-180.,-6.,0.,-180.,-3.36083865,0.;                           0000239P0000182
126,16,6,1,0,1,0,0.,0.,0.,0.,0.,0.,0.,0.447923404,0.447923404,   0000241P0000183
0.447923404,0.447923404,0.447923404,0.699250643,0.699250643,     0000241P0000184
0.699250643,0.699250643,0.699250643,1.,1.,1.,1.,1.,1.,1.,1.,1.,  0000241P0000185
1.,1.,1.,1.,1.,1.,1.,1.,1.,1.,1.,1.,1.,1.,1.,-180.,-3.36083865,  0000241P0000186
0.,-183.383056688,-3.384705353,0.,-186.879454361,-3.40089024,0., 0000241P0000187
-190.372983504,-3.407684529,0.,-193.772708039,-3.403966079,0.,   0000241P0000188
-196.990517542,-3.389258386,0.,-201.581778566,-3.349680642,0.,   0000241P0000189
-203.137284912,-3.332169682,0.,-204.580949345,-3.311508971,0.,   0000241P0000190
-205.896495534,-3.28794021,0.,-207.068826258,-3.26181612,0.,     0000241P0000191
-209.304103502,-3.199814735,0.,-210.300506613,-3.16302132,0.,    0000241P0000192
-211.060054952,-3.123863906,0.,-211.570437969,-3.083094003,0.,   0000241P0000193
-211.825234179,-3.041530294,0.,-211.825234384,-3.,0.,0.,1.,-0.,  0000241P0000194
-0.,1.;                                                          0000241P0000195
126,21,6,1,0,1,0,0.,0.,0.,0.,0.,0.,0.,0.300654762,0.300654762,   0000243P0000196
0.300654762,0.300654762,0.300654762,0.550016736,0.550016736,     0000243P0000197
0.550016736,0.550016736,0.550016736,0.833998808,0.833998808,     0000243P0000198
0.833998808,0.833998808,0.833998808,1.,1.,1.,1.,1.,1.,1.,1.,1.,  0000243P0000199
1.,1.,1.,1.,1.,1.,1.,1.,1.,1.,1.,1.,1.,1.,1.,1.,1.,1.,1.,1.,     0000243P0000200
-211.825234384,-3.,0.,-211.825234179,-2.958525159,0.,            0000243P0000201
-211.571117858,-2.917017443,0.,-211.062108538,-2.876300544,0.,   0000243P0000202
-210.304593058,-2.837189581,0.,-209.310809021,-2.80043296,0.,    0000243P0000203
-207.088860612,-2.738688867,0.,-205.929421729,-2.712758142,0.,   0000243P0000204
-204.629116718,-2.689331477,0.,-203.202588606,-2.668753367,0.,   0000243P0000205
-201.66563914,-2.651261486,0.,-198.177774304,-2.620740757,0.,    0000243P0000206
-196.202960428,-2.60870326,0.,-194.135930474,-2.601045357,0.,    0000243P0000207
-192.002765073,-2.597757643,0.,-189.830068167,-2.598674702,0.,   0000243P0000208
-186.370764224,-2.606291309,0.,-185.09005984,-2.610432364,0.,    0000243P0000209
-183.808636341,-2.615849949,0.,-182.53036188,-2.622485415,0.,    0000243P0000210
-181.25932221,-2.630277115,0.,-180.,-2.63916135,0.,0.,1.,-0.,    0000243P0000211
-0.,1.;                                                          0000243P0000212
110,-180.,-2.63916135,0.,-180.,0.,0.;                            0000245P0000213
510,249,1,1,257;                                                 0000247P0000214
190,251,253,255;                                                 0000249P0000215
116,-2.35,4.9,13.5,0;                                            0000251P0000216
123,1.,0.,0.;                                                    0000253P0000217
123,0.,-1.,0.;                                                   0000255P0000218
508,6,0,19,15,0,0,0,19,38,1,0,0,19,24,1,0,0,19,34,0,0,0,19,39,0, 0000257P0000219
0,0,19,37,0,0;                                                   0000257P0000220
510,261,1,1,269;                                                 0000259P0000221
190,263,265,267;                                                 0000261P0000222
116,-3.05,4.9,13.5,0;                                            0000263P0000223
123,0.,1.,0.;                                                    0000265P0000224
123,1.,0.,0.;                                                    0000267P0000225
508,4,0,19,40,1,0,0,19,25,1,0,0,19,38,0,0,0,19,16,0,0;           0000269P0000226
510,273,1,1,281;                                                 0000271P0000227
190,275,277,279;                                                 0000273P0000228
116,-3.05,7.15,13.5,0;                                           0000275P0000229
123,1.,0.,0.;                                                    0000277P0000230
123,0.,-1.,0.;                                                   0000279P0000231
508,4,0,19,29,1,0,0,19,26,1,0,0,19,40,0,0,0,19,17,0,0;           0000281P0000232
510,285,1,1,293;                                                 0000283P0000233
192,287,289,0.6,291;                                             0000285P0000234
116,-4.06,8.81,13.5,0;                                           0000287P0000235
123,-0.,-0.,-1.;                                                 0000289P0000236
123,1.,0.,0.;                                                    0000291P0000237
508,4,0,19,41,0,1,0,295,0,19,19,1,1,0,297,0,19,41,1,1,0,299,0,   0000293P0000238
19,28,0,1,0,301;                                                 0000293P0000239
110,0.,-6.,0.,0.,0.,0.;                                          0000295P0000240
110,0.,0.,0.,-360.,0.,0.;                                        0000297P0000241
110,-360.,0.,0.,-360.,-6.,0.;                                    0000299P0000242
110,-360.,-6.,0.,0.,-6.,0.;                                      0000301P0000243
510,305,1,1,313;                                                 0000303P0000244
192,307,309,0.4,311;                                             0000305P0000245
116,-3.700431099,-8.749568901,16.5,0;                            0000307P0000246
123,-0.707106781,-0.707106781,0.;                                0000309P0000247
123,0.707106781,-0.707106781,0.;                                 0000311P0000248
508,6,0,19,31,0,1,0,315,0,19,42,1,1,0,317,0,19,35,1,1,0,319,0,   0000313P0000249
19,39,0,1,0,321,0,19,36,1,1,0,323,0,19,42,0,1,0,325;             0000313P0000250
110,360.,0.,0.,0.,0.,0.;                                         0000315P0000251
110,0.,0.,0.,0.,-1.763864091,0.;                                 0000317P0000252
126,16,6,1,0,1,0,0.,0.,0.,0.,0.,0.,0.,0.300749357,0.300749357,   0000319P0000253
0.300749357,0.300749357,0.300749357,0.552076596,0.552076596,     0000319P0000254
0.552076596,0.552076596,0.552076596,1.,1.,1.,1.,1.,1.,1.,1.,1.,  0000319P0000255
1.,1.,1.,1.,1.,1.,1.,1.,1.,1.,1.,1.,1.,1.,1.,0.,-1.763864091,    0000319P0000256
-0.,5.948776491,-1.763864092,-0.,11.902339076,-1.765075444,-0.,  0000319P0000257
17.85762649,-1.767500902,-0.,23.813718041,-1.7712858,-0.,        0000319P0000258
29.77086024,-1.776712134,-0.,40.711198547,-1.790275098,-0.,      0000319P0000259
45.694604737,-1.797821213,-0.,50.669446333,-1.806912133,-0.,     0000319P0000260
55.628077863,-1.817724563,-0.,60.564412794,-1.830392812,-0.,     0000319P0000261
74.22077972,-1.87096486,-0.,82.808327328,-1.902821987,-0.,       0000319P0000262
91.241621351,-1.940796306,-0.,99.523022904,-1.984491674,-0.,     0000319P0000263
107.642863983,-2.032519676,-0.,115.564957324,-2.082411614,-0.,   0000319P0000264
0.,1.,-0.,-0.,1.;                                                0000319P0000265
126,15,8,1,0,1,0,2.016989005,2.016989005,2.016989005,            0000321P0000266
2.016989005,2.016989005,2.016989005,2.016989005,2.016989005,     0000321P0000267
2.016989005,2.35619449,2.35619449,2.35619449,2.35619449,         0000321P0000268
2.35619449,2.35619449,2.35619449,4.266196302,4.266196302,        0000321P0000269
4.266196302,4.266196302,4.266196302,4.266196302,4.266196302,     0000321P0000270
4.266196302,4.266196302,1.,1.,1.,1.,1.,1.,1.,1.,1.,1.,1.,1.,1.,  0000321P0000271
1.,1.,1.,115.564957324,-2.082411631,-0.,117.994337658,           0000321P0000272
-2.097711424,-0.,120.423717993,-2.112656555,-0.,122.853098327,   0000321P0000273
-2.127205112,-0.,125.282478662,-2.141316546,-0.,127.711858996,   0000321P0000274
-2.154951908,-0.,130.141239331,-2.168074076,-0.,132.570619665,   0000321P0000275
-2.180647962,-0.,148.679380335,-2.260169449,-0.,162.358760669,   0000321P0000276
-2.309272296,-0.,176.038141004,-2.33408501,-0.,189.717521339,    0000321P0000277
-2.330978951,-0.,203.396901673,-2.299645155,-0.,217.076282007,   0000321P0000278
-2.243467398,-0.,230.755662342,-2.168561896,-0.,244.435042676,   0000321P0000279
-2.082411595,-0.,2.016989005,4.266196302,0.,0.,1.;               0000321P0000280
126,21,6,1,0,1,0,0.,0.,0.,0.,0.,0.,0.,0.166001192,0.166001192,   0000323P0000281
0.166001192,0.166001192,0.166001192,0.449983264,0.449983264,     0000323P0000282
0.449983264,0.449983264,0.449983264,0.699345238,0.699345238,     0000323P0000283
0.699345238,0.699345238,0.699345238,1.,1.,1.,1.,1.,1.,1.,1.,1.,  0000323P0000284
1.,1.,1.,1.,1.,1.,1.,1.,1.,1.,1.,1.,1.,1.,1.,1.,1.,1.,1.,1.,     0000323P0000285
244.435042676,-2.082411614,-0.,247.383993586,-2.063839644,-0.,   0000323P0000286
250.351037257,-2.045584718,-0.,253.337870965,-2.027746147,-0.,   0000323P0000287
256.346203356,-2.010406924,-0.,259.377885622,-1.99363539,-0.,    0000323P0000288
267.664991851,-1.949861335,-0.,272.976330353,-1.924022988,-0.,   0000323P0000289
278.356538928,-1.900382051,-0.,283.7975067,-1.879161228,-0.,     0000323P0000290
289.292816066,-1.860411769,-0.,299.701619505,-1.8297091,-0.,     0000323P0000291
304.595269329,-1.817232827,-0.,309.510556292,-1.806575584,-0.,   0000323P0000292
314.441566427,-1.797605409,-0.,319.380871169,-1.790150109,-0.,   0000323P0000293
330.269241625,-1.776675616,-0.,336.218355613,-1.771265441,-0.,   0000323P0000294
342.166391021,-1.76749115,-0.,348.113624371,-1.765072207,-0.,    0000323P0000295
354.059166626,-1.763864092,-0.,360.,-1.763864091,-0.,0.,1.,-0.,  0000323P0000296
-0.,1.;                                                          0000323P0000297
110,360.,-1.763864091,0.,360.,0.,0.;                             0000325P0000298
S      1G      4D    326P    298                                        T0000001
