                                                                        S0000001
,,31HOpen CASCADE IGES processor 7.5,13HFilename.iges,                  G0000001
16HOpen CASCADE 7.5,31HOpen CASCADE IGES processor 7.5,32,308,15,308,15,G0000002
,1.,2,2HMM,1,0.01,15H20220321.104052,1E-07,8.0325,,,11,0,               G0000003
15H20220321.104052,;                                                    G0000004
     402       1       0       0       0       0       0       000000000D0000001
     402       0       0       1       1                               0D0000002
     186       2       0       0       0       0       0       000020000D0000003
     186       0       0       1       0                               0D0000004
     514       3       0       0       0       0       0       000010000D0000005
     514       0       0       2       1                               0D0000006
     510       5       0       0       0       0       0       000010000D0000007
     510       0       0       1       1                               0D0000008
     190       6       0       0       0       0       0       000010000D0000009
     190       0       0       1       1                               0D0000010
     116       7       0       0       0       0       0       000010400D0000011
     116       0       0       1       0                               0D0000012
     123       8       0       0       0       0       0       000010200D0000013
     123       0       0       1       0                               0D0000014
     123       9       0       0       0       0       0       000010200D0000015
     123       0       0       1       0                               0D0000016
     508      10       0       0       0       0       0       000010000D0000017
     508       0       0       1       1                               0D0000018
     504      11       0       0       0       0       0       000010001D0000019
     504       0       0       8       1                               0D0000020
     110      19       0       0       0       0       0       000010000D0000021
     110       0       0       1       0                               0D0000022
     502      20       0       0       0       0       0       000010000D0000023
     502       0       0       4       1                               0D0000024
     110      24       0       0       0       0       0       000010000D0000025
     110       0       0       1       0                               0D0000026
     110      25       0       0       0       0       0       000010000D0000027
     110       0       0       1       0                               0D0000028
     110      26       0       0       0       0       0       000010000D0000029
     110       0       0       1       0                               0D0000030
     110      27       0       0       0       0       0       000010000D0000031
     110       0       0       1       0                               0D0000032
     110      28       0       0       0       0       0       000010000D0000033
     110       0       0       1       0                               0D0000034
     110      29       0       0       0       0       0       000010000D0000035
     110       0       0       1       0                               0D0000036
     110      30       0       0       0       0       0       000010000D0000037
     110       0       0       1       0                               0D0000038
     110      31       0       0       0       0       0       000010000D0000039
     110       0       0       1       0                               0D0000040
     110      32       0       0       0       0       0       000010000D0000041
     110       0       0       1       0                               0D0000042
     110      33       0       0       0       0       0       000010000D0000043
     110       0       0       1       0                               0D0000044
     110      34       0       0       0       0       0       000010000D0000045
     110       0       0       1       0                               0D0000046
     110      35       0       0       0       0       0       000010000D0000047
     110       0       0       1       0                               0D0000048
     110      36       0       0       0       0       0       000010000D0000049
     110       0       0       1       0                               0D0000050
     110      37       0       0       0       0       0       000010000D0000051
     110       0       0       1       0                               0D0000052
     110      38       0       0       0       0       0       000010000D0000053
     110       0       0       1       0                               0D0000054
     110      39       0       0       0       0       0       000010000D0000055
     110       0       0       1       0                               0D0000056
     110      40       0       0       0       0       0       000010000D0000057
     110       0       0       1       0                               0D0000058
     110      41       0       0       0       0       0       000010000D0000059
     110       0       0       1       0                               0D0000060
     110      42       0       0       0       0       0       000010000D0000061
     110       0       0       1       0                               0D0000062
     110      43       0       0       0       0       0       000010000D0000063
     110       0       0       1       0                               0D0000064
     110      44       0       0       0       0       0       000010000D0000065
     110       0       0       1       0                               0D0000066
     110      45       0       0       0       0       0       000010000D0000067
     110       0       0       1       0                               0D0000068
     110      46       0       0       0       0       0       000010000D0000069
     110       0       0       1       0                               0D0000070
     110      47       0       0       0       0       0       000010000D0000071
     110       0       0       1       0                               0D0000072
     100      48       0       0       0       0      75       000010000D0000073
     100       0       0       1       0                               0D0000074
     124      49       0       0       0       0       0       000000000D0000075
     124       0       0       1       0                               0D0000076
     110      50       0       0       0       0       0       000010000D0000077
     110       0       0       1       0                               0D0000078
     110      51       0       0       0       0       0       000010000D0000079
     110       0       0       1       0                               0D0000080
     110      52       0       0       0       0       0       000010000D0000081
     110       0       0       1       0                               0D0000082
     110      53       0       0       0       0       0       000010000D0000083
     110       0       0       1       0                               0D0000084
     110      54       0       0       0       0       0       000010000D0000085
     110       0       0       1       0                               0D0000086
     100      55       0       0       0       0      89       000010000D0000087
     100       0       0       1       0                               0D0000088
     124      56       0       0       0       0       0       000000000D0000089
     124       0       0       1       0                               0D0000090
     110      57       0       0       0       0       0       000010000D0000091
     110       0       0       1       0                               0D0000092
     510      58       0       0       0       0       0       000010000D0000093
     510       0       0       1       1                               0D0000094
     190      59       0       0       0       0       0       000010000D0000095
     190       0       0       1       1                               0D0000096
     116      60       0       0       0       0       0       000010400D0000097
     116       0       0       1       0                               0D0000098
     123      61       0       0       0       0       0       000010200D0000099
     123       0       0       1       0                               0D0000100
     123      62       0       0       0       0       0       000010200D0000101
     123       0       0       1       0                               0D0000102
     508      63       0       0       0       0       0       000010000D0000103
     508       0       0       1       1                               0D0000104
     510      64       0       0       0       0       0       000010000D0000105
     510       0       0       1       1                               0D0000106
     190      65       0       0       0       0       0       000010000D0000107
     190       0       0       1       1                               0D0000108
     116      66       0       0       0       0       0       000010400D0000109
     116       0       0       1       0                               0D0000110
     123      67       0       0       0       0       0       000010200D0000111
     123       0       0       1       0                               0D0000112
     123      68       0       0       0       0       0       000010200D0000113
     123       0       0       1       0                               0D0000114
     508      69       0       0       0       0       0       000010000D0000115
     508       0       0       1       1                               0D0000116
     510      70       0       0       0       0       0       000010000D0000117
     510       0       0       1       1                               0D0000118
     190      71       0       0       0       0       0       000010000D0000119
     190       0       0       1       1                               0D0000120
     116      72       0       0       0       0       0       000010400D0000121
     116       0       0       1       0                               0D0000122
     123      73       0       0       0       0       0       000010200D0000123
     123       0       0       1       0                               0D0000124
     123      74       0       0       0       0       0       000010200D0000125
     123       0       0       1       0                               0D0000126
     508      75       0       0       0       0       0       000010000D0000127
     508       0       0       2       1                               0D0000128
     510      77       0       0       0       0       0       000010000D0000129
     510       0       0       1       1                               0D0000130
     190      78       0       0       0       0       0       000010000D0000131
     190       0       0       1       1                               0D0000132
     116      79       0       0       0       0       0       000010400D0000133
     116       0       0       1       0                               0D0000134
     123      80       0       0       0       0       0       000010200D0000135
     123       0       0       1       0                               0D0000136
     123      81       0       0       0       0       0       000010200D0000137
     123       0       0       1       0                               0D0000138
     508      82       0       0       0       0       0       000010000D0000139
     508       0       0       2       1                               0D0000140
     510      84       0       0       0       0       0       000010000D0000141
     510       0       0       1       1                               0D0000142
     190      85       0       0       0       0       0       000010000D0000143
     190       0       0       1       1                               0D0000144
     116      86       0       0       0       0       0       000010400D0000145
     116       0       0       1       0                               0D0000146
     123      87       0       0       0       0       0       000010200D0000147
     123       0       0       1       0                               0D0000148
     123      88       0       0       0       0       0       000010200D0000149
     123       0       0       1       0                               0D0000150
     508      89       0       0       0       0       0       000010000D0000151
     508       0       0       1       1                               0D0000152
     508      90       0       0       0       0       0       000010000D0000153
     508       0       0       1       1                               0D0000154
     510      91       0       0       0       0       0       000010000D0000155
     510       0       0       1       1                               0D0000156
     190      92       0       0       0       0       0       000010000D0000157
     190       0       0       1       1                               0D0000158
     116      93       0       0       0       0       0       000010400D0000159
     116       0       0       1       0                               0D0000160
     123      94       0       0       0       0       0       000010200D0000161
     123       0       0       1       0                               0D0000162
     123      95       0       0       0       0       0       000010200D0000163
     123       0       0       1       0                               0D0000164
     508      96       0       0       0       0       0       000010000D0000165
     508       0       0       1       1                               0D0000166
     510      97       0       0       0       0       0       000010000D0000167
     510       0       0       1       1                               0D0000168
     190      98       0       0       0       0       0       000010000D0000169
     190       0       0       1       1                               0D0000170
     116      99       0       0       0       0       0       000010400D0000171
     116       0       0       1       0                               0D0000172
     123     100       0       0       0       0       0       000010200D0000173
     123       0       0       1       0                               0D0000174
     123     101       0       0       0       0       0       000010200D0000175
     123       0       0       1       0                               0D0000176
     508     102       0       0       0       0       0       000010000D0000177
     508       0       0       1       1                               0D0000178
     510     103       0       0       0       0       0       000010000D0000179
     510       0       0       1       1                               0D0000180
     190     104       0       0       0       0       0       000010000D0000181
     190       0       0       1       1                               0D0000182
     116     105       0       0       0       0       0       000010400D0000183
     116       0       0       1       0                               0D0000184
     123     106       0       0       0       0       0       000010200D0000185
     123       0       0       1       0                               0D0000186
     123     107       0       0       0       0       0       000010200D0000187
     123       0       0       1       0                               0D0000188
     508     108       0       0       0       0       0       000010000D0000189
     508       0       0       1       1                               0D0000190
     510     109       0       0       0       0       0       000010000D0000191
     510       0       0       1       1                               0D0000192
     190     110       0       0       0       0       0       000010000D0000193
     190       0       0       1       1                               0D0000194
     116     111       0       0       0       0       0       000010400D0000195
     116       0       0       1       0                               0D0000196
     123     112       0       0       0       0       0       000010200D0000197
     123       0       0       1       0                               0D0000198
     123     113       0       0       0       0       0       000010200D0000199
     123       0       0       1       0                               0D0000200
     508     114       0       0       0       0       0       000010000D0000201
     508       0       0       1       1                               0D0000202
     510     115       0       0       0       0       0       000010000D0000203
     510       0       0       1       1                               0D0000204
     190     116       0       0       0       0       0       000010000D0000205
     190       0       0       1       1                               0D0000206
     116     117       0       0       0       0       0       000010400D0000207
     116       0       0       1       0                               0D0000208
     123     118       0       0       0       0       0       000010200D0000209
     123       0       0       1       0                               0D0000210
     123     119       0       0       0       0       0       000010200D0000211
     123       0       0       1       0                               0D0000212
     508     120       0       0       0       0       0       000010000D0000213
     508       0       0       1       1                               0D0000214
     508     121       0       0       0       0       0       000010000D0000215
     508       0       0       1       1                               0D0000216
     510     122       0       0       0       0       0       000010000D0000217
     510       0       0       1       1                               0D0000218
     190     123       0       0       0       0       0       000010000D0000219
     190       0       0       1       1                               0D0000220
     116     124       0       0       0       0       0       000010400D0000221
     116       0       0       1       0                               0D0000222
     123     125       0       0       0       0       0       000010200D0000223
     123       0       0       1       0                               0D0000224
     123     126       0       0       0       0       0       000010200D0000225
     123       0       0       1       0                               0D0000226
     508     127       0       0       0       0       0       000010000D0000227
     508       0       0       1       1                               0D0000228
     510     128       0       0       0       0       0       000010000D0000229
     510       0       0       1       1                               0D0000230
     192     129       0       0       0       0       0       000010000D0000231
     192       0       0       1       1                               0D0000232
     116     130       0       0       0       0       0       000010400D0000233
     116       0       0       1       0                               0D0000234
     123     131       0       0       0       0       0       000010200D0000235
     123       0       0       1       0                               0D0000236
     123     132       0       0       0       0       0       000010200D0000237
     123       0       0       1       0                               0D0000238
     508     133       0       0       0       0       0       000010000D0000239
     508       0       0       2       1                               0D0000240
     110     135       0       0       0       0       0       000010000D0000241
     110       0       0       1       0                               0D0000242
     110     136       0       0       0       0       0       000010000D0000243
     110       0       0       1       0                               0D0000244
     110     137       0       0       0       0       0       000010000D0000245
     110       0       0       1       0                               0D0000246
     110     138       0       0       0       0       0       000010000D0000247
     110       0       0       1       0                               0D0000248
402,1,3;                                                         0000001P0000001
186,5,1,0;                                                       0000003P0000002
514,13,7,1,93,0,105,1,117,1,129,0,141,0,155,1,167,1,179,1,191,1, 0000005P0000003
203,1,217,1,229,0;                                               0000005P0000004
510,9,1,1,17;                                                    0000007P0000005
190,11,13,15;                                                    0000009P0000006
116,0.1,6.6,0.,0;                                                0000011P0000007
123,0.,-1.,0.;                                                   0000013P0000008
123,-1.,0.,0.;                                                   0000015P0000009
508,4,0,19,1,1,0,0,19,2,1,0,0,19,3,0,0,0,19,4,0,0;               0000017P0000010
504,33,21,23,1,23,2,25,23,2,23,3,27,23,4,23,3,29,23,1,23,4,31,   0000019P0000011
23,2,23,5,33,23,6,23,5,35,23,1,23,6,37,23,3,23,7,39,23,8,23,7,   0000019P0000012
41,23,4,23,8,43,23,8,23,9,45,23,9,23,10,47,23,10,23,11,49,23,11, 0000019P0000013
23,12,51,23,12,23,13,53,23,13,23,14,55,23,6,23,14,57,23,7,23,15, 0000019P0000014
59,23,15,23,16,61,23,16,23,17,63,23,17,23,18,65,23,18,23,19,67,  0000019P0000015
23,19,23,20,69,23,5,23,20,71,23,14,23,20,73,23,21,23,21,77,23,9, 0000019P0000016
23,15,79,23,10,23,16,81,23,11,23,17,83,23,12,23,18,85,23,13,23,  0000019P0000017
19,87,23,22,23,22,91,23,22,23,21;                                0000019P0000018
110,0.1,6.6,0.,0.1,6.6,4.;                                       0000021P0000019
502,22,0.1,6.6,0.,0.1,6.6,4.,-1.1,6.6,4.,-1.1,6.6,0.,0.1,0.,4.,  0000023P0000020
0.1,0.,0.,-1.1,5.,4.,-1.1,5.,0.,-2.,5.,0.,-2.,8.,0.,1.5,8.,0.,   0000023P0000021
1.5,1.5,0.,5.5,1.5,0.,5.5,0.,0.,-2.,5.,4.,-2.,8.,4.,1.5,8.,4.,   0000023P0000022
1.5,1.5,4.,5.5,1.5,4.,5.5,0.,4.,2.6,0.,2.,2.6,1.5,2.;            0000023P0000023
110,0.1,6.6,4.,-1.1,6.6,4.;                                      0000025P0000024
110,-1.1,6.6,0.,-1.1,6.6,4.;                                     0000027P0000025
110,0.1,6.6,0.,-1.1,6.6,0.;                                      0000029P0000026
110,0.1,6.6,4.,0.1,0.,4.;                                        0000031P0000027
110,0.1,0.,0.,0.1,0.,4.;                                         0000033P0000028
110,0.1,6.6,0.,0.1,0.,0.;                                        0000035P0000029
110,-1.1,6.6,4.,-1.1,5.,4.;                                      0000037P0000030
110,-1.1,5.,0.,-1.1,5.,4.;                                       0000039P0000031
110,-1.1,6.6,0.,-1.1,5.,0.;                                      0000041P0000032
110,-1.1,5.,0.,-2.,5.,0.;                                        0000043P0000033
110,-2.,5.,0.,-2.,8.,0.;                                         0000045P0000034
110,-2.,8.,0.,1.5,8.,0.;                                         0000047P0000035
110,1.5,8.,0.,1.5,1.5,0.;                                        0000049P0000036
110,1.5,1.5,0.,5.5,1.5,0.;                                       0000051P0000037
110,5.5,1.5,0.,5.5,0.,0.;                                        0000053P0000038
110,0.1,0.,0.,5.5,0.,0.;                                         0000055P0000039
110,-1.1,5.,4.,-2.,5.,4.;                                        0000057P0000040
110,-2.,5.,4.,-2.,8.,4.;                                         0000059P0000041
110,-2.,8.,4.,1.5,8.,4.;                                         0000061P0000042
110,1.5,8.,4.,1.5,1.5,4.;                                        0000063P0000043
110,1.5,1.5,4.,5.5,1.5,4.;                                       0000065P0000044
110,5.5,1.5,4.,5.5,0.,4.;                                        0000067P0000045
110,0.1,0.,4.,5.5,0.,4.;                                         0000069P0000046
110,5.5,0.,0.,5.5,0.,4.;                                         0000071P0000047
100,0.,0.,0.,0.9,0.,0.9,0.;                                      0000073P0000048
124,-1.,0.,0.,3.5,0.,2.2E-16,1.,0.,0.,1.,-2.2E-16,2.;            0000075P0000049
110,-2.,5.,0.,-2.,5.,4.;                                         0000077P0000050
110,-2.,8.,0.,-2.,8.,4.;                                         0000079P0000051
110,1.5,8.,0.,1.5,8.,4.;                                         0000081P0000052
110,1.5,1.5,0.,1.5,1.5,4.;                                       0000083P0000053
110,5.5,1.5,0.,5.5,1.5,4.;                                       0000085P0000054
100,0.,0.,0.,0.9,0.,0.9,0.;                                      0000087P0000055
124,-1.,0.,0.,3.5,0.,0.,1.,1.5,0.,1.,0.,2.;                      0000089P0000056
110,2.6,1.5,2.,2.6,4.440892099E-16,2.;                           0000091P0000057
510,95,1,1,103;                                                  0000093P0000058
190,97,99,101;                                                   0000095P0000059
116,0.1,6.6,0.,0;                                                0000097P0000060
123,1.,0.,0.;                                                    0000099P0000061
123,0.,-1.,0.;                                                   0000101P0000062
508,4,0,19,1,1,0,0,19,5,1,0,0,19,6,0,0,0,19,7,0,0;               0000103P0000063
510,107,1,1,115;                                                 0000105P0000064
190,109,111,113;                                                 0000107P0000065
116,-1.1,6.6,0.,0;                                               0000109P0000066
123,1.,0.,0.;                                                    0000111P0000067
123,0.,-1.,0.;                                                   0000113P0000068
508,4,0,19,3,1,0,0,19,8,1,0,0,19,9,0,0,0,19,10,0,0;              0000115P0000069
510,119,1,1,127;                                                 0000117P0000070
190,121,123,125;                                                 0000119P0000071
116,1.08625731,3.771345029,0.,0;                                 0000121P0000072
123,-0.,-0.,-1.;                                                 0000123P0000073
123,-1.,0.,0.;                                                   0000125P0000074
508,10,0,19,4,1,0,0,19,10,1,0,0,19,11,1,0,0,19,12,1,0,0,19,13,1, 0000127P0000075
0,0,19,14,1,0,0,19,15,1,0,0,19,16,1,0,0,19,17,0,0,0,19,7,0,0;    0000127P0000076
510,131,1,1,139;                                                 0000129P0000077
190,133,135,137;                                                 0000131P0000078
116,1.08625731,3.771345029,4.,0;                                 0000133P0000079
123,-0.,-0.,-1.;                                                 0000135P0000080
123,-1.,0.,0.;                                                   0000137P0000081
508,10,0,19,2,1,0,0,19,8,1,0,0,19,18,1,0,0,19,19,1,0,0,19,20,1,  0000139P0000082
0,0,19,21,1,0,0,19,22,1,0,0,19,23,1,0,0,19,24,0,0,0,19,5,0,0;    0000139P0000083
510,143,2,1,151,153;                                             0000141P0000084
190,145,147,149;                                                 0000143P0000085
116,0.1,0.,0.,0;                                                 0000145P0000086
123,0.,1.,0.;                                                    0000147P0000087
123,1.,0.,0.;                                                    0000149P0000088
508,4,0,19,6,1,0,0,19,24,1,0,0,19,25,0,0,0,19,17,0,0;            0000151P0000089
508,1,0,19,26,0,0;                                               0000153P0000090
510,157,1,1,165;                                                 0000155P0000091
190,159,161,163;                                                 0000157P0000092
116,-1.1,5.,0.,0;                                                0000159P0000093
123,0.,-1.,0.;                                                   0000161P0000094
123,-1.,0.,0.;                                                   0000163P0000095
508,4,0,19,9,1,0,0,19,18,1,0,0,19,27,0,0,0,19,11,0,0;            0000165P0000096
510,169,1,1,177;                                                 0000167P0000097
190,171,173,175;                                                 0000169P0000098
116,-2.,5.,0.,0;                                                 0000171P0000099
123,-1.,0.,0.;                                                   0000173P0000100
123,0.,1.,0.;                                                    0000175P0000101
508,4,0,19,27,1,0,0,19,19,1,0,0,19,28,0,0,0,19,12,0,0;           0000177P0000102
510,181,1,1,189;                                                 0000179P0000103
190,183,185,187;                                                 0000181P0000104
116,-2.,8.,0.,0;                                                 0000183P0000105
123,0.,1.,0.;                                                    0000185P0000106
123,1.,0.,0.;                                                    0000187P0000107
508,4,0,19,28,1,0,0,19,20,1,0,0,19,29,0,0,0,19,13,0,0;           0000189P0000108
510,193,1,1,201;                                                 0000191P0000109
190,195,197,199;                                                 0000193P0000110
116,1.5,8.,0.,0;                                                 0000195P0000111
123,1.,0.,0.;                                                    0000197P0000112
123,0.,-1.,0.;                                                   0000199P0000113
508,4,0,19,29,1,0,0,19,21,1,0,0,19,30,0,0,0,19,14,0,0;           0000201P0000114
510,205,2,1,213,215;                                             0000203P0000115
190,207,209,211;                                                 0000205P0000116
116,1.5,1.5,0.,0;                                                0000207P0000117
123,0.,1.,0.;                                                    0000209P0000118
123,1.,0.,0.;                                                    0000211P0000119
508,4,0,19,30,1,0,0,19,22,1,0,0,19,31,0,0,0,19,15,0,0;           0000213P0000120
508,1,0,19,32,0,0;                                               0000215P0000121
510,219,1,1,227;                                                 0000217P0000122
190,221,223,225;                                                 0000219P0000123
116,5.5,1.5,0.,0;                                                0000221P0000124
123,1.,0.,0.;                                                    0000223P0000125
123,0.,-1.,0.;                                                   0000225P0000126
508,4,0,19,31,1,0,0,19,23,1,0,0,19,25,0,0,0,19,16,0,0;           0000227P0000127
510,231,1,1,239;                                                 0000229P0000128
192,233,235,0.9,237;                                             0000231P0000129
116,3.5,1.5,2.,0;                                                0000233P0000130
123,0.,1.,-2.2E-16;                                              0000235P0000131
123,-1.,0.,0.;                                                   0000237P0000132
508,4,0,19,32,0,1,0,241,0,19,33,1,1,0,243,0,19,26,1,1,0,245,0,   0000239P0000133
19,33,0,1,0,247;                                                 0000239P0000134
110,360.,0.,0.,0.,0.,0.;                                         0000241P0000135
110,0.,0.,0.,0.,-1.5,0.;                                         0000243P0000136
110,0.,-1.5,0.,360.,-1.5,0.;                                     0000245P0000137
110,360.,-1.5,0.,360.,0.,0.;                                     0000247P0000138
S      1G      4D    248P    138                                        T0000001
