                                                                        S0000001
,,31HOpen CASCADE IGES processor 7.5,13HFilename.iges,                  G0000001
16HOpen CASCADE 7.5,31HOpen CASCADE IGES processor 7.5,32,308,15,308,15,G0000002
,1.,2,2HMM,1,0.01,15H20220405.154511,1.14955E-07,4.293375,,,11,0,       G0000003
15H20220405.154511,;                                                    G0000004
     402       1       0       0       0       0       0       000000000D0000001
     402       0       0       1       1                               0D0000002
     186       2       0       0       0       0       0       000020000D0000003
     186       0       0       1       0                               0D0000004
     514       3       0       0       0       0       0       000010000D0000005
     514       0       0       2       1                               0D0000006
     510       5       0       0       0       0       0       000010000D0000007
     510       0       0       1       1                               0D0000008
     190       6       0       0       0       0       0       000010000D0000009
     190       0       0       1       1                               0D0000010
     116       7       0       0       0       0       0       000010400D0000011
     116       0       0       1       0                               0D0000012
     123       8       0       0       0       0       0       000010200D0000013
     123       0       0       1       0                               0D0000014
     123       9       0       0       0       0       0       000010200D0000015
     123       0       0       1       0                               0D0000016
     508      10       0       0       0       0       0       000010000D0000017
     508       0       0       2       1                               0D0000018
     504      12       0       0       0       0       0       000010001D0000019
     504       0       0      14       1                               0D0000020
     100      26       0       0       0       0      23       000010000D0000021
     100       0       0       1       0                               0D0000022
     124      27       0       0       0       0       0       000000000D0000023
     124       0       0       3       0                               0D0000024
     502      30       0       0       0       0       0       000010000D0000025
     502       0       0      12       1                               0D0000026
     100      42       0       0       0       0      29       000010000D0000027
     100       0       0       1       0                               0D0000028
     124      43       0       0       0       0       0       000000000D0000029
     124       0       0       3       0                               0D0000030
     110      46       0       0       0       0       0       000010000D0000031
     110       0       0       1       0                               0D0000032
     110      47       0       0       0       0       0       000010000D0000033
     110       0       0       1       0                               0D0000034
     110      48       0       0       0       0       0       000010000D0000035
     110       0       0       1       0                               0D0000036
     110      49       0       0       0       0       0       000010000D0000037
     110       0       0       1       0                               0D0000038
     110      50       0       0       0       0       0       000010000D0000039
     110       0       0       1       0                               0D0000040
     104      51       0       0       0       0      43       000010000D0000041
     104       0       0       2       1                               0D0000042
     124      53       0       0       0       0       0       000000000D0000043
     124       0       0       3       0                               0D0000044
     110      56       0       0       0       0       0       000010000D0000045
     110       0       0       1       0                               0D0000046
     100      57       0       0       0       0      49       000010000D0000047
     100       0       0       1       0                               0D0000048
     124      58       0       0       0       0       0       000000000D0000049
     124       0       0       3       0                               0D0000050
     110      61       0       0       0       0       0       000010000D0000051
     110       0       0       1       0                               0D0000052
     110      62       0       0       0       0       0       000010000D0000053
     110       0       0       1       0                               0D0000054
     110      63       0       0       0       0       0       000010000D0000055
     110       0       0       1       0                               0D0000056
     110      64       0       0       0       0       0       000010000D0000057
     110       0       0       2       0                               0D0000058
     110      66       0       0       0       0       0       000010000D0000059
     110       0       0       1       0                               0D0000060
     110      67       0       0       0       0       0       000010000D0000061
     110       0       0       1       0                               0D0000062
     110      68       0       0       0       0       0       000010000D0000063
     110       0       0       1       0                               0D0000064
     110      69       0       0       0       0       0       000010000D0000065
     110       0       0       1       0                               0D0000066
     110      70       0       0       0       0       0       000010000D0000067
     110       0       0       1       0                               0D0000068
     100      71       0       0       0       0      71       000010000D0000069
     100       0       0       1       0                               0D0000070
     124      72       0       0       0       0       0       000000000D0000071
     124       0       0       2       0                               0D0000072
     110      74       0       0       0       0       0       000010000D0000073
     110       0       0       1       0                               0D0000074
     110      75       0       0       0       0       0       000010000D0000075
     110       0       0       1       0                               0D0000076
     110      76       0       0       0       0       0       000010000D0000077
     110       0       0       1       0                               0D0000078
     110      77       0       0       0       0       0       000010000D0000079
     110       0       0       1       0                               0D0000080
     110      78       0       0       0       0       0       000010000D0000081
     110       0       0       2       0                               0D0000082
     110      80       0       0       0       0       0       000010000D0000083
     110       0       0       1       0                               0D0000084
     110      81       0       0       0       0       0       000010000D0000085
     110       0       0       1       0                               0D0000086
     110      82       0       0       0       0       0       000010000D0000087
     110       0       0       1       0                               0D0000088
     110      83       0       0       0       0       0       000010000D0000089
     110       0       0       1       0                               0D0000090
     100      84       0       0       0       0      93       000010000D0000091
     100       0       0       1       0                               0D0000092
     124      85       0       0       0       0       0       000000000D0000093
     124       0       0       2       0                               0D0000094
     110      87       0       0       0       0       0       000010000D0000095
     110       0       0       1       0                               0D0000096
     110      88       0       0       0       0       0       000010000D0000097
     110       0       0       1       0                               0D0000098
     110      89       0       0       0       0       0       000010000D0000099
     110       0       0       1       0                               0D0000100
     100      90       0       0       0       0     103       000010000D0000101
     100       0       0       1       0                               0D0000102
     124      91       0       0       0       0       0       000000000D0000103
     124       0       0       2       0                               0D0000104
     110      93       0       0       0       0       0       000010000D0000105
     110       0       0       1       0                               0D0000106
     110      94       0       0       0       0       0       000010000D0000107
     110       0       0       1       0                               0D0000108
     110      95       0       0       0       0       0       000010000D0000109
     110       0       0       1       0                               0D0000110
     110      96       0       0       0       0       0       000010000D0000111
     110       0       0       1       0                               0D0000112
     110      97       0       0       0       0       0       000010000D0000113
     110       0       0       1       0                               0D0000114
     110      98       0       0       0       0       0       000010000D0000115
     110       0       0       1       0                               0D0000116
     110      99       0       0       0       0       0       000010000D0000117
     110       0       0       1       0                               0D0000118
     100     100       0       0       0       0     121       000010000D0000119
     100       0       0       1       0                               0D0000120
     124     101       0       0       0       0       0       000000000D0000121
     124       0       0       2       0                               0D0000122
     110     103       0       0       0       0       0       000010000D0000123
     110       0       0       1       0                               0D0000124
     110     104       0       0       0       0       0       000010000D0000125
     110       0       0       1       0                               0D0000126
     110     105       0       0       0       0       0       000010000D0000127
     110       0       0       1       0                               0D0000128
     110     106       0       0       0       0       0       000010000D0000129
     110       0       0       1       0                               0D0000130
     110     107       0       0       0       0       0       000010000D0000131
     110       0       0       1       0                               0D0000132
     110     108       0       0       0       0       0       000010000D0000133
     110       0       0       1       0                               0D0000134
     110     109       0       0       0       0       0       000010000D0000135
     110       0       0       1       0                               0D0000136
     110     110       0       0       0       0       0       000010000D0000137
     110       0       0       1       0                               0D0000138
     110     111       0       0       0       0       0       000010000D0000139
     110       0       0       1       0                               0D0000140
     100     112       0       0       0       0     143       000010000D0000141
     100       0       0       1       0                               0D0000142
     124     113       0       0       0       0       0       000000000D0000143
     124       0       0       2       0                               0D0000144
     110     115       0       0       0       0       0       000010000D0000145
     110       0       0       1       0                               0D0000146
     110     116       0       0       0       0       0       000010000D0000147
     110       0       0       1       0                               0D0000148
     110     117       0       0       0       0       0       000010000D0000149
     110       0       0       1       0                               0D0000150
     110     118       0       0       0       0       0       000010000D0000151
     110       0       0       2       0                               0D0000152
     510     120       0       0       0       0       0       000010000D0000153
     510       0       0       1       1                               0D0000154
     194     121       0       0       0       0       0       000010000D0000155
     194       0       0       1       1                               0D0000156
     116     122       0       0       0       0       0       000010400D0000157
     116       0       0       1       0                               0D0000158
     123     123       0       0       0       0       0       000010200D0000159
     123       0       0       1       0                               0D0000160
     123     124       0       0       0       0       0       000010200D0000161
     123       0       0       1       0                               0D0000162
     508     125       0       0       0       0       0       000010000D0000163
     508       0       0       2       1                               0D0000164
     110     127       0       0       0       0       0       000010000D0000165
     110       0       0       1       0                               0D0000166
     126     128       0       0       0       0       0       000010000D0000167
     126       0       0       9       0                               0D0000168
     110     137       0       0       0       0       0       000010000D0000169
     110       0       0       1       0                               0D0000170
     110     138       0       0       0       0       0       000010000D0000171
     110       0       0       1       0                               0D0000172
     110     139       0       0       0       0       0       000010000D0000173
     110       0       0       1       0                               0D0000174
     110     140       0       0       0       0       0       000010000D0000175
     110       0       0       1       0                               0D0000176
     510     141       0       0       0       0       0       000010000D0000177
     510       0       0       1       1                               0D0000178
     190     142       0       0       0       0       0       000010000D0000179
     190       0       0       1       1                               0D0000180
     116     143       0       0       0       0       0       000010400D0000181
     116       0       0       1       0                               0D0000182
     123     144       0       0       0       0       0       000010200D0000183
     123       0       0       1       0                               0D0000184
     123     145       0       0       0       0       0       000010200D0000185
     123       0       0       1       0                               0D0000186
     508     146       0       0       0       0       0       000010000D0000187
     508       0       0       2       1                               0D0000188
     510     148       0       0       0       0       0       000010000D0000189
     510       0       0       1       1                               0D0000190
     190     149       0       0       0       0       0       000010000D0000191
     190       0       0       1       1                               0D0000192
     116     150       0       0       0       0       0       000010400D0000193
     116       0       0       1       0                               0D0000194
     123     151       0       0       0       0       0       000010200D0000195
     123       0       0       1       0                               0D0000196
     123     152       0       0       0       0       0       000010200D0000197
     123       0       0       1       0                               0D0000198
     508     153       0       0       0       0       0       000010000D0000199
     508       0       0       3       1                               0D0000200
     510     156       0       0       0       0       0       000010000D0000201
     510       0       0       1       1                               0D0000202
     190     157       0       0       0       0       0       000010000D0000203
     190       0       0       1       1                               0D0000204
     116     158       0       0       0       0       0       000010400D0000205
     116       0       0       1       0                               0D0000206
     123     159       0       0       0       0       0       000010200D0000207
     123       0       0       1       0                               0D0000208
     123     160       0       0       0       0       0       000010200D0000209
     123       0       0       1       0                               0D0000210
     508     161       0       0       0       0       0       000010000D0000211
     508       0       0       1       1                               0D0000212
     510     162       0       0       0       0       0       000010000D0000213
     510       0       0       1       1                               0D0000214
     190     163       0       0       0       0       0       000010000D0000215
     190       0       0       1       1                               0D0000216
     116     164       0       0       0       0       0       000010400D0000217
     116       0       0       1       0                               0D0000218
     123     165       0       0       0       0       0       000010200D0000219
     123       0       0       1       0                               0D0000220
     123     166       0       0       0       0       0       000010200D0000221
     123       0       0       1       0                               0D0000222
     508     167       0       0       0       0       0       000010000D0000223
     508       0       0       3       1                               0D0000224
     510     170       0       0       0       0       0       000010000D0000225
     510       0       0       1       1                               0D0000226
     192     171       0       0       0       0       0       000010000D0000227
     192       0       0       1       1                               0D0000228
     116     172       0       0       0       0       0       000010400D0000229
     116       0       0       1       0                               0D0000230
     123     173       0       0       0       0       0       000010200D0000231
     123       0       0       1       0                               0D0000232
     123     174       0       0       0       0       0       000010200D0000233
     123       0       0       1       0                               0D0000234
     508     175       0       0       0       0       0       000010000D0000235
     508       0       0       2       1                               0D0000236
     110     177       0       0       0       0       0       000010000D0000237
     110       0       0       1       0                               0D0000238
     110     178       0       0       0       0       0       000010000D0000239
     110       0       0       1       0                               0D0000240
     110     179       0       0       0       0       0       000010000D0000241
     110       0       0       1       0                               0D0000242
     110     180       0       0       0       0       0       000010000D0000243
     110       0       0       1       0                               0D0000244
     510     181       0       0       0       0       0       000010000D0000245
     510       0       0       1       1                               0D0000246
     190     182       0       0       0       0       0       000010000D0000247
     190       0       0       1       1                               0D0000248
     116     183       0       0       0       0       0       000010400D0000249
     116       0       0       1       0                               0D0000250
     123     184       0       0       0       0       0       000010200D0000251
     123       0       0       1       0                               0D0000252
     123     185       0       0       0       0       0       000010200D0000253
     123       0       0       1       0                               0D0000254
     508     186       0       0       0       0       0       000010000D0000255
     508       0       0       1       1                               0D0000256
     510     187       0       0       0       0       0       000010000D0000257
     510       0       0       1       1                               0D0000258
     190     188       0       0       0       0       0       000010000D0000259
     190       0       0       1       1                               0D0000260
     116     189       0       0       0       0       0       000010400D0000261
     116       0       0       1       0                               0D0000262
     123     190       0       0       0       0       0       000010200D0000263
     123       0       0       1       0                               0D0000264
     123     191       0       0       0       0       0       000010200D0000265
     123       0       0       1       0                               0D0000266
     508     192       0       0       0       0       0       000010000D0000267
     508       0       0       2       1                               0D0000268
     508     194       0       0       0       0       0       000010000D0000269
     508       0       0       1       1                               0D0000270
     510     195       0       0       0       0       0       000010000D0000271
     510       0       0       1       1                               0D0000272
     190     196       0       0       0       0       0       000010000D0000273
     190       0       0       1       1                               0D0000274
     116     197       0       0       0       0       0       000010400D0000275
     116       0       0       1       0                               0D0000276
     123     198       0       0       0       0       0       000010200D0000277
     123       0       0       1       0                               0D0000278
     123     199       0       0       0       0       0       000010200D0000279
     123       0       0       1       0                               0D0000280
     508     200       0       0       0       0       0       000010000D0000281
     508       0       0       1       1                               0D0000282
     510     201       0       0       0       0       0       000010000D0000283
     510       0       0       1       1                               0D0000284
     190     202       0       0       0       0       0       000010000D0000285
     190       0       0       1       1                               0D0000286
     116     203       0       0       0       0       0       000010400D0000287
     116       0       0       1       0                               0D0000288
     123     204       0       0       0       0       0       000010200D0000289
     123       0       0       1       0                               0D0000290
     123     205       0       0       0       0       0       000010200D0000291
     123       0       0       1       0                               0D0000292
     508     206       0       0       0       0       0       000010000D0000293
     508       0       0       2       1                               0D0000294
     508     208       0       0       0       0       0       000010000D0000295
     508       0       0       1       1                               0D0000296
     510     209       0       0       0       0       0       000010000D0000297
     510       0       0       1       1                               0D0000298
     192     210       0       0       0       0       0       000010000D0000299
     192       0       0       1       1                               0D0000300
     116     211       0       0       0       0       0       000010400D0000301
     116       0       0       1       0                               0D0000302
     123     212       0       0       0       0       0       000010200D0000303
     123       0       0       1       0                               0D0000304
     123     213       0       0       0       0       0       000010200D0000305
     123       0       0       1       0                               0D0000306
     508     214       0       0       0       0       0       000010000D0000307
     508       0       0       2       1                               0D0000308
     110     216       0       0       0       0       0       000010000D0000309
     110       0       0       1       0                               0D0000310
     110     217       0       0       0       0       0       000010000D0000311
     110       0       0       1       0                               0D0000312
     110     218       0       0       0       0       0       000010000D0000313
     110       0       0       1       0                               0D0000314
     110     219       0       0       0       0       0       000010000D0000315
     110       0       0       1       0                               0D0000316
     510     220       0       0       0       0       0       000010000D0000317
     510       0       0       1       1                               0D0000318
     190     221       0       0       0       0       0       000010000D0000319
     190       0       0       1       1                               0D0000320
     116     222       0       0       0       0       0       000010400D0000321
     116       0       0       1       0                               0D0000322
     123     223       0       0       0       0       0       000010200D0000323
     123       0       0       1       0                               0D0000324
     123     224       0       0       0       0       0       000010200D0000325
     123       0       0       1       0                               0D0000326
     508     225       0       0       0       0       0       000010000D0000327
     508       0       0       1       1                               0D0000328
     510     226       0       0       0       0       0       000010000D0000329
     510       0       0       1       1                               0D0000330
     190     227       0       0       0       0       0       000010000D0000331
     190       0       0       1       1                               0D0000332
     116     228       0       0       0       0       0       000010400D0000333
     116       0       0       1       0                               0D0000334
     123     229       0       0       0       0       0       000010200D0000335
     123       0       0       1       0                               0D0000336
     123     230       0       0       0       0       0       000010200D0000337
     123       0       0       1       0                               0D0000338
     508     231       0       0       0       0       0       000010000D0000339
     508       0       0       1       1                               0D0000340
     508     232       0       0       0       0       0       000010000D0000341
     508       0       0       1       1                               0D0000342
     510     233       0       0       0       0       0       000010000D0000343
     510       0       0       1       1                               0D0000344
     190     234       0       0       0       0       0       000010000D0000345
     190       0       0       1       1                               0D0000346
     116     235       0       0       0       0       0       000010400D0000347
     116       0       0       1       0                               0D0000348
     123     236       0       0       0       0       0       000010200D0000349
     123       0       0       1       0                               0D0000350
     123     237       0       0       0       0       0       000010200D0000351
     123       0       0       1       0                               0D0000352
     508     238       0       0       0       0       0       000010000D0000353
     508       0       0       1       1                               0D0000354
     510     239       0       0       0       0       0       000010000D0000355
     510       0       0       1       1                               0D0000356
     190     240       0       0       0       0       0       000010000D0000357
     190       0       0       1       1                               0D0000358
     116     241       0       0       0       0       0       000010400D0000359
     116       0       0       1       0                               0D0000360
     123     242       0       0       0       0       0       000010200D0000361
     123       0       0       1       0                               0D0000362
     123     243       0       0       0       0       0       000010200D0000363
     123       0       0       1       0                               0D0000364
     508     244       0       0       0       0       0       000010000D0000365
     508       0       0       1       1                               0D0000366
     510     245       0       0       0       0       0       000010000D0000367
     510       0       0       1       1                               0D0000368
     190     246       0       0       0       0       0       000010000D0000369
     190       0       0       1       1                               0D0000370
     116     247       0       0       0       0       0       000010400D0000371
     116       0       0       1       0                               0D0000372
     123     248       0       0       0       0       0       000010200D0000373
     123       0       0       1       0                               0D0000374
     123     249       0       0       0       0       0       000010200D0000375
     123       0       0       1       0                               0D0000376
     508     250       0       0       0       0       0       000010000D0000377
     508       0       0       1       1                               0D0000378
     510     251       0       0       0       0       0       000010000D0000379
     510       0       0       1       1                               0D0000380
     190     252       0       0       0       0       0       000010000D0000381
     190       0       0       1       1                               0D0000382
     116     253       0       0       0       0       0       000010400D0000383
     116       0       0       1       0                               0D0000384
     123     254       0       0       0       0       0       000010200D0000385
     123       0       0       1       0                               0D0000386
     123     255       0       0       0       0       0       000010200D0000387
     123       0       0       1       0                               0D0000388
     508     256       0       0       0       0       0       000010000D0000389
     508       0       0       1       1                               0D0000390
     510     257       0       0       0       0       0       000010000D0000391
     510       0       0       1       1                               0D0000392
     190     258       0       0       0       0       0       000010000D0000393
     190       0       0       1       1                               0D0000394
     116     259       0       0       0       0       0       000010400D0000395
     116       0       0       1       0                               0D0000396
     123     260       0       0       0       0       0       000010200D0000397
     123       0       0       1       0                               0D0000398
     123     261       0       0       0       0       0       000010200D0000399
     123       0       0       1       0                               0D0000400
     508     262       0       0       0       0       0       000010000D0000401
     508       0       0       1       1                               0D0000402
     510     263       0       0       0       0       0       000010000D0000403
     510       0       0       1       1                               0D0000404
     192     264       0       0       0       0       0       000010000D0000405
     192       0       0       1       1                               0D0000406
     116     265       0       0       0       0       0       000010400D0000407
     116       0       0       1       0                               0D0000408
     123     266       0       0       0       0       0       000010200D0000409
     123       0       0       1       0                               0D0000410
     123     267       0       0       0       0       0       000010200D0000411
     123       0       0       1       0                               0D0000412
     508     268       0       0       0       0       0       000010000D0000413
     508       0       0       2       1                               0D0000414
     110     270       0       0       0       0       0       000010000D0000415
     110       0       0       1       0                               0D0000416
     110     271       0       0       0       0       0       000010000D0000417
     110       0       0       1       0                               0D0000418
     110     272       0       0       0       0       0       000010000D0000419
     110       0       0       1       0                               0D0000420
     110     273       0       0       0       0       0       000010000D0000421
     110       0       0       1       0                               0D0000422
402,1,3;                                                         0000001P0000001
186,5,1,0;                                                       0000003P0000002
514,20,7,1,153,0,177,0,189,0,201,1,213,1,225,0,245,0,257,1,271,  0000005P0000003
0,283,1,297,0,317,1,329,1,343,1,355,0,367,0,379,0,391,0,403,0;   0000005P0000004
510,9,1,1,17;                                                    0000007P0000005
190,11,13,15;                                                    0000009P0000006
116,0.,1.5,1.,0;                                                 0000011P0000007
123,0.,1.998401444E-15,1.;                                       0000013P0000008
123,1.,0.,0.;                                                    0000015P0000009
508,7,0,19,1,0,0,0,19,2,0,0,0,19,3,0,0,0,19,4,0,0,0,19,5,1,0,0,  0000017P0000010
19,6,1,0,0,19,7,0,0;                                             0000017P0000011
504,56,21,25,1,25,2,27,25,3,25,1,31,25,4,25,3,33,25,5,25,4,35,   0000019P0000012
25,5,25,6,37,25,6,25,7,39,25,2,25,7,41,25,3,25,2,45,25,1,25,8,   0000019P0000013
47,25,8,25,8,51,25,7,25,9,53,25,10,25,4,55,25,9,25,10,57,25,11,  0000019P0000014
25,12,59,25,12,25,13,61,25,13,25,14,63,25,14,25,6,65,25,9,25,15, 0000019P0000015
67,25,15,25,16,69,25,16,25,17,73,25,17,25,18,75,25,11,25,18,77,  0000019P0000016
25,19,25,14,79,25,19,25,5,81,25,20,25,21,83,25,21,25,22,85,25,   0000019P0000017
22,25,19,87,25,23,25,10,89,25,23,25,24,91,25,24,25,25,95,25,25,  0000019P0000018
25,26,97,25,20,25,26,99,25,8,25,27,101,25,27,25,27,105,25,23,25, 0000019P0000019
15,107,25,28,25,20,109,25,29,25,28,111,25,30,25,29,113,25,31,25, 0000019P0000020
30,115,25,11,25,31,117,25,21,25,12,119,25,32,25,32,123,25,18,25, 0000019P0000021
33,125,25,31,25,33,127,25,33,25,34,129,25,34,25,35,131,25,35,25, 0000019P0000022
36,133,25,36,25,26,135,25,17,25,25,137,25,16,25,24,139,25,22,25, 0000019P0000023
13,141,25,37,25,37,145,25,28,25,36,147,25,30,25,34,149,25,29,25, 0000019P0000024
35,151,25,37,25,32;                                              0000019P0000025
100,0.,0.,0.,0.95,-3.944304526E-31,-0.725,0.613901458;           0000021P0000026
124,-1.,1.643460219E-31,0.,1.75,-1.643460219E-31,-1.,            0000023P0000027
1.998401444E-15,1.998401444E-15,3.284293276E-46,1.998401444E-15, 0000023P0000028
1.,1.;                                                           0000023P0000029
502,37,0.8,1.998401444E-15,1.,2.475,-0.613901458,1.,2.475,       0000025P0000030
0.613901458,1.,2.475,1.5,1.,0.,1.5,1.,0.,-1.5,1.,2.475,-1.5,1.,  0000025P0000031
1.15,1.298960939E-15,0.65,4.275,-1.5,0.4,4.275,1.5,0.4,0.,-1.5,  0000025P0000032
2.997602166E-15,-2.5,-1.5,2.997602166E-15,-2.5,-1.5,1.25,0.,     0000025P0000033
-1.5,1.25,4.275,-1.5,0.2,3.756173769,-1.5,0.2,3.243826231,-1.5,  0000025P0000034
0.2,0.,-1.5,0.2,0.,1.5,1.25,0.,1.5,-2.997602166E-15,-2.5,1.5,    0000025P0000035
-2.997602166E-15,-2.5,1.5,1.25,4.275,1.5,0.2,3.756173769,1.5,    0000025P0000036
0.2,3.243826231,1.5,0.2,0.,1.5,0.2,1.15,3.996802889E-16,0.2,0.,  0000025P0000037
0.45,-8.992806499E-16,0.5,0.45,-8.992806499E-16,0.5,-0.45,       0000025P0000038
8.9928065E-16,0.,-0.45,8.9928065E-16,-1.65,0.,0.,0.,-0.45,0.2,   0000025P0000039
0.5,-0.45,0.2,0.5,0.45,0.2,0.,0.45,0.2,-1.65,2.498001805E-15,    0000025P0000040
1.25;                                                            0000025P0000041
100,0.,0.,0.,-0.725,-0.613901458,0.95,-2.326828918E-16;          0000027P0000042
124,-1.,1.643460219E-31,0.,1.75,-1.643460219E-31,-1.,            0000029P0000043
1.998401444E-15,1.998401444E-15,3.284293276E-46,1.998401444E-15, 0000029P0000044
1.,1.;                                                           0000029P0000045
110,2.475,1.5,1.,2.475,0.613901458,1.;                           0000031P0000046
110,0.,1.5,1.,2.475,1.5,1.;                                      0000033P0000047
110,0.,1.5,1.,0.,-1.5,1.;                                        0000035P0000048
110,0.,-1.5,1.,2.475,-1.5,1.;                                    0000037P0000049
110,2.475,-0.613901458,1.,2.475,-1.5,1.;                         0000039P0000050
104,0.500757983,0.,0.625947479,0.,-0.,-1.,0.,-1.235264711,       0000041P0000051
0.613901458,-1.235264711,-0.613901458;                           0000041P0000052
124,-0.948683298,-4.930380658E-32,-0.316227766,1.303125,         0000043P0000053
6.319500243E-16,1.,-1.895850073E-15,2.779027009E-15,0.316227766, 0000043P0000054
-1.998401444E-15,-0.948683298,1.390625;                          0000043P0000055
110,0.8,1.998401444E-15,1.,1.15,1.298960939E-15,0.65;            0000045P0000056
100,0.,0.,0.,0.6,0.,0.6,0.;                                      0000047P0000057
124,-1.,1.643460219E-31,0.,1.75,-1.643460219E-31,-1.,            0000049P0000058
1.998401444E-15,1.298960939E-15,3.284293276E-46,1.998401444E-15, 0000049P0000059
1.,0.65;                                                         0000049P0000060
110,2.475,-1.5,1.,4.275,-1.5,0.4;                                0000051P0000061
110,4.275,1.5,0.4,2.475,1.5,1.;                                  0000053P0000062
110,4.275,-1.5,0.4,4.275,1.5,0.4;                                0000055P0000063
110,-4.440892099E-16,-1.5,3.108624469E-15,-2.5,-1.5,             0000057P0000064
3.108624469E-15;                                                 0000057P0000065
110,-2.5,-1.5,3.108624469E-15,-2.5,-1.5,1.25;                    0000059P0000066
110,-2.5,-1.5,1.25,8.881784197E-16,-1.5,1.25;                    0000061P0000067
110,0.,-1.5,1.25,0.,-1.5,1.;                                     0000063P0000068
110,4.275,-1.5,0.4,4.275,-1.5,0.2;                               0000065P0000069
110,4.275,-1.5,0.2,3.756173769,-1.5,0.2;                         0000067P0000070
100,0.,0.,0.,0.256173769,0.2,-0.256173769,0.2;                   0000069P0000071
124,1.,0.,0.,3.5,0.,1.998401444E-15,-1.,-1.5,0.,1.,              0000071P0000072
1.998401444E-15,3.108624469E-15;                                 0000071P0000073
110,3.243826231,-1.5,0.2,0.,-1.5,0.2;                            0000073P0000074
110,0.,-1.5,2.997602166E-15,0.,-1.5,0.2;                         0000075P0000075
110,0.,1.5,1.25,0.,-1.5,1.25;                                    0000077P0000076
110,0.,1.5,1.25,0.,1.5,1.;                                       0000079P0000077
110,-4.440892099E-16,1.5,-3.108624469E-15,-2.5,1.5,              0000081P0000078
-3.108624469E-15;                                                0000081P0000079
110,-2.5,1.5,-3.108624469E-15,-2.5,1.5,1.25;                     0000083P0000080
110,-2.5,1.5,1.25,8.881784197E-16,1.5,1.25;                      0000085P0000081
110,4.275,1.5,0.2,4.275,1.5,0.4;                                 0000087P0000082
110,4.275,1.5,0.2,3.756173769,1.5,0.2;                           0000089P0000083
100,0.,0.,0.,0.256173769,0.2,-0.256173769,0.2;                   0000091P0000084
124,1.,0.,0.,3.5,0.,1.998401444E-15,-1.,1.5,0.,1.,               0000093P0000085
1.998401444E-15,-3.108624469E-15;                                0000093P0000086
110,3.243826231,1.5,0.2,0.,1.5,0.2;                              0000095P0000087
110,0.,1.5,-2.997602166E-15,0.,1.5,0.2;                          0000097P0000088
110,1.15,1.298960939E-15,0.65,1.15,3.996802889E-16,0.2;          0000099P0000089
100,0.,0.,0.,0.6,0.,0.6,0.;                                      0000101P0000090
124,-1.,0.,0.,1.75,0.,-1.,1.998401444E-15,3.996802889E-16,0.,    0000103P0000091
1.998401444E-15,1.,0.2;                                          0000103P0000092
110,4.275,1.5,0.2,4.275,-1.5,0.2;                                0000105P0000093
110,0.,0.45,-8.992806499E-16,0.,1.5,-2.997602166E-15;            0000107P0000094
110,0.5,0.45,-8.992806499E-16,0.,0.45,-8.992806499E-16;          0000109P0000095
110,0.5,-0.45,8.9928065E-16,0.5,0.45,-8.992806499E-16;           0000111P0000096
110,0.,-0.45,8.9928065E-16,0.5,-0.45,8.9928065E-16;              0000113P0000097
110,0.,-1.5,2.997602166E-15,0.,-0.45,8.9928065E-16;              0000115P0000098
110,-2.5,1.5,-2.997602166E-15,-2.5,-1.5,2.997602166E-15;         0000117P0000099
100,0.,0.,0.,0.4,0.,0.4,0.;                                      0000119P0000100
124,-1.,0.,0.,-1.25,0.,-1.,1.998401444E-15,0.,0.,                0000121P0000101
1.998401444E-15,1.,0.;                                           0000121P0000102
110,0.,-1.5,0.2,0.,-0.45,0.2;                                    0000123P0000103
110,0.,-0.45,8.9928065E-16,0.,-0.45,0.2;                         0000125P0000104
110,0.,-0.45,0.2,0.5,-0.45,0.2;                                  0000127P0000105
110,0.5,-0.45,0.2,0.5,0.45,0.2;                                  0000129P0000106
110,0.5,0.45,0.2,0.,0.45,0.2;                                    0000131P0000107
110,0.,0.45,0.2,0.,1.5,0.2;                                      0000133P0000108
110,3.243826231,-1.5,0.2,3.243826231,1.5,0.2;                    0000135P0000109
110,3.756173769,-1.5,0.2,3.756173769,1.5,0.2;                    0000137P0000110
110,-2.5,1.5,1.25,-2.5,-1.5,1.25;                                0000139P0000111
100,0.,0.,0.,0.4,0.,0.4,0.;                                      0000141P0000112
124,-1.,0.,0.,-1.25,0.,-1.,1.998401444E-15,2.442490654E-15,0.,   0000143P0000113
1.998401444E-15,1.,1.25;                                         0000143P0000114
110,0.,0.45,-8.992806499E-16,0.,0.45,0.2;                        0000145P0000115
110,0.5,-0.45,8.9928065E-16,0.5,-0.45,0.2;                       0000147P0000116
110,0.5,0.45,-8.992806499E-16,0.5,0.45,0.2;                      0000149P0000117
110,-1.65,2.498001805E-15,1.25,-1.65,-3.944304526E-31,           0000151P0000118
-2.220446049E-16;                                                0000151P0000119
510,155,1,1,163;                                                 0000153P0000120
194,157,159,0.6,45.,161;                                         0000155P0000121
116,1.75,1.298960939E-15,0.65,0;                                 0000157P0000122
123,0.,1.998401444E-15,1.;                                       0000159P0000123
123,-1.,-1.643460219E-31,3.284293276E-46;                        0000161P0000124
508,6,0,19,2,0,1,0,165,0,19,8,1,1,0,167,0,19,1,0,1,0,169,0,19,9, 0000163P0000125
1,1,0,171,0,19,10,1,1,0,173,0,19,9,0,1,0,175;                    0000163P0000126
110,360.,0.494974747,0.,220.256612576,0.494974747,0.;            0000165P0000127
126,7,7,1,0,1,0,2.634429492,2.634429492,2.634429492,2.634429492, 0000167P0000128
2.634429492,2.634429492,2.634429492,2.634429492,3.648755815,     0000167P0000129
3.648755815,3.648755815,3.648755815,3.648755815,3.648755815,     0000167P0000130
3.648755815,3.648755815,1.,1.,1.,1.,1.,1.,1.,1.,220.256612576,   0000167P0000131
0.494974747,0.,209.210493116,0.450496432,0.,197.737692804,       0000167P0000132
0.41955074,0.,185.954822403,0.403662851,0.,174.045177597,        0000167P0000133
0.403662851,0.,162.262307196,0.41955074,0.,150.789506884,        0000167P0000134
0.450496432,0.,139.743387424,0.494974747,0.,2.634429492,         0000167P0000135
3.648755815,-0.,-0.,1.;                                          0000167P0000136
110,139.743387424,0.494974747,0.,0.,0.494974747,0.;              0000169P0000137
110,0.,0.494974747,0.,0.,0.,0.;                                  0000171P0000138
110,0.,0.,0.,360.,0.,0.;                                         0000173P0000139
110,360.,0.,0.,360.,0.494974747,0.;                              0000175P0000140
510,179,1,1,187;                                                 0000177P0000141
190,181,183,185;                                                 0000179P0000142
116,0.975,-1.5,1.5,0;                                            0000181P0000143
123,-0.316227766,-1.895850073E-15,-0.948683298;                  0000183P0000144
123,0.948683298,-6.319500243E-16,-0.316227766;                   0000185P0000145
508,6,0,19,11,0,0,0,19,7,0,0,0,19,8,0,0,0,19,3,0,0,0,19,12,0,0,  0000187P0000146
0,19,13,0,0;                                                     0000187P0000147
510,191,1,1,199;                                                 0000189P0000148
190,193,195,197;                                                 0000191P0000149
116,0.981426449,-1.5,0.55693598,0;                               0000193P0000150
123,-6.332458545E-51,1.,-1.998401444E-15;                        0000195P0000151
123,0.,1.998401444E-15,1.;                                       0000197P0000152
508,11,0,19,14,1,0,0,19,15,1,0,0,19,16,1,0,0,19,17,1,0,0,19,6,1, 0000199P0000153
0,0,19,11,1,0,0,19,18,1,0,0,19,19,1,0,0,19,20,1,0,0,19,21,1,0,0, 0000199P0000154
19,22,0,0;                                                       0000199P0000155
510,203,1,1,211;                                                 0000201P0000156
190,205,207,209;                                                 0000203P0000157
116,0.,1.5,1.25,0;                                               0000205P0000158
123,1.,0.,0.;                                                    0000207P0000159
123,0.,-1.998401444E-15,-1.;                                     0000209P0000160
508,4,0,19,23,1,0,0,19,17,1,0,0,19,5,0,0,0,19,24,0,0;            0000211P0000161
510,215,1,1,223;                                                 0000213P0000162
190,217,219,221;                                                 0000215P0000163
116,0.981426449,1.5,0.55693598,0;                                0000217P0000164
123,-6.332458545E-51,1.,-1.998401444E-15;                        0000219P0000165
123,0.,1.998401444E-15,1.;                                       0000221P0000166
508,11,0,19,25,1,0,0,19,26,1,0,0,19,27,1,0,0,19,24,1,0,0,19,4,1, 0000223P0000167
0,0,19,12,0,0,0,19,28,0,0,0,19,29,1,0,0,19,30,1,0,0,19,31,1,0,0, 0000223P0000168
19,32,0,0;                                                       0000223P0000169
510,227,1,1,235;                                                 0000225P0000170
192,229,231,0.6,233;                                             0000227P0000171
116,1.75,2.498001805E-15,1.25,0;                                 0000229P0000172
123,0.,1.998401444E-15,1.;                                       0000231P0000173
123,-1.,0.,0.;                                                   0000233P0000174
508,4,0,19,10,0,1,0,237,0,19,33,1,1,0,239,0,19,34,1,1,0,241,0,   0000235P0000175
19,33,0,1,0,243;                                                 0000235P0000176
110,360.,-0.6,-0.,0.,-0.6,-0.;                                   0000237P0000177
110,0.,-0.6,-0.,0.,-1.05,-0.;                                    0000239P0000178
110,0.,-1.05,0.,360.,-1.05,0.;                                   0000241P0000179
110,360.,-1.05,-0.,360.,-0.6,-0.;                                0000243P0000180
510,247,1,1,255;                                                 0000245P0000181
190,249,251,253;                                                 0000247P0000182
116,4.275,-1.5,0.4,0;                                            0000249P0000183
123,-1.,-6.332458545E-51,1.274602883E-65;                        0000251P0000184
123,-9.123453061E-68,-1.998401444E-15,-1.;                       0000253P0000185
508,4,0,19,18,0,0,0,19,13,1,0,0,19,28,0,0,0,19,35,1,0;           0000255P0000186
510,259,2,1,267,269;                                             0000257P0000187
190,261,263,265;                                                 0000259P0000188
116,3.175,1.5,-2.997602166E-15,0;                                0000261P0000189
123,0.,-1.998401444E-15,-1.;                                     0000263P0000190
123,-1.,0.,0.;                                                   0000265P0000191
508,8,0,19,25,0,0,0,19,36,0,0,0,19,37,0,0,0,19,38,0,0,0,19,39,0, 0000267P0000192
0,0,19,40,0,0,0,19,14,1,0,0,19,41,0,0;                           0000267P0000193
508,1,0,19,42,1,0;                                               0000269P0000194
510,273,1,1,281;                                                 0000271P0000195
190,275,277,279;                                                 0000273P0000196
116,0.,-2.,3.996802889E-15,0;                                    0000275P0000197
123,-1.,0.,0.;                                                   0000277P0000198
123,0.,1.,-1.998401444E-15;                                      0000279P0000199
508,4,0,19,40,0,0,0,19,22,1,0,0,19,43,1,0,0,19,44,0,0;           0000281P0000200
510,285,2,1,293,295;                                             0000283P0000201
190,287,289,291;                                                 0000285P0000202
116,2.6475,-1.763589275E-13,0.2,0;                               0000287P0000203
123,1.837950155E-32,-1.998401444E-15,-1.;                        0000289P0000204
123,0.,-1.,1.998401444E-15;                                      0000291P0000205
508,8,0,19,21,1,0,0,19,43,1,0,0,19,45,1,0,0,19,46,1,0,0,19,47,1, 0000293P0000206
0,0,19,48,1,0,0,19,31,0,0,0,19,49,0,0;                           0000293P0000207
508,1,0,19,34,1,0;                                               0000295P0000208
510,299,1,1,307;                                                 0000297P0000209
192,301,303,0.325,305;                                           0000299P0000210
116,3.5,1.5,-2.997602166E-15,0;                                  0000301P0000211
123,0.,1.,-1.998401444E-15;                                      0000303P0000212
123,1.,0.,0.;                                                    0000305P0000213
508,4,0,19,30,1,1,0,309,0,19,49,0,1,0,311,0,19,20,0,1,0,313,0,   0000307P0000214
19,50,1,1,0,315;                                                 0000307P0000215
110,-37.979872445,0.,0.,-142.020127555,0.,0.;                    0000309P0000216
110,-142.020127555,0.,0.,-142.020127555,-3.,0.;                  0000311P0000217
110,-142.020127555,-3.,0.,-37.979872445,-3.,0.;                  0000313P0000218
110,-37.979872445,-3.,0.,-37.979872445,0.,0.;                    0000315P0000219
510,319,1,1,327;                                                 0000317P0000220
190,321,323,325;                                                 0000319P0000221
116,2.6475,-1.763589275E-13,0.2,0;                               0000321P0000222
123,1.837950155E-32,-1.998401444E-15,-1.;                        0000323P0000223
123,0.,-1.,1.998401444E-15;                                      0000325P0000224
508,4,0,19,35,1,0,0,19,19,1,0,0,19,50,1,0,0,19,29,0,0;           0000327P0000225
510,331,2,1,339,341;                                             0000329P0000226
190,333,335,337;                                                 0000331P0000227
116,-2.5,1.5,1.25,0;                                             0000333P0000228
123,0.,1.998401444E-15,1.;                                       0000335P0000229
123,1.,0.,0.;                                                    0000337P0000230
508,4,0,19,51,1,0,0,19,16,1,0,0,19,23,0,0,0,19,27,0,0;           0000339P0000231
508,1,0,19,52,0,0;                                               0000341P0000232
510,345,1,1,353;                                                 0000343P0000233
190,347,349,351;                                                 0000345P0000234
116,-2.5,1.5,-2.997602166E-15,0;                                 0000347P0000235
123,-1.,0.,0.;                                                   0000349P0000236
123,0.,1.998401444E-15,1.;                                       0000351P0000237
508,4,0,19,41,1,0,0,19,15,1,0,0,19,51,0,0,0,19,26,0,0;           0000353P0000238
510,357,1,1,365;                                                 0000355P0000239
190,359,361,363;                                                 0000357P0000240
116,0.,0.45,-8.992806499E-16,0;                                  0000359P0000241
123,-1.,0.,0.;                                                   0000361P0000242
123,0.,1.,-1.998401444E-15;                                      0000363P0000243
508,4,0,19,36,0,0,0,19,53,1,0,0,19,48,1,0,0,19,32,0,0;           0000365P0000244
510,369,1,1,377;                                                 0000367P0000245
190,371,373,375;                                                 0000369P0000246
116,0.,-0.45,8.9928065E-16,0;                                    0000371P0000247
123,0.,1.,-1.998401444E-15;                                      0000373P0000248
123,1.,0.,0.;                                                    0000375P0000249
508,4,0,19,44,1,0,0,19,45,1,0,0,19,54,0,0,0,19,39,0,0;           0000377P0000250
510,381,1,1,389;                                                 0000379P0000251
190,383,385,387;                                                 0000381P0000252
116,0.5,-0.45,8.9928065E-16,0;                                   0000383P0000253
123,-1.,0.,0.;                                                   0000385P0000254
123,0.,1.,-1.998401444E-15;                                      0000387P0000255
508,4,0,19,54,1,0,0,19,46,1,0,0,19,55,0,0,0,19,38,0,0;           0000389P0000256
510,393,1,1,401;                                                 0000391P0000257
190,395,397,399;                                                 0000393P0000258
116,0.5,0.45,-8.992806499E-16,0;                                 0000395P0000259
123,0.,-1.,1.998401444E-15;                                      0000397P0000260
123,-1.,0.,0.;                                                   0000399P0000261
508,4,0,19,55,1,0,0,19,47,1,0,0,19,53,0,0,0,19,37,0,0;           0000401P0000262
510,405,1,1,413;                                                 0000403P0000263
192,407,409,0.4,411;                                             0000405P0000264
116,-1.25,2.498001805E-15,1.25,0;                                0000407P0000265
123,0.,1.998401444E-15,1.;                                       0000409P0000266
123,-1.,0.,0.;                                                   0000411P0000267
508,4,0,19,52,0,1,0,415,0,19,56,1,1,0,417,0,19,42,1,1,0,419,0,   0000413P0000268
19,56,0,1,0,421;                                                 0000413P0000269
110,360.,0.,0.,0.,0.,0.;                                         0000415P0000270
110,0.,0.,0.,0.,-1.25,0.;                                        0000417P0000271
110,0.,-1.25,0.,360.,-1.25,0.;                                   0000419P0000272
110,360.,-1.25,0.,360.,0.,0.;                                    0000421P0000273
S      1G      4D    422P    273                                        T0000001
