                                                                        S0000001
,,31HOpen CASCADE IGES processor 7.5,13HFilename.iges,                  G0000001
16HOpen CASCADE 7.5,31HOpen CASCADE IGES processor 7.5,32,308,15,308,15,G0000002
,1.,2,2HMM,1,0.01,15H20220405.154511,1.11413E-07,4.288458,,,11,0,       G0000003
15H20220405.154511,;                                                    G0000004
     402       1       0       0       0       0       0       000000000D0000001
     402       0       0       1       1                               0D0000002
     186       2       0       0       0       0       0       000020000D0000003
     186       0       0       1       0                               0D0000004
     514       3       0       0       0       0       0       000010000D0000005
     514       0       0       2       1                               0D0000006
     510       5       0       0       0       0       0       000010000D0000007
     510       0       0       1       1                               0D0000008
     190       6       0       0       0       0       0       000010000D0000009
     190       0       0       1       1                               0D0000010
     116       7       0       0       0       0       0       000010400D0000011
     116       0       0       1       0                               0D0000012
     123       8       0       0       0       0       0       000010200D0000013
     123       0       0       1       0                               0D0000014
     123       9       0       0       0       0       0       000010200D0000015
     123       0       0       1       0                               0D0000016
     508      10       0       0       0       0       0       000010000D0000017
     508       0       0       2       1                               0D0000018
     504      12       0       0       0       0       0       000010001D0000019
     504       0       0      11       1                               0D0000020
     110      23       0       0       0       0       0       000010000D0000021
     110       0       0       1       0                               0D0000022
     502      24       0       0       0       0       0       000010000D0000023
     502       0       0       9       1                               0D0000024
     110      33       0       0       0       0       0       000010000D0000025
     110       0       0       1       0                               0D0000026
     110      34       0       0       0       0       0       000010000D0000027
     110       0       0       1       0                               0D0000028
     110      35       0       0       0       0       0       000010000D0000029
     110       0       0       1       0                               0D0000030
     110      36       0       0       0       0       0       000010000D0000031
     110       0       0       1       0                               0D0000032
     110      37       0       0       0       0       0       000010000D0000033
     110       0       0       1       0                               0D0000034
     110      38       0       0       0       0       0       000010000D0000035
     110       0       0       1       0                               0D0000036
     110      39       0       0       0       0       0       000010000D0000037
     110       0       0       1       0                               0D0000038
     100      40       0       0       0       0      41       000010000D0000039
     100       0       0       1       0                               0D0000040
     124      41       0       0       0       0       0       000000000D0000041
     124       0       0       2       0                               0D0000042
     110      43       0       0       0       0       0       000010000D0000043
     110       0       0       1       0                               0D0000044
     110      44       0       0       0       0       0       000010000D0000045
     110       0       0       1       0                               0D0000046
     110      45       0       0       0       0       0       000010000D0000047
     110       0       0       1       0                               0D0000048
     110      46       0       0       0       0       0       000010000D0000049
     110       0       0       1       0                               0D0000050
     110      47       0       0       0       0       0       000010000D0000051
     110       0       0       1       0                               0D0000052
     110      48       0       0       0       0       0       000010000D0000053
     110       0       0       1       0                               0D0000054
     110      49       0       0       0       0       0       000010000D0000055
     110       0       0       1       0                               0D0000056
     100      50       0       0       0       0      59       000010000D0000057
     100       0       0       1       0                               0D0000058
     124      51       0       0       0       0       0       000000000D0000059
     124       0       0       2       0                               0D0000060
     110      53       0       0       0       0       0       000010000D0000061
     110       0       0       1       0                               0D0000062
     100      54       0       0       0       0      65       000010000D0000063
     100       0       0       1       0                               0D0000064
     124      55       0       0       0       0       0       000000000D0000065
     124       0       0       2       0                               0D0000066
     110      57       0       0       0       0       0       000010000D0000067
     110       0       0       1       0                               0D0000068
     110      58       0       0       0       0       0       000010000D0000069
     110       0       0       1       0                               0D0000070
     110      59       0       0       0       0       0       000010000D0000071
     110       0       0       1       0                               0D0000072
     110      60       0       0       0       0       0       000010000D0000073
     110       0       0       1       0                               0D0000074
     110      61       0       0       0       0       0       000010000D0000075
     110       0       0       1       0                               0D0000076
     110      62       0       0       0       0       0       000010000D0000077
     110       0       0       1       0                               0D0000078
     110      63       0       0       0       0       0       000010000D0000079
     110       0       0       1       0                               0D0000080
     110      64       0       0       0       0       0       000010000D0000081
     110       0       0       1       0                               0D0000082
     110      65       0       0       0       0       0       000010000D0000083
     110       0       0       1       0                               0D0000084
     110      66       0       0       0       0       0       000010000D0000085
     110       0       0       1       0                               0D0000086
     110      67       0       0       0       0       0       000010000D0000087
     110       0       0       1       0                               0D0000088
     110      68       0       0       0       0       0       000010000D0000089
     110       0       0       1       0                               0D0000090
     110      69       0       0       0       0       0       000010000D0000091
     110       0       0       1       0                               0D0000092
     100      70       0       0       0       0      95       000010000D0000093
     100       0       0       1       0                               0D0000094
     124      71       0       0       0       0       0       000000000D0000095
     124       0       0       2       0                               0D0000096
     110      73       0       0       0       0       0       000010000D0000097
     110       0       0       1       0                               0D0000098
     110      74       0       0       0       0       0       000010000D0000099
     110       0       0       1       0                               0D0000100
     110      75       0       0       0       0       0       000010000D0000101
     110       0       0       1       0                               0D0000102
     110      76       0       0       0       0       0       000010000D0000103
     110       0       0       1       0                               0D0000104
     110      77       0       0       0       0       0       000010000D0000105
     110       0       0       1       0                               0D0000106
     110      78       0       0       0       0       0       000010000D0000107
     110       0       0       1       0                               0D0000108
     110      79       0       0       0       0       0       000010000D0000109
     110       0       0       1       0                               0D0000110
     110      80       0       0       0       0       0       000010000D0000111
     110       0       0       1       0                               0D0000112
     110      81       0       0       0       0       0       000010000D0000113
     110       0       0       1       0                               0D0000114
     110      82       0       0       0       0       0       000010000D0000115
     110       0       0       1       0                               0D0000116
     110      83       0       0       0       0       0       000010000D0000117
     110       0       0       1       0                               0D0000118
     110      84       0       0       0       0       0       000010000D0000119
     110       0       0       1       0                               0D0000120
     110      85       0       0       0       0       0       000010000D0000121
     110       0       0       1       0                               0D0000122
     508      86       0       0       0       0       0       000010000D0000123
     508       0       0       1       1                               0D0000124
     510      87       0       0       0       0       0       000010000D0000125
     510       0       0       1       1                               0D0000126
     190      88       0       0       0       0       0       000010000D0000127
     190       0       0       1       1                               0D0000128
     116      89       0       0       0       0       0       000010400D0000129
     116       0       0       1       0                               0D0000130
     123      90       0       0       0       0       0       000010200D0000131
     123       0       0       1       0                               0D0000132
     123      91       0       0       0       0       0       000010200D0000133
     123       0       0       1       0                               0D0000134
     508      92       0       0       0       0       0       000010000D0000135
     508       0       0       2       1                               0D0000136
     510      94       0       0       0       0       0       000010000D0000137
     510       0       0       1       1                               0D0000138
     192      95       0       0       0       0       0       000010000D0000139
     192       0       0       1       1                               0D0000140
     116      96       0       0       0       0       0       000010400D0000141
     116       0       0       1       0                               0D0000142
     123      97       0       0       0       0       0       000010200D0000143
     123       0       0       1       0                               0D0000144
     123      98       0       0       0       0       0       000010200D0000145
     123       0       0       1       0                               0D0000146
     508      99       0       0       0       0       0       000010000D0000147
     508       0       0       2       1                               0D0000148
     110     101       0       0       0       0       0       000010000D0000149
     110       0       0       1       0                               0D0000150
     110     102       0       0       0       0       0       000010000D0000151
     110       0       0       1       0                               0D0000152
     110     103       0       0       0       0       0       000010000D0000153
     110       0       0       1       0                               0D0000154
     110     104       0       0       0       0       0       000010000D0000155
     110       0       0       1       0                               0D0000156
     510     105       0       0       0       0       0       000010000D0000157
     510       0       0       1       1                               0D0000158
     190     106       0       0       0       0       0       000010000D0000159
     190       0       0       1       1                               0D0000160
     116     107       0       0       0       0       0       000010400D0000161
     116       0       0       1       0                               0D0000162
     123     108       0       0       0       0       0       000010200D0000163
     123       0       0       1       0                               0D0000164
     123     109       0       0       0       0       0       000010200D0000165
     123       0       0       1       0                               0D0000166
     508     110       0       0       0       0       0       000010000D0000167
     508       0       0       1       1                               0D0000168
     510     111       0       0       0       0       0       000010000D0000169
     510       0       0       1       1                               0D0000170
     190     112       0       0       0       0       0       000010000D0000171
     190       0       0       1       1                               0D0000172
     116     113       0       0       0       0       0       000010400D0000173
     116       0       0       1       0                               0D0000174
     123     114       0       0       0       0       0       000010200D0000175
     123       0       0       1       0                               0D0000176
     123     115       0       0       0       0       0       000010200D0000177
     123       0       0       1       0                               0D0000178
     508     116       0       0       0       0       0       000010000D0000179
     508       0       0       2       1                               0D0000180
     510     118       0       0       0       0       0       000010000D0000181
     510       0       0       1       1                               0D0000182
     190     119       0       0       0       0       0       000010000D0000183
     190       0       0       1       1                               0D0000184
     116     120       0       0       0       0       0       000010400D0000185
     116       0       0       1       0                               0D0000186
     123     121       0       0       0       0       0       000010200D0000187
     123       0       0       1       0                               0D0000188
     123     122       0       0       0       0       0       000010200D0000189
     123       0       0       1       0                               0D0000190
     508     123       0       0       0       0       0       000010000D0000191
     508       0       0       1       1                               0D0000192
     510     124       0       0       0       0       0       000010000D0000193
     510       0       0       1       1                               0D0000194
     190     125       0       0       0       0       0       000010000D0000195
     190       0       0       1       1                               0D0000196
     116     126       0       0       0       0       0       000010400D0000197
     116       0       0       1       0                               0D0000198
     123     127       0       0       0       0       0       000010200D0000199
     123       0       0       1       0                               0D0000200
     123     128       0       0       0       0       0       000010200D0000201
     123       0       0       1       0                               0D0000202
     508     129       0       0       0       0       0       000010000D0000203
     508       0       0       1       1                               0D0000204
     510     130       0       0       0       0       0       000010000D0000205
     510       0       0       1       1                               0D0000206
     192     131       0       0       0       0       0       000010000D0000207
     192       0       0       1       1                               0D0000208
     116     132       0       0       0       0       0       000010400D0000209
     116       0       0       1       0                               0D0000210
     123     133       0       0       0       0       0       000010200D0000211
     123       0       0       1       0                               0D0000212
     123     134       0       0       0       0       0       000010200D0000213
     123       0       0       1       0                               0D0000214
     508     135       0       0       0       0       0       000010000D0000215
     508       0       0       2       1                               0D0000216
     110     137       0       0       0       0       0       000010000D0000217
     110       0       0       1       0                               0D0000218
     110     138       0       0       0       0       0       000010000D0000219
     110       0       0       1       0                               0D0000220
     110     139       0       0       0       0       0       000010000D0000221
     110       0       0       1       0                               0D0000222
     110     140       0       0       0       0       0       000010000D0000223
     110       0       0       1       0                               0D0000224
     510     141       0       0       0       0       0       000010000D0000225
     510       0       0       1       1                               0D0000226
     190     142       0       0       0       0       0       000010000D0000227
     190       0       0       1       1                               0D0000228
     116     143       0       0       0       0       0       000010400D0000229
     116       0       0       1       0                               0D0000230
     123     144       0       0       0       0       0       000010200D0000231
     123       0       0       1       0                               0D0000232
     123     145       0       0       0       0       0       000010200D0000233
     123       0       0       1       0                               0D0000234
     508     146       0       0       0       0       0       000010000D0000235
     508       0       0       1       1                               0D0000236
     510     147       0       0       0       0       0       000010000D0000237
     510       0       0       1       1                               0D0000238
     190     148       0       0       0       0       0       000010000D0000239
     190       0       0       1       1                               0D0000240
     116     149       0       0       0       0       0       000010400D0000241
     116       0       0       1       0                               0D0000242
     123     150       0       0       0       0       0       000010200D0000243
     123       0       0       1       0                               0D0000244
     123     151       0       0       0       0       0       000010200D0000245
     123       0       0       1       0                               0D0000246
     508     152       0       0       0       0       0       000010000D0000247
     508       0       0       2       1                               0D0000248
     510     154       0       0       0       0       0       000010000D0000249
     510       0       0       1       1                               0D0000250
     190     155       0       0       0       0       0       000010000D0000251
     190       0       0       1       1                               0D0000252
     116     156       0       0       0       0       0       000010400D0000253
     116       0       0       1       0                               0D0000254
     123     157       0       0       0       0       0       000010200D0000255
     123       0       0       1       0                               0D0000256
     123     158       0       0       0       0       0       000010200D0000257
     123       0       0       1       0                               0D0000258
     508     159       0       0       0       0       0       000010000D0000259
     508       0       0       1       1                               0D0000260
     508     160       0       0       0       0       0       000010000D0000261
     508       0       0       1       1                               0D0000262
     510     161       0       0       0       0       0       000010000D0000263
     510       0       0       1       1                               0D0000264
     190     162       0       0       0       0       0       000010000D0000265
     190       0       0       1       1                               0D0000266
     116     163       0       0       0       0       0       000010400D0000267
     116       0       0       1       0                               0D0000268
     123     164       0       0       0       0       0       000010200D0000269
     123       0       0       1       0                               0D0000270
     123     165       0       0       0       0       0       000010200D0000271
     123       0       0       1       0                               0D0000272
     508     166       0       0       0       0       0       000010000D0000273
     508       0       0       1       1                               0D0000274
     510     167       0       0       0       0       0       000010000D0000275
     510       0       0       1       1                               0D0000276
     190     168       0       0       0       0       0       000010000D0000277
     190       0       0       1       1                               0D0000278
     116     169       0       0       0       0       0       000010400D0000279
     116       0       0       1       0                               0D0000280
     123     170       0       0       0       0       0       000010200D0000281
     123       0       0       1       0                               0D0000282
     123     171       0       0       0       0       0       000010200D0000283
     123       0       0       1       0                               0D0000284
     508     172       0       0       0       0       0       000010000D0000285
     508       0       0       1       1                               0D0000286
     510     173       0       0       0       0       0       000010000D0000287
     510       0       0       1       1                               0D0000288
     190     174       0       0       0       0       0       000010000D0000289
     190       0       0       1       1                               0D0000290
     116     175       0       0       0       0       0       000010400D0000291
     116       0       0       1       0                               0D0000292
     123     176       0       0       0       0       0       000010200D0000293
     123       0       0       1       0                               0D0000294
     123     177       0       0       0       0       0       000010200D0000295
     123       0       0       1       0                               0D0000296
     508     178       0       0       0       0       0       000010000D0000297
     508       0       0       1       1                               0D0000298
     510     179       0       0       0       0       0       000010000D0000299
     510       0       0       1       1                               0D0000300
     190     180       0       0       0       0       0       000010000D0000301
     190       0       0       1       1                               0D0000302
     116     181       0       0       0       0       0       000010400D0000303
     116       0       0       1       0                               0D0000304
     123     182       0       0       0       0       0       000010200D0000305
     123       0       0       1       0                               0D0000306
     123     183       0       0       0       0       0       000010200D0000307
     123       0       0       1       0                               0D0000308
     508     184       0       0       0       0       0       000010000D0000309
     508       0       0       1       1                               0D0000310
     510     185       0       0       0       0       0       000010000D0000311
     510       0       0       1       1                               0D0000312
     190     186       0       0       0       0       0       000010000D0000313
     190       0       0       1       1                               0D0000314
     116     187       0       0       0       0       0       000010400D0000315
     116       0       0       1       0                               0D0000316
     123     188       0       0       0       0       0       000010200D0000317
     123       0       0       1       0                               0D0000318
     123     189       0       0       0       0       0       000010200D0000319
     123       0       0       1       0                               0D0000320
     508     190       0       0       0       0       0       000010000D0000321
     508       0       0       1       1                               0D0000322
     510     191       0       0       0       0       0       000010000D0000323
     510       0       0       1       1                               0D0000324
     190     192       0       0       0       0       0       000010000D0000325
     190       0       0       1       1                               0D0000326
     116     193       0       0       0       0       0       000010400D0000327
     116       0       0       1       0                               0D0000328
     123     194       0       0       0       0       0       000010200D0000329
     123       0       0       1       0                               0D0000330
     123     195       0       0       0       0       0       000010200D0000331
     123       0       0       1       0                               0D0000332
     508     196       0       0       0       0       0       000010000D0000333
     508       0       0       1       1                               0D0000334
     510     197       0       0       0       0       0       000010000D0000335
     510       0       0       1       1                               0D0000336
     190     198       0       0       0       0       0       000010000D0000337
     190       0       0       1       1                               0D0000338
     116     199       0       0       0       0       0       000010400D0000339
     116       0       0       1       0                               0D0000340
     123     200       0       0       0       0       0       000010200D0000341
     123       0       0       1       0                               0D0000342
     123     201       0       0       0       0       0       000010200D0000343
     123       0       0       1       0                               0D0000344
     508     202       0       0       0       0       0       000010000D0000345
     508       0       0       1       1                               0D0000346
402,1,3;                                                         0000001P0000001
186,5,1,0;                                                       0000003P0000002
514,18,7,0,125,0,137,0,157,0,169,1,181,0,193,0,205,0,225,0,237,  0000005P0000003
0,249,0,263,0,275,0,287,0,299,1,311,0,323,1,335,1;               0000005P0000004
510,9,2,1,17,123;                                                0000007P0000005
190,11,13,15;                                                    0000009P0000006
116,3.243826231,1.5,-0.2,0;                                      0000011P0000007
123,0.,-1.554312234E-15,-1.;                                     0000013P0000008
123,-1.,0.,0.;                                                   0000015P0000009
508,8,0,19,1,0,0,0,19,2,1,0,0,19,3,1,0,0,19,4,0,0,0,19,5,1,0,0,  0000017P0000010
19,6,1,0,0,19,7,1,0,0,19,8,0,0;                                  0000017P0000011
504,46,21,23,1,23,2,25,23,1,23,3,27,23,3,23,4,29,23,5,23,4,31,   0000019P0000012
23,5,23,6,33,23,6,23,7,35,23,7,23,8,37,23,2,23,8,39,23,9,23,9,   0000019P0000013
43,23,2,23,10,45,23,10,23,11,47,23,11,23,12,49,23,12,23,13,51,   0000019P0000014
23,13,23,14,53,23,14,23,15,55,23,15,23,16,57,23,1,23,16,61,23,   0000019P0000015
16,23,17,63,23,3,23,17,67,23,8,23,18,69,23,10,23,18,71,23,4,23,  0000019P0000016
19,73,23,19,23,20,75,23,20,23,21,77,23,21,23,22,79,23,22,23,23,  0000019P0000017
81,23,23,23,24,83,23,24,23,17,85,23,8,23,5,87,23,25,23,5,89,23,  0000019P0000018
25,23,19,91,23,9,23,26,93,23,26,23,26,97,23,18,23,27,99,23,11,   0000019P0000019
23,27,101,23,27,23,28,103,23,28,23,29,105,23,29,23,30,107,23,30, 0000019P0000020
23,20,109,23,12,23,21,111,23,13,23,22,113,23,14,23,23,115,23,15, 0000019P0000021
23,24,117,23,8,23,28,119,23,30,23,25,121,23,29,23,5;             0000019P0000022
110,3.243826231,1.5,-0.2,0.5,1.5,-0.2;                           0000021P0000023
502,30,3.243826231,1.5,-0.2,0.5,1.5,-0.2,3.243826231,-1.5,-0.2,  0000023P0000024
0.5,-1.5,-0.2,0.5,-0.55,-0.2,0.7,-0.55,-0.2,0.7,0.55,-0.2,0.5,   0000023P0000025
0.55,-0.2,1.35,-3.108624469E-16,-0.2,0.5,1.5,0.15,1.E-01,1.5,    0000023P0000026
0.15,1.E-01,1.5,-0.75,3.225,1.5,-0.75,4.275,1.5,-0.4,4.275,1.5,  0000023P0000027
-0.2,3.756173769,1.5,-0.2,3.756173769,-1.5,-0.2,0.5,0.55,0.15,   0000023P0000028
0.5,-1.5,0.15,1.E-01,-1.5,0.15,1.E-01,-1.5,-0.75,3.225,-1.5,     0000023P0000029
-0.75,4.275,-1.5,-0.4,4.275,-1.5,-0.2,0.5,-0.55,0.15,1.35,       0000023P0000030
-1.165734176E-15,-0.75,1.E-01,0.55,0.15,1.E-01,0.55,-0.2,1.E-01, 0000023P0000031
-0.55,-0.2,1.E-01,-0.55,0.15;                                    0000023P0000032
110,3.243826231,1.5,-0.2,3.243826231,-1.5,-0.2;                  0000025P0000033
110,3.243826231,-1.5,-0.2,0.5,-1.5,-0.2;                         0000027P0000034
110,0.5,-0.55,-0.2,0.5,-1.5,-0.2;                                0000029P0000035
110,0.5,-0.55,-0.2,0.7,-0.55,-0.2;                               0000031P0000036
110,0.7,-0.55,-0.2,0.7,0.55,-0.2;                                0000033P0000037
110,0.7,0.55,-0.2,0.5,0.55,-0.2;                                 0000035P0000038
110,0.5,1.5,-0.2,0.5,0.55,-0.2;                                  0000037P0000039
100,0.,0.,0.,0.4,0.,0.4,0.;                                      0000039P0000040
124,-1.,0.,0.,1.75,0.,-1.,1.554312234E-15,-3.053113318E-16,0.,   0000041P0000041
1.554312234E-15,1.,-0.2;                                         0000041P0000042
110,0.5,1.5,-0.2,0.5,1.5,0.15;                                   0000043P0000043
110,0.5,1.5,0.15,1.E-01,1.5,0.15;                                0000045P0000044
110,1.E-01,1.5,0.15,1.E-01,1.5,-0.75;                            0000047P0000045
110,1.E-01,1.5,-0.75,3.225,1.5,-0.75;                            0000049P0000046
110,3.225,1.5,-0.75,4.275,1.5,-0.4;                              0000051P0000047
110,4.275,1.5,-0.4,4.275,1.5,-0.2;                               0000053P0000048
110,4.275,1.5,-0.2,3.756173769,1.5,-0.2;                         0000055P0000049
100,0.,0.,0.,-0.256173769,-0.2,0.256173769,-0.2;                 0000057P0000050
124,1.,0.,0.,3.5,0.,1.554312234E-15,-1.,1.5,0.,1.,               0000059P0000051
1.554312234E-15,-1.998401444E-15;                                0000059P0000052
110,3.756173769,1.5,-0.2,3.756173769,-1.5,-0.2;                  0000061P0000053
100,0.,0.,0.,-0.256173769,-0.2,0.256173769,-0.2;                 0000063P0000054
124,1.,0.,0.,3.5,0.,1.554312234E-15,-1.,-1.5,0.,1.,              0000065P0000055
1.554312234E-15,1.998401444E-15;                                 0000065P0000056
110,0.5,0.55,-0.2,0.5,0.55,0.15;                                 0000067P0000057
110,0.5,1.5,0.15,0.5,0.55,0.15;                                  0000069P0000058
110,0.5,-1.5,-0.2,0.5,-1.5,0.15;                                 0000071P0000059
110,0.5,-1.5,0.15,1.E-01,-1.5,0.15;                              0000073P0000060
110,1.E-01,-1.5,0.15,1.E-01,-1.5,-0.75;                          0000075P0000061
110,1.E-01,-1.5,-0.75,3.225,-1.5,-0.75;                          0000077P0000062
110,3.225,-1.5,-0.75,4.275,-1.5,-0.4;                            0000079P0000063
110,4.275,-1.5,-0.4,4.275,-1.5,-0.2;                             0000081P0000064
110,4.275,-1.5,-0.2,3.756173769,-1.5,-0.2;                       0000083P0000065
110,0.5,0.55,-0.2,0.5,-0.55,-0.2;                                0000085P0000066
110,0.5,-0.55,0.15,0.5,-0.55,-0.2;                               0000087P0000067
110,0.5,-0.55,0.15,0.5,-1.5,0.15;                                0000089P0000068
110,1.35,-3.108624469E-16,-0.2,1.35,-1.165734176E-15,-0.75;      0000091P0000069
100,0.,0.,0.,0.4,0.,0.4,0.;                                      0000093P0000070
124,-1.,0.,0.,1.75,0.,-1.,1.554312234E-15,-1.165734176E-15,0.,   0000095P0000071
1.554312234E-15,1.,-0.75;                                        0000095P0000072
110,0.5,0.55,0.15,1.E-01,0.55,0.15;                              0000097P0000073
110,1.E-01,1.5,0.15,1.E-01,0.55,0.15;                            0000099P0000074
110,1.E-01,0.55,0.15,1.E-01,0.55,-0.2;                           0000101P0000075
110,1.E-01,0.55,-0.2,1.E-01,-0.55,-0.2;                          0000103P0000076
110,1.E-01,-0.55,-0.2,1.E-01,-0.55,0.15;                         0000105P0000077
110,1.E-01,-0.55,0.15,1.E-01,-1.5,0.15;                          0000107P0000078
110,1.E-01,1.5,-0.75,1.E-01,-1.5,-0.75;                          0000109P0000079
110,3.225,1.5,-0.75,3.225,-1.5,-0.75;                            0000111P0000080
110,4.275,1.5,-0.4,4.275,-1.5,-0.4;                              0000113P0000081
110,4.275,1.5,-0.2,4.275,-1.5,-0.2;                              0000115P0000082
110,0.5,0.55,-0.2,1.E-01,0.55,-0.2;                              0000117P0000083
110,1.E-01,-0.55,0.15,0.5,-0.55,0.15;                            0000119P0000084
110,0.1,-0.55,-0.2,0.5,-0.55,-0.2;                               0000121P0000085
508,1,0,19,9,1,0;                                                0000123P0000086
510,127,1,1,135;                                                 0000125P0000087
190,129,131,133;                                                 0000127P0000088
116,1.998818391,1.5,-0.410088184,0;                              0000129P0000089
123,1.155557967E-33,-1.,1.554312234E-15;                         0000131P0000090
123,0.,-1.554312234E-15,-1.;                                     0000133P0000091
508,9,0,19,1,1,0,0,19,10,1,0,0,19,11,1,0,0,19,12,1,0,0,19,13,1,  0000135P0000092
0,0,19,14,1,0,0,19,15,1,0,0,19,16,1,0,0,19,17,0,0;               0000135P0000093
510,139,1,1,147;                                                 0000137P0000094
192,141,143,0.325,145;                                           0000139P0000095
116,3.5,1.5,-2.331468352E-15,0;                                  0000141P0000096
123,0.,1.,-1.554312234E-15;                                      0000143P0000097
123,1.,0.,0.;                                                    0000145P0000098
508,4,0,19,2,0,1,0,149,0,19,17,1,1,0,151,0,19,18,1,1,0,153,0,19, 0000147P0000099
19,0,1,0,155;                                                    0000147P0000100
110,-217.979872445,-3.,0.,-217.979872445,0.,0.;                  0000149P0000101
110,-217.979872445,0.,0.,-322.020127555,0.,0.;                   0000151P0000102
110,-322.020127555,0.,0.,-322.020127555,-3.,0.;                  0000153P0000103
110,-322.020127555,-3.,0.,-217.979872445,-3.,0.;                 0000155P0000104
510,159,1,1,167;                                                 0000157P0000105
190,161,163,165;                                                 0000159P0000106
116,0.5,1.5,-0.2,0;                                              0000161P0000107
123,-1.,0.,0.;                                                   0000163P0000108
123,0.,1.554312234E-15,1.;                                       0000165P0000109
508,4,0,19,10,0,0,0,19,8,1,0,0,19,20,1,0,0,19,21,0,0;            0000167P0000110
510,171,1,1,179;                                                 0000169P0000111
190,173,175,177;                                                 0000171P0000112
116,1.998818391,-1.5,-0.410088184,0;                             0000173P0000113
123,1.155557967E-33,-1.,1.554312234E-15;                         0000175P0000114
123,0.,-1.554312234E-15,-1.;                                     0000177P0000115
508,9,0,19,3,1,0,0,19,22,1,0,0,19,23,1,0,0,19,24,1,0,0,19,25,1,  0000179P0000116
0,0,19,26,1,0,0,19,27,1,0,0,19,28,1,0,0,19,19,0,0;               0000179P0000117
510,183,1,1,191;                                                 0000181P0000118
190,185,187,189;                                                 0000183P0000119
116,3.243826231,1.5,-0.2,0;                                      0000185P0000120
123,0.,-1.554312234E-15,-1.;                                     0000187P0000121
123,-1.,0.,0.;                                                   0000189P0000122
508,4,0,19,29,0,0,0,19,7,0,0,0,19,6,0,0,0,19,5,0,0;              0000191P0000123
510,195,1,1,203;                                                 0000193P0000124
190,197,199,201;                                                 0000195P0000125
116,0.5,1.5,-0.2,0;                                              0000197P0000126
123,-1.,0.,0.;                                                   0000199P0000127
123,0.,1.554312234E-15,1.;                                       0000201P0000128
508,4,0,19,30,1,0,0,19,4,1,0,0,19,22,1,0,0,19,31,0,0;            0000203P0000129
510,207,1,1,215;                                                 0000205P0000130
192,209,211,0.4,213;                                             0000207P0000131
116,1.75,-3.108624469E-16,-0.2,0;                                0000209P0000132
123,0.,1.554312234E-15,1.;                                       0000211P0000133
123,-1.,0.,0.;                                                   0000213P0000134
508,4,0,19,9,0,1,0,217,0,19,32,1,1,0,219,0,19,33,1,1,0,221,0,19, 0000215P0000135
32,0,1,0,223;                                                    0000215P0000136
110,360.,0.,0.,0.,0.,0.;                                         0000217P0000137
110,0.,0.,0.,0.,-0.55,0.;                                        0000219P0000138
110,0.,-0.55,0.,360.,-0.55,0.;                                   0000221P0000139
110,360.,-0.55,0.,360.,0.,0.;                                    0000223P0000140
510,227,1,1,235;                                                 0000225P0000141
190,229,231,233;                                                 0000227P0000142
116,0.5,1.5,0.15,0;                                              0000229P0000143
123,0.,-1.554312234E-15,-1.;                                     0000231P0000144
123,-1.,0.,0.;                                                   0000233P0000145
508,4,0,19,11,0,0,0,19,21,1,0,0,19,34,1,0,0,19,35,0,0;           0000235P0000146
510,239,1,1,247;                                                 0000237P0000147
190,241,243,245;                                                 0000239P0000148
116,1.E-01,1.5,0.15,0;                                           0000241P0000149
123,1.,0.,0.;                                                    0000243P0000150
123,0.,-1.554312234E-15,-1.;                                     0000245P0000151
508,8,0,19,12,0,0,0,19,35,1,0,0,19,36,1,0,0,19,37,1,0,0,19,38,1, 0000247P0000152
0,0,19,39,1,0,0,19,24,1,0,0,19,40,0,0;                           0000247P0000153
510,251,2,1,259,261;                                             0000249P0000154
190,253,255,257;                                                 0000251P0000155
116,1.E-01,1.5,-0.75,0;                                          0000253P0000156
123,0.,1.554312234E-15,1.;                                       0000255P0000157
123,1.,0.,0.;                                                    0000257P0000158
508,4,0,19,40,1,0,0,19,25,1,0,0,19,41,0,0,0,19,13,0,0;           0000259P0000159
508,1,0,19,33,0,0;                                               0000261P0000160
510,265,1,1,273;                                                 0000263P0000161
190,267,269,271;                                                 0000265P0000162
116,3.225,1.5,-0.75,0;                                           0000267P0000163
123,-0.316227766,1.474550057E-15,0.948683298;                    0000269P0000164
123,0.948683298,4.915166856E-16,0.316227766;                     0000271P0000165
508,4,0,19,41,1,0,0,19,26,1,0,0,19,42,0,0,0,19,14,0,0;           0000273P0000166
510,277,1,1,285;                                                 0000275P0000167
190,279,281,283;                                                 0000277P0000168
116,4.275,1.5,-0.4,0;                                            0000279P0000169
123,-1.,0.,0.;                                                   0000281P0000170
123,0.,1.554312234E-15,1.;                                       0000283P0000171
508,4,0,19,42,1,0,0,19,27,1,0,0,19,43,0,0,0,19,15,0,0;           0000285P0000172
510,289,1,1,297;                                                 0000287P0000173
190,291,293,295;                                                 0000289P0000174
116,4.275,1.5,-0.2,0;                                            0000291P0000175
123,0.,-1.554312234E-15,-1.;                                     0000293P0000176
123,-1.,0.,0.;                                                   0000295P0000177
508,4,0,19,43,1,0,0,19,28,1,0,0,19,18,0,0,0,19,16,0,0;           0000297P0000178
510,301,1,1,309;                                                 0000299P0000179
190,303,305,307;                                                 0000301P0000180
116,0.7,0.55,-0.2,0;                                             0000303P0000181
123,0.,-1.,1.554312234E-15;                                      0000305P0000182
123,-1.,0.,0.;                                                   0000307P0000183
508,4,0,19,44,0,0,0,19,20,1,0,0,19,34,1,0,0,19,36,1,0;           0000309P0000184
510,313,1,1,321;                                                 0000311P0000185
190,315,317,319;                                                 0000313P0000186
116,0.5,1.5,0.15,0;                                              0000315P0000187
123,0.,-1.554312234E-15,-1.;                                     0000317P0000188
123,-1.,0.,0.;                                                   0000319P0000189
508,4,0,19,45,1,0,0,19,31,1,0,0,19,23,1,0,0,19,39,0,0;           0000321P0000190
510,325,1,1,333;                                                 0000323P0000191
190,327,329,331;                                                 0000325P0000192
116,1.E-01,2.07975183E-13,-0.2,0;                                0000327P0000193
123,-2.720552753E-29,1.544219298E-15,1.;                         0000329P0000194
123,0.,1.,-1.544219298E-15;                                      0000331P0000195
508,4,0,19,37,1,0,0,19,46,1,0,0,19,29,0,0,0,19,44,1,0;           0000333P0000196
510,337,1,1,345;                                                 0000335P0000197
190,339,341,343;                                                 0000337P0000198
116,-0.5,-0.55,-0.2,0;                                           0000339P0000199
123,0.,1.,-1.554312234E-15;                                      0000341P0000200
123,1.,0.,0.;                                                    0000343P0000201
508,4,0,19,46,0,0,0,19,38,1,0,0,19,45,1,0,0,19,30,1,0;           0000345P0000202
S      1G      4D    346P    202                                        T0000001
