                                                                        S0000001
,,31HOpen CASCADE IGES processor 7.5,13HFilename.iges,                  G0000001
16HOpen CASCADE 7.5,31HOpen CASCADE IGES processor 7.5,32,308,15,308,15,G0000002
,1.,2,2HMM,1,0.01,15H20220315.111239,1.0123E-07,9.75,,,11,0,            G0000003
15H20220315.111239,;                                                    G0000004
     402       1       0       0       0       0       0       000000000D0000001
     402       0       0       1       1                               0D0000002
     186       2       0       0       0       0       0       000020000D0000003
     186       0       0       1       0                               0D0000004
     514       3       0       0       0       0       0       000010000D0000005
     514       0       0       3       1                               0D0000006
     510       6       0       0       0       0       0       000010000D0000007
     510       0       0       1       1                               0D0000008
     190       7       0       0       0       0       0       000010000D0000009
     190       0       0       1       1                               0D0000010
     116       8       0       0       0       0       0       000010400D0000011
     116       0       0       1       0                               0D0000012
     123       9       0       0       0       0       0       000010200D0000013
     123       0       0       1       0                               0D0000014
     123      10       0       0       0       0       0       000010200D0000015
     123       0       0       1       0                               0D0000016
     508      11       0       0       0       0       0       000010000D0000017
     508       0       0       2       1                               0D0000018
     504      13       0       0       0       0       0       000010001D0000019
     504       0       0      15       1                               0D0000020
     110      28       0       0       0       0       0       000010000D0000021
     110       0       0       1       0                               0D0000022
     502      29       0       0       0       0       0       000010000D0000023
     502       0       0       9       1                               0D0000024
     110      38       0       0       0       0       0       000010000D0000025
     110       0       0       1       0                               0D0000026
     110      39       0       0       0       0       0       000010000D0000027
     110       0       0       1       0                               0D0000028
     110      40       0       0       0       0       0       000010000D0000029
     110       0       0       1       0                               0D0000030
     110      41       0       0       0       0       0       000010000D0000031
     110       0       0       1       0                               0D0000032
     100      42       0       0       0       0      35       000010000D0000033
     100       0       0       1       0                               0D0000034
     124      43       0       0       0       0       0       000000000D0000035
     124       0       0       1       0                               0D0000036
     110      44       0       0       0       0       0       000010000D0000037
     110       0       0       1       0                               0D0000038
     100      45       0       0       0       0      41       000010000D0000039
     100       0       0       1       0                               0D0000040
     124      46       0       0       0       0       0       000000000D0000041
     124       0       0       1       0                               0D0000042
     110      47       0       0       0       0       0       000010000D0000043
     110       0       0       1       0                               0D0000044
     110      48       0       0       0       0       0       000010000D0000045
     110       0       0       1       0                               0D0000046
     110      49       0       0       0       0       0       000010000D0000047
     110       0       0       1       0                               0D0000048
     110      50       0       0       0       0       0       000010000D0000049
     110       0       0       1       0                               0D0000050
     110      51       0       0       0       0       0       000010000D0000051
     110       0       0       1       0                               0D0000052
     110      52       0       0       0       0       0       000010000D0000053
     110       0       0       1       0                               0D0000054
     110      53       0       0       0       0       0       000010000D0000055
     110       0       0       1       0                               0D0000056
     110      54       0       0       0       0       0       000010000D0000057
     110       0       0       1       0                               0D0000058
     110      55       0       0       0       0       0       000010000D0000059
     110       0       0       1       0                               0D0000060
     100      56       0       0       0       0      63       000010000D0000061
     100       0       0       1       0                               0D0000062
     124      57       0       0       0       0       0       000000000D0000063
     124       0       0       1       0                               0D0000064
     110      58       0       0       0       0       0       000010000D0000065
     110       0       0       1       0                               0D0000066
     110      59       0       0       0       0       0       000010000D0000067
     110       0       0       1       0                               0D0000068
     110      60       0       0       0       0       0       000010000D0000069
     110       0       0       1       0                               0D0000070
     110      61       0       0       0       0       0       000010000D0000071
     110       0       0       1       0                               0D0000072
     110      62       0       0       0       0       0       000010000D0000073
     110       0       0       1       0                               0D0000074
     110      63       0       0       0       0       0       000010000D0000075
     110       0       0       1       0                               0D0000076
     110      64       0       0       0       0       0       000010000D0000077
     110       0       0       1       0                               0D0000078
     110      65       0       0       0       0       0       000010000D0000079
     110       0       0       1       0                               0D0000080
     110      66       0       0       0       0       0       000010000D0000081
     110       0       0       1       0                               0D0000082
     110      67       0       0       0       0       0       000010000D0000083
     110       0       0       1       0                               0D0000084
     110      68       0       0       0       0       0       000010000D0000085
     110       0       0       1       0                               0D0000086
     110      69       0       0       0       0       0       000010000D0000087
     110       0       0       1       0                               0D0000088
     110      70       0       0       0       0       0       000010000D0000089
     110       0       0       1       0                               0D0000090
     100      71       0       0       0       0      93       000010000D0000091
     100       0       0       1       0                               0D0000092
     124      72       0       0       0       0       0       000000000D0000093
     124       0       0       1       0                               0D0000094
     110      73       0       0       0       0       0       000010000D0000095
     110       0       0       1       0                               0D0000096
     110      74       0       0       0       0       0       000010000D0000097
     110       0       0       1       0                               0D0000098
     110      75       0       0       0       0       0       000010000D0000099
     110       0       0       1       0                               0D0000100
     100      76       0       0       0       0     103       000010000D0000101
     100       0       0       1       0                               0D0000102
     124      77       0       0       0       0       0       000000000D0000103
     124       0       0       1       0                               0D0000104
     110      78       0       0       0       0       0       000010000D0000105
     110       0       0       1       0                               0D0000106
     110      79       0       0       0       0       0       000010000D0000107
     110       0       0       1       0                               0D0000108
     110      80       0       0       0       0       0       000010000D0000109
     110       0       0       1       0                               0D0000110
     110      81       0       0       0       0       0       000010000D0000111
     110       0       0       1       0                               0D0000112
     110      82       0       0       0       0       0       000010000D0000113
     110       0       0       1       0                               0D0000114
     110      83       0       0       0       0       0       000010000D0000115
     110       0       0       1       0                               0D0000116
     110      84       0       0       0       0       0       000010000D0000117
     110       0       0       1       0                               0D0000118
     100      85       0       0       0       0     121       000010000D0000119
     100       0       0       1       0                               0D0000120
     124      86       0       0       0       0       0       000000000D0000121
     124       0       0       1       0                               0D0000122
     110      87       0       0       0       0       0       000010000D0000123
     110       0       0       1       0                               0D0000124
     110      88       0       0       0       0       0       000010000D0000125
     110       0       0       1       0                               0D0000126
     100      89       0       0       0       0     129       000010000D0000127
     100       0       0       1       0                               0D0000128
     124      90       0       0       0       0       0       000000000D0000129
     124       0       0       1       0                               0D0000130
     110      91       0       0       0       0       0       000010000D0000131
     110       0       0       1       0                               0D0000132
     110      92       0       0       0       0       0       000010000D0000133
     110       0       0       1       0                               0D0000134
     110      93       0       0       0       0       0       000010000D0000135
     110       0       0       1       0                               0D0000136
     110      94       0       0       0       0       0       000010000D0000137
     110       0       0       1       0                               0D0000138
     110      95       0       0       0       0       0       000010000D0000139
     110       0       0       1       0                               0D0000140
     110      96       0       0       0       0       0       000010000D0000141
     110       0       0       1       0                               0D0000142
     110      97       0       0       0       0       0       000010000D0000143
     110       0       0       1       0                               0D0000144
     110      98       0       0       0       0       0       000010000D0000145
     110       0       0       1       0                               0D0000146
     110      99       0       0       0       0       0       000010000D0000147
     110       0       0       1       0                               0D0000148
     100     100       0       0       0       0     151       000010000D0000149
     100       0       0       1       0                               0D0000150
     124     101       0       0       0       0       0       000000000D0000151
     124       0       0       1       0                               0D0000152
     100     102       0       0       0       0     155       000010000D0000153
     100       0       0       1       0                               0D0000154
     124     103       0       0       0       0       0       000000000D0000155
     124       0       0       1       0                               0D0000156
     110     104       0       0       0       0       0       000010000D0000157
     110       0       0       1       0                               0D0000158
     100     105       0       0       0       0     161       000010000D0000159
     100       0       0       1       0                               0D0000160
     124     106       0       0       0       0       0       000000000D0000161
     124       0       0       1       0                               0D0000162
     110     107       0       0       0       0       0       000010000D0000163
     110       0       0       1       0                               0D0000164
     510     108       0       0       0       0       0       000010000D0000165
     510       0       0       1       1                               0D0000166
     190     109       0       0       0       0       0       000010000D0000167
     190       0       0       1       1                               0D0000168
     116     110       0       0       0       0       0       000010400D0000169
     116       0       0       1       0                               0D0000170
     123     111       0       0       0       0       0       000010200D0000171
     123       0       0       1       0                               0D0000172
     123     112       0       0       0       0       0       000010200D0000173
     123       0       0       1       0                               0D0000174
     508     113       0       0       0       0       0       000010000D0000175
     508       0       0       2       1                               0D0000176
     508     115       0       0       0       0       0       000010000D0000177
     508       0       0       1       1                               0D0000178
     510     116       0       0       0       0       0       000010000D0000179
     510       0       0       1       1                               0D0000180
     190     117       0       0       0       0       0       000010000D0000181
     190       0       0       1       1                               0D0000182
     116     118       0       0       0       0       0       000010400D0000183
     116       0       0       1       0                               0D0000184
     123     119       0       0       0       0       0       000010200D0000185
     123       0       0       1       0                               0D0000186
     123     120       0       0       0       0       0       000010200D0000187
     123       0       0       1       0                               0D0000188
     508     121       0       0       0       0       0       000010000D0000189
     508       0       0       3       1                               0D0000190
     510     124       0       0       0       0       0       000010000D0000191
     510       0       0       1       1                               0D0000192
     190     125       0       0       0       0       0       000010000D0000193
     190       0       0       1       1                               0D0000194
     116     126       0       0       0       0       0       000010400D0000195
     116       0       0       1       0                               0D0000196
     123     127       0       0       0       0       0       000010200D0000197
     123       0       0       1       0                               0D0000198
     123     128       0       0       0       0       0       000010200D0000199
     123       0       0       1       0                               0D0000200
     508     129       0       0       0       0       0       000010000D0000201
     508       0       0       1       1                               0D0000202
     510     130       0       0       0       0       0       000010000D0000203
     510       0       0       1       1                               0D0000204
     192     131       0       0       0       0       0       000010000D0000205
     192       0       0       1       1                               0D0000206
     116     132       0       0       0       0       0       000010400D0000207
     116       0       0       1       0                               0D0000208
     123     133       0       0       0       0       0       000010200D0000209
     123       0       0       1       0                               0D0000210
     123     134       0       0       0       0       0       000010200D0000211
     123       0       0       1       0                               0D0000212
     508     135       0       0       0       0       0       000010000D0000213
     508       0       0       2       1                               0D0000214
     110     137       0       0       0       0       0       000010000D0000215
     110       0       0       1       0                               0D0000216
     110     138       0       0       0       0       0       000010000D0000217
     110       0       0       1       0                               0D0000218
     110     139       0       0       0       0       0       000010000D0000219
     110       0       0       1       0                               0D0000220
     110     140       0       0       0       0       0       000010000D0000221
     110       0       0       1       0                               0D0000222
     510     141       0       0       0       0       0       000010000D0000223
     510       0       0       1       1                               0D0000224
     190     142       0       0       0       0       0       000010000D0000225
     190       0       0       1       1                               0D0000226
     116     143       0       0       0       0       0       000010400D0000227
     116       0       0       1       0                               0D0000228
     123     144       0       0       0       0       0       000010200D0000229
     123       0       0       1       0                               0D0000230
     123     145       0       0       0       0       0       000010200D0000231
     123       0       0       1       0                               0D0000232
     508     146       0       0       0       0       0       000010000D0000233
     508       0       0       1       1                               0D0000234
     510     147       0       0       0       0       0       000010000D0000235
     510       0       0       1       1                               0D0000236
     192     148       0       0       0       0       0       000010000D0000237
     192       0       0       1       1                               0D0000238
     116     149       0       0       0       0       0       000010400D0000239
     116       0       0       1       0                               0D0000240
     123     150       0       0       0       0       0       000010200D0000241
     123       0       0       1       0                               0D0000242
     123     151       0       0       0       0       0       000010200D0000243
     123       0       0       1       0                               0D0000244
     508     152       0       0       0       0       0       000010000D0000245
     508       0       0       2       1                               0D0000246
     110     154       0       0       0       0       0       000010000D0000247
     110       0       0       1       0                               0D0000248
     110     155       0       0       0       0       0       000010000D0000249
     110       0       0       1       0                               0D0000250
     110     156       0       0       0       0       0       000010000D0000251
     110       0       0       1       0                               0D0000252
     110     157       0       0       0       0       0       000010000D0000253
     110       0       0       1       0                               0D0000254
     510     158       0       0       0       0       0       000010000D0000255
     510       0       0       1       1                               0D0000256
     190     159       0       0       0       0       0       000010000D0000257
     190       0       0       1       1                               0D0000258
     116     160       0       0       0       0       0       000010400D0000259
     116       0       0       1       0                               0D0000260
     123     161       0       0       0       0       0       000010200D0000261
     123       0       0       1       0                               0D0000262
     123     162       0       0       0       0       0       000010200D0000263
     123       0       0       1       0                               0D0000264
     508     163       0       0       0       0       0       000010000D0000265
     508       0       0       1       1                               0D0000266
     510     164       0       0       0       0       0       000010000D0000267
     510       0       0       1       1                               0D0000268
     190     165       0       0       0       0       0       000010000D0000269
     190       0       0       1       1                               0D0000270
     116     166       0       0       0       0       0       000010400D0000271
     116       0       0       1       0                               0D0000272
     123     167       0       0       0       0       0       000010200D0000273
     123       0       0       1       0                               0D0000274
     123     168       0       0       0       0       0       000010200D0000275
     123       0       0       1       0                               0D0000276
     508     169       0       0       0       0       0       000010000D0000277
     508       0       0       2       1                               0D0000278
     508     171       0       0       0       0       0       000010000D0000279
     508       0       0       1       1                               0D0000280
     510     172       0       0       0       0       0       000010000D0000281
     510       0       0       1       1                               0D0000282
     190     173       0       0       0       0       0       000010000D0000283
     190       0       0       1       1                               0D0000284
     116     174       0       0       0       0       0       000010400D0000285
     116       0       0       1       0                               0D0000286
     123     175       0       0       0       0       0       000010200D0000287
     123       0       0       1       0                               0D0000288
     123     176       0       0       0       0       0       000010200D0000289
     123       0       0       1       0                               0D0000290
     508     177       0       0       0       0       0       000010000D0000291
     508       0       0       1       1                               0D0000292
     510     178       0       0       0       0       0       000010000D0000293
     510       0       0       1       1                               0D0000294
     190     179       0       0       0       0       0       000010000D0000295
     190       0       0       1       1                               0D0000296
     116     180       0       0       0       0       0       000010400D0000297
     116       0       0       1       0                               0D0000298
     123     181       0       0       0       0       0       000010200D0000299
     123       0       0       1       0                               0D0000300
     123     182       0       0       0       0       0       000010200D0000301
     123       0       0       1       0                               0D0000302
     508     183       0       0       0       0       0       000010000D0000303
     508       0       0       2       1                               0D0000304
     510     185       0       0       0       0       0       000010000D0000305
     510       0       0       1       1                               0D0000306
     190     186       0       0       0       0       0       000010000D0000307
     190       0       0       1       1                               0D0000308
     116     187       0       0       0       0       0       000010400D0000309
     116       0       0       1       0                               0D0000310
     123     188       0       0       0       0       0       000010200D0000311
     123       0       0       1       0                               0D0000312
     123     189       0       0       0       0       0       000010200D0000313
     123       0       0       1       0                               0D0000314
     508     190       0       0       0       0       0       000010000D0000315
     508       0       0       1       1                               0D0000316
     510     191       0       0       0       0       0       000010000D0000317
     510       0       0       1       1                               0D0000318
     190     192       0       0       0       0       0       000010000D0000319
     190       0       0       1       1                               0D0000320
     116     193       0       0       0       0       0       000010400D0000321
     116       0       0       1       0                               0D0000322
     123     194       0       0       0       0       0       000010200D0000323
     123       0       0       1       0                               0D0000324
     123     195       0       0       0       0       0       000010200D0000325
     123       0       0       1       0                               0D0000326
     508     196       0       0       0       0       0       000010000D0000327
     508       0       0       1       1                               0D0000328
     510     197       0       0       0       0       0       000010000D0000329
     510       0       0       1       1                               0D0000330
     190     198       0       0       0       0       0       000010000D0000331
     190       0       0       1       1                               0D0000332
     116     199       0       0       0       0       0       000010400D0000333
     116       0       0       1       0                               0D0000334
     123     200       0       0       0       0       0       000010200D0000335
     123       0       0       1       0                               0D0000336
     123     201       0       0       0       0       0       000010200D0000337
     123       0       0       1       0                               0D0000338
     508     202       0       0       0       0       0       000010000D0000339
     508       0       0       1       1                               0D0000340
     510     203       0       0       0       0       0       000010000D0000341
     510       0       0       1       1                               0D0000342
     190     204       0       0       0       0       0       000010000D0000343
     190       0       0       1       1                               0D0000344
     116     205       0       0       0       0       0       000010400D0000345
     116       0       0       1       0                               0D0000346
     123     206       0       0       0       0       0       000010200D0000347
     123       0       0       1       0                               0D0000348
     123     207       0       0       0       0       0       000010200D0000349
     123       0       0       1       0                               0D0000350
     508     208       0       0       0       0       0       000010000D0000351
     508       0       0       1       1                               0D0000352
     510     209       0       0       0       0       0       000010000D0000353
     510       0       0       1       1                               0D0000354
     192     210       0       0       0       0       0       000010000D0000355
     192       0       0       1       1                               0D0000356
     116     211       0       0       0       0       0       000010400D0000357
     116       0       0       1       0                               0D0000358
     123     212       0       0       0       0       0       000010200D0000359
     123       0       0       1       0                               0D0000360
     123     213       0       0       0       0       0       000010200D0000361
     123       0       0       1       0                               0D0000362
     508     214       0       0       0       0       0       000010000D0000363
     508       0       0       2       1                               0D0000364
     110     216       0       0       0       0       0       000010000D0000365
     110       0       0       1       0                               0D0000366
     110     217       0       0       0       0       0       000010000D0000367
     110       0       0       1       0                               0D0000368
     110     218       0       0       0       0       0       000010000D0000369
     110       0       0       1       0                               0D0000370
     110     219       0       0       0       0       0       000010000D0000371
     110       0       0       1       0                               0D0000372
     510     220       0       0       0       0       0       000010000D0000373
     510       0       0       1       1                               0D0000374
     190     221       0       0       0       0       0       000010000D0000375
     190       0       0       1       1                               0D0000376
     116     222       0       0       0       0       0       000010400D0000377
     116       0       0       1       0                               0D0000378
     123     223       0       0       0       0       0       000010200D0000379
     123       0       0       1       0                               0D0000380
     123     224       0       0       0       0       0       000010200D0000381
     123       0       0       1       0                               0D0000382
     508     225       0       0       0       0       0       000010000D0000383
     508       0       0       1       1                               0D0000384
     510     226       0       0       0       0       0       000010000D0000385
     510       0       0       1       1                               0D0000386
     190     227       0       0       0       0       0       000010000D0000387
     190       0       0       1       1                               0D0000388
     116     228       0       0       0       0       0       000010400D0000389
     116       0       0       1       0                               0D0000390
     123     229       0       0       0       0       0       000010200D0000391
     123       0       0       1       0                               0D0000392
     123     230       0       0       0       0       0       000010200D0000393
     123       0       0       1       0                               0D0000394
     508     231       0       0       0       0       0       000010000D0000395
     508       0       0       1       1                               0D0000396
     508     232       0       0       0       0       0       000010000D0000397
     508       0       0       1       1                               0D0000398
     510     233       0       0       0       0       0       000010000D0000399
     510       0       0       1       1                               0D0000400
     190     234       0       0       0       0       0       000010000D0000401
     190       0       0       1       1                               0D0000402
     116     235       0       0       0       0       0       000010400D0000403
     116       0       0       1       0                               0D0000404
     123     236       0       0       0       0       0       000010200D0000405
     123       0       0       1       0                               0D0000406
     123     237       0       0       0       0       0       000010200D0000407
     123       0       0       1       0                               0D0000408
     508     238       0       0       0       0       0       000010000D0000409
     508       0       0       1       1                               0D0000410
     510     239       0       0       0       0       0       000010000D0000411
     510       0       0       1       1                               0D0000412
     190     240       0       0       0       0       0       000010000D0000413
     190       0       0       1       1                               0D0000414
     116     241       0       0       0       0       0       000010400D0000415
     116       0       0       1       0                               0D0000416
     123     242       0       0       0       0       0       000010200D0000417
     123       0       0       1       0                               0D0000418
     123     243       0       0       0       0       0       000010200D0000419
     123       0       0       1       0                               0D0000420
     508     244       0       0       0       0       0       000010000D0000421
     508       0       0       2       1                               0D0000422
     508     246       0       0       0       0       0       000010000D0000423
     508       0       0       1       1                               0D0000424
     510     247       0       0       0       0       0       000010000D0000425
     510       0       0       1       1                               0D0000426
     192     248       0       0       0       0       0       000010000D0000427
     192       0       0       1       1                               0D0000428
     116     249       0       0       0       0       0       000010400D0000429
     116       0       0       1       0                               0D0000430
     123     250       0       0       0       0       0       000010200D0000431
     123       0       0       1       0                               0D0000432
     123     251       0       0       0       0       0       000010200D0000433
     123       0       0       1       0                               0D0000434
     508     252       0       0       0       0       0       000010000D0000435
     508       0       0       2       1                               0D0000436
     110     254       0       0       0       0       0       000010000D0000437
     110       0       0       1       0                               0D0000438
     110     255       0       0       0       0       0       000010000D0000439
     110       0       0       1       0                               0D0000440
     110     256       0       0       0       0       0       000010000D0000441
     110       0       0       1       0                               0D0000442
     110     257       0       0       0       0       0       000010000D0000443
     110       0       0       1       0                               0D0000444
     510     258       0       0       0       0       0       000010000D0000445
     510       0       0       1       1                               0D0000446
     192     259       0       0       0       0       0       000010000D0000447
     192       0       0       1       1                               0D0000448
     116     260       0       0       0       0       0       000010400D0000449
     116       0       0       1       0                               0D0000450
     123     261       0       0       0       0       0       000010200D0000451
     123       0       0       1       0                               0D0000452
     123     262       0       0       0       0       0       000010200D0000453
     123       0       0       1       0                               0D0000454
     508     263       0       0       0       0       0       000010000D0000455
     508       0       0       2       1                               0D0000456
     110     265       0       0       0       0       0       000010000D0000457
     110       0       0       1       0                               0D0000458
     110     266       0       0       0       0       0       000010000D0000459
     110       0       0       1       0                               0D0000460
     110     267       0       0       0       0       0       000010000D0000461
     110       0       0       1       0                               0D0000462
     110     268       0       0       0       0       0       000010000D0000463
     110       0       0       1       0                               0D0000464
402,1,3;                                                         0000001P0000001
186,5,1,0;                                                       0000003P0000002
514,22,7,0,165,1,179,0,191,0,203,0,223,0,235,0,255,0,267,0,281,  0000005P0000003
0,293,0,305,0,317,0,329,0,341,0,353,0,373,1,385,0,399,1,411,0,   0000005P0000004
425,0,445,0;                                                     0000005P0000005
510,9,1,1,17;                                                    0000007P0000006
190,11,13,15;                                                    0000009P0000007
116,7.25,8.,0.,0;                                                0000011P0000008
123,1.,0.,0.;                                                    0000013P0000009
123,0.,-1.,0.;                                                   0000015P0000010
508,10,0,19,1,0,0,0,19,2,1,0,0,19,3,1,0,0,19,4,0,0,0,19,5,1,0,0, 0000017P0000011
19,6,1,0,0,19,7,1,0,0,19,8,1,0,0,19,9,1,0,0,19,10,0,0;           0000017P0000012
504,61,21,23,1,23,2,25,23,1,23,3,27,23,3,23,4,29,23,5,23,4,31,   0000019P0000013
23,5,23,6,33,23,6,23,7,37,23,7,23,8,39,23,8,23,9,43,23,9,23,10,  0000019P0000014
45,23,2,23,10,47,23,11,23,1,49,23,12,23,11,51,23,13,23,12,53,23, 0000019P0000015
14,23,13,55,23,15,23,14,57,23,16,23,15,59,23,2,23,16,61,23,17,   0000019P0000016
23,17,65,23,10,23,18,67,23,18,23,19,69,23,19,23,20,71,23,5,23,   0000019P0000017
20,73,23,4,23,21,75,23,22,23,21,77,23,22,23,23,79,23,23,23,24,   0000019P0000018
81,23,25,23,24,83,23,16,23,25,85,23,9,23,26,87,23,26,23,18,89,   0000019P0000019
23,8,23,27,91,23,27,23,26,95,23,7,23,28,97,23,28,23,27,99,23,6,  0000019P0000020
23,29,101,23,29,23,28,105,23,20,23,29,107,23,30,23,3,109,23,31,  0000019P0000021
23,30,111,23,32,23,31,113,23,33,23,32,115,23,34,23,33,117,23,21, 0000019P0000022
23,34,119,23,35,23,35,123,23,11,23,30,125,23,36,23,25,127,23,36, 0000019P0000023
23,37,131,23,22,23,37,133,23,15,23,34,135,23,14,23,33,137,23,13, 0000019P0000024
23,32,139,23,12,23,31,141,23,17,23,35,143,23,36,23,38,145,23,38, 0000019P0000025
23,24,147,23,23,23,39,149,23,38,23,39,153,23,40,23,40,157,23,37, 0000019P0000026
23,39,159,23,41,23,41,163,23,41,23,40;                           0000019P0000027
110,7.25,8.,0.,7.25,-3.5,0.;                                     0000021P0000028
502,41,7.25,8.,0.,7.25,-3.5,0.,7.25,8.,6.,7.25,-3.5,6.,7.25,     0000023P0000029
-3.5,4.59,7.25,-1.,4.59,7.25,-1.,3.77,7.25,-1.,2.23,7.25,-1.,    0000023P0000030
1.41,7.25,-3.5,1.41,9.75,8.,0.,9.75,5.,0.,9.,5.,0.,9.,3.,0.,     0000023P0000031
9.75,3.,0.,9.75,-3.5,0.,9.09,0.81,0.,8.5,-3.5,1.41,8.5,-3.5,3.,  0000023P0000032
8.5,-3.5,4.59,9.75,-3.5,6.,9.75,-3.5,4.,9.14,-3.5,4.,9.14,-3.5,  0000023P0000033
2.,9.75,-3.5,2.,8.5,-1.,1.41,8.5,-1.,2.23,8.5,-1.,3.77,8.5,-1.,  0000023P0000034
4.59,9.75,8.,6.,9.75,5.,6.,9.,5.,6.,9.,3.,6.,9.75,3.,6.,9.09,    0000023P0000035
0.81,6.,9.75,-2.25,2.,9.75,-2.25,4.,9.14,-2.25,2.,9.14,-2.25,4., 0000023P0000036
9.14,-2.75,3.,8.5,-2.75,3.;                                      0000023P0000037
110,7.25,8.,0.,7.25,8.,6.;                                       0000025P0000038
110,7.25,8.,6.,7.25,-3.5,6.;                                     0000027P0000039
110,7.25,-3.5,4.59,7.25,-3.5,6.;                                 0000029P0000040
110,7.25,-3.5,4.59,7.25,-1.,4.59;                                0000031P0000041
100,0.,0.,0.,-1.443289932E-15,0.41,0.,-0.41;                     0000033P0000042
124,0.,0.,-1.,7.25,-1.,0.,0.,-1.,0.,1.,0.,4.18;                  0000035P0000043
110,7.25,-1.,3.77,7.25,-1.,2.23;                                 0000037P0000044
100,0.,0.,0.,-1.443289932E-15,0.41,0.,-0.41;                     0000039P0000045
124,0.,0.,-1.,7.25,-1.,0.,0.,-1.,0.,1.,0.,1.82;                  0000041P0000046
110,7.25,-1.,1.41,7.25,-3.5,1.41;                                0000043P0000047
110,7.25,-3.5,0.,7.25,-3.5,1.41;                                 0000045P0000048
110,9.75,8.,0.,7.25,8.,0.;                                       0000047P0000049
110,9.75,5.,0.,9.75,8.,0.;                                       0000049P0000050
110,9.,5.,0.,9.75,5.,0.;                                         0000051P0000051
110,9.,3.,0.,9.,5.,0.;                                           0000053P0000052
110,9.75,3.,0.,9.,3.,0.;                                         0000055P0000053
110,9.75,-3.5,0.,9.75,3.,0.;                                     0000057P0000054
110,7.25,-3.5,0.,9.75,-3.5,0.;                                   0000059P0000055
100,0.,0.,0.,0.59,0.,0.59,0.;                                    0000061P0000056
124,1.,0.,0.,8.5,0.,1.,0.,0.81,0.,0.,1.,0.;                      0000063P0000057
110,7.25,-3.5,1.41,8.5,-3.5,1.41;                                0000065P0000058
110,8.5,-3.5,1.41,8.5,-3.5,3.;                                   0000067P0000059
110,8.5,-3.5,3.,8.5,-3.5,4.59;                                   0000069P0000060
110,7.25,-3.5,4.59,8.5,-3.5,4.59;                                0000071P0000061
110,7.25,-3.5,6.,9.75,-3.5,6.;                                   0000073P0000062
110,9.75,-3.5,4.,9.75,-3.5,6.;                                   0000075P0000063
110,9.75,-3.5,4.,9.14,-3.5,4.;                                   0000077P0000064
110,9.14,-3.5,4.,9.14,-3.5,2.;                                   0000079P0000065
110,9.75,-3.5,2.,9.14,-3.5,2.;                                   0000081P0000066
110,9.75,-3.5,0.,9.75,-3.5,2.;                                   0000083P0000067
110,7.25,-1.,1.41,8.5,-1.,1.41;                                  0000085P0000068
110,8.5,-1.,1.41,8.5,-3.5,1.41;                                  0000087P0000069
110,7.25,-1.,2.23,8.5,-1.,2.23;                                  0000089P0000070
100,0.,0.,0.,-1.443289932E-15,0.41,0.,-0.41;                     0000091P0000071
124,0.,0.,-1.,8.5,-1.,0.,0.,-1.,0.,1.,0.,1.82;                   0000093P0000072
110,7.25,-1.,3.77,8.5,-1.,3.77;                                  0000095P0000073
110,8.5,-1.,3.77,8.5,-1.,2.23;                                   0000097P0000074
110,7.25,-1.,4.59,8.5,-1.,4.59;                                  0000099P0000075
100,0.,0.,0.,-1.443289932E-15,0.41,0.,-0.41;                     0000101P0000076
124,0.,0.,-1.,8.5,-1.,0.,0.,-1.,0.,1.,0.,4.18;                   0000103P0000077
110,8.5,-3.5,4.59,8.5,-1.,4.59;                                  0000105P0000078
110,9.75,8.,6.,7.25,8.,6.;                                       0000107P0000079
110,9.75,5.,6.,9.75,8.,6.;                                       0000109P0000080
110,9.,5.,6.,9.75,5.,6.;                                         0000111P0000081
110,9.,3.,6.,9.,5.,6.;                                           0000113P0000082
110,9.75,3.,6.,9.,3.,6.;                                         0000115P0000083
110,9.75,-3.5,6.,9.75,3.,6.;                                     0000117P0000084
100,0.,0.,0.,0.59,0.,0.59,0.;                                    0000119P0000085
124,1.,0.,0.,8.5,0.,1.,0.,0.81,0.,0.,1.,6.;                      0000121P0000086
110,9.75,8.,0.,9.75,8.,6.;                                       0000123P0000087
110,9.75,-2.25,2.,9.75,-3.5,2.;                                  0000125P0000088
100,0.,0.,0.,0.,-1.,3.108624469E-15,1.;                          0000127P0000089
124,0.,0.,1.,9.75,1.,0.,0.,-2.25,0.,1.,0.,3.;                    0000129P0000090
110,9.75,-3.5,4.,9.75,-2.25,4.;                                  0000131P0000091
110,9.75,3.,0.,9.75,3.,6.;                                       0000133P0000092
110,9.,3.,0.,9.,3.,6.;                                           0000135P0000093
110,9.,5.,0.,9.,5.,6.;                                           0000137P0000094
110,9.75,5.,0.,9.75,5.,6.;                                       0000139P0000095
110,9.09,0.81,0.,9.09,0.81,6.;                                   0000141P0000096
110,9.75,-2.25,2.,9.14,-2.25,2.;                                 0000143P0000097
110,9.14,-2.25,2.,9.14,-3.5,2.;                                  0000145P0000098
110,9.14,-3.5,4.,9.14,-2.25,4.;                                  0000147P0000099
100,0.,0.,0.,0.,-1.,3.108624469E-15,1.;                          0000149P0000100
124,0.,0.,1.,9.14,1.,0.,0.,-2.25,0.,1.,0.,3.;                    0000151P0000101
100,0.,0.,0.,0.5,0.,0.5,0.;                                      0000153P0000102
124,0.,0.,-1.,9.14,-1.,0.,0.,-2.25,0.,1.,0.,3.;                  0000155P0000103
110,9.75,-2.25,4.,9.14,-2.25,4.;                                 0000157P0000104
100,0.,0.,0.,0.5,0.,0.5,0.;                                      0000159P0000105
124,0.,0.,-1.,8.5,-1.,0.,0.,-2.25,0.,1.,0.,3.;                   0000161P0000106
110,8.5,-2.75,3.,9.14,-2.75,3.;                                  0000163P0000107
510,167,2,1,175,177;                                             0000165P0000108
190,169,171,173;                                                 0000167P0000109
116,7.25,8.,0.,0;                                                0000169P0000110
123,0.,0.,-1.;                                                   0000171P0000111
123,-1.,0.,0.;                                                   0000173P0000112
508,8,0,19,1,0,0,0,19,11,0,0,0,19,12,0,0,0,19,13,0,0,0,19,14,0,  0000175P0000113
0,0,19,15,0,0,0,19,16,0,0,0,19,17,0,0;                           0000175P0000114
508,1,0,19,18,1,0;                                               0000177P0000115
510,181,1,1,189;                                                 0000179P0000116
190,183,185,187;                                                 0000181P0000117
116,7.25,-3.5,0.,0;                                              0000183P0000118
123,0.,1.,0.;                                                    0000185P0000119
123,1.,0.,0.;                                                    0000187P0000120
508,13,0,19,17,0,0,0,19,10,1,0,0,19,19,1,0,0,19,20,1,0,0,19,21,  0000189P0000121
1,0,0,19,22,0,0,0,19,4,1,0,0,19,23,1,0,0,19,24,0,0,0,19,25,1,0,  0000189P0000122
0,19,26,1,0,0,19,27,0,0,0,19,28,0,0;                             0000189P0000123
510,193,1,1,201;                                                 0000191P0000124
190,195,197,199;                                                 0000193P0000125
116,7.25,-1.,1.41,0;                                             0000195P0000126
123,0.,0.,-1.;                                                   0000197P0000127
123,0.,-1.,0.;                                                   0000199P0000128
508,4,0,19,29,1,0,0,19,30,1,0,0,19,19,0,0,0,19,9,0,0;            0000201P0000129
510,205,1,1,213;                                                 0000203P0000130
192,207,209,0.41,211;                                            0000205P0000131
116,7.25,-1.,1.82,0;                                             0000207P0000132
123,-1.,0.,0.;                                                   0000209P0000133
123,0.,-1.,0.;                                                   0000211P0000134
508,4,0,19,31,1,1,0,215,0,19,32,1,1,0,217,0,19,29,0,1,0,219,0,   0000213P0000135
19,8,0,1,0,221;                                                  0000213P0000136
110,90.,0.,0.,90.,-1.25,0.;                                      0000215P0000137
110,90.,-1.25,0.,270.,-1.25,0.;                                  0000217P0000138
110,270.,-1.25,0.,270.,0.,0.;                                    0000219P0000139
110,270.,0.,0.,90.,0.,0.;                                        0000221P0000140
510,225,1,1,233;                                                 0000223P0000141
190,227,229,231;                                                 0000225P0000142
116,7.25,-1.,3.77,0;                                             0000227P0000143
123,0.,1.,0.;                                                    0000229P0000144
123,0.,0.,-1.;                                                   0000231P0000145
508,4,0,19,33,1,0,0,19,34,1,0,0,19,31,0,0,0,19,7,0,0;            0000233P0000146
510,237,1,1,245;                                                 0000235P0000147
192,239,241,0.41,243;                                            0000237P0000148
116,7.25,-1.,4.18,0;                                             0000239P0000149
123,-1.,0.,0.;                                                   0000241P0000150
123,0.,-1.,0.;                                                   0000243P0000151
508,4,0,19,35,1,1,0,247,0,19,36,1,1,0,249,0,19,33,0,1,0,251,0,   0000245P0000152
19,6,0,1,0,253;                                                  0000245P0000153
110,90.,0.,0.,90.,-1.25,0.;                                      0000247P0000154
110,90.,-1.25,0.,270.,-1.25,0.;                                  0000249P0000155
110,270.,-1.25,0.,270.,0.,0.;                                    0000251P0000156
110,270.,0.,0.,90.,0.,0.;                                        0000253P0000157
510,257,1,1,265;                                                 0000255P0000158
190,259,261,263;                                                 0000257P0000159
116,7.25,-3.5,4.59,0;                                            0000259P0000160
123,0.,0.,1.;                                                    0000261P0000161
123,0.,1.,0.;                                                    0000263P0000162
508,4,0,19,22,1,0,0,19,37,1,0,0,19,35,0,0,0,19,5,0,0;            0000265P0000163
510,269,2,1,277,279;                                             0000267P0000164
190,271,273,275;                                                 0000269P0000165
116,7.25,8.,6.,0;                                                0000271P0000166
123,0.,0.,-1.;                                                   0000273P0000167
123,-1.,0.,0.;                                                   0000275P0000168
508,8,0,19,3,0,0,0,19,38,0,0,0,19,39,0,0,0,19,40,0,0,0,19,41,0,  0000277P0000169
0,0,19,42,0,0,0,19,43,0,0,0,19,23,0,0;                           0000277P0000170
508,1,0,19,44,1,0;                                               0000279P0000171
510,283,1,1,291;                                                 0000281P0000172
190,285,287,289;                                                 0000283P0000173
116,9.75,8.,0.,0;                                                0000285P0000174
123,0.,-1.,0.;                                                   0000287P0000175
123,-1.,0.,0.;                                                   0000289P0000176
508,4,0,19,45,1,0,0,19,38,1,0,0,19,2,0,0,0,19,11,0,0;            0000291P0000177
510,295,1,1,303;                                                 0000293P0000178
190,297,299,301;                                                 0000295P0000179
116,9.75,-3.5,0.,0;                                              0000297P0000180
123,-1.,0.,0.;                                                   0000299P0000181
123,0.,1.,0.;                                                    0000301P0000182
508,8,0,19,16,0,0,0,19,28,1,0,0,19,46,0,0,0,19,47,1,0,0,19,48,0, 0000303P0000183
0,0,19,24,1,0,0,19,43,1,0,0,19,49,0,0;                           0000303P0000184
510,307,1,1,315;                                                 0000305P0000185
190,309,311,313;                                                 0000307P0000186
116,9.75,3.,0.,0;                                                0000309P0000187
123,0.,-1.,0.;                                                   0000311P0000188
123,-1.,0.,0.;                                                   0000313P0000189
508,4,0,19,49,1,0,0,19,42,1,0,0,19,50,0,0,0,19,15,0,0;           0000315P0000190
510,319,1,1,327;                                                 0000317P0000191
190,321,323,325;                                                 0000319P0000192
116,9.,3.,0.,0;                                                  0000321P0000193
123,-1.,0.,0.;                                                   0000323P0000194
123,0.,1.,0.;                                                    0000325P0000195
508,4,0,19,50,1,0,0,19,41,1,0,0,19,51,0,0,0,19,14,0,0;           0000327P0000196
510,331,1,1,339;                                                 0000329P0000197
190,333,335,337;                                                 0000331P0000198
116,9.,5.,0.,0;                                                  0000333P0000199
123,0.,1.,0.;                                                    0000335P0000200
123,1.,0.,0.;                                                    0000337P0000201
508,4,0,19,51,1,0,0,19,40,1,0,0,19,52,0,0,0,19,13,0,0;           0000339P0000202
510,343,1,1,351;                                                 0000341P0000203
190,345,347,349;                                                 0000343P0000204
116,9.75,5.,0.,0;                                                0000345P0000205
123,-1.,0.,0.;                                                   0000347P0000206
123,0.,1.,0.;                                                    0000349P0000207
508,4,0,19,52,1,0,0,19,39,1,0,0,19,45,0,0,0,19,12,0,0;           0000351P0000208
510,355,1,1,363;                                                 0000353P0000209
192,357,359,0.59,361;                                            0000355P0000210
116,8.5,0.81,0.,0;                                               0000357P0000211
123,-0.,-0.,-1.;                                                 0000359P0000212
123,1.,0.,0.;                                                    0000361P0000213
508,4,0,19,53,0,1,0,365,0,19,18,1,1,0,367,0,19,53,1,1,0,369,0,   0000363P0000214
19,44,0,1,0,371;                                                 0000363P0000215
110,0.,-6.,0.,0.,0.,0.;                                          0000365P0000216
110,0.,0.,0.,-360.,0.,0.;                                        0000367P0000217
110,-360.,0.,0.,-360.,-6.,0.;                                    0000369P0000218
110,-360.,-6.,0.,0.,-6.,0.;                                      0000371P0000219
510,375,1,1,383;                                                 0000373P0000220
190,377,379,381;                                                 0000375P0000221
116,9.75,-2.25,2.,0;                                             0000377P0000222
123,0.,0.,1.;                                                    0000379P0000223
123,0.,-1.,0.;                                                   0000381P0000224
508,4,0,19,54,1,0,0,19,55,1,0,0,19,27,0,0,0,19,46,0,0;           0000383P0000225
510,387,2,1,395,397;                                             0000385P0000226
190,389,391,393;                                                 0000387P0000227
116,9.14,-3.5,4.,0;                                              0000389P0000228
123,-1.,0.,0.;                                                   0000391P0000229
123,0.,0.,-1.;                                                   0000393P0000230
508,4,0,19,26,0,0,0,19,56,1,0,0,19,57,0,0,0,19,55,1,0;           0000395P0000231
508,1,0,19,58,0,0;                                               0000397P0000232
510,401,1,1,409;                                                 0000399P0000233
190,403,405,407;                                                 0000401P0000234
116,9.75,-3.5,4.,0;                                              0000403P0000235
123,0.,0.,-1.;                                                   0000405P0000236
123,0.,1.,0.;                                                    0000407P0000237
508,4,0,19,25,1,0,0,19,56,1,0,0,19,59,0,0,0,19,48,0,0;           0000409P0000238
510,413,2,1,421,423;                                             0000411P0000239
190,415,417,419;                                                 0000413P0000240
116,8.5,-3.5,3.,0;                                               0000415P0000241
123,1.,0.,0.;                                                    0000417P0000242
123,0.,0.,1.;                                                    0000419P0000243
508,7,0,19,21,0,0,0,19,20,0,0,0,19,30,0,0,0,19,32,0,0,0,19,34,0, 0000421P0000244
0,0,19,36,0,0,0,19,37,0,0;                                       0000421P0000245
508,1,0,19,60,1,0;                                               0000423P0000246
510,427,1,1,435;                                                 0000425P0000247
192,429,431,1.,433;                                              0000427P0000248
116,9.75,-2.25,3.,0;                                             0000429P0000249
123,1.,0.,0.;                                                    0000431P0000250
123,0.,1.,0.;                                                    0000433P0000251
508,4,0,19,54,1,1,0,437,0,19,57,1,1,0,439,0,19,59,0,1,0,441,0,   0000435P0000252
19,47,0,1,0,443;                                                 0000435P0000253
110,270.,0.,0.,270.,-0.61,0.;                                    0000437P0000254
110,270.,-0.61,0.,450.,-0.61,0.;                                 0000439P0000255
110,450.,-0.61,0.,450.,0.,0.;                                    0000441P0000256
110,450.,0.,0.,270.,0.,0.;                                       0000443P0000257
510,447,1,1,455;                                                 0000445P0000258
192,449,451,0.5,453;                                             0000447P0000259
116,8.5,-2.25,3.,0;                                              0000449P0000260
123,-1.,0.,0.;                                                   0000451P0000261
123,0.,-1.,0.;                                                   0000453P0000262
508,4,0,19,61,0,1,0,457,0,19,60,0,1,0,459,0,19,61,1,1,0,461,0,   0000455P0000263
19,58,1,1,0,463;                                                 0000455P0000264
110,360.,-0.64,0.,360.,0.,0.;                                    0000457P0000265
110,360.,0.,0.,0.,0.,0.;                                         0000459P0000266
110,0.,0.,0.,0.,-0.64,0.;                                        0000461P0000267
110,0.,-0.64,0.,360.,-0.64,0.;                                   0000463P0000268
S      1G      4D    464P    268                                        T0000001
