                                                                        S0000001
,,31HOpen CASCADE IGES processor 7.5,13HFilename.iges,                  G0000001
16HOpen CASCADE 7.5,31HOpen CASCADE IGES processor 7.5,32,308,15,308,15,G0000002
,1.,2,2HMM,1,0.01,15H20220315.111239,1.07653E-07,15.,,,11,0,            G0000003
15H20220315.111239,;                                                    G0000004
     402       1       0       0       0       0       0       000000000D0000001
     402       0       0       1       1                               0D0000002
     186       2       0       0       0       0       0       000020000D0000003
     186       0       0       1       0                               0D0000004
     514       3       0       0       0       0       0       000010000D0000005
     514       0       0       2       1                               0D0000006
     510       5       0       0       0       0       0       000010000D0000007
     510       0       0       1       1                               0D0000008
     190       6       0       0       0       0       0       000010000D0000009
     190       0       0       1       1                               0D0000010
     116       7       0       0       0       0       0       000010400D0000011
     116       0       0       1       0                               0D0000012
     123       8       0       0       0       0       0       000010200D0000013
     123       0       0       1       0                               0D0000014
     123       9       0       0       0       0       0       000010200D0000015
     123       0       0       1       0                               0D0000016
     508      10       0       0       0       0       0       000010000D0000017
     508       0       0       2       1                               0D0000018
     504      12       0       0       0       0       0       000010001D0000019
     504       0       0      12       1                               0D0000020
     110      24       0       0       0       0       0       000010000D0000021
     110       0       0       1       0                               0D0000022
     502      25       0       0       0       0       0       000010000D0000023
     502       0       0      11       1                               0D0000024
     110      36       0       0       0       0       0       000010000D0000025
     110       0       0       1       0                               0D0000026
     110      37       0       0       0       0       0       000010000D0000027
     110       0       0       1       0                               0D0000028
     110      38       0       0       0       0       0       000010000D0000029
     110       0       0       1       0                               0D0000030
     110      39       0       0       0       0       0       000010000D0000031
     110       0       0       1       0                               0D0000032
     110      40       0       0       0       0       0       000010000D0000033
     110       0       0       1       0                               0D0000034
     110      41       0       0       0       0       0       000010000D0000035
     110       0       0       1       0                               0D0000036
     110      42       0       0       0       0       0       000010000D0000037
     110       0       0       1       0                               0D0000038
     100      43       0       0       0       0      41       000010000D0000039
     100       0       0       1       0                               0D0000040
     124      44       0       0       0       0       0       000000000D0000041
     124       0       0       2       0                               0D0000042
     100      46       0       0       0       0      45       000010000D0000043
     100       0       0       1       0                               0D0000044
     124      47       0       0       0       0       0       000000000D0000045
     124       0       0       2       0                               0D0000046
     100      49       0       0       0       0      49       000010000D0000047
     100       0       0       1       0                               0D0000048
     124      50       0       0       0       0       0       000000000D0000049
     124       0       0       2       0                               0D0000050
     110      52       0       0       0       0       0       000010000D0000051
     110       0       0       1       0                               0D0000052
     100      53       0       0       0       0      55       000010000D0000053
     100       0       0       1       0                               0D0000054
     124      54       0       0       0       0       0       000000000D0000055
     124       0       0       2       0                               0D0000056
     110      56       0       0       0       0       0       000010000D0000057
     110       0       0       1       0                               0D0000058
     110      57       0       0       0       0       0       000010000D0000059
     110       0       0       1       0                               0D0000060
     110      58       0       0       0       0       0       000010000D0000061
     110       0       0       1       0                               0D0000062
     110      59       0       0       0       0       0       000010000D0000063
     110       0       0       1       0                               0D0000064
     110      60       0       0       0       0       0       000010000D0000065
     110       0       0       1       0                               0D0000066
     110      61       0       0       0       0       0       000010000D0000067
     110       0       0       1       0                               0D0000068
     110      62       0       0       0       0       0       000010000D0000069
     110       0       0       1       0                               0D0000070
     110      63       0       0       0       0       0       000010000D0000071
     110       0       0       1       0                               0D0000072
     110      64       0       0       0       0       0       000010000D0000073
     110       0       0       1       0                               0D0000074
     110      65       0       0       0       0       0       000010000D0000075
     110       0       0       1       0                               0D0000076
     110      66       0       0       0       0       0       000010000D0000077
     110       0       0       1       0                               0D0000078
     110      67       0       0       0       0       0       000010000D0000079
     110       0       0       1       0                               0D0000080
     110      68       0       0       0       0       0       000010000D0000081
     110       0       0       1       0                               0D0000082
     110      69       0       0       0       0       0       000010000D0000083
     110       0       0       1       0                               0D0000084
     110      70       0       0       0       0       0       000010000D0000085
     110       0       0       1       0                               0D0000086
     110      71       0       0       0       0       0       000010000D0000087
     110       0       0       1       0                               0D0000088
     110      72       0       0       0       0       0       000010000D0000089
     110       0       0       1       0                               0D0000090
     110      73       0       0       0       0       0       000010000D0000091
     110       0       0       1       0                               0D0000092
     110      74       0       0       0       0       0       000010000D0000093
     110       0       0       1       0                               0D0000094
     110      75       0       0       0       0       0       000010000D0000095
     110       0       0       1       0                               0D0000096
     110      76       0       0       0       0       0       000010000D0000097
     110       0       0       1       0                               0D0000098
     110      77       0       0       0       0       0       000010000D0000099
     110       0       0       1       0                               0D0000100
     110      78       0       0       0       0       0       000010000D0000101
     110       0       0       1       0                               0D0000102
     110      79       0       0       0       0       0       000010000D0000103
     110       0       0       1       0                               0D0000104
     110      80       0       0       0       0       0       000010000D0000105
     110       0       0       1       0                               0D0000106
     100      81       0       0       0       0     109       000010000D0000107
     100       0       0       1       0                               0D0000108
     124      82       0       0       0       0       0       000000000D0000109
     124       0       0       2       0                               0D0000110
     110      84       0       0       0       0       0       000010000D0000111
     110       0       0       1       0                               0D0000112
     100      85       0       0       0       0     115       000010000D0000113
     100       0       0       1       0                               0D0000114
     124      86       0       0       0       0       0       000000000D0000115
     124       0       0       2       0                               0D0000116
     110      88       0       0       0       0       0       000010000D0000117
     110       0       0       1       0                               0D0000118
     100      89       0       0       0       0     121       000010000D0000119
     100       0       0       1       0                               0D0000120
     124      90       0       0       0       0       0       000000000D0000121
     124       0       0       2       0                               0D0000122
     110      92       0       0       0       0       0       000010000D0000123
     110       0       0       1       0                               0D0000124
     100      93       0       0       0       0     127       000010000D0000125
     100       0       0       1       0                               0D0000126
     124      94       0       0       0       0       0       000000000D0000127
     124       0       0       2       0                               0D0000128
     110      96       0       0       0       0       0       000010000D0000129
     110       0       0       1       0                               0D0000130
     110      97       0       0       0       0       0       000010000D0000131
     110       0       0       1       0                               0D0000132
     110      98       0       0       0       0       0       000010000D0000133
     110       0       0       1       0                               0D0000134
     110      99       0       0       0       0       0       000010000D0000135
     110       0       0       1       0                               0D0000136
     508     100       0       0       0       0       0       000010000D0000137
     508       0       0       1       1                               0D0000138
     508     101       0       0       0       0       0       000010000D0000139
     508       0       0       1       1                               0D0000140
     508     102       0       0       0       0       0       000010000D0000141
     508       0       0       1       1                               0D0000142
     510     103       0       0       0       0       0       000010000D0000143
     510       0       0       1       1                               0D0000144
     194     104       0       0       0       0       0       000010000D0000145
     194       0       0       1       1                               0D0000146
     116     105       0       0       0       0       0       000010400D0000147
     116       0       0       1       0                               0D0000148
     123     106       0       0       0       0       0       000010200D0000149
     123       0       0       1       0                               0D0000150
     123     107       0       0       0       0       0       000010200D0000151
     123       0       0       1       0                               0D0000152
     508     108       0       0       0       0       0       000010000D0000153
     508       0       0       2       1                               0D0000154
     110     110       0       0       0       0       0       000010000D0000155
     110       0       0       1       0                               0D0000156
     110     111       0       0       0       0       0       000010000D0000157
     110       0       0       1       0                               0D0000158
     110     112       0       0       0       0       0       000010000D0000159
     110       0       0       1       0                               0D0000160
     110     113       0       0       0       0       0       000010000D0000161
     110       0       0       1       0                               0D0000162
     510     114       0       0       0       0       0       000010000D0000163
     510       0       0       1       1                               0D0000164
     190     115       0       0       0       0       0       000010000D0000165
     190       0       0       1       1                               0D0000166
     116     116       0       0       0       0       0       000010400D0000167
     116       0       0       1       0                               0D0000168
     123     117       0       0       0       0       0       000010200D0000169
     123       0       0       1       0                               0D0000170
     123     118       0       0       0       0       0       000010200D0000171
     123       0       0       1       0                               0D0000172
     508     119       0       0       0       0       0       000010000D0000173
     508       0       0       2       1                               0D0000174
     510     121       0       0       0       0       0       000010000D0000175
     510       0       0       1       1                               0D0000176
     190     122       0       0       0       0       0       000010000D0000177
     190       0       0       1       1                               0D0000178
     116     123       0       0       0       0       0       000010400D0000179
     116       0       0       1       0                               0D0000180
     123     124       0       0       0       0       0       000010200D0000181
     123       0       0       1       0                               0D0000182
     123     125       0       0       0       0       0       000010200D0000183
     123       0       0       1       0                               0D0000184
     508     126       0       0       0       0       0       000010000D0000185
     508       0       0       1       1                               0D0000186
     510     127       0       0       0       0       0       000010000D0000187
     510       0       0       1       1                               0D0000188
     190     128       0       0       0       0       0       000010000D0000189
     190       0       0       1       1                               0D0000190
     116     129       0       0       0       0       0       000010400D0000191
     116       0       0       1       0                               0D0000192
     123     130       0       0       0       0       0       000010200D0000193
     123       0       0       1       0                               0D0000194
     123     131       0       0       0       0       0       000010200D0000195
     123       0       0       1       0                               0D0000196
     508     132       0       0       0       0       0       000010000D0000197
     508       0       0       1       1                               0D0000198
     510     133       0       0       0       0       0       000010000D0000199
     510       0       0       1       1                               0D0000200
     190     134       0       0       0       0       0       000010000D0000201
     190       0       0       1       1                               0D0000202
     116     135       0       0       0       0       0       000010400D0000203
     116       0       0       1       0                               0D0000204
     123     136       0       0       0       0       0       000010200D0000205
     123       0       0       1       0                               0D0000206
     123     137       0       0       0       0       0       000010200D0000207
     123       0       0       1       0                               0D0000208
     508     138       0       0       0       0       0       000010000D0000209
     508       0       0       1       1                               0D0000210
     510     139       0       0       0       0       0       000010000D0000211
     510       0       0       1       1                               0D0000212
     190     140       0       0       0       0       0       000010000D0000213
     190       0       0       1       1                               0D0000214
     116     141       0       0       0       0       0       000010400D0000215
     116       0       0       1       0                               0D0000216
     123     142       0       0       0       0       0       000010200D0000217
     123       0       0       1       0                               0D0000218
     123     143       0       0       0       0       0       000010200D0000219
     123       0       0       1       0                               0D0000220
     508     144       0       0       0       0       0       000010000D0000221
     508       0       0       2       1                               0D0000222
     510     146       0       0       0       0       0       000010000D0000223
     510       0       0       1       1                               0D0000224
     190     147       0       0       0       0       0       000010000D0000225
     190       0       0       1       1                               0D0000226
     116     148       0       0       0       0       0       000010400D0000227
     116       0       0       1       0                               0D0000228
     123     149       0       0       0       0       0       000010200D0000229
     123       0       0       1       0                               0D0000230
     123     150       0       0       0       0       0       000010200D0000231
     123       0       0       1       0                               0D0000232
     508     151       0       0       0       0       0       000010000D0000233
     508       0       0       1       1                               0D0000234
     510     152       0       0       0       0       0       000010000D0000235
     510       0       0       1       1                               0D0000236
     190     153       0       0       0       0       0       000010000D0000237
     190       0       0       1       1                               0D0000238
     116     154       0       0       0       0       0       000010400D0000239
     116       0       0       1       0                               0D0000240
     123     155       0       0       0       0       0       000010200D0000241
     123       0       0       1       0                               0D0000242
     123     156       0       0       0       0       0       000010200D0000243
     123       0       0       1       0                               0D0000244
     508     157       0       0       0       0       0       000010000D0000245
     508       0       0       1       1                               0D0000246
     510     158       0       0       0       0       0       000010000D0000247
     510       0       0       1       1                               0D0000248
     190     159       0       0       0       0       0       000010000D0000249
     190       0       0       1       1                               0D0000250
     116     160       0       0       0       0       0       000010400D0000251
     116       0       0       1       0                               0D0000252
     123     161       0       0       0       0       0       000010200D0000253
     123       0       0       1       0                               0D0000254
     123     162       0       0       0       0       0       000010200D0000255
     123       0       0       1       0                               0D0000256
     508     163       0       0       0       0       0       000010000D0000257
     508       0       0       1       1                               0D0000258
     510     164       0       0       0       0       0       000010000D0000259
     510       0       0       1       1                               0D0000260
     192     165       0       0       0       0       0       000010000D0000261
     192       0       0       1       1                               0D0000262
     116     166       0       0       0       0       0       000010400D0000263
     116       0       0       1       0                               0D0000264
     123     167       0       0       0       0       0       000010200D0000265
     123       0       0       1       0                               0D0000266
     123     168       0       0       0       0       0       000010200D0000267
     123       0       0       1       0                               0D0000268
     508     169       0       0       0       0       0       000010000D0000269
     508       0       0       2       1                               0D0000270
     110     171       0       0       0       0       0       000010000D0000271
     110       0       0       1       0                               0D0000272
     110     172       0       0       0       0       0       000010000D0000273
     110       0       0       1       0                               0D0000274
     110     173       0       0       0       0       0       000010000D0000275
     110       0       0       1       0                               0D0000276
     110     174       0       0       0       0       0       000010000D0000277
     110       0       0       1       0                               0D0000278
     510     175       0       0       0       0       0       000010000D0000279
     510       0       0       1       1                               0D0000280
     194     176       0       0       0       0       0       000010000D0000281
     194       0       0       1       1                               0D0000282
     116     177       0       0       0       0       0       000010400D0000283
     116       0       0       1       0                               0D0000284
     123     178       0       0       0       0       0       000010200D0000285
     123       0       0       1       0                               0D0000286
     123     179       0       0       0       0       0       000010200D0000287
     123       0       0       1       0                               0D0000288
     508     180       0       0       0       0       0       000010000D0000289
     508       0       0       2       1                               0D0000290
     110     182       0       0       0       0       0       000010000D0000291
     110       0       0       1       0                               0D0000292
     110     183       0       0       0       0       0       000010000D0000293
     110       0       0       1       0                               0D0000294
     110     184       0       0       0       0       0       000010000D0000295
     110       0       0       1       0                               0D0000296
     110     185       0       0       0       0       0       000010000D0000297
     110       0       0       1       0                               0D0000298
     510     186       0       0       0       0       0       000010000D0000299
     510       0       0       1       1                               0D0000300
     192     187       0       0       0       0       0       000010000D0000301
     192       0       0       1       1                               0D0000302
     116     188       0       0       0       0       0       000010400D0000303
     116       0       0       1       0                               0D0000304
     123     189       0       0       0       0       0       000010200D0000305
     123       0       0       1       0                               0D0000306
     123     190       0       0       0       0       0       000010200D0000307
     123       0       0       1       0                               0D0000308
     508     191       0       0       0       0       0       000010000D0000309
     508       0       0       2       1                               0D0000310
     110     193       0       0       0       0       0       000010000D0000311
     110       0       0       1       0                               0D0000312
     110     194       0       0       0       0       0       000010000D0000313
     110       0       0       1       0                               0D0000314
     110     195       0       0       0       0       0       000010000D0000315
     110       0       0       1       0                               0D0000316
     110     196       0       0       0       0       0       000010000D0000317
     110       0       0       1       0                               0D0000318
     510     197       0       0       0       0       0       000010000D0000319
     510       0       0       1       1                               0D0000320
     190     198       0       0       0       0       0       000010000D0000321
     190       0       0       1       1                               0D0000322
     116     199       0       0       0       0       0       000010400D0000323
     116       0       0       1       0                               0D0000324
     123     200       0       0       0       0       0       000010200D0000325
     123       0       0       1       0                               0D0000326
     123     201       0       0       0       0       0       000010200D0000327
     123       0       0       1       0                               0D0000328
     508     202       0       0       0       0       0       000010000D0000329
     508       0       0       2       1                               0D0000330
     508     204       0       0       0       0       0       000010000D0000331
     508       0       0       1       1                               0D0000332
     508     205       0       0       0       0       0       000010000D0000333
     508       0       0       1       1                               0D0000334
     510     206       0       0       0       0       0       000010000D0000335
     510       0       0       1       1                               0D0000336
     190     207       0       0       0       0       0       000010000D0000337
     190       0       0       1       1                               0D0000338
     116     208       0       0       0       0       0       000010400D0000339
     116       0       0       1       0                               0D0000340
     123     209       0       0       0       0       0       000010200D0000341
     123       0       0       1       0                               0D0000342
     123     210       0       0       0       0       0       000010200D0000343
     123       0       0       1       0                               0D0000344
     508     211       0       0       0       0       0       000010000D0000345
     508       0       0       1       1                               0D0000346
     510     212       0       0       0       0       0       000010000D0000347
     510       0       0       1       1                               0D0000348
     190     213       0       0       0       0       0       000010000D0000349
     190       0       0       1       1                               0D0000350
     116     214       0       0       0       0       0       000010400D0000351
     116       0       0       1       0                               0D0000352
     123     215       0       0       0       0       0       000010200D0000353
     123       0       0       1       0                               0D0000354
     123     216       0       0       0       0       0       000010200D0000355
     123       0       0       1       0                               0D0000356
     508     217       0       0       0       0       0       000010000D0000357
     508       0       0       1       1                               0D0000358
     510     218       0       0       0       0       0       000010000D0000359
     510       0       0       1       1                               0D0000360
     190     219       0       0       0       0       0       000010000D0000361
     190       0       0       1       1                               0D0000362
     116     220       0       0       0       0       0       000010400D0000363
     116       0       0       1       0                               0D0000364
     123     221       0       0       0       0       0       000010200D0000365
     123       0       0       1       0                               0D0000366
     123     222       0       0       0       0       0       000010200D0000367
     123       0       0       1       0                               0D0000368
     508     223       0       0       0       0       0       000010000D0000369
     508       0       0       1       1                               0D0000370
     510     224       0       0       0       0       0       000010000D0000371
     510       0       0       1       1                               0D0000372
     190     225       0       0       0       0       0       000010000D0000373
     190       0       0       1       1                               0D0000374
     116     226       0       0       0       0       0       000010400D0000375
     116       0       0       1       0                               0D0000376
     123     227       0       0       0       0       0       000010200D0000377
     123       0       0       1       0                               0D0000378
     123     228       0       0       0       0       0       000010200D0000379
     123       0       0       1       0                               0D0000380
     508     229       0       0       0       0       0       000010000D0000381
     508       0       0       1       1                               0D0000382
     508     230       0       0       0       0       0       000010000D0000383
     508       0       0       2       1                               0D0000384
     510     232       0       0       0       0       0       000010000D0000385
     510       0       0       1       1                               0D0000386
     192     233       0       0       0       0       0       000010000D0000387
     192       0       0       1       1                               0D0000388
     116     234       0       0       0       0       0       000010400D0000389
     116       0       0       1       0                               0D0000390
     123     235       0       0       0       0       0       000010200D0000391
     123       0       0       1       0                               0D0000392
     123     236       0       0       0       0       0       000010200D0000393
     123       0       0       1       0                               0D0000394
     508     237       0       0       0       0       0       000010000D0000395
     508       0       0       2       1                               0D0000396
     110     239       0       0       0       0       0       000010000D0000397
     110       0       0       1       0                               0D0000398
     110     240       0       0       0       0       0       000010000D0000399
     110       0       0       1       0                               0D0000400
     110     241       0       0       0       0       0       000010000D0000401
     110       0       0       1       0                               0D0000402
     110     242       0       0       0       0       0       000010000D0000403
     110       0       0       1       0                               0D0000404
402,1,3;                                                         0000001P0000001
186,5,1,0;                                                       0000003P0000002
514,19,7,1,143,0,163,0,175,0,187,0,199,0,211,0,223,0,235,0,247,  0000005P0000003
1,259,0,279,0,299,0,319,0,335,1,347,1,359,1,371,1,385,0;         0000005P0000004
510,9,4,1,17,137,139,141;                                        0000007P0000005
190,11,13,15;                                                    0000009P0000006
116,9.,1.998401444E-14,15.,0;                                    0000011P0000007
123,0.,1.,-1.33226763E-15;                                       0000013P0000008
123,0.,1.33226763E-15,1.;                                        0000015P0000009
508,8,0,19,1,0,0,0,19,2,1,0,0,19,3,0,0,0,19,4,0,0,0,19,5,0,0,0,  0000017P0000010
19,6,0,0,0,19,7,0,0,0,19,8,0,0;                                  0000017P0000011
504,49,21,23,1,23,2,25,23,1,23,3,27,23,4,23,3,29,23,5,23,4,31,   0000019P0000012
23,6,23,5,33,23,7,23,6,35,23,8,23,7,37,23,2,23,8,39,23,9,23,9,   0000019P0000013
43,23,10,23,10,47,23,11,23,11,51,23,9,23,12,53,23,12,23,12,57,   0000019P0000014
23,1,23,13,59,23,14,23,13,61,23,15,23,14,63,23,16,23,15,65,23,   0000019P0000015
17,23,16,67,23,17,23,18,69,23,2,23,18,71,23,18,23,19,73,23,8,23, 0000019P0000016
19,75,23,19,23,20,77,23,7,23,20,79,23,20,23,21,81,23,6,23,21,83, 0000019P0000017
23,21,23,22,85,23,22,23,23,87,23,23,23,24,89,23,24,23,25,91,23,  0000019P0000018
25,23,26,93,23,5,23,26,95,23,26,23,27,97,23,4,23,27,99,23,28,23, 0000019P0000019
27,101,23,3,23,28,103,23,13,23,28,105,23,10,23,29,107,23,29,23,  0000019P0000020
29,111,23,11,23,30,113,23,30,23,30,117,23,12,23,31,119,23,31,23, 0000019P0000021
31,123,23,17,23,22,125,23,32,23,32,129,23,16,23,23,131,23,15,23, 0000019P0000022
24,133,23,14,23,25,135,23,30,23,32;                              0000019P0000023
110,9.,1.998401444E-14,15.,1.5,1.998401444E-14,15.;              0000021P0000024
502,32,9.,1.998401444E-14,15.,1.5,1.998401444E-14,15.,13.,       0000023P0000025
1.465494393E-14,11.,13.,5.329070518E-15,4.,9.,0.,0.,1.5,0.,0.,   0000023P0000026
0.,1.998401444E-15,1.5,0.,1.7985613E-14,13.5,4.48,               0000023P0000027
3.441691376E-15,2.5,11.68,9.992007222E-15,7.5,4.48,              0000023P0000028
1.598721155E-14,12.5,3.68,-0.8,2.5,9.,-4.25,15.,8.625,-4.25,15., 0000023P0000029
8.625,-2.5,15.,4.375,-2.5,15.,4.375,-4.5,15.,1.5,-4.5,15.,0.,    0000023P0000030
-4.5,13.5,0.,-4.5,1.5,1.5,-4.5,4.996003611E-15,4.375,-4.5,       0000023P0000031
5.273559367E-15,4.375,-2.5,2.886579864E-15,8.625,-2.5,           0000023P0000032
2.886579864E-15,8.625,-4.25,5.440092821E-15,9.,-4.25,            0000023P0000033
4.718447855E-15,13.,-4.25,4.,13.,-4.25,11.,11.68,-4.25,7.5,3.68, 0000023P0000034
-0.8,12.5,3.68,-4.5,2.5,3.68,-4.5,12.5;                          0000023P0000035
110,9.,1.998401444E-14,15.,13.,1.465494393E-14,11.;              0000025P0000036
110,13.,5.329070518E-15,4.,13.,1.465494393E-14,11.;              0000027P0000037
110,9.,0.,0.,13.,5.329070518E-15,4.;                             0000029P0000038
110,1.5,0.,0.,9.,0.,0.;                                          0000031P0000039
110,0.,1.998401444E-15,1.5,1.5,1.972152263E-30,1.554312234E-15;  0000033P0000040
110,0.,1.7985613E-14,13.5,0.,1.998401444E-15,1.5;                0000035P0000041
110,1.5,1.998401444E-14,15.,1.554312234E-15,1.7985613E-14,13.5;  0000037P0000042
100,0.,0.,0.,1.98,-4.440892099E-16,1.98,-4.440892099E-16;        0000039P0000043
124,1.,3.76346788E-16,0.,2.5,-5.013946431E-31,1.33226763E-15,    0000041P0000044
-1.,3.330669074E-15,-3.76346788E-16,1.,1.33226763E-15,2.5;       0000041P0000045
100,0.,0.,0.,1.18,0.,1.18,0.;                                    0000043P0000046
124,1.,0.,0.,10.5,0.,1.33226763E-15,-1.,9.992007222E-15,0.,1.,   0000045P0000047
1.33226763E-15,7.5;                                              0000045P0000048
100,0.,0.,0.,1.98,0.,1.98,0.;                                    0000047P0000049
124,1.,0.,0.,2.5,0.,1.33226763E-15,-1.,1.665334537E-14,0.,1.,    0000049P0000050
1.33226763E-15,12.5;                                             0000049P0000051
110,4.48,6.106226635E-15,2.5,3.68,-0.8,2.5;                      0000051P0000052
100,0.,0.,0.,1.18,-4.440892099E-16,1.18,-4.440892099E-16;        0000053P0000053
124,1.,3.76346788E-16,0.,2.5,-5.013946431E-31,1.33226763E-15,    0000055P0000054
-1.,-0.8,-3.76346788E-16,1.,1.33226763E-15,2.5;                  0000055P0000055
110,9.,1.998401444E-14,15.,9.,-4.25,15.;                         0000057P0000056
110,8.625,-4.25,15.,9.,-4.25,15.;                                0000059P0000057
110,8.625,-2.5,15.,8.625,-4.25,15.;                              0000061P0000058
110,4.375,-2.5,15.,8.625,-2.5,15.;                               0000063P0000059
110,4.375,-4.5,15.,4.375,-2.5,15.;                               0000065P0000060
110,4.375,-4.5,15.,1.5,-4.5,15.;                                 0000067P0000061
110,1.5,1.998401444E-14,15.,1.5,-4.5,15.;                        0000069P0000062
110,1.5,-4.5,15.,1.554312234E-15,-4.5,13.5;                      0000071P0000063
110,0.,1.7985613E-14,13.5,0.,-4.5,13.5;                          0000073P0000064
110,0.,-4.5,13.5,0.,-4.5,1.5;                                    0000075P0000065
110,0.,1.998401444E-15,1.5,0.,-4.5,1.5;                          0000077P0000066
110,0.,-4.5,1.5,1.5,-4.5,6.439293543E-15;                        0000079P0000067
110,1.5,0.,0.,1.5,-4.5,4.996003611E-15;                          0000081P0000068
110,1.5,-4.5,4.996003611E-15,4.375,-4.5,4.996003611E-15;         0000083P0000069
110,4.375,-4.5,5.273559367E-15,4.375,-2.5,3.053113318E-15;       0000085P0000070
110,4.375,-2.5,2.831068713E-15,8.625,-2.5,2.831068713E-15;       0000087P0000071
110,8.625,-2.5,2.831068713E-15,8.625,-4.25,4.773959006E-15;      0000089P0000072
110,8.625,-4.25,5.079270338E-15,9.,-4.25,5.079270338E-15;        0000091P0000073
110,9.,0.,0.,9.,-4.25,4.718447855E-15;                           0000093P0000074
110,9.,-4.25,3.108624469E-15,13.,-4.25,4.;                       0000095P0000075
110,13.,5.329070518E-15,4.,13.,-4.25,4.;                         0000097P0000076
110,13.,-4.25,11.,13.,-4.25,4.;                                  0000099P0000077
110,13.,1.465494393E-14,11.,13.,-4.25,11.;                       0000101P0000078
110,9.,-4.25,15.,13.,-4.25,11.;                                  0000103P0000079
110,11.68,9.992007222E-15,7.5,11.68,-4.25,7.5;                   0000105P0000080
100,0.,0.,0.,1.18,0.,1.18,0.;                                    0000107P0000081
124,1.,0.,0.,10.5,0.,-1.33226763E-15,1.,-4.25,0.,-1.,            0000109P0000082
-1.33226763E-15,7.5;                                             0000109P0000083
110,4.48,1.865174681E-14,12.5,3.68,-0.8,12.5;                    0000111P0000084
100,0.,0.,0.,1.18,0.,1.18,0.;                                    0000113P0000085
124,1.,0.,0.,2.5,0.,1.33226763E-15,-1.,-0.8,0.,1.,               0000115P0000086
1.33226763E-15,12.5;                                             0000115P0000087
110,3.68,-0.8,2.5,3.68,-4.5,2.5;                                 0000117P0000088
100,0.,0.,0.,1.18,0.,1.18,0.;                                    0000119P0000089
124,1.,0.,0.,2.5,0.,1.33226763E-15,-1.,-4.5,0.,1.,               0000121P0000090
1.33226763E-15,2.5;                                              0000121P0000091
110,4.375,-4.5,15.,4.375,-4.5,1.776356839E-15;                   0000123P0000092
100,0.,0.,0.,1.18,0.,1.18,0.;                                    0000125P0000093
124,1.,0.,0.,2.5,0.,1.33226763E-15,-1.,-4.5,0.,1.,               0000127P0000094
1.33226763E-15,12.5;                                             0000127P0000095
110,4.375,-2.5,15.,4.375,-2.5,0.;                                0000129P0000096
110,8.625,-2.5,15.,8.625,-2.5,0.;                                0000131P0000097
110,8.625,-4.25,15.,8.625,-4.25,1.776356839E-15;                 0000133P0000098
110,3.68,-0.8,12.5,3.68,-4.5,12.5;                               0000135P0000099
508,1,0,19,9,1,0;                                                0000137P0000100
508,1,0,19,10,1,0;                                               0000139P0000101
508,1,0,19,11,1,0;                                               0000141P0000102
510,145,1,1,153;                                                 0000143P0000103
194,147,149,1.18,45.,151;                                        0000145P0000104
116,2.5,-0.8,2.5,0;                                              0000147P0000105
123,0.,1.,-1.33226763E-15;                                       0000149P0000106
123,1.,-5.013946431E-31,-3.76346788E-16;                         0000151P0000107
508,4,0,19,12,0,1,0,155,0,19,9,1,1,0,157,0,19,12,1,1,0,159,0,19, 0000153P0000108
13,0,1,0,161;                                                    0000153P0000109
110,2.156308259E-14,0.,0.,2.156308259E-14,1.13137085,0.;         0000155P0000110
110,2.156308259E-14,1.13137085,0.,-360.,1.13137085,0.;           0000157P0000111
110,-360.,1.13137085,0.,-360.,0.,0.;                             0000159P0000112
110,-360.,0.,0.,2.156308259E-14,0.,0.;                           0000161P0000113
510,165,1,1,173;                                                 0000163P0000114
190,167,169,171;                                                 0000165P0000115
116,9.,1.998401444E-14,15.,0;                                    0000167P0000116
123,0.,-1.110223025E-15,-1.;                                     0000169P0000117
123,-1.,0.,0.;                                                   0000171P0000118
508,8,0,19,1,0,0,0,19,14,1,0,0,19,15,0,0,0,19,16,0,0,0,19,17,0,  0000173P0000119
0,0,19,18,0,0,0,19,19,1,0,0,19,20,0,0;                           0000173P0000120
510,177,1,1,185;                                                 0000175P0000121
190,179,181,183;                                                 0000177P0000122
116,1.5,1.998401444E-14,15.,0;                                   0000179P0000123
123,0.707106781,-7.850462293E-16,-0.707106781;                   0000181P0000124
123,-0.707106781,-9.420554752E-16,-0.707106781;                  0000183P0000125
508,4,0,19,20,1,0,0,19,21,1,0,0,19,22,0,0,0,19,8,0,0;            0000185P0000126
510,189,1,1,197;                                                 0000187P0000127
190,191,193,195;                                                 0000189P0000128
116,0.,1.7985613E-14,13.5,0;                                     0000191P0000129
123,1.,0.,0.;                                                    0000193P0000130
123,0.,-1.33226763E-15,-1.;                                      0000195P0000131
508,4,0,19,22,1,0,0,19,23,1,0,0,19,24,0,0,0,19,7,0,0;            0000197P0000132
510,201,1,1,209;                                                 0000199P0000133
190,203,205,207;                                                 0000201P0000134
116,0.,1.998401444E-15,1.5,0;                                    0000203P0000135
123,0.707106781,7.850462293E-16,0.707106781;                     0000205P0000136
123,0.707106781,-9.420554752E-16,-0.707106781;                   0000207P0000137
508,4,0,19,24,1,0,0,19,25,1,0,0,19,26,0,0,0,19,6,0,0;            0000209P0000138
510,213,1,1,221;                                                 0000211P0000139
190,215,217,219;                                                 0000213P0000140
116,1.5,0.,0.,0;                                                 0000215P0000141
123,0.,1.110223025E-15,1.;                                       0000217P0000142
123,1.,0.,0.;                                                    0000219P0000143
508,8,0,19,5,0,0,0,19,26,1,0,0,19,27,1,0,0,19,28,1,0,0,19,29,1,  0000221P0000144
0,0,19,30,1,0,0,19,31,1,0,0,19,32,0,0;                           0000221P0000145
510,225,1,1,233;                                                 0000223P0000146
190,227,229,231;                                                 0000225P0000147
116,9.,0.,0.,0;                                                  0000227P0000148
123,-0.707106781,7.850462293E-16,0.707106781;                    0000229P0000149
123,0.707106781,9.420554752E-16,0.707106781;                     0000231P0000150
508,4,0,19,4,0,0,0,19,32,1,0,0,19,33,1,0,0,19,34,0,0;            0000233P0000151
510,237,1,1,245;                                                 0000235P0000152
190,239,241,243;                                                 0000237P0000153
116,13.,5.329070518E-15,4.,0;                                    0000239P0000154
123,-1.,0.,0.;                                                   0000241P0000155
123,0.,1.33226763E-15,1.;                                        0000243P0000156
508,4,0,19,3,0,0,0,19,34,1,0,0,19,35,0,0,0,19,36,0,0;            0000245P0000157
510,249,1,1,257;                                                 0000247P0000158
190,251,253,255;                                                 0000249P0000159
116,9.,1.998401444E-14,15.,0;                                    0000251P0000160
123,0.707106781,7.850462293E-16,0.707106781;                     0000253P0000161
123,0.707106781,-9.420554752E-16,-0.707106781;                   0000255P0000162
508,4,0,19,2,0,0,0,19,14,1,0,0,19,37,1,0,0,19,36,0,0;            0000257P0000163
510,261,1,1,269;                                                 0000259P0000164
192,263,265,1.18,267;                                            0000261P0000165
116,10.5,9.992007222E-15,7.5,0;                                  0000263P0000166
123,0.,1.,-1.33226763E-15;                                       0000265P0000167
123,1.,0.,0.;                                                    0000267P0000168
508,4,0,19,10,1,1,0,271,0,19,38,1,1,0,273,0,19,39,1,1,0,275,0,   0000269P0000169
19,38,0,1,0,277;                                                 0000269P0000170
110,0.,0.,0.,-360.,0.,0.;                                        0000271P0000171
110,-360.,0.,0.,-360.,-4.25,0.;                                  0000273P0000172
110,-360.,-4.25,0.,2.273736754E-13,-4.25,0.;                     0000275P0000173
110,0.,-4.25,0.,0.,0.,0.;                                        0000277P0000174
510,281,1,1,289;                                                 0000279P0000175
194,283,285,1.18,45.,287;                                        0000281P0000176
116,2.5,-0.8,12.5,0;                                             0000283P0000177
123,0.,1.,-1.33226763E-15;                                       0000285P0000178
123,1.,0.,0.;                                                    0000287P0000179
508,4,0,19,40,0,1,0,291,0,19,11,1,1,0,293,0,19,40,1,1,0,295,0,   0000289P0000180
19,41,0,1,0,297;                                                 0000289P0000181
110,0.,0.,0.,0.,1.13137085,0.;                                   0000291P0000182
110,0.,1.13137085,0.,-360.,1.13137085,0.;                        0000293P0000183
110,-360.,1.13137085,0.,-360.,0.,0.;                             0000295P0000184
110,-360.,0.,0.,0.,0.,0.;                                        0000297P0000185
510,301,1,1,309;                                                 0000299P0000186
192,303,305,1.18,307;                                            0000301P0000187
116,2.5,3.330669074E-15,2.5,0;                                   0000303P0000188
123,0.,1.,-1.33226763E-15;                                       0000305P0000189
123,1.,0.,0.;                                                    0000307P0000190
508,4,0,19,42,0,1,0,311,0,19,13,1,1,0,313,0,19,42,1,1,0,315,0,   0000309P0000191
19,43,0,1,0,317;                                                 0000309P0000192
110,0.,-4.5,-0.,0.,-0.8,-0.;                                     0000311P0000193
110,1.694940018E-29,-0.8,0.,-360.,-0.8,0.;                       0000313P0000194
110,-360.,-0.8,0.,-360.,-4.5,0.;                                 0000315P0000195
110,-360.,-4.5,0.,0.,-4.5,0.;                                    0000317P0000196
510,321,3,1,329,331,333;                                         0000319P0000197
190,323,325,327;                                                 0000321P0000198
116,9.,-4.5,15.,0;                                               0000323P0000199
123,0.,1.,-1.33226763E-15;                                       0000325P0000200
123,0.,1.33226763E-15,1.;                                        0000327P0000201
508,6,0,19,19,0,0,0,19,44,1,0,0,19,27,0,0,0,19,25,0,0,0,19,23,0, 0000329P0000202
0,0,19,21,0,0;                                                   0000329P0000203
508,1,0,19,43,1,0;                                               0000331P0000204
508,1,0,19,45,1,0;                                               0000333P0000205
510,337,1,1,345;                                                 0000335P0000206
190,339,341,343;                                                 0000337P0000207
116,4.375,-4.5,15.,0;                                            0000339P0000208
123,1.,0.,0.;                                                    0000341P0000209
123,0.,1.,-1.110223025E-15;                                      0000343P0000210
508,4,0,19,18,0,0,0,19,44,1,0,0,19,28,1,0,0,19,46,0,0;           0000345P0000211
510,349,1,1,357;                                                 0000347P0000212
190,351,353,355;                                                 0000349P0000213
116,4.375,-2.5,15.,0;                                            0000351P0000214
123,0.,-1.,1.110223025E-15;                                      0000353P0000215
123,1.,0.,0.;                                                    0000355P0000216
508,4,0,19,17,0,0,0,19,46,1,0,0,19,29,1,0,0,19,47,0,0;           0000357P0000217
510,361,1,1,369;                                                 0000359P0000218
190,363,365,367;                                                 0000361P0000219
116,8.625,-2.5,15.,0;                                            0000363P0000220
123,-1.,0.,0.;                                                   0000365P0000221
123,0.,-1.,1.110223025E-15;                                      0000367P0000222
508,4,0,19,16,0,0,0,19,47,1,0,0,19,30,1,0,0,19,48,0,0;           0000369P0000223
510,373,2,1,381,383;                                             0000371P0000224
190,375,377,379;                                                 0000373P0000225
116,8.625,-4.25,15.,0;                                           0000375P0000226
123,0.,-1.,1.110223025E-15;                                      0000377P0000227
123,1.,0.,0.;                                                    0000379P0000228
508,1,0,19,39,1,0;                                               0000381P0000229
508,6,0,19,15,0,0,0,19,48,1,0,0,19,31,1,0,0,19,33,1,0,0,19,35,0, 0000383P0000230
0,0,19,37,0,0;                                                   0000383P0000231
510,387,1,1,395;                                                 0000385P0000232
192,389,391,1.18,393;                                            0000387P0000233
116,2.5,1.665334537E-14,12.5,0;                                  0000389P0000234
123,0.,1.,-1.33226763E-15;                                       0000391P0000235
123,1.,0.,0.;                                                    0000393P0000236
508,4,0,19,49,0,1,0,397,0,19,41,1,1,0,399,0,19,49,1,1,0,401,0,   0000395P0000237
19,45,0,1,0,403;                                                 0000395P0000238
110,0.,-4.5,-0.,0.,-0.8,-0.;                                     0000397P0000239
110,0.,-0.8,0.,-360.,-0.8,0.;                                    0000399P0000240
110,-360.,-0.8,0.,-360.,-4.5,0.;                                 0000401P0000241
110,-360.,-4.5,0.,0.,-4.5,0.;                                    0000403P0000242
S      1G      4D    404P    242                                        T0000001
