                                                                        S0000001
,,31HOpen CASCADE IGES processor 7.5,13HFilename.iges,                  G0000001
16HOpen CASCADE 7.5,31HOpen CASCADE IGES processor 7.5,32,308,15,308,15,G0000002
,1.,2,2HMM,1,0.01,15H20220315.111239,1E-07,56.,,,11,0,                  G0000003
15H20220315.111239,;                                                    G0000004
     402       1       0       0       0       0       0       000000000D0000001
     402       0       0       1       1                               0D0000002
     186       2       0       0       0       0       0       000020000D0000003
     186       0       0       1       0                               0D0000004
     514       3       0       0       0       0       0       000010000D0000005
     514       0       0       1       1                               0D0000006
     510       4       0       0       0       0       0       000010000D0000007
     510       0       0       1       1                               0D0000008
     192       5       0       0       0       0       0       000010000D0000009
     192       0       0       1       1                               0D0000010
     116       6       0       0       0       0       0       000010400D0000011
     116       0       0       1       0                               0D0000012
     123       7       0       0       0       0       0       000010200D0000013
     123       0       0       1       0                               0D0000014
     123       8       0       0       0       0       0       000010200D0000015
     123       0       0       1       0                               0D0000016
     508       9       0       0       0       0       0       000010000D0000017
     508       0       0       2       1                               0D0000018
     504      11       0       0       0       0       0       000010001D0000019
     504       0       0       2       1                               0D0000020
     110      13       0       0       0       0       0       000010000D0000021
     110       0       0       1       0                               0D0000022
     502      14       0       0       0       0       0       000010000D0000023
     502       0       0       2       1                               0D0000024
     100      16       0       0       0       0      27       000010000D0000025
     100       0       0       1       0                               0D0000026
     124      17       0       0       0       0       0       000000000D0000027
     124       0       0       1       0                               0D0000028
     100      18       0       0       0       0      31       000010000D0000029
     100       0       0       1       0                               0D0000030
     124      19       0       0       0       0       0       000000000D0000031
     124       0       0       1       0                               0D0000032
     110      20       0       0       0       0       0       000010000D0000033
     110       0       0       1       0                               0D0000034
     100      21       0       0       0       0      37       000010000D0000035
     100       0       0       1       0                               0D0000036
     124      22       0       0       0       0       0       000000000D0000037
     124       0       0       1       0                               0D0000038
     100      23       0       0       0       0      41       000010000D0000039
     100       0       0       1       0                               0D0000040
     124      24       0       0       0       0       0       000000000D0000041
     124       0       0       1       0                               0D0000042
     110      25       0       0       0       0       0       000010000D0000043
     110       0       0       1       0                               0D0000044
     100      26       0       0       0       0      47       000010000D0000045
     100       0       0       1       0                               0D0000046
     124      27       0       0       0       0       0       000000000D0000047
     124       0       0       1       0                               0D0000048
     100      28       0       0       0       0      51       000010000D0000049
     100       0       0       1       0                               0D0000050
     124      29       0       0       0       0       0       000000000D0000051
     124       0       0       1       0                               0D0000052
     110      30       0       0       0       0       0       000010000D0000053
     110       0       0       1       0                               0D0000054
     110      31       0       0       0       0       0       000010000D0000055
     110       0       0       1       0                               0D0000056
     110      32       0       0       0       0       0       000010000D0000057
     110       0       0       1       0                               0D0000058
     110      33       0       0       0       0       0       000010000D0000059
     110       0       0       1       0                               0D0000060
     510      34       0       0       0       0       0       000010000D0000061
     510       0       0       1       1                               0D0000062
     190      35       0       0       0       0       0       000010000D0000063
     190       0       0       1       1                               0D0000064
     116      36       0       0       0       0       0       000010400D0000065
     116       0       0       1       0                               0D0000066
     123      37       0       0       0       0       0       000010200D0000067
     123       0       0       1       0                               0D0000068
     123      38       0       0       0       0       0       000010200D0000069
     123       0       0       1       0                               0D0000070
     508      39       0       0       0       0       0       000010000D0000071
     508       0       0       1       1                               0D0000072
     510      40       0       0       0       0       0       000010000D0000073
     510       0       0       1       1                               0D0000074
     190      41       0       0       0       0       0       000010000D0000075
     190       0       0       1       1                               0D0000076
     116      42       0       0       0       0       0       000010400D0000077
     116       0       0       1       0                               0D0000078
     123      43       0       0       0       0       0       000010200D0000079
     123       0       0       1       0                               0D0000080
     123      44       0       0       0       0       0       000010200D0000081
     123       0       0       1       0                               0D0000082
     508      45       0       0       0       0       0       000010000D0000083
     508       0       0       1       1                               0D0000084
     186      46       0       0       0       0       0       000020000D0000085
     186       0       0       1       0                               0D0000086
     514      47       0       0       0       0       0       000010000D0000087
     514       0       0       1       1                               0D0000088
     510      48       0       0       0       0       0       000010000D0000089
     510       0       0       1       1                               0D0000090
     192      49       0       0       0       0       0       000010000D0000091
     192       0       0       1       1                               0D0000092
     116      50       0       0       0       0       0       000010400D0000093
     116       0       0       1       0                               0D0000094
     123      51       0       0       0       0       0       000010200D0000095
     123       0       0       1       0                               0D0000096
     123      52       0       0       0       0       0       000010200D0000097
     123       0       0       1       0                               0D0000098
     508      53       0       0       0       0       0       000010000D0000099
     508       0       0       2       1                               0D0000100
     110      55       0       0       0       0       0       000010000D0000101
     110       0       0       1       0                               0D0000102
     110      56       0       0       0       0       0       000010000D0000103
     110       0       0       1       0                               0D0000104
     110      57       0       0       0       0       0       000010000D0000105
     110       0       0       1       0                               0D0000106
     110      58       0       0       0       0       0       000010000D0000107
     110       0       0       1       0                               0D0000108
     510      59       0       0       0       0       0       000010000D0000109
     510       0       0       1       1                               0D0000110
     190      60       0       0       0       0       0       000010000D0000111
     190       0       0       1       1                               0D0000112
     116      61       0       0       0       0       0       000010400D0000113
     116       0       0       1       0                               0D0000114
     123      62       0       0       0       0       0       000010200D0000115
     123       0       0       1       0                               0D0000116
     123      63       0       0       0       0       0       000010200D0000117
     123       0       0       1       0                               0D0000118
     508      64       0       0       0       0       0       000010000D0000119
     508       0       0       1       1                               0D0000120
     510      65       0       0       0       0       0       000010000D0000121
     510       0       0       1       1                               0D0000122
     190      66       0       0       0       0       0       000010000D0000123
     190       0       0       1       1                               0D0000124
     116      67       0       0       0       0       0       000010400D0000125
     116       0       0       1       0                               0D0000126
     123      68       0       0       0       0       0       000010200D0000127
     123       0       0       1       0                               0D0000128
     123      69       0       0       0       0       0       000010200D0000129
     123       0       0       1       0                               0D0000130
     508      70       0       0       0       0       0       000010000D0000131
     508       0       0       1       1                               0D0000132
     186      71       0       0       0       0       0       000020000D0000133
     186       0       0       1       0                               0D0000134
     514      72       0       0       0       0       0       000010000D0000135
     514       0       0       1       1                               0D0000136
     510      73       0       0       0       0       0       000010000D0000137
     510       0       0       1       1                               0D0000138
     192      74       0       0       0       0       0       000010000D0000139
     192       0       0       1       1                               0D0000140
     116      75       0       0       0       0       0       000010400D0000141
     116       0       0       1       0                               0D0000142
     123      76       0       0       0       0       0       000010200D0000143
     123       0       0       1       0                               0D0000144
     123      77       0       0       0       0       0       000010200D0000145
     123       0       0       1       0                               0D0000146
     508      78       0       0       0       0       0       000010000D0000147
     508       0       0       2       1                               0D0000148
     110      80       0       0       0       0       0       000010000D0000149
     110       0       0       1       0                               0D0000150
     110      81       0       0       0       0       0       000010000D0000151
     110       0       0       1       0                               0D0000152
     110      82       0       0       0       0       0       000010000D0000153
     110       0       0       1       0                               0D0000154
     110      83       0       0       0       0       0       000010000D0000155
     110       0       0       1       0                               0D0000156
     510      84       0       0       0       0       0       000010000D0000157
     510       0       0       1       1                               0D0000158
     190      85       0       0       0       0       0       000010000D0000159
     190       0       0       1       1                               0D0000160
     116      86       0       0       0       0       0       000010400D0000161
     116       0       0       1       0                               0D0000162
     123      87       0       0       0       0       0       000010200D0000163
     123       0       0       1       0                               0D0000164
     123      88       0       0       0       0       0       000010200D0000165
     123       0       0       1       0                               0D0000166
     508      89       0       0       0       0       0       000010000D0000167
     508       0       0       1       1                               0D0000168
     510      90       0       0       0       0       0       000010000D0000169
     510       0       0       1       1                               0D0000170
     190      91       0       0       0       0       0       000010000D0000171
     190       0       0       1       1                               0D0000172
     116      92       0       0       0       0       0       000010400D0000173
     116       0       0       1       0                               0D0000174
     123      93       0       0       0       0       0       000010200D0000175
     123       0       0       1       0                               0D0000176
     123      94       0       0       0       0       0       000010200D0000177
     123       0       0       1       0                               0D0000178
     508      95       0       0       0       0       0       000010000D0000179
     508       0       0       1       1                               0D0000180
402,3,3,85,133;                                                  0000001P0000001
186,5,1,0;                                                       0000003P0000002
514,3,7,1,61,1,73,0;                                             0000005P0000003
510,9,1,1,17;                                                    0000007P0000004
192,11,13,0.76,15;                                               0000009P0000005
116,12.55,6.8,0.,0;                                              0000011P0000006
123,-0.,-0.,-1.;                                                 0000013P0000007
123,1.,0.,0.;                                                    0000015P0000008
508,4,0,19,1,0,1,0,53,0,19,2,1,1,0,55,0,19,1,1,1,0,57,0,19,3,0,  0000017P0000009
1,0,59;                                                          0000017P0000010
504,9,21,23,1,23,2,25,23,1,23,1,29,23,2,23,2,33,23,3,23,4,35,23, 0000019P0000011
3,23,3,39,23,4,23,4,43,23,5,23,6,45,23,5,23,5,49,23,6,23,6;      0000019P0000012
110,13.31,6.8,0.,13.31,6.8,56.;                                  0000021P0000013
502,6,13.31,6.8,0.,13.31,6.8,56.,5.21,6.8,0.,5.21,6.8,56.,9.26,  0000023P0000014
0.8,0.,9.26,0.8,56.;                                             0000023P0000015
100,0.,0.,0.,0.76,0.,0.76,0.;                                    0000025P0000016
124,1.,0.,0.,12.55,0.,1.,0.,6.8,0.,0.,1.,0.;                     0000027P0000017
100,0.,0.,0.,0.76,0.,0.76,0.;                                    0000029P0000018
124,1.,0.,0.,12.55,0.,1.,0.,6.8,0.,0.,1.,56.;                    0000031P0000019
110,5.21,6.8,0.,5.21,6.8,56.;                                    0000033P0000020
100,0.,0.,0.,0.76,0.,0.76,0.;                                    0000035P0000021
124,1.,0.,0.,4.45,0.,1.,0.,6.8,0.,0.,1.,0.;                      0000037P0000022
100,0.,0.,0.,0.76,0.,0.76,0.;                                    0000039P0000023
124,1.,0.,0.,4.45,0.,1.,0.,6.8,0.,0.,1.,56.;                     0000041P0000024
110,9.26,0.8,0.,9.26,0.8,56.;                                    0000043P0000025
100,0.,0.,0.,0.76,0.,0.76,0.;                                    0000045P0000026
124,1.,0.,0.,8.5,0.,1.,0.,0.8,0.,0.,1.,0.;                       0000047P0000027
100,0.,0.,0.,0.76,0.,0.76,0.;                                    0000049P0000028
124,1.,0.,0.,8.5,0.,1.,0.,0.8,0.,0.,1.,56.;                      0000051P0000029
110,0.,-56.,0.,0.,0.,0.;                                         0000053P0000030
110,0.,0.,0.,-360.,0.,0.;                                        0000055P0000031
110,-360.,0.,0.,-360.,-56.,0.;                                   0000057P0000032
110,-360.,-56.,0.,0.,-56.,0.;                                    0000059P0000033
510,63,1,1,71;                                                   0000061P0000034
190,65,67,69;                                                    0000063P0000035
116,13.31,6.8,0.,0;                                              0000065P0000036
123,0.,0.,-1.;                                                   0000067P0000037
123,-1.,0.,0.;                                                   0000069P0000038
508,1,0,19,2,0,0;                                                0000071P0000039
510,75,1,1,83;                                                   0000073P0000040
190,77,79,81;                                                    0000075P0000041
116,13.31,6.8,56.,0;                                             0000077P0000042
123,0.,0.,-1.;                                                   0000079P0000043
123,-1.,0.,0.;                                                   0000081P0000044
508,1,0,19,3,0,0;                                                0000083P0000045
186,87,1,0;                                                      0000085P0000046
514,3,89,1,109,1,121,0;                                          0000087P0000047
510,91,1,1,99;                                                   0000089P0000048
192,93,95,0.76,97;                                               0000091P0000049
116,4.45,6.8,0.,0;                                               0000093P0000050
123,-0.,-0.,-1.;                                                 0000095P0000051
123,1.,0.,0.;                                                    0000097P0000052
508,4,0,19,4,0,1,0,101,0,19,5,1,1,0,103,0,19,4,1,1,0,105,0,19,6, 0000099P0000053
0,1,0,107;                                                       0000099P0000054
110,0.,-56.,0.,0.,0.,0.;                                         0000101P0000055
110,0.,0.,0.,-360.,0.,0.;                                        0000103P0000056
110,-360.,0.,0.,-360.,-56.,0.;                                   0000105P0000057
110,-360.,-56.,0.,0.,-56.,0.;                                    0000107P0000058
510,111,1,1,119;                                                 0000109P0000059
190,113,115,117;                                                 0000111P0000060
116,5.21,6.8,0.,0;                                               0000113P0000061
123,0.,0.,-1.;                                                   0000115P0000062
123,-1.,0.,0.;                                                   0000117P0000063
508,1,0,19,5,0,0;                                                0000119P0000064
510,123,1,1,131;                                                 0000121P0000065
190,125,127,129;                                                 0000123P0000066
116,5.21,6.8,56.,0;                                              0000125P0000067
123,0.,0.,-1.;                                                   0000127P0000068
123,-1.,0.,0.;                                                   0000129P0000069
508,1,0,19,6,0,0;                                                0000131P0000070
186,135,1,0;                                                     0000133P0000071
514,3,137,1,157,1,169,0;                                         0000135P0000072
510,139,1,1,147;                                                 0000137P0000073
192,141,143,0.76,145;                                            0000139P0000074
116,8.5,0.8,0.,0;                                                0000141P0000075
123,-0.,-0.,-1.;                                                 0000143P0000076
123,1.,0.,0.;                                                    0000145P0000077
508,4,0,19,7,0,1,0,149,0,19,8,1,1,0,151,0,19,7,1,1,0,153,0,19,9, 0000147P0000078
0,1,0,155;                                                       0000147P0000079
110,0.,-56.,0.,0.,0.,0.;                                         0000149P0000080
110,0.,0.,0.,-360.,0.,0.;                                        0000151P0000081
110,-360.,0.,0.,-360.,-56.,0.;                                   0000153P0000082
110,-360.,-56.,0.,0.,-56.,0.;                                    0000155P0000083
510,159,1,1,167;                                                 0000157P0000084
190,161,163,165;                                                 0000159P0000085
116,9.26,0.8,0.,0;                                               0000161P0000086
123,0.,0.,-1.;                                                   0000163P0000087
123,-1.,0.,0.;                                                   0000165P0000088
508,1,0,19,8,0,0;                                                0000167P0000089
510,171,1,1,179;                                                 0000169P0000090
190,173,175,177;                                                 0000171P0000091
116,9.26,0.8,56.,0;                                              0000173P0000092
123,0.,0.,-1.;                                                   0000175P0000093
123,-1.,0.,0.;                                                   0000177P0000094
508,1,0,19,9,0,0;                                                0000179P0000095
S      1G      4D    180P     95                                        T0000001
