                                                                        S0000001
,,31HOpen CASCADE IGES processor 7.5,13HFilename.iges,                  G0000001
16HOpen CASCADE 7.5,31HOpen CASCADE IGES processor 7.5,32,308,15,308,15,G0000002
,1.,2,2HMM,1,0.01,15H20220315.111239,1.85026E-05,36.161667,,,11,0,      G0000003
15H20220315.111239,;                                                    G0000004
     402       1       0       0       0       0       0       000000000D0000001
     402       0       0       1       1                               0D0000002
     186       2       0       0       0       0       0       000020000D0000003
     186       0       0       1       0                               0D0000004
     514       3       0       0       0       0       0       000010000D0000005
     514       0       0       2       1                               0D0000006
     510       5       0       0       0       0       0       000010000D0000007
     510       0       0       1       1                               0D0000008
     190       6       0       0       0       0       0       000010000D0000009
     190       0       0       1       1                               0D0000010
     116       7       0       0       0       0       0       000010400D0000011
     116       0       0       1       0                               0D0000012
     123       8       0       0       0       0       0       000010200D0000013
     123       0       0       1       0                               0D0000014
     123       9       0       0       0       0       0       000010200D0000015
     123       0       0       1       0                               0D0000016
     508      10       0       0       0       0       0       000010000D0000017
     508       0       0       1       1                               0D0000018
     504      11       0       0       0       0       0       000010001D0000019
     504       0       0       9       1                               0D0000020
     100      20       0       0       0       0      23       000010000D0000021
     100       0       0       1       0                               0D0000022
     124      21       0       0       0       0       0       000000000D0000023
     124       0       0       1       0                               0D0000024
     502      22       0       0       0       0       0       000010000D0000025
     502       0       0       5       1                               0D0000026
     110      27       0       0       0       0       0       000010000D0000027
     110       0       0       1       0                               0D0000028
     110      28       0       0       0       0       0       000010000D0000029
     110       0       0       1       0                               0D0000030
     110      29       0       0       0       0       0       000010000D0000031
     110       0       0       1       0                               0D0000032
     110      30       0       0       0       0       0       000010000D0000033
     110       0       0       1       0                               0D0000034
     110      31       0       0       0       0       0       000010000D0000035
     110       0       0       1       0                               0D0000036
     100      32       0       0       0       0      39       000010000D0000037
     100       0       0       1       0                               0D0000038
     124      33       0       0       0       0       0       000000000D0000039
     124       0       0       1       0                               0D0000040
     100      34       0       0       0       0      43       000010000D0000041
     100       0       0       1       0                               0D0000042
     124      35       0       0       0       0       0       000000000D0000043
     124       0       0       1       0                               0D0000044
     110      36       0       0       0       0       0       000010000D0000045
     110       0       0       1       0                               0D0000046
     110      37       0       0       0       0       0       000010000D0000047
     110       0       0       1       0                               0D0000048
     110      38       0       0       0       0       0       000010000D0000049
     110       0       0       1       0                               0D0000050
     110      39       0       0       0       0       0       000010000D0000051
     110       0       0       1       0                               0D0000052
     110      40       0       0       0       0       0       000010000D0000053
     110       0       0       1       0                               0D0000054
     110      41       0       0       0       0       0       000010000D0000055
     110       0       0       1       0                               0D0000056
     110      42       0       0       0       0       0       000010000D0000057
     110       0       0       1       0                               0D0000058
     110      43       0       0       0       0       0       000010000D0000059
     110       0       0       1       0                               0D0000060
     110      44       0       0       0       0       0       000010000D0000061
     110       0       0       1       0                               0D0000062
     110      45       0       0       0       0       0       000010000D0000063
     110       0       0       1       0                               0D0000064
     110      46       0       0       0       0       0       000010000D0000065
     110       0       0       1       0                               0D0000066
     110      47       0       0       0       0       0       000010000D0000067
     110       0       0       1       0                               0D0000068
     110      48       0       0       0       0       0       000010000D0000069
     110       0       0       1       0                               0D0000070
     100      49       0       0       0       0      73       000010000D0000071
     100       0       0       1       0                               0D0000072
     124      50       0       0       0       0       0       000000000D0000073
     124       0       0       1       0                               0D0000074
     110      51       0       0       0       0       0       000010000D0000075
     110       0       0       1       0                               0D0000076
     110      52       0       0       0       0       0       000010000D0000077
     110       0       0       1       0                               0D0000078
     110      53       0       0       0       0       0       000010000D0000079
     110       0       0       1       0                               0D0000080
     110      54       0       0       0       0       0       000010000D0000081
     110       0       0       1       0                               0D0000082
     110      55       0       0       0       0       0       000010000D0000083
     110       0       0       1       0                               0D0000084
     110      56       0       0       0       0       0       000010000D0000085
     110       0       0       1       0                               0D0000086
     110      57       0       0       0       0       0       000010000D0000087
     110       0       0       1       0                               0D0000088
     110      58       0       0       0       0       0       000010000D0000089
     110       0       0       1       0                               0D0000090
     110      59       0       0       0       0       0       000010000D0000091
     110       0       0       1       0                               0D0000092
     110      60       0       0       0       0       0       000010000D0000093
     110       0       0       1       0                               0D0000094
     110      61       0       0       0       0       0       000010000D0000095
     110       0       0       1       0                               0D0000096
     110      62       0       0       0       0       0       000010000D0000097
     110       0       0       1       0                               0D0000098
     110      63       0       0       0       0       0       000010000D0000099
     110       0       0       1       0                               0D0000100
     100      64       0       0       0       0     103       000010000D0000101
     100       0       0       1       0                               0D0000102
     124      65       0       0       0       0       0       000000000D0000103
     124       0       0       1       0                               0D0000104
     110      66       0       0       0       0       0       000010000D0000105
     110       0       0       1       0                               0D0000106
     100      67       0       0       0       0     109       000010000D0000107
     100       0       0       1       0                               0D0000108
     124      68       0       0       0       0       0       000000000D0000109
     124       0       0       1       0                               0D0000110
     508      69       0       0       0       0       0       000010000D0000111
     508       0       0       1       1                               0D0000112
     510      70       0       0       0       0       0       000010000D0000113
     510       0       0       1       1                               0D0000114
     192      71       0       0       0       0       0       000010000D0000115
     192       0       0       1       1                               0D0000116
     116      72       0       0       0       0       0       000010400D0000117
     116       0       0       1       0                               0D0000118
     123      73       0       0       0       0       0       000010200D0000119
     123       0       0       1       0                               0D0000120
     123      74       0       0       0       0       0       000010200D0000121
     123       0       0       1       0                               0D0000122
     508      75       0       0       0       0       0       000010000D0000123
     508       0       0       2       1                               0D0000124
     110      77       0       0       0       0       0       000010000D0000125
     110       0       0       1       0                               0D0000126
     110      78       0       0       0       0       0       000010000D0000127
     110       0       0       1       0                               0D0000128
     110      79       0       0       0       0       0       000010000D0000129
     110       0       0       1       0                               0D0000130
     110      80       0       0       0       0       0       000010000D0000131
     110       0       0       1       0                               0D0000132
     110      81       0       0       0       0       0       000010000D0000133
     110       0       0       1       0                               0D0000134
     510      82       0       0       0       0       0       000010000D0000135
     510       0       0       1       1                               0D0000136
     190      83       0       0       0       0       0       000010000D0000137
     190       0       0       1       1                               0D0000138
     116      84       0       0       0       0       0       000010400D0000139
     116       0       0       1       0                               0D0000140
     123      85       0       0       0       0       0       000010200D0000141
     123       0       0       1       0                               0D0000142
     123      86       0       0       0       0       0       000010200D0000143
     123       0       0       1       0                               0D0000144
     508      87       0       0       0       0       0       000010000D0000145
     508       0       0       1       1                               0D0000146
     510      88       0       0       0       0       0       000010000D0000147
     510       0       0       1       1                               0D0000148
     190      89       0       0       0       0       0       000010000D0000149
     190       0       0       1       1                               0D0000150
     116      90       0       0       0       0       0       000010400D0000151
     116       0       0       1       0                               0D0000152
     123      91       0       0       0       0       0       000010200D0000153
     123       0       0       1       0                               0D0000154
     123      92       0       0       0       0       0       000010200D0000155
     123       0       0       1       0                               0D0000156
     508      93       0       0       0       0       0       000010000D0000157
     508       0       0       1       1                               0D0000158
     510      94       0       0       0       0       0       000010000D0000159
     510       0       0       1       1                               0D0000160
     190      95       0       0       0       0       0       000010000D0000161
     190       0       0       1       1                               0D0000162
     116      96       0       0       0       0       0       000010400D0000163
     116       0       0       1       0                               0D0000164
     123      97       0       0       0       0       0       000010200D0000165
     123       0       0       1       0                               0D0000166
     123      98       0       0       0       0       0       000010200D0000167
     123       0       0       1       0                               0D0000168
     508      99       0       0       0       0       0       000010000D0000169
     508       0       0       1       1                               0D0000170
     510     100       0       0       0       0       0       000010000D0000171
     510       0       0       1       1                               0D0000172
     190     101       0       0       0       0       0       000010000D0000173
     190       0       0       1       1                               0D0000174
     116     102       0       0       0       0       0       000010400D0000175
     116       0       0       1       0                               0D0000176
     123     103       0       0       0       0       0       000010200D0000177
     123       0       0       1       0                               0D0000178
     123     104       0       0       0       0       0       000010200D0000179
     123       0       0       1       0                               0D0000180
     508     105       0       0       0       0       0       000010000D0000181
     508       0       0       1       1                               0D0000182
     510     106       0       0       0       0       0       000010000D0000183
     510       0       0       1       1                               0D0000184
     190     107       0       0       0       0       0       000010000D0000185
     190       0       0       1       1                               0D0000186
     116     108       0       0       0       0       0       000010400D0000187
     116       0       0       1       0                               0D0000188
     123     109       0       0       0       0       0       000010200D0000189
     123       0       0       1       0                               0D0000190
     123     110       0       0       0       0       0       000010200D0000191
     123       0       0       1       0                               0D0000192
     508     111       0       0       0       0       0       000010000D0000193
     508       0       0       1       1                               0D0000194
     510     112       0       0       0       0       0       000010000D0000195
     510       0       0       1       1                               0D0000196
     192     113       0       0       0       0       0       000010000D0000197
     192       0       0       1       1                               0D0000198
     116     114       0       0       0       0       0       000010400D0000199
     116       0       0       1       0                               0D0000200
     123     115       0       0       0       0       0       000010200D0000201
     123       0       0       1       0                               0D0000202
     123     116       0       0       0       0       0       000010200D0000203
     123       0       0       1       0                               0D0000204
     508     117       0       0       0       0       0       000010000D0000205
     508       0       0       2       1                               0D0000206
     110     119       0       0       0       0       0       000010000D0000207
     110       0       0       1       0                               0D0000208
     110     120       0       0       0       0       0       000010000D0000209
     110       0       0       1       0                               0D0000210
     110     121       0       0       0       0       0       000010000D0000211
     110       0       0       1       0                               0D0000212
     110     122       0       0       0       0       0       000010000D0000213
     110       0       0       1       0                               0D0000214
     510     123       0       0       0       0       0       000010000D0000215
     510       0       0       1       1                               0D0000216
     190     124       0       0       0       0       0       000010000D0000217
     190       0       0       1       1                               0D0000218
     116     125       0       0       0       0       0       000010400D0000219
     116       0       0       1       0                               0D0000220
     123     126       0       0       0       0       0       000010200D0000221
     123       0       0       1       0                               0D0000222
     123     127       0       0       0       0       0       000010200D0000223
     123       0       0       1       0                               0D0000224
     508     128       0       0       0       0       0       000010000D0000225
     508       0       0       1       1                               0D0000226
     510     129       0       0       0       0       0       000010000D0000227
     510       0       0       1       1                               0D0000228
     190     130       0       0       0       0       0       000010000D0000229
     190       0       0       1       1                               0D0000230
     116     131       0       0       0       0       0       000010400D0000231
     116       0       0       1       0                               0D0000232
     123     132       0       0       0       0       0       000010200D0000233
     123       0       0       1       0                               0D0000234
     123     133       0       0       0       0       0       000010200D0000235
     123       0       0       1       0                               0D0000236
     508     134       0       0       0       0       0       000010000D0000237
     508       0       0       1       1                               0D0000238
     510     135       0       0       0       0       0       000010000D0000239
     510       0       0       1       1                               0D0000240
     190     136       0       0       0       0       0       000010000D0000241
     190       0       0       1       1                               0D0000242
     116     137       0       0       0       0       0       000010400D0000243
     116       0       0       1       0                               0D0000244
     123     138       0       0       0       0       0       000010200D0000245
     123       0       0       1       0                               0D0000246
     123     139       0       0       0       0       0       000010200D0000247
     123       0       0       1       0                               0D0000248
     508     140       0       0       0       0       0       000010000D0000249
     508       0       0       1       1                               0D0000250
     510     141       0       0       0       0       0       000010000D0000251
     510       0       0       1       1                               0D0000252
     190     142       0       0       0       0       0       000010000D0000253
     190       0       0       1       1                               0D0000254
     116     143       0       0       0       0       0       000010400D0000255
     116       0       0       1       0                               0D0000256
     123     144       0       0       0       0       0       000010200D0000257
     123       0       0       1       0                               0D0000258
     123     145       0       0       0       0       0       000010200D0000259
     123       0       0       1       0                               0D0000260
     508     146       0       0       0       0       0       000010000D0000261
     508       0       0       1       1                               0D0000262
     510     147       0       0       0       0       0       000010000D0000263
     510       0       0       1       1                               0D0000264
     190     148       0       0       0       0       0       000010000D0000265
     190       0       0       1       1                               0D0000266
     116     149       0       0       0       0       0       000010400D0000267
     116       0       0       1       0                               0D0000268
     123     150       0       0       0       0       0       000010200D0000269
     123       0       0       1       0                               0D0000270
     123     151       0       0       0       0       0       000010200D0000271
     123       0       0       1       0                               0D0000272
     508     152       0       0       0       0       0       000010000D0000273
     508       0       0       1       1                               0D0000274
     510     153       0       0       0       0       0       000010000D0000275
     510       0       0       1       1                               0D0000276
     190     154       0       0       0       0       0       000010000D0000277
     190       0       0       1       1                               0D0000278
     116     155       0       0       0       0       0       000010400D0000279
     116       0       0       1       0                               0D0000280
     123     156       0       0       0       0       0       000010200D0000281
     123       0       0       1       0                               0D0000282
     123     157       0       0       0       0       0       000010200D0000283
     123       0       0       1       0                               0D0000284
     508     158       0       0       0       0       0       000010000D0000285
     508       0       0       1       1                               0D0000286
     510     159       0       0       0       0       0       000010000D0000287
     510       0       0       1       1                               0D0000288
     190     160       0       0       0       0       0       000010000D0000289
     190       0       0       1       1                               0D0000290
     116     161       0       0       0       0       0       000010400D0000291
     116       0       0       1       0                               0D0000292
     123     162       0       0       0       0       0       000010200D0000293
     123       0       0       1       0                               0D0000294
     123     163       0       0       0       0       0       000010200D0000295
     123       0       0       1       0                               0D0000296
     508     164       0       0       0       0       0       000010000D0000297
     508       0       0       1       1                               0D0000298
     510     165       0       0       0       0       0       000010000D0000299
     510       0       0       1       1                               0D0000300
     190     166       0       0       0       0       0       000010000D0000301
     190       0       0       1       1                               0D0000302
     116     167       0       0       0       0       0       000010400D0000303
     116       0       0       1       0                               0D0000304
     123     168       0       0       0       0       0       000010200D0000305
     123       0       0       1       0                               0D0000306
     123     169       0       0       0       0       0       000010200D0000307
     123       0       0       1       0                               0D0000308
     508     170       0       0       0       0       0       000010000D0000309
     508       0       0       1       1                               0D0000310
     508     171       0       0       0       0       0       000010000D0000311
     508       0       0       1       1                               0D0000312
     510     172       0       0       0       0       0       000010000D0000313
     510       0       0       1       1                               0D0000314
     190     173       0       0       0       0       0       000010000D0000315
     190       0       0       1       1                               0D0000316
     116     174       0       0       0       0       0       000010400D0000317
     116       0       0       1       0                               0D0000318
     123     175       0       0       0       0       0       000010200D0000319
     123       0       0       1       0                               0D0000320
     123     176       0       0       0       0       0       000010200D0000321
     123       0       0       1       0                               0D0000322
     508     177       0       0       0       0       0       000010000D0000323
     508       0       0       1       1                               0D0000324
     510     178       0       0       0       0       0       000010000D0000325
     510       0       0       1       1                               0D0000326
     192     179       0       0       0       0       0       000010000D0000327
     192       0       0       1       1                               0D0000328
     116     180       0       0       0       0       0       000010400D0000329
     116       0       0       1       0                               0D0000330
     123     181       0       0       0       0       0       000010200D0000331
     123       0       0       1       0                               0D0000332
     123     182       0       0       0       0       0       000010200D0000333
     123       0       0       1       0                               0D0000334
     508     183       0       0       0       0       0       000010000D0000335
     508       0       0       2       1                               0D0000336
     110     185       0       0       0       0       0       000010000D0000337
     110       0       0       1       0                               0D0000338
     110     186       0       0       0       0       0       000010000D0000339
     110       0       0       1       0                               0D0000340
     110     187       0       0       0       0       0       000010000D0000341
     110       0       0       1       0                               0D0000342
     110     188       0       0       0       0       0       000010000D0000343
     110       0       0       1       0                               0D0000344
     510     189       0       0       0       0       0       000010000D0000345
     510       0       0       1       1                               0D0000346
     190     190       0       0       0       0       0       000010000D0000347
     190       0       0       1       1                               0D0000348
     116     191       0       0       0       0       0       000010400D0000349
     116       0       0       1       0                               0D0000350
     123     192       0       0       0       0       0       000010200D0000351
     123       0       0       1       0                               0D0000352
     123     193       0       0       0       0       0       000010200D0000353
     123       0       0       1       0                               0D0000354
     508     194       0       0       0       0       0       000010000D0000355
     508       0       0       1       1                               0D0000356
402,1,3;                                                         0000001P0000001
186,5,1,0;                                                       0000003P0000002
514,19,7,1,113,1,135,0,147,0,159,0,171,0,183,1,195,1,215,1,227,  0000005P0000003
1,239,1,251,1,263,0,275,0,287,0,299,0,313,0,325,0,345,0;         0000005P0000004
510,9,2,1,17,111;                                                0000007P0000005
190,11,13,15;                                                    0000009P0000006
116,8.,2.,0.,0;                                                  0000011P0000007
123,0.,0.,1.;                                                    0000013P0000008
123,1.,0.,0.;                                                    0000015P0000009
508,1,0,19,1,0,0;                                                0000017P0000010
504,38,21,25,1,25,1,27,25,2,25,3,29,25,4,25,2,31,25,5,25,4,33,   0000019P0000011
25,3,25,5,35,25,1,25,6,37,25,7,25,6,41,25,6,25,7,45,25,2,25,8,   0000019P0000012
47,25,8,25,9,49,25,3,25,9,51,25,9,25,10,53,25,5,25,10,55,25,10,  0000019P0000013
25,11,57,25,4,25,11,59,25,11,25,8,61,25,7,25,12,63,25,13,25,6,   0000019P0000014
65,25,12,25,13,67,25,6,25,14,69,25,7,25,15,71,25,14,25,15,75,25, 0000019P0000015
8,25,16,77,25,9,25,17,79,25,16,25,17,81,25,10,25,18,83,25,17,25, 0000019P0000016
18,85,25,11,25,19,87,25,18,25,19,89,25,19,25,16,91,25,15,25,20,  0000019P0000017
93,25,12,25,20,95,25,20,25,21,97,25,13,25,21,99,25,21,25,14,101, 0000019P0000018
25,22,25,22,105,25,22,25,23,107,25,23,25,23;                     0000019P0000019
100,0.,0.,0.,6.,0.,6.,0.;                                        0000021P0000020
124,1.,0.,0.,2.,0.,-1.,0.,2.,0.,0.,-1.,0.;                       0000023P0000021
502,23,8.,2.,0.,0.,0.,0.,4.,0.,0.,0.,4.,0.,4.,4.,0.,8.,2.,-3.,   0000025P0000022
-4.,2.,-3.,0.,-1.110223025E-15,34.5,4.,-1.110223025E-15,34.5,4., 0000025P0000023
4.,34.5,0.,4.,34.5,-4.,32.,-3.,8.,32.,-3.,8.,2.,-13.,-4.,2.,     0000025P0000024
-13.,1.5,1.5,36.,2.5,1.5,36.,2.5,2.5,36.,1.5,2.5,36.,-4.,32.,    0000025P0000025
-13.,8.,32.,-13.,5.,2.,-13.,5.,2.,-11.;                          0000025P0000026
110,0.,0.,0.,4.,0.,0.;                                           0000027P0000027
110,0.,4.,0.,0.,0.,0.;                                           0000029P0000028
110,4.,4.,0.,0.,4.,0.;                                           0000031P0000029
110,4.,0.,0.,4.,4.,0.;                                           0000033P0000030
110,8.,2.,0.,8.,2.,-3.;                                          0000035P0000031
100,0.,0.,0.,-6.,1.931788063E-14,6.,1.976196984E-14;             0000037P0000032
124,1.,0.,0.,2.,0.,-1.,0.,2.,0.,0.,-1.,-3.;                      0000039P0000033
100,0.,0.,0.,6.,0.,-6.,1.931788063E-14;                          0000041P0000034
124,1.,0.,0.,2.,0.,-1.,0.,2.,0.,0.,-1.,-3.;                      0000043P0000035
110,0.,0.,0.,0.,0.,34.5;                                         0000045P0000036
110,0.,0.,34.5,4.,0.,34.5;                                       0000047P0000037
110,4.,0.,0.,4.,0.,34.5;                                         0000049P0000038
110,4.,0.,34.5,4.,4.,34.5;                                       0000051P0000039
110,4.,4.,0.,4.,4.,34.5;                                         0000053P0000040
110,4.,4.,34.5,0.,4.,34.5;                                       0000055P0000041
110,0.,4.,0.,0.,4.,34.5;                                         0000057P0000042
110,0.,4.,34.5,0.,0.,34.5;                                       0000059P0000043
110,-4.,2.,-3.,-4.,32.,-3.;                                      0000061P0000044
110,8.,32.,-3.,8.,2.,-3.;                                        0000063P0000045
110,-4.,32.,-3.,8.,32.,-3.;                                      0000065P0000046
110,8.,2.,-3.,8.,2.,-13.;                                        0000067P0000047
110,-4.,2.,-3.,-4.,2.,-13.;                                      0000069P0000048
100,0.,0.,0.,6.,0.,-6.,1.931788063E-14;                          0000071P0000049
124,1.,0.,0.,2.,0.,-1.,0.,2.,0.,0.,-1.,-13.;                     0000073P0000050
110,1.110223025E-15,-6.661338148E-16,34.5,1.5,1.5,36.;           0000075P0000051
110,4.,1.110223025E-15,34.5,2.5,1.5,36.;                         0000077P0000052
110,1.5,1.5,36.,2.5,1.5,36.;                                     0000079P0000053
110,4.,4.,34.5,2.5,2.5,36.;                                      0000081P0000054
110,2.5,1.5,36.,2.5,2.5,36.;                                     0000083P0000055
110,-6.661338148E-16,4.,34.5,1.5,2.5,36.;                        0000085P0000056
110,2.5,2.5,36.,1.5,2.5,36.;                                     0000087P0000057
110,1.5,2.5,36.,1.5,1.5,36.;                                     0000089P0000058
110,-4.,2.,-13.,-4.,32.,-13.;                                    0000091P0000059
110,-4.,32.,-3.,-4.,32.,-13.;                                    0000093P0000060
110,-4.,32.,-13.,8.,32.,-13.;                                    0000095P0000061
110,8.,32.,-3.,8.,32.,-13.;                                      0000097P0000062
110,8.,32.,-13.,8.,2.,-13.;                                      0000099P0000063
100,0.,0.,0.,3.,0.,3.,0.;                                        0000101P0000064
124,1.,0.,0.,2.,0.,-1.,0.,2.,0.,0.,-1.,-13.;                     0000103P0000065
110,5.,2.,-13.,5.,2.,-11.;                                       0000105P0000066
100,0.,0.,0.,3.,0.,3.,0.;                                        0000107P0000067
124,1.,0.,0.,2.,0.,-1.,0.,2.,0.,0.,-1.,-11.;                     0000109P0000068
508,4,0,19,2,0,0,0,19,3,0,0,0,19,4,0,0,0,19,5,0,0;               0000111P0000069
510,115,1,1,123;                                                 0000113P0000070
192,117,119,6.,121;                                              0000115P0000071
116,2.,2.,0.,0;                                                  0000117P0000072
123,0.,0.,1.;                                                    0000119P0000073
123,1.,0.,0.;                                                    0000121P0000074
508,5,0,19,1,1,1,0,125,0,19,6,1,1,0,127,0,19,7,0,1,0,129,0,19,8, 0000123P0000075
0,1,0,131,0,19,6,0,1,0,133;                                      0000123P0000076
110,0.,0.,0.,-360.,0.,0.;                                        0000125P0000077
110,-360.,0.,0.,-360.,-3.,0.;                                    0000127P0000078
110,-360.,-3.,0.,-180.,-3.,0.;                                   0000129P0000079
110,-180.,-3.,0.,0.,-3.,0.;                                      0000131P0000080
110,0.,-3.,0.,0.,0.,0.;                                          0000133P0000081
510,137,1,1,145;                                                 0000135P0000082
190,139,141,143;                                                 0000137P0000083
116,0.,0.,0.,0;                                                  0000139P0000084
123,0.,1.,0.;                                                    0000141P0000085
123,1.,0.,0.;                                                    0000143P0000086
508,4,0,19,9,1,0,0,19,10,1,0,0,19,11,0,0,0,19,2,0,0;             0000145P0000087
510,149,1,1,157;                                                 0000147P0000088
190,151,153,155;                                                 0000149P0000089
116,4.,0.,0.,0;                                                  0000151P0000090
123,-1.,0.,0.;                                                   0000153P0000091
123,0.,1.,0.;                                                    0000155P0000092
508,4,0,19,11,1,0,0,19,12,1,0,0,19,13,0,0,0,19,5,0,0;            0000157P0000093
510,161,1,1,169;                                                 0000159P0000094
190,163,165,167;                                                 0000161P0000095
116,4.,4.,0.,0;                                                  0000163P0000096
123,0.,-1.,0.;                                                   0000165P0000097
123,-1.,0.,0.;                                                   0000167P0000098
508,4,0,19,13,1,0,0,19,14,1,0,0,19,15,0,0,0,19,4,0,0;            0000169P0000099
510,173,1,1,181;                                                 0000171P0000100
190,175,177,179;                                                 0000173P0000101
116,0.,4.,0.,0;                                                  0000175P0000102
123,1.,0.,0.;                                                    0000177P0000103
123,0.,-1.,0.;                                                   0000179P0000104
508,4,0,19,15,1,0,0,19,16,1,0,0,19,9,0,0,0,19,3,0,0;             0000181P0000105
510,185,1,1,193;                                                 0000183P0000106
190,187,189,191;                                                 0000185P0000107
116,-4.,2.,-3.,0;                                                0000187P0000108
123,0.,0.,1.;                                                    0000189P0000109
123,1.,0.,0.;                                                    0000191P0000110
508,4,0,19,17,0,0,0,19,7,1,0,0,19,18,0,0,0,19,19,0,0;            0000193P0000111
510,197,1,1,205;                                                 0000195P0000112
192,199,201,6.,203;                                              0000197P0000113
116,2.,2.,-3.,0;                                                 0000199P0000114
123,0.,0.,1.;                                                    0000201P0000115
123,1.,0.,0.;                                                    0000203P0000116
508,4,0,19,20,0,1,0,207,0,19,8,1,1,0,209,0,19,21,1,1,0,211,0,19, 0000205P0000117
22,0,1,0,213;                                                    0000205P0000118
110,0.,-10.,0.,0.,0.,0.;                                         0000207P0000119
110,0.,0.,0.,-180.,0.,0.;                                        0000209P0000120
110,-180.,0.,0.,-180.,-10.,0.;                                   0000211P0000121
110,-180.,-10.,0.,0.,-10.,0.;                                    0000213P0000122
510,217,1,1,225;                                                 0000215P0000123
190,219,221,223;                                                 0000217P0000124
116,0.,0.75,35.25,0;                                             0000219P0000125
123,0.,-0.707106781,0.707106781;                                 0000221P0000126
123,1.,0.,0.;                                                    0000223P0000127
508,4,0,19,23,0,0,0,19,10,1,0,0,19,24,1,0,0,19,25,0,0;           0000225P0000128
510,229,1,1,237;                                                 0000227P0000129
190,231,233,235;                                                 0000229P0000130
116,3.25,0.,35.25,0;                                             0000231P0000131
123,0.707106781,0.,0.707106781;                                  0000233P0000132
123,0.,1.,0.;                                                    0000235P0000133
508,4,0,19,24,0,0,0,19,12,1,0,0,19,26,1,0,0,19,27,0,0;           0000237P0000134
510,241,1,1,249;                                                 0000239P0000135
190,243,245,247;                                                 0000241P0000136
116,4.,3.25,35.25,0;                                             0000243P0000137
123,0.,0.707106781,0.707106781;                                  0000245P0000138
123,-1.,0.,0.;                                                   0000247P0000139
508,4,0,19,26,0,0,0,19,14,1,0,0,19,28,1,0,0,19,29,0,0;           0000249P0000140
510,253,1,1,261;                                                 0000251P0000141
190,255,257,259;                                                 0000253P0000142
116,0.75,4.,35.25,0;                                             0000255P0000143
123,-0.707106781,0.,0.707106781;                                 0000257P0000144
123,0.,-1.,0.;                                                   0000259P0000145
508,4,0,19,28,0,0,0,19,16,1,0,0,19,23,1,0,0,19,30,0,0;           0000261P0000146
510,265,1,1,273;                                                 0000263P0000147
190,267,269,271;                                                 0000265P0000148
116,-4.,2.,-3.,0;                                                0000267P0000149
123,1.,0.,0.;                                                    0000269P0000150
123,0.,1.,0.;                                                    0000271P0000151
508,4,0,19,21,1,0,0,19,31,1,0,0,19,32,0,0,0,19,17,0,0;           0000273P0000152
510,277,1,1,285;                                                 0000275P0000153
190,279,281,283;                                                 0000277P0000154
116,-4.,32.,-3.,0;                                               0000279P0000155
123,0.,-1.,0.;                                                   0000281P0000156
123,1.,0.,0.;                                                    0000283P0000157
508,4,0,19,32,1,0,0,19,33,1,0,0,19,34,0,0,0,19,19,0,0;           0000285P0000158
510,289,1,1,297;                                                 0000287P0000159
190,291,293,295;                                                 0000289P0000160
116,8.,32.,-3.,0;                                                0000291P0000161
123,-1.,-0.,-0.;                                                 0000293P0000162
123,0.,-1.,0.;                                                   0000295P0000163
508,4,0,19,34,1,0,0,19,35,1,0,0,19,20,0,0,0,19,18,0,0;           0000297P0000164
510,301,2,1,309,311;                                             0000299P0000165
190,303,305,307;                                                 0000301P0000166
116,-4.,2.,-13.,0;                                               0000303P0000167
123,0.,0.,1.;                                                    0000305P0000168
123,1.,0.,0.;                                                    0000307P0000169
508,4,0,19,31,0,0,0,19,22,0,0,0,19,35,0,0,0,19,33,0,0;           0000309P0000170
508,1,0,19,36,1,0;                                               0000311P0000171
510,315,1,1,323;                                                 0000313P0000172
190,317,319,321;                                                 0000315P0000173
116,0.,0.,36.,0;                                                 0000317P0000174
123,0.,0.,-1.;                                                   0000319P0000175
123,-1.,0.,0.;                                                   0000321P0000176
508,4,0,19,25,0,0,0,19,30,0,0,0,19,29,0,0,0,19,27,0,0;           0000323P0000177
510,327,1,1,335;                                                 0000325P0000178
192,329,331,3.,333;                                              0000327P0000179
116,2.,2.,-13.,0;                                                0000329P0000180
123,0.,0.,-1.;                                                   0000331P0000181
123,1.,0.,0.;                                                    0000333P0000182
508,4,0,19,36,0,1,0,337,0,19,37,1,1,0,339,0,19,38,1,1,0,341,0,   0000335P0000183
19,37,0,1,0,343;                                                 0000335P0000184
110,360.,0.,0.,0.,0.,0.;                                         0000337P0000185
110,0.,0.,0.,0.,-2.,0.;                                          0000339P0000186
110,0.,-2.,0.,360.,-2.,0.;                                       0000341P0000187
110,360.,-2.,0.,360.,0.,0.;                                      0000343P0000188
510,347,1,1,355;                                                 0000345P0000189
190,349,351,353;                                                 0000347P0000190
116,5.,2.,-11.,0;                                                0000349P0000191
123,0.,0.,1.;                                                    0000351P0000192
123,1.,0.,0.;                                                    0000353P0000193
508,1,0,19,38,0,0;                                               0000355P0000194
S      1G      4D    356P    194                                        T0000001
