                                                                        S0000001
,,31HOpen CASCADE IGES processor 7.5,13HFilename.iges,                  G0000001
16HOpen CASCADE 7.5,31HOpen CASCADE IGES processor 7.5,32,308,15,308,15,G0000002
,1.,2,2HMM,1,0.01,15H20220421.133749,1E-07,50.138868,,,11,0,            G0000003
15H20220421.133749,;                                                    G0000004
     402       1       0       0       0       0       0       000000000D0000001
     402       0       0       1       1                               0D0000002
     186       2       0       0       0       0       0       000020000D0000003
     186       0       0       1       0                               0D0000004
     514       3       0       0       0       0       0       000010000D0000005
     514       0       0       2       1                               0D0000006
     510       5       0       0       0       0       0       000010000D0000007
     510       0       0       1       1                               0D0000008
     190       6       0       0       0       0       0       000010000D0000009
     190       0       0       1       1                               0D0000010
     116       7       0       0       0       0       0       000010400D0000011
     116       0       0       1       0                               0D0000012
     123       8       0       0       0       0       0       000010200D0000013
     123       0       0       1       0                               0D0000014
     123       9       0       0       0       0       0       000010200D0000015
     123       0       0       1       0                               0D0000016
     508      10       0       0       0       0       0       000010000D0000017
     508       0       0       1       1                               0D0000018
     504      11       0       0       0       0       0       000010001D0000019
     504       0       0       7       1                               0D0000020
     100      18       0       0       0       0      23       000010000D0000021
     100       0       0       1       0                               0D0000022
     124      19       0       0       0       0       0       000000000D0000023
     124       0       0       1       0                               0D0000024
     502      20       0       0       0       0       0       000010000D0000025
     502       0       0       6       1                               0D0000026
     110      26       0       0       0       0       0       000010000D0000027
     110       0       0       1       0                               0D0000028
     100      27       0       0       0       0      31       000010000D0000029
     100       0       0       1       0                               0D0000030
     124      28       0       0       0       0       0       000000000D0000031
     124       0       0       1       0                               0D0000032
     100      29       0       0       0       0      35       000010000D0000033
     100       0       0       1       0                               0D0000034
     124      30       0       0       0       0       0       000000000D0000035
     124       0       0       1       0                               0D0000036
     100      31       0       0       0       0      39       000010000D0000037
     100       0       0       1       0                               0D0000038
     124      32       0       0       0       0       0       000000000D0000039
     124       0       0       1       0                               0D0000040
     110      33       0       0       0       0       0       000010000D0000041
     110       0       0       1       0                               0D0000042
     100      34       0       0       0       0      45       000010000D0000043
     100       0       0       1       0                               0D0000044
     124      35       0       0       0       0       0       000000000D0000045
     124       0       0       1       0                               0D0000046
     104      36       0       0       0       0      49       000010000D0000047
     104       0       0       2       1                               0D0000048
     124      38       0       0       0       0       0       000000000D0000049
     124       0       0       2       0                               0D0000050
     110      40       0       0       0       0       0       000010000D0000051
     110       0       0       1       0                               0D0000052
     104      41       0       0       0       0      55       000010000D0000053
     104       0       0       2       1                               0D0000054
     124      43       0       0       0       0       0       000000000D0000055
     124       0       0       2       0                               0D0000056
     110      45       0       0       0       0       0       000010000D0000057
     110       0       0       1       0                               0D0000058
     100      46       0       0       0       0      61       000010000D0000059
     100       0       0       1       0                               0D0000060
     124      47       0       0       0       0       0       000000000D0000061
     124       0       0       1       0                               0D0000062
     100      48       0       0       0       0      65       000010000D0000063
     100       0       0       1       0                               0D0000064
     124      49       0       0       0       0       0       000000000D0000065
     124       0       0       2       0                               0D0000066
     110      51       0       0       0       0       0       000010000D0000067
     110       0       0       1       0                               0D0000068
     110      52       0       0       0       0       0       000010000D0000069
     110       0       0       1       0                               0D0000070
     110      53       0       0       0       0       0       000010000D0000071
     110       0       0       1       0                               0D0000072
     110      54       0       0       0       0       0       000010000D0000073
     110       0       0       1       0                               0D0000074
     110      55       0       0       0       0       0       000010000D0000075
     110       0       0       1       0                               0D0000076
     110      56       0       0       0       0       0       000010000D0000077
     110       0       0       1       0                               0D0000078
     110      57       0       0       0       0       0       000010000D0000079
     110       0       0       1       0                               0D0000080
     110      58       0       0       0       0       0       000010000D0000081
     110       0       0       1       0                               0D0000082
     100      59       0       0       0       0      85       000010000D0000083
     100       0       0       1       0                               0D0000084
     124      60       0       0       0       0       0       000000000D0000085
     124       0       0       1       0                               0D0000086
     110      61       0       0       0       0       0       000010000D0000087
     110       0       0       1       0                               0D0000088
     100      62       0       0       0       0      91       000010000D0000089
     100       0       0       1       0                               0D0000090
     124      63       0       0       0       0       0       000000000D0000091
     124       0       0       1       0                               0D0000092
     110      64       0       0       0       0       0       000010000D0000093
     110       0       0       1       0                               0D0000094
     100      65       0       0       0       0      97       000010000D0000095
     100       0       0       1       0                               0D0000096
     124      66       0       0       0       0       0       000000000D0000097
     124       0       0       1       0                               0D0000098
     110      67       0       0       0       0       0       000010000D0000099
     110       0       0       1       0                               0D0000100
     510      68       0       0       0       0       0       000010000D0000101
     510       0       0       1       1                               0D0000102
     192      69       0       0       0       0       0       000010000D0000103
     192       0       0       1       1                               0D0000104
     116      70       0       0       0       0       0       000010400D0000105
     116       0       0       1       0                               0D0000106
     123      71       0       0       0       0       0       000010200D0000107
     123       0       0       1       0                               0D0000108
     123      72       0       0       0       0       0       000010200D0000109
     123       0       0       1       0                               0D0000110
     508      73       0       0       0       0       0       000010000D0000111
     508       0       0       2       1                               0D0000112
     110      75       0       0       0       0       0       000010000D0000113
     110       0       0       1       0                               0D0000114
     110      76       0       0       0       0       0       000010000D0000115
     110       0       0       1       0                               0D0000116
     110      77       0       0       0       0       0       000010000D0000117
     110       0       0       1       0                               0D0000118
     110      78       0       0       0       0       0       000010000D0000119
     110       0       0       1       0                               0D0000120
     510      79       0       0       0       0       0       000010000D0000121
     510       0       0       1       1                               0D0000122
     120      80       0       0       0       0       0       000010000D0000123
     120       0       0       1       0                               0D0000124
     110      81       0       0       0       0       0       000010000D0000125
     110       0       0       1       0                               0D0000126
     100      82       0       0       0       0     129       000010000D0000127
     100       0       0       1       0                               0D0000128
     124      83       0       0       0       0       0       000000000D0000129
     124       0       0       1       0                               0D0000130
     508      84       0       0       0       0       0       000010000D0000131
     508       0       0       2       1                               0D0000132
     110      86       0       0       0       0       0       000010000D0000133
     110       0       0       1       0                               0D0000134
     110      87       0       0       0       0       0       000010000D0000135
     110       0       0       2       0                               0D0000136
     110      89       0       0       0       0       0       000010000D0000137
     110       0       0       1       0                               0D0000138
     110      90       0       0       0       0       0       000010000D0000139
     110       0       0       1       0                               0D0000140
     510      91       0       0       0       0       0       000010000D0000141
     510       0       0       1       1                               0D0000142
     192      92       0       0       0       0       0       000010000D0000143
     192       0       0       1       1                               0D0000144
     116      93       0       0       0       0       0       000010400D0000145
     116       0       0       1       0                               0D0000146
     123      94       0       0       0       0       0       000010200D0000147
     123       0       0       1       0                               0D0000148
     123      95       0       0       0       0       0       000010200D0000149
     123       0       0       1       0                               0D0000150
     508      96       0       0       0       0       0       000010000D0000151
     508       0       0       2       1                               0D0000152
     110      98       0       0       0       0       0       000010000D0000153
     110       0       0       1       0                               0D0000154
     110      99       0       0       0       0       0       000010000D0000155
     110       0       0       1       0                               0D0000156
     110     100       0       0       0       0       0       000010000D0000157
     110       0       0       1       0                               0D0000158
     110     101       0       0       0       0       0       000010000D0000159
     110       0       0       1       0                               0D0000160
     508     102       0       0       0       0       0       000010000D0000161
     508       0       0       2       1                               0D0000162
     126     104       0       0       0       0       0       000010000D0000163
     126       0       0       9       0                               0D0000164
     110     113       0       0       0       0       0       000010000D0000165
     110       0       0       1       0                               0D0000166
     126     114       0       0       0       0       0       000010000D0000167
     126       0       0       9       0                               0D0000168
     110     123       0       0       0       0       0       000010000D0000169
     110       0       0       1       0                               0D0000170
     510     124       0       0       0       0       0       000010000D0000171
     510       0       0       1       1                               0D0000172
     120     125       0       0       0       0       0       000010000D0000173
     120       0       0       1       0                               0D0000174
     110     126       0       0       0       0       0       000010000D0000175
     110       0       0       1       0                               0D0000176
     100     127       0       0       0       0     179       000010000D0000177
     100       0       0       1       0                               0D0000178
     124     128       0       0       0       0       0       000000000D0000179
     124       0       0       2       0                               0D0000180
     508     130       0       0       0       0       0       000010000D0000181
     508       0       0       2       1                               0D0000182
     110     132       0       0       0       0       0       000010000D0000183
     110       0       0       1       0                               0D0000184
     110     133       0       0       0       0       0       000010000D0000185
     110       0       0       2       0                               0D0000186
     110     135       0       0       0       0       0       000010000D0000187
     110       0       0       1       0                               0D0000188
     110     136       0       0       0       0       0       000010000D0000189
     110       0       0       1       0                               0D0000190
     510     137       0       0       0       0       0       000010000D0000191
     510       0       0       1       1                               0D0000192
     190     138       0       0       0       0       0       000010000D0000193
     190       0       0       1       1                               0D0000194
     116     139       0       0       0       0       0       000010400D0000195
     116       0       0       1       0                               0D0000196
     123     140       0       0       0       0       0       000010200D0000197
     123       0       0       1       0                               0D0000198
     123     141       0       0       0       0       0       000010200D0000199
     123       0       0       1       0                               0D0000200
     508     142       0       0       0       0       0       000010000D0000201
     508       0       0       1       1                               0D0000202
     510     143       0       0       0       0       0       000010000D0000203
     510       0       0       1       1                               0D0000204
     190     144       0       0       0       0       0       000010000D0000205
     190       0       0       1       1                               0D0000206
     116     145       0       0       0       0       0       000010400D0000207
     116       0       0       1       0                               0D0000208
     123     146       0       0       0       0       0       000010200D0000209
     123       0       0       1       0                               0D0000210
     123     147       0       0       0       0       0       000010200D0000211
     123       0       0       1       0                               0D0000212
     508     148       0       0       0       0       0       000010000D0000213
     508       0       0       1       1                               0D0000214
     510     149       0       0       0       0       0       000010000D0000215
     510       0       0       1       1                               0D0000216
     190     150       0       0       0       0       0       000010000D0000217
     190       0       0       1       1                               0D0000218
     116     151       0       0       0       0       0       000010400D0000219
     116       0       0       1       0                               0D0000220
     123     152       0       0       0       0       0       000010200D0000221
     123       0       0       1       0                               0D0000222
     123     153       0       0       0       0       0       000010200D0000223
     123       0       0       1       0                               0D0000224
     508     154       0       0       0       0       0       000010000D0000225
     508       0       0       1       1                               0D0000226
     510     155       0       0       0       0       0       000010000D0000227
     510       0       0       1       1                               0D0000228
     190     156       0       0       0       0       0       000010000D0000229
     190       0       0       1       1                               0D0000230
     116     157       0       0       0       0       0       000010400D0000231
     116       0       0       1       0                               0D0000232
     123     158       0       0       0       0       0       000010200D0000233
     123       0       0       1       0                               0D0000234
     123     159       0       0       0       0       0       000010200D0000235
     123       0       0       1       0                               0D0000236
     508     160       0       0       0       0       0       000010000D0000237
     508       0       0       1       1                               0D0000238
     510     161       0       0       0       0       0       000010000D0000239
     510       0       0       1       1                               0D0000240
     192     162       0       0       0       0       0       000010000D0000241
     192       0       0       1       1                               0D0000242
     116     163       0       0       0       0       0       000010400D0000243
     116       0       0       1       0                               0D0000244
     123     164       0       0       0       0       0       000010200D0000245
     123       0       0       1       0                               0D0000246
     123     165       0       0       0       0       0       000010200D0000247
     123       0       0       1       0                               0D0000248
     508     166       0       0       0       0       0       000010000D0000249
     508       0       0       2       1                               0D0000250
     110     168       0       0       0       0       0       000010000D0000251
     110       0       0       1       0                               0D0000252
     110     169       0       0       0       0       0       000010000D0000253
     110       0       0       1       0                               0D0000254
     110     170       0       0       0       0       0       000010000D0000255
     110       0       0       1       0                               0D0000256
     110     171       0       0       0       0       0       000010000D0000257
     110       0       0       1       0                               0D0000258
     510     172       0       0       0       0       0       000010000D0000259
     510       0       0       1       1                               0D0000260
     190     173       0       0       0       0       0       000010000D0000261
     190       0       0       1       1                               0D0000262
     116     174       0       0       0       0       0       000010400D0000263
     116       0       0       1       0                               0D0000264
     123     175       0       0       0       0       0       000010200D0000265
     123       0       0       1       0                               0D0000266
     123     176       0       0       0       0       0       000010200D0000267
     123       0       0       1       0                               0D0000268
     508     177       0       0       0       0       0       000010000D0000269
     508       0       0       1       1                               0D0000270
     510     178       0       0       0       0       0       000010000D0000271
     510       0       0       1       1                               0D0000272
     190     179       0       0       0       0       0       000010000D0000273
     190       0       0       1       1                               0D0000274
     116     180       0       0       0       0       0       000010400D0000275
     116       0       0       1       0                               0D0000276
     123     181       0       0       0       0       0       000010200D0000277
     123       0       0       1       0                               0D0000278
     123     182       0       0       0       0       0       000010200D0000279
     123       0       0       1       0                               0D0000280
     508     183       0       0       0       0       0       000010000D0000281
     508       0       0       1       1                               0D0000282
     508     184       0       0       0       0       0       000010000D0000283
     508       0       0       1       1                               0D0000284
     510     185       0       0       0       0       0       000010000D0000285
     510       0       0       1       1                               0D0000286
     192     186       0       0       0       0       0       000010000D0000287
     192       0       0       1       1                               0D0000288
     116     187       0       0       0       0       0       000010400D0000289
     116       0       0       1       0                               0D0000290
     123     188       0       0       0       0       0       000010200D0000291
     123       0       0       1       0                               0D0000292
     123     189       0       0       0       0       0       000010200D0000293
     123       0       0       1       0                               0D0000294
     508     190       0       0       0       0       0       000010000D0000295
     508       0       0       2       1                               0D0000296
     110     192       0       0       0       0       0       000010000D0000297
     110       0       0       1       0                               0D0000298
     110     193       0       0       0       0       0       000010000D0000299
     110       0       0       1       0                               0D0000300
     110     194       0       0       0       0       0       000010000D0000301
     110       0       0       1       0                               0D0000302
     110     195       0       0       0       0       0       000010000D0000303
     110       0       0       1       0                               0D0000304
     510     196       0       0       0       0       0       000010000D0000305
     510       0       0       1       1                               0D0000306
     194     197       0       0       0       0       0       000010000D0000307
     194       0       0       1       1                               0D0000308
     116     198       0       0       0       0       0       000010400D0000309
     116       0       0       1       0                               0D0000310
     123     199       0       0       0       0       0       000010200D0000311
     123       0       0       1       0                               0D0000312
     123     200       0       0       0       0       0       000010200D0000313
     123       0       0       1       0                               0D0000314
     508     201       0       0       0       0       0       000010000D0000315
     508       0       0       2       1                               0D0000316
     110     203       0       0       0       0       0       000010000D0000317
     110       0       0       1       0                               0D0000318
     110     204       0       0       0       0       0       000010000D0000319
     110       0       0       1       0                               0D0000320
     110     205       0       0       0       0       0       000010000D0000321
     110       0       0       1       0                               0D0000322
     110     206       0       0       0       0       0       000010000D0000323
     110       0       0       1       0                               0D0000324
402,1,3;                                                         0000001P0000001
186,5,1,0;                                                       0000003P0000002
514,14,7,0,101,1,121,0,141,1,171,0,191,0,203,0,215,0,227,1,239,  0000005P0000003
1,259,0,271,1,285,1,305,1;                                       0000005P0000004
510,9,1,1,17;                                                    0000007P0000005
190,11,13,15;                                                    0000009P0000006
116,0.,-6.22E-15,28.,0;                                          0000011P0000007
123,0.,2.2E-16,-1.;                                              0000013P0000008
123,1.,0.,0.;                                                    0000015P0000009
508,1,0,19,1,1,0;                                                0000017P0000010
504,27,21,25,1,25,1,27,25,1,25,2,29,25,2,25,2,33,25,3,25,3,37,   0000019P0000011
25,3,25,2,41,25,3,25,4,43,25,4,25,4,47,25,5,25,6,51,25,5,25,7,   0000019P0000012
53,25,8,25,7,57,25,6,25,8,59,25,9,25,9,63,25,9,25,4,67,25,6,25,  0000019P0000013
10,69,25,5,25,11,71,25,10,25,11,73,25,10,25,12,75,25,12,25,8,77, 0000019P0000014
25,12,25,13,79,25,13,25,7,81,25,11,25,13,83,25,14,25,14,87,25,   0000019P0000015
14,25,9,89,25,15,25,15,93,25,15,25,16,95,25,16,25,16,99,25,17,   0000019P0000016
25,16;                                                           0000019P0000017
100,0.,0.,0.,0.1,0.,0.1,0.;                                      0000021P0000018
124,1.,0.,0.,0.,0.,-1.,2.2E-16,-6.22E-15,0.,-2.2E-16,-1.,28.;    0000023P0000019
502,17,0.1,-1.2E-14,28.,0.1,-4.E-15,8.,0.75,-3.E-15,7.35,0.75,   0000025P0000020
-2.E-15,4.935,-0.559016994,-0.5,6.559016994,-0.559016994,0.5,    0000025P0000021
6.559016994,-0.559016994,-0.5,6.417595638,-0.559016994,0.5,      0000025P0000022
6.417595638,0.315,-2.E-15,4.5,-3.,0.5,9.,-3.,-0.5,9.,            0000025P0000023
-3.070710678,0.5,8.929289322,-3.070710678,-0.5,8.929289322,      0000025P0000024
0.315,0.,0.,0.1,0.,0.,0.1,2.2E-14,-49.9,0.,2.2E-14,-50.;         0000025P0000025
110,0.1,-6.22E-15,28.,0.1,-1.82E-15,8.;                          0000027P0000026
100,0.,0.,0.,0.1,0.,0.1,0.;                                      0000029P0000027
124,1.,0.,0.,0.,0.,-1.,2.2E-16,-1.78E-15,0.,-2.2E-16,-1.,8.;     0000031P0000028
100,0.,0.,0.,0.75,0.,0.75,0.;                                    0000033P0000029
124,1.,0.,0.,0.,0.,-1.,2.2E-16,-1.63E-15,0.,-2.2E-16,-1.,7.35;   0000035P0000030
100,0.,0.,0.,0.65,0.,-2.498001805E-16,0.65;                      0000037P0000031
124,1.,0.,0.,0.1,0.,-2.2E-16,-1.,-1.63E-15,0.,1.,-2.2E-16,7.35;  0000039P0000032
110,0.75,-1.63E-15,7.35,0.75,-1.0987E-15,4.935;                  0000041P0000033
100,0.,0.,0.,0.75,0.,0.75,0.;                                    0000043P0000034
124,1.,0.,0.,0.,0.,-1.,2.2E-16,-1.1E-15,0.,-2.2E-16,-1.,4.935;   0000045P0000035
104,0.888888889,0.,1.777777778,0.,-0.,-1.,0.,-0.790569415,0.5,   0000047P0000036
-0.790569415,-0.5;                                               0000047P0000037
124,0.707106781,0.,-0.707106781,0.,1.6E-16,-1.,1.6E-16,          0000049P0000038
-1.33E-15,-0.707106781,-2.2627417E-16,-0.707106781,6.;           0000049P0000039
110,-0.559016994,-0.5,6.559016994,-0.559016994,-0.5,6.417595638; 0000051P0000040
104,0.888888889,0.,1.777777778,0.,-0.,-1.,0.,-0.790569415,0.5,   0000053P0000041
-0.790569415,-0.5;                                               0000053P0000042
124,0.707106781,0.,0.707106781,0.,1.6E-16,1.,-1.6E-16,-1.3E-15,  0000055P0000043
-0.707106781,2.2627417E-16,0.707106781,5.858578644;              0000055P0000044
110,-0.559016994,0.5,6.559016994,-0.559016994,0.5,6.417595638;   0000057P0000045
100,0.,0.,0.,0.315,0.,0.315,0.;                                  0000059P0000046
124,1.,0.,0.,0.,0.,-1.,2.2E-16,-1.E-15,0.,-2.2E-16,-1.,4.5;      0000061P0000047
100,0.,0.,0.,-5.551115123E-17,-0.435,0.435,0.;                   0000063P0000048
124,1.,0.,0.,0.315,0.,-2.2E-16,-1.,-1.1E-15,0.,1.,-2.2E-16,      0000065P0000049
4.935;                                                           0000065P0000050
110,-0.559016994,0.5,6.559016994,-3.,0.5,9.;                     0000067P0000051
110,-0.559016994,-0.5,6.559016994,-3.,-0.5,9.;                   0000069P0000052
110,-3.,0.5,9.,-3.,-0.5,9.;                                      0000071P0000053
110,-3.,0.5,9.,-3.070710678,0.5,8.929289322;                     0000073P0000054
110,-3.070710678,0.5,8.929289322,-0.559016994,0.5,6.417595638;   0000075P0000055
110,-3.070710678,0.5,8.929289322,-3.070710678,-0.5,8.929289322;  0000077P0000056
110,-3.070710678,-0.5,8.929289322,-0.559016994,-0.5,6.417595638; 0000079P0000057
110,-3.,-0.5,9.,-3.070710678,-0.5,8.929289322;                   0000081P0000058
100,0.,0.,0.,0.315,0.,0.315,0.;                                  0000083P0000059
124,1.,0.,0.,0.,0.,-1.,2.2E-16,0.,0.,-2.2E-16,-1.,0.;            0000085P0000060
110,0.315,0.,0.,0.315,-9.9E-16,4.5;                              0000087P0000061
100,0.,0.,0.,0.1,0.,0.1,0.;                                      0000089P0000062
124,1.,0.,0.,0.,0.,-1.,2.2E-16,0.,0.,-2.2E-16,-1.,0.;            0000091P0000063
110,0.1,0.,0.,0.1,1.0978E-14,-49.9;                              0000093P0000064
100,0.,0.,0.,0.1,0.,0.1,0.;                                      0000095P0000065
124,1.,0.,0.,0.,0.,-1.,2.2E-16,1.108E-14,0.,-2.2E-16,-1.,-49.9;  0000097P0000066
110,0.,1.11E-14,-50.,0.1,1.107737258E-14,-49.9;                  0000099P0000067
510,103,1,1,111;                                                 0000101P0000068
192,105,107,0.1,109;                                             0000103P0000069
116,0.,-6.22E-15,28.,0;                                          0000105P0000070
123,0.,2.2E-16,-1.;                                              0000107P0000071
123,1.,0.,0.;                                                    0000109P0000072
508,4,0,19,1,1,1,0,113,0,19,2,1,1,0,115,0,19,3,0,1,0,117,0,19,2, 0000111P0000073
0,1,0,119;                                                       0000111P0000074
110,0.,0.,0.,360.,0.,0.;                                         0000113P0000075
110,360.,0.,0.,360.,20.,0.;                                      0000115P0000076
110,360.,20.,0.,0.,20.,0.;                                       0000117P0000077
110,0.,20.,0.,0.,0.,0.;                                          0000119P0000078
510,123,1,1,131;                                                 0000121P0000079
120,125,127,0.,6.283185307;                                      0000123P0000080
110,0.,0.,0.,0.,-2.2E-16,1.;                                     0000125P0000081
100,0.,0.,0.,0.65,0.,4.163336342E-17,0.65;                       0000127P0000082
124,1.,0.,0.,0.1,0.,-2.2E-16,-1.,-1.63E-15,0.,1.,-2.2E-16,7.35;  0000129P0000083
508,4,0,19,4,1,1,0,133,0,19,5,1,1,0,135,0,19,3,0,1,0,137,0,19,5, 0000131P0000084
0,1,0,139;                                                       0000131P0000085
110,0.,6.283185307,0.,-1.395147399E-15,0.,0.;                    0000133P0000086
110,-1.395147399E-15,1.776356839E-15,0.,1.570796327,             0000135P0000087
2.125143689E-15,0.;                                              0000135P0000088
110,1.570796327,0.,0.,1.570796327,6.283185307,0.;                0000137P0000089
110,1.570796327,6.283185307,0.,0.,6.283185307,0.;                0000139P0000090
510,143,2,1,151,161;                                             0000141P0000091
192,145,147,0.75,149;                                            0000143P0000092
116,0.,-1.63E-15,7.35,0;                                         0000145P0000093
123,0.,2.2E-16,-1.;                                              0000147P0000094
123,1.,0.,0.;                                                    0000149P0000095
508,4,0,19,6,0,1,0,153,0,19,4,1,1,0,155,0,19,6,1,1,0,157,0,19,7, 0000151P0000096
0,1,0,159;                                                       0000151P0000097
110,0.,2.415,0.,0.,0.,0.;                                        0000153P0000098
110,0.,0.,0.,360.,0.,0.;                                         0000155P0000099
110,360.,0.,0.,360.,2.415,0.;                                    0000157P0000100
110,360.,2.415,0.,0.,2.415,0.;                                   0000159P0000101
508,4,0,19,8,0,1,0,163,0,19,9,1,1,0,165,0,19,10,0,1,0,167,0,19,  0000161P0000102
11,0,1,0,169;                                                    0000161P0000103
126,8,8,1,0,1,0,2.411864997,2.411864997,2.411864997,2.411864997, 0000163P0000104
2.411864997,2.411864997,2.411864997,2.411864997,2.411864997,     0000163P0000105
3.87132031,3.87132031,3.87132031,3.87132031,3.87132031,          0000163P0000106
3.87132031,3.87132031,3.87132031,3.87132031,1.,1.,1.,1.,1.,1.,   0000163P0000107
1.,1.,1.,221.810314896,0.790983006,0.,211.357736172,0.69976705,  0000163P0000108
0.,200.905157448,0.629813802,0.,190.452578724,0.585749226,0.,    0000163P0000109
180.,0.570689644,0.,169.547421276,0.585749226,0.,159.094842552,  0000163P0000110
0.629813802,0.,148.642263828,0.69976705,0.,138.189685104,        0000163P0000111
0.790983006,0.,2.411864997,3.87132031,-0.,-0.,1.;                0000163P0000112
110,138.189685104,0.790983006,0.,138.189685104,0.932404362,0.;   0000165P0000113
126,8,8,1,0,1,0,2.411864997,2.411864997,2.411864997,2.411864997, 0000167P0000114
2.411864997,2.411864997,2.411864997,2.411864997,2.411864997,     0000167P0000115
3.87132031,3.87132031,3.87132031,3.87132031,3.87132031,          0000167P0000116
3.87132031,3.87132031,3.87132031,3.87132031,1.,1.,1.,1.,1.,1.,   0000167P0000117
1.,1.,1.,138.189685104,0.932404362,0.,148.642263828,0.841188406, 0000167P0000118
0.,159.094842552,0.771235158,0.,169.547421276,0.727170583,0.,    0000167P0000119
180.,0.712111001,0.,190.452578724,0.727170583,0.,200.905157448,  0000167P0000120
0.771235158,0.,211.357736172,0.841188406,0.,221.810314896,       0000167P0000121
0.932404362,0.,2.411864997,3.87132031,0.,0.,1.;                  0000167P0000122
110,221.810314896,0.932404362,0.,221.810314896,0.790983006,0.;   0000169P0000123
510,173,1,1,181;                                                 0000171P0000124
120,175,177,0.,6.283185307;                                      0000173P0000125
110,0.,0.,0.,0.,-2.2E-16,1.;                                     0000175P0000126
100,0.,0.,0.,-5.551115123E-17,-0.435,0.435,0.;                   0000177P0000127
124,1.,0.,0.,0.315,0.,-2.2E-16,-1.,-1.1E-15,0.,1.,-2.2E-16,      0000179P0000128
4.935;                                                           0000179P0000129
508,4,0,19,12,1,1,0,183,0,19,13,1,1,0,185,0,19,7,0,1,0,187,0,19, 0000181P0000130
13,0,1,0,189;                                                    0000181P0000131
110,4.71238898,6.283185307,0.,4.71238898,8.881784197E-16,0.;     0000183P0000132
110,4.71238898,2.822717389E-15,0.,6.283185307,3.171504239E-15,   0000185P0000133
0.;                                                              0000185P0000134
110,6.283185307,1.776356839E-15,0.,6.283185307,6.283185307,0.;   0000187P0000135
110,6.283185307,6.283185307,0.,4.71238898,6.283185307,0.;        0000189P0000136
510,193,1,1,201;                                                 0000191P0000137
190,195,197,199;                                                 0000193P0000138
116,0.,0.5,6.,0;                                                 0000195P0000139
123,-0.707106781,1.6E-16,-0.707106781;                           0000197P0000140
123,-0.707106781,-1.6E-16,0.707106781;                           0000199P0000141
508,4,0,19,14,0,0,0,19,8,0,0,0,19,15,1,0,0,19,16,0,0;            0000201P0000142
510,205,1,1,213;                                                 0000203P0000143
190,207,209,211;                                                 0000205P0000144
116,-1.510755889,0.5,7.439244111,0;                              0000207P0000145
123,0.,-1.,-4.4E-16;                                             0000209P0000146
123,0.,4.4E-16,-1.;                                              0000211P0000147
508,4,0,19,11,0,0,0,19,14,1,0,0,19,17,1,0,0,19,18,1,0;           0000213P0000148
510,217,1,1,225;                                                 0000215P0000149
190,219,221,223;                                                 0000217P0000150
116,-3.070710678,0.5,8.929289322,0;                              0000219P0000151
123,0.707106781,-1.6E-16,0.707106781;                            0000221P0000152
123,0.707106781,1.6E-16,-0.707106781;                            0000223P0000153
508,4,0,19,18,0,0,0,19,19,1,0,0,19,20,1,0,0,19,10,0,0;           0000225P0000154
510,229,1,1,237;                                                 0000227P0000155
190,231,233,235;                                                 0000229P0000156
116,-1.510755889,-0.5,7.439244111,0;                             0000231P0000157
123,0.,-1.,-4.4E-16;                                             0000233P0000158
123,0.,4.4E-16,-1.;                                              0000235P0000159
508,4,0,19,9,0,0,0,19,15,1,0,0,19,21,1,0,0,19,20,1,0;            0000237P0000160
510,241,1,1,249;                                                 0000239P0000161
192,243,245,0.315,247;                                           0000241P0000162
116,0.,0.,0.,0;                                                  0000243P0000163
123,0.,-2.2E-16,1.;                                              0000245P0000164
123,1.,0.,0.;                                                    0000247P0000165
508,4,0,19,22,0,1,0,251,0,19,23,1,1,0,253,0,19,12,1,1,0,255,0,   0000249P0000166
19,23,0,1,0,257;                                                 0000249P0000167
110,-360.,0.,0.,0.,0.,0.;                                        0000251P0000168
110,0.,0.,0.,0.,4.5,0.;                                          0000253P0000169
110,0.,4.5,0.,-360.,4.5,0.;                                      0000255P0000170
110,-360.,4.5,0.,-360.,0.,0.;                                    0000257P0000171
510,261,1,1,269;                                                 0000259P0000172
190,263,265,267;                                                 0000261P0000173
116,-3.,0.5,9.,0;                                                0000263P0000174
123,0.707106781,1.6E-16,-0.707106781;                            0000265P0000175
123,-0.707106781,1.6E-16,-0.707106781;                           0000267P0000176
508,4,0,19,16,1,0,0,19,21,1,0,0,19,19,0,0,0,19,17,0,0;           0000269P0000177
510,273,2,1,281,283;                                             0000271P0000178
190,275,277,279;                                                 0000273P0000179
116,0.,0.,0.,0;                                                  0000275P0000180
123,0.,2.2E-16,-1.;                                              0000277P0000181
123,1.,0.,0.;                                                    0000279P0000182
508,1,0,19,22,1,0;                                               0000281P0000183
508,1,0,19,24,0,0;                                               0000283P0000184
510,287,1,1,295;                                                 0000285P0000185
192,289,291,0.1,293;                                             0000287P0000186
116,0.,0.,0.,0;                                                  0000289P0000187
123,0.,2.2E-16,-1.;                                              0000291P0000188
123,1.,0.,0.;                                                    0000293P0000189
508,4,0,19,24,1,1,0,297,0,19,25,1,1,0,299,0,19,26,0,1,0,301,0,   0000295P0000190
19,25,0,1,0,303;                                                 0000295P0000191
110,0.,0.,0.,360.,0.,0.;                                         0000297P0000192
110,360.,0.,0.,360.,49.9,0.;                                     0000299P0000193
110,360.,49.9,0.,0.,49.9,0.;                                     0000301P0000194
110,0.,49.9,0.,0.,0.,0.;                                         0000303P0000195
510,307,1,1,315;                                                 0000305P0000196
194,309,311,0.,45.,313;                                          0000307P0000197
116,0.,1.11E-14,-50.,0;                                          0000309P0000198
123,0.,-2.2E-16,1.;                                              0000311P0000199
123,1.,0.,0.;                                                    0000313P0000200
508,4,1,25,17,0,1,0,317,0,19,27,1,1,0,319,0,19,26,1,1,0,321,0,   0000315P0000201
19,27,0,1,0,323;                                                 0000315P0000202
110,-360.,0.,0.,0.,0.,0.;                                        0000317P0000203
110,0.,0.,0.,0.,0.141421356,0.;                                  0000319P0000204
110,0.,0.141421356,0.,-360.,0.141421356,0.;                      0000321P0000205
110,-360.,0.141421356,0.,-360.,0.,0.;                            0000323P0000206
S      1G      4D    324P    206                                        T0000001
