                                                                        S0000001
,,31HOpen CASCADE IGES processor 7.6,13HFilename.iges,                  G0000001
16HOpen CASCADE 7.6,31HOpen CASCADE IGES processor 7.6,32,308,15,308,15,G0000002
,1.,2,2HMM,1,0.01,15H20240513.110708,1E-07,23.043357,,,11,0,            G0000003
15H20240513.110708,;                                                    G0000004
     402       1       0       0       0       0       0       000000000D0000001
     402       0       0       1       1                               0D0000002
     186       2       0       0       0       0       0       000020000D0000003
     186       0       0       1       0                               0D0000004
     514       3       0       0       0       0       0       000010000D0000005
     514       0       0       2       1                               0D0000006
     510       5       0       0       0       0       0       000010000D0000007
     510       0       0       1       1                               0D0000008
     190       6       0       0       0       0       0       000010000D0000009
     190       0       0       1       1                               0D0000010
     116       7       0       0       0       0       0       000010400D0000011
     116       0       0       1       0                               0D0000012
     123       8       0       0       0       0       0       000010200D0000013
     123       0       0       1       0                               0D0000014
     123       9       0       0       0       0       0       000010200D0000015
     123       0       0       1       0                               0D0000016
     508      10       0       0       0       0       0       000010000D0000017
     508       0       0       2       1                               0D0000018
     504      12       0       0       0       0       0       000010001D0000019
     504       0       0      12       1                               0D0000020
     110      24       0       0       0       0       0       000010000D0000021
     110       0       0       1       0                               0D0000022
     502      25       0       0       0       0       0       000010000D0000023
     502       0       0       8       1                               0D0000024
     110      33       0       0       0       0       0       000010000D0000025
     110       0       0       1       0                               0D0000026
     110      34       0       0       0       0       0       000010000D0000027
     110       0       0       1       0                               0D0000028
     110      35       0       0       0       0       0       000010000D0000029
     110       0       0       1       0                               0D0000030
     110      36       0       0       0       0       0       000010000D0000031
     110       0       0       1       0                               0D0000032
     110      37       0       0       0       0       0       000010000D0000033
     110       0       0       1       0                               0D0000034
     110      38       0       0       0       0       0       000010000D0000035
     110       0       0       1       0                               0D0000036
     110      39       0       0       0       0       0       000010000D0000037
     110       0       0       1       0                               0D0000038
     100      40       0       0       0       0      41       000010000D0000039
     100       0       0       1       0                               0D0000040
     124      41       0       0       0       0       0       000000000D0000041
     124       0       0       2       0                               0D0000042
     100      43       0       0       0       0      45       000010000D0000043
     100       0       0       1       0                               0D0000044
     124      44       0       0       0       0       0       000000000D0000045
     124       0       0       1       0                               0D0000046
     100      45       0       0       0       0      49       000010000D0000047
     100       0       0       1       0                               0D0000048
     124      46       0       0       0       0       0       000000000D0000049
     124       0       0       1       0                               0D0000050
     110      47       0       0       0       0       0       000010000D0000051
     110       0       0       1       0                               0D0000052
     100      48       0       0       0       0      55       000010000D0000053
     100       0       0       1       0                               0D0000054
     124      49       0       0       0       0       0       000000000D0000055
     124       0       0       2       0                               0D0000056
     110      51       0       0       0       0       0       000010000D0000057
     110       0       0       1       0                               0D0000058
     110      52       0       0       0       0       0       000010000D0000059
     110       0       0       1       0                               0D0000060
     110      53       0       0       0       0       0       000010000D0000061
     110       0       0       1       0                               0D0000062
     110      54       0       0       0       0       0       000010000D0000063
     110       0       0       1       0                               0D0000064
     110      55       0       0       0       0       0       000010000D0000065
     110       0       0       1       0                               0D0000066
     110      56       0       0       0       0       0       000010000D0000067
     110       0       0       1       0                               0D0000068
     110      57       0       0       0       0       0       000010000D0000069
     110       0       0       1       0                               0D0000070
     110      58       0       0       0       0       0       000010000D0000071
     110       0       0       1       0                               0D0000072
     110      59       0       0       0       0       0       000010000D0000073
     110       0       0       1       0                               0D0000074
     110      60       0       0       0       0       0       000010000D0000075
     110       0       0       1       0                               0D0000076
     110      61       0       0       0       0       0       000010000D0000077
     110       0       0       1       0                               0D0000078
     110      62       0       0       0       0       0       000010000D0000079
     110       0       0       1       0                               0D0000080
     110      63       0       0       0       0       0       000010000D0000081
     110       0       0       1       0                               0D0000082
     110      64       0       0       0       0       0       000010000D0000083
     110       0       0       1       0                               0D0000084
     110      65       0       0       0       0       0       000010000D0000085
     110       0       0       1       0                               0D0000086
     110      66       0       0       0       0       0       000010000D0000087
     110       0       0       1       0                               0D0000088
     110      67       0       0       0       0       0       000010000D0000089
     110       0       0       1       0                               0D0000090
     110      68       0       0       0       0       0       000010000D0000091
     110       0       0       1       0                               0D0000092
     110      69       0       0       0       0       0       000010000D0000093
     110       0       0       1       0                               0D0000094
     110      70       0       0       0       0       0       000010000D0000095
     110       0       0       1       0                               0D0000096
     110      71       0       0       0       0       0       000010000D0000097
     110       0       0       1       0                               0D0000098
     110      72       0       0       0       0       0       000010000D0000099
     110       0       0       1       0                               0D0000100
     110      73       0       0       0       0       0       000010000D0000101
     110       0       0       1       0                               0D0000102
     110      74       0       0       0       0       0       000010000D0000103
     110       0       0       1       0                               0D0000104
     110      75       0       0       0       0       0       000010000D0000105
     110       0       0       1       0                               0D0000106
     100      76       0       0       0       0     109       000010000D0000107
     100       0       0       1       0                               0D0000108
     124      77       0       0       0       0       0       000000000D0000109
     124       0       0       1       0                               0D0000110
     110      78       0       0       0       0       0       000010000D0000111
     110       0       0       1       0                               0D0000112
     100      79       0       0       0       0     115       000010000D0000113
     100       0       0       1       0                               0D0000114
     124      80       0       0       0       0       0       000000000D0000115
     124       0       0       1       0                               0D0000116
     110      81       0       0       0       0       0       000010000D0000117
     110       0       0       1       0                               0D0000118
     100      82       0       0       0       0     121       000010000D0000119
     100       0       0       1       0                               0D0000120
     124      83       0       0       0       0       0       000000000D0000121
     124       0       0       1       0                               0D0000122
     110      84       0       0       0       0       0       000010000D0000123
     110       0       0       1       0                               0D0000124
     100      85       0       0       0       0     127       000010000D0000125
     100       0       0       1       0                               0D0000126
     124      86       0       0       0       0       0       000000000D0000127
     124       0       0       1       0                               0D0000128
     110      87       0       0       0       0       0       000010000D0000129
     110       0       0       1       0                               0D0000130
     110      88       0       0       0       0       0       000010000D0000131
     110       0       0       1       0                               0D0000132
     110      89       0       0       0       0       0       000010000D0000133
     110       0       0       1       0                               0D0000134
     110      90       0       0       0       0       0       000010000D0000135
     110       0       0       1       0                               0D0000136
     508      91       0       0       0       0       0       000010000D0000137
     508       0       0       1       1                               0D0000138
     508      92       0       0       0       0       0       000010000D0000139
     508       0       0       1       1                               0D0000140
     508      93       0       0       0       0       0       000010000D0000141
     508       0       0       1       1                               0D0000142
     510      94       0       0       0       0       0       000010000D0000143
     510       0       0       1       1                               0D0000144
     194      95       0       0       0       0       0       000010000D0000145
     194       0       0       1       1                               0D0000146
     116      96       0       0       0       0       0       000010400D0000147
     116       0       0       1       0                               0D0000148
     123      97       0       0       0       0       0       000010200D0000149
     123       0       0       1       0                               0D0000150
     123      98       0       0       0       0       0       000010200D0000151
     123       0       0       1       0                               0D0000152
     508      99       0       0       0       0       0       000010000D0000153
     508       0       0       2       1                               0D0000154
     110     101       0       0       0       0       0       000010000D0000155
     110       0       0       1       0                               0D0000156
     110     102       0       0       0       0       0       000010000D0000157
     110       0       0       1       0                               0D0000158
     110     103       0       0       0       0       0       000010000D0000159
     110       0       0       1       0                               0D0000160
     110     104       0       0       0       0       0       000010000D0000161
     110       0       0       1       0                               0D0000162
     510     105       0       0       0       0       0       000010000D0000163
     510       0       0       1       1                               0D0000164
     190     106       0       0       0       0       0       000010000D0000165
     190       0       0       1       1                               0D0000166
     116     107       0       0       0       0       0       000010400D0000167
     116       0       0       1       0                               0D0000168
     123     108       0       0       0       0       0       000010200D0000169
     123       0       0       1       0                               0D0000170
     123     109       0       0       0       0       0       000010200D0000171
     123       0       0       1       0                               0D0000172
     508     110       0       0       0       0       0       000010000D0000173
     508       0       0       2       1                               0D0000174
     510     112       0       0       0       0       0       000010000D0000175
     510       0       0       1       1                               0D0000176
     190     113       0       0       0       0       0       000010000D0000177
     190       0       0       1       1                               0D0000178
     116     114       0       0       0       0       0       000010400D0000179
     116       0       0       1       0                               0D0000180
     123     115       0       0       0       0       0       000010200D0000181
     123       0       0       1       0                               0D0000182
     123     116       0       0       0       0       0       000010200D0000183
     123       0       0       1       0                               0D0000184
     508     117       0       0       0       0       0       000010000D0000185
     508       0       0       1       1                               0D0000186
     510     118       0       0       0       0       0       000010000D0000187
     510       0       0       1       1                               0D0000188
     190     119       0       0       0       0       0       000010000D0000189
     190       0       0       1       1                               0D0000190
     116     120       0       0       0       0       0       000010400D0000191
     116       0       0       1       0                               0D0000192
     123     121       0       0       0       0       0       000010200D0000193
     123       0       0       1       0                               0D0000194
     123     122       0       0       0       0       0       000010200D0000195
     123       0       0       1       0                               0D0000196
     508     123       0       0       0       0       0       000010000D0000197
     508       0       0       1       1                               0D0000198
     510     124       0       0       0       0       0       000010000D0000199
     510       0       0       1       1                               0D0000200
     190     125       0       0       0       0       0       000010000D0000201
     190       0       0       1       1                               0D0000202
     116     126       0       0       0       0       0       000010400D0000203
     116       0       0       1       0                               0D0000204
     123     127       0       0       0       0       0       000010200D0000205
     123       0       0       1       0                               0D0000206
     123     128       0       0       0       0       0       000010200D0000207
     123       0       0       1       0                               0D0000208
     508     129       0       0       0       0       0       000010000D0000209
     508       0       0       1       1                               0D0000210
     510     130       0       0       0       0       0       000010000D0000211
     510       0       0       1       1                               0D0000212
     190     131       0       0       0       0       0       000010000D0000213
     190       0       0       1       1                               0D0000214
     116     132       0       0       0       0       0       000010400D0000215
     116       0       0       1       0                               0D0000216
     123     133       0       0       0       0       0       000010200D0000217
     123       0       0       1       0                               0D0000218
     123     134       0       0       0       0       0       000010200D0000219
     123       0       0       1       0                               0D0000220
     508     135       0       0       0       0       0       000010000D0000221
     508       0       0       2       1                               0D0000222
     510     137       0       0       0       0       0       000010000D0000223
     510       0       0       1       1                               0D0000224
     190     138       0       0       0       0       0       000010000D0000225
     190       0       0       1       1                               0D0000226
     116     139       0       0       0       0       0       000010400D0000227
     116       0       0       1       0                               0D0000228
     123     140       0       0       0       0       0       000010200D0000229
     123       0       0       1       0                               0D0000230
     123     141       0       0       0       0       0       000010200D0000231
     123       0       0       1       0                               0D0000232
     508     142       0       0       0       0       0       000010000D0000233
     508       0       0       1       1                               0D0000234
     510     143       0       0       0       0       0       000010000D0000235
     510       0       0       1       1                               0D0000236
     190     144       0       0       0       0       0       000010000D0000237
     190       0       0       1       1                               0D0000238
     116     145       0       0       0       0       0       000010400D0000239
     116       0       0       1       0                               0D0000240
     123     146       0       0       0       0       0       000010200D0000241
     123       0       0       1       0                               0D0000242
     123     147       0       0       0       0       0       000010200D0000243
     123       0       0       1       0                               0D0000244
     508     148       0       0       0       0       0       000010000D0000245
     508       0       0       1       1                               0D0000246
     510     149       0       0       0       0       0       000010000D0000247
     510       0       0       1       1                               0D0000248
     190     150       0       0       0       0       0       000010000D0000249
     190       0       0       1       1                               0D0000250
     116     151       0       0       0       0       0       000010400D0000251
     116       0       0       1       0                               0D0000252
     123     152       0       0       0       0       0       000010200D0000253
     123       0       0       1       0                               0D0000254
     123     153       0       0       0       0       0       000010200D0000255
     123       0       0       1       0                               0D0000256
     508     154       0       0       0       0       0       000010000D0000257
     508       0       0       1       1                               0D0000258
     510     155       0       0       0       0       0       000010000D0000259
     510       0       0       1       1                               0D0000260
     192     156       0       0       0       0       0       000010000D0000261
     192       0       0       1       1                               0D0000262
     116     157       0       0       0       0       0       000010400D0000263
     116       0       0       1       0                               0D0000264
     123     158       0       0       0       0       0       000010200D0000265
     123       0       0       1       0                               0D0000266
     123     159       0       0       0       0       0       000010200D0000267
     123       0       0       1       0                               0D0000268
     508     160       0       0       0       0       0       000010000D0000269
     508       0       0       2       1                               0D0000270
     110     162       0       0       0       0       0       000010000D0000271
     110       0       0       1       0                               0D0000272
     110     163       0       0       0       0       0       000010000D0000273
     110       0       0       1       0                               0D0000274
     110     164       0       0       0       0       0       000010000D0000275
     110       0       0       1       0                               0D0000276
     110     165       0       0       0       0       0       000010000D0000277
     110       0       0       1       0                               0D0000278
     510     166       0       0       0       0       0       000010000D0000279
     510       0       0       1       1                               0D0000280
     194     167       0       0       0       0       0       000010000D0000281
     194       0       0       1       1                               0D0000282
     116     168       0       0       0       0       0       000010400D0000283
     116       0       0       1       0                               0D0000284
     123     169       0       0       0       0       0       000010200D0000285
     123       0       0       1       0                               0D0000286
     123     170       0       0       0       0       0       000010200D0000287
     123       0       0       1       0                               0D0000288
     508     171       0       0       0       0       0       000010000D0000289
     508       0       0       2       1                               0D0000290
     110     173       0       0       0       0       0       000010000D0000291
     110       0       0       1       0                               0D0000292
     110     174       0       0       0       0       0       000010000D0000293
     110       0       0       1       0                               0D0000294
     110     175       0       0       0       0       0       000010000D0000295
     110       0       0       1       0                               0D0000296
     110     176       0       0       0       0       0       000010000D0000297
     110       0       0       1       0                               0D0000298
     510     177       0       0       0       0       0       000010000D0000299
     510       0       0       1       1                               0D0000300
     192     178       0       0       0       0       0       000010000D0000301
     192       0       0       1       1                               0D0000302
     116     179       0       0       0       0       0       000010400D0000303
     116       0       0       1       0                               0D0000304
     123     180       0       0       0       0       0       000010200D0000305
     123       0       0       1       0                               0D0000306
     123     181       0       0       0       0       0       000010200D0000307
     123       0       0       1       0                               0D0000308
     508     182       0       0       0       0       0       000010000D0000309
     508       0       0       2       1                               0D0000310
     110     184       0       0       0       0       0       000010000D0000311
     110       0       0       1       0                               0D0000312
     110     185       0       0       0       0       0       000010000D0000313
     110       0       0       1       0                               0D0000314
     110     186       0       0       0       0       0       000010000D0000315
     110       0       0       1       0                               0D0000316
     110     187       0       0       0       0       0       000010000D0000317
     110       0       0       1       0                               0D0000318
     510     188       0       0       0       0       0       000010000D0000319
     510       0       0       1       1                               0D0000320
     190     189       0       0       0       0       0       000010000D0000321
     190       0       0       1       1                               0D0000322
     116     190       0       0       0       0       0       000010400D0000323
     116       0       0       1       0                               0D0000324
     123     191       0       0       0       0       0       000010200D0000325
     123       0       0       1       0                               0D0000326
     123     192       0       0       0       0       0       000010200D0000327
     123       0       0       1       0                               0D0000328
     508     193       0       0       0       0       0       000010000D0000329
     508       0       0       2       1                               0D0000330
     508     195       0       0       0       0       0       000010000D0000331
     508       0       0       1       1                               0D0000332
     508     196       0       0       0       0       0       000010000D0000333
     508       0       0       1       1                               0D0000334
     510     197       0       0       0       0       0       000010000D0000335
     510       0       0       1       1                               0D0000336
     190     198       0       0       0       0       0       000010000D0000337
     190       0       0       1       1                               0D0000338
     116     199       0       0       0       0       0       000010400D0000339
     116       0       0       1       0                               0D0000340
     123     200       0       0       0       0       0       000010200D0000341
     123       0       0       1       0                               0D0000342
     123     201       0       0       0       0       0       000010200D0000343
     123       0       0       1       0                               0D0000344
     508     202       0       0       0       0       0       000010000D0000345
     508       0       0       1       1                               0D0000346
     510     203       0       0       0       0       0       000010000D0000347
     510       0       0       1       1                               0D0000348
     190     204       0       0       0       0       0       000010000D0000349
     190       0       0       1       1                               0D0000350
     116     205       0       0       0       0       0       000010400D0000351
     116       0       0       1       0                               0D0000352
     123     206       0       0       0       0       0       000010200D0000353
     123       0       0       1       0                               0D0000354
     123     207       0       0       0       0       0       000010200D0000355
     123       0       0       1       0                               0D0000356
     508     208       0       0       0       0       0       000010000D0000357
     508       0       0       1       1                               0D0000358
     510     209       0       0       0       0       0       000010000D0000359
     510       0       0       1       1                               0D0000360
     190     210       0       0       0       0       0       000010000D0000361
     190       0       0       1       1                               0D0000362
     116     211       0       0       0       0       0       000010400D0000363
     116       0       0       1       0                               0D0000364
     123     212       0       0       0       0       0       000010200D0000365
     123       0       0       1       0                               0D0000366
     123     213       0       0       0       0       0       000010200D0000367
     123       0       0       1       0                               0D0000368
     508     214       0       0       0       0       0       000010000D0000369
     508       0       0       1       1                               0D0000370
     510     215       0       0       0       0       0       000010000D0000371
     510       0       0       1       1                               0D0000372
     190     216       0       0       0       0       0       000010000D0000373
     190       0       0       1       1                               0D0000374
     116     217       0       0       0       0       0       000010400D0000375
     116       0       0       1       0                               0D0000376
     123     218       0       0       0       0       0       000010200D0000377
     123       0       0       1       0                               0D0000378
     123     219       0       0       0       0       0       000010200D0000379
     123       0       0       1       0                               0D0000380
     508     220       0       0       0       0       0       000010000D0000381
     508       0       0       2       1                               0D0000382
     508     222       0       0       0       0       0       000010000D0000383
     508       0       0       1       1                               0D0000384
     510     223       0       0       0       0       0       000010000D0000385
     510       0       0       1       1                               0D0000386
     192     224       0       0       0       0       0       000010000D0000387
     192       0       0       1       1                               0D0000388
     116     225       0       0       0       0       0       000010400D0000389
     116       0       0       1       0                               0D0000390
     123     226       0       0       0       0       0       000010200D0000391
     123       0       0       1       0                               0D0000392
     123     227       0       0       0       0       0       000010200D0000393
     123       0       0       1       0                               0D0000394
     508     228       0       0       0       0       0       000010000D0000395
     508       0       0       2       1                               0D0000396
     110     230       0       0       0       0       0       000010000D0000397
     110       0       0       1       0                               0D0000398
     110     231       0       0       0       0       0       000010000D0000399
     110       0       0       1       0                               0D0000400
     110     232       0       0       0       0       0       000010000D0000401
     110       0       0       1       0                               0D0000402
     110     233       0       0       0       0       0       000010000D0000403
     110       0       0       1       0                               0D0000404
402,1,3;                                                         0000001P0000001
186,5,1,0;                                                       0000003P0000002
514,19,7,1,143,0,163,0,175,0,187,0,199,0,211,0,223,0,235,0,247,  0000005P0000003
1,259,0,279,0,299,0,319,0,335,1,347,1,359,1,371,1,385,0;         0000005P0000004
510,9,4,1,17,137,139,141;                                        0000007P0000005
190,11,13,15;                                                    0000009P0000006
116,6.,22.5,8.,0;                                                0000011P0000007
123,0.,1.,1.33E-15;                                              0000013P0000008
123,0.,1.33E-15,-1.;                                             0000015P0000009
508,8,0,19,1,0,0,0,19,2,1,0,0,19,3,0,0,0,19,4,0,0,0,19,5,0,0,0,  0000017P0000010
19,6,0,0,0,19,7,0,0,0,19,8,0,0;                                  0000017P0000011
504,49,21,23,1,23,2,25,23,1,23,3,27,23,4,23,3,29,23,5,23,4,31,   0000019P0000012
23,6,23,5,33,23,7,23,6,35,23,8,23,7,37,23,2,23,8,39,23,9,23,9,   0000019P0000013
43,23,10,23,10,47,23,11,23,11,51,23,9,23,12,53,23,12,23,12,57,   0000019P0000014
23,1,23,13,59,23,14,23,13,61,23,15,23,14,63,23,16,23,15,65,23,   0000019P0000015
17,23,16,67,23,17,23,18,69,23,2,23,18,71,23,18,23,19,73,23,8,23, 0000019P0000016
19,75,23,19,23,20,77,23,7,23,20,79,23,20,23,21,81,23,6,23,21,83, 0000019P0000017
23,21,23,22,85,23,22,23,23,87,23,23,23,24,89,23,24,23,25,91,23,  0000019P0000018
25,23,26,93,23,5,23,26,95,23,26,23,27,97,23,4,23,27,99,23,28,23, 0000019P0000019
27,101,23,3,23,28,103,23,13,23,28,105,23,10,23,29,107,23,29,23,  0000019P0000020
29,111,23,11,23,30,113,23,30,23,30,117,23,12,23,31,119,23,31,23, 0000019P0000021
31,123,23,17,23,22,125,23,32,23,32,129,23,16,23,23,131,23,15,23, 0000019P0000022
24,133,23,14,23,25,135,23,30,23,32;                              0000019P0000023
110,6.,22.5,8.,13.5,22.5,8.;                                     0000021P0000024
502,32,6.,22.5,8.,13.5,22.5,8.,2.,22.5,12.,2.,22.5,19.,6.,22.5,  0000023P0000025
23.,13.5,22.5,23.,15.,22.5,21.5,15.,22.5,9.5,10.52,22.5,20.5,    0000023P0000026
3.32,22.5,15.5,10.52,22.5,10.5,11.32,21.7,20.5,6.,18.25,8.,      0000023P0000027
6.375,18.25,8.,6.375,20.,8.,10.625,20.,8.,10.625,18.,8.,13.5,    0000023P0000028
18.,8.,15.,18.,9.5,15.,18.,21.5,13.5,18.,23.,10.625,18.,23.,     0000023P0000029
10.625,20.,23.,6.375,20.,23.,6.375,18.25,23.,6.,18.25,23.,2.,    0000023P0000030
18.25,19.,2.,18.25,12.,3.32,18.25,15.5,11.32,21.7,10.5,11.32,    0000023P0000031
18.,20.5,11.32,18.,10.5;                                         0000023P0000032
110,6.,22.5,8.,2.,22.5,12.;                                      0000025P0000033
110,2.,22.5,19.,2.,22.5,12.;                                     0000027P0000034
110,6.,22.5,23.,2.,22.5,19.;                                     0000029P0000035
110,13.5,22.5,23.,6.,22.5,23.;                                   0000031P0000036
110,15.,22.5,21.5,13.5,22.5,23.;                                 0000033P0000037
110,15.,22.5,9.5,15.,22.5,21.5;                                  0000035P0000038
110,13.5,22.5,8.,15.,22.5,9.5;                                   0000037P0000039
100,0.,0.,0.,1.98,0.,1.98,0.;                                    0000039P0000040
124,-1.,-3.8E-16,0.,12.5,-5.054E-31,1.33E-15,-1.,22.5,3.8E-16,   0000041P0000041
-1.,-1.33E-15,20.5;                                              0000041P0000042
100,0.,0.,0.,1.18,0.,1.18,0.;                                    0000043P0000043
124,-1.,0.,0.,4.5,0.,1.33E-15,-1.,22.5,0.,-1.,-1.33E-15,15.5;    0000045P0000044
100,0.,0.,0.,1.98,0.,1.98,0.;                                    0000047P0000045
124,-1.,0.,0.,12.5,0.,1.33E-15,-1.,22.5,0.,-1.,-1.33E-15,10.5;   0000049P0000046
110,10.52,22.5,20.5,11.32,21.7,20.5;                             0000051P0000047
100,0.,0.,0.,1.18,0.,1.18,0.;                                    0000053P0000048
124,-1.,-3.8E-16,0.,12.5,-5.054E-31,1.33E-15,-1.,21.7,3.8E-16,   0000055P0000049
-1.,-1.33E-15,20.5;                                              0000055P0000050
110,6.,22.5,8.,6.,18.25,8.;                                      0000057P0000051
110,6.375,18.25,8.,6.,18.25,8.;                                  0000059P0000052
110,6.375,20.,8.,6.375,18.25,8.;                                 0000061P0000053
110,10.625,20.,8.,6.375,20.,8.;                                  0000063P0000054
110,10.625,18.,8.,10.625,20.,8.;                                 0000065P0000055
110,10.625,18.,8.,13.5,18.,8.;                                   0000067P0000056
110,13.5,22.5,8.,13.5,18.,8.;                                    0000069P0000057
110,13.5,18.,8.,15.,18.,9.5;                                     0000071P0000058
110,15.,22.5,9.5,15.,18.,9.5;                                    0000073P0000059
110,15.,18.,9.5,15.,18.,21.5;                                    0000075P0000060
110,15.,22.5,21.5,15.,18.,21.5;                                  0000077P0000061
110,15.,18.,21.5,13.5,18.,23.;                                   0000079P0000062
110,13.5,22.5,23.,13.5,18.,23.;                                  0000081P0000063
110,13.5,18.,23.,10.625,18.,23.;                                 0000083P0000064
110,10.625,18.,23.,10.625,20.,23.;                               0000085P0000065
110,10.625,20.,23.,6.375,20.,23.;                                0000087P0000066
110,6.375,20.,23.,6.375,18.25,23.;                               0000089P0000067
110,6.375,18.25,23.,6.,18.25,23.;                                0000091P0000068
110,6.,22.5,23.,6.,18.25,23.;                                    0000093P0000069
110,6.,18.25,23.,2.,18.25,19.;                                   0000095P0000070
110,2.,22.5,19.,2.,18.25,19.;                                    0000097P0000071
110,2.,18.25,12.,2.,18.25,19.;                                   0000099P0000072
110,2.,22.5,12.,2.,18.25,12.;                                    0000101P0000073
110,6.,18.25,8.,2.,18.25,12.;                                    0000103P0000074
110,3.32,22.5,15.5,3.32,18.25,15.5;                              0000105P0000075
100,0.,0.,0.,1.18,0.,1.18,0.;                                    0000107P0000076
124,-1.,-0.,0.,4.5,0.,-1.33E-15,1.,18.25,0.,1.,1.33E-15,15.5;    0000109P0000077
110,10.52,22.5,10.5,11.32,21.7,10.5;                             0000111P0000078
100,0.,0.,0.,1.18,0.,1.18,0.;                                    0000113P0000079
124,-1.,0.,0.,12.5,0.,1.33E-15,-1.,21.7,0.,-1.,-1.33E-15,10.5;   0000115P0000080
110,11.32,21.7,20.5,11.32,18.,20.5;                              0000117P0000081
100,0.,0.,0.,1.18,0.,1.18,0.;                                    0000119P0000082
124,-1.,0.,0.,12.5,0.,1.33E-15,-1.,18.,0.,-1.,-1.33E-15,20.5;    0000121P0000083
110,10.625,18.,8.,10.625,18.,23.;                                0000123P0000084
100,0.,0.,0.,1.18,0.,1.18,0.;                                    0000125P0000085
124,-1.,0.,0.,12.5,0.,1.33E-15,-1.,18.,0.,-1.,-1.33E-15,10.5;    0000127P0000086
110,10.625,20.,8.,10.625,20.,23.;                                0000129P0000087
110,6.375,20.,8.,6.375,20.,23.;                                  0000131P0000088
110,6.375,18.25,8.,6.375,18.25,23.;                              0000133P0000089
110,11.32,21.7,10.5,11.32,18.,10.5;                              0000135P0000090
508,1,0,19,9,1,0;                                                0000137P0000091
508,1,0,19,10,1,0;                                               0000139P0000092
508,1,0,19,11,1,0;                                               0000141P0000093
510,145,1,1,153;                                                 0000143P0000094
194,147,149,1.18,45.,151;                                        0000145P0000095
116,12.5,21.7,20.5,0;                                            0000147P0000096
123,0.,1.,1.33E-15;                                              0000149P0000097
123,-1.,-5.054E-31,3.8E-16;                                      0000151P0000098
508,4,0,19,12,0,1,0,155,0,19,9,1,1,0,157,0,19,12,1,1,0,159,0,19, 0000153P0000099
13,0,1,0,161;                                                    0000153P0000100
110,360.,1.015199036E-10,0.,360.,1.13137085,0.;                  0000155P0000101
110,360.,1.13137085,0.,0.,1.13137085,0.;                         0000157P0000102
110,0.,1.13137085,0.,0.,1.015199036E-10,0.;                      0000159P0000103
110,0.,0.,0.,360.,0.,0.;                                         0000161P0000104
510,165,1,1,173;                                                 0000163P0000105
190,167,169,171;                                                 0000165P0000106
116,6.,22.5,8.,0;                                                0000167P0000107
123,-0.,-1.11E-15,1.;                                            0000169P0000108
123,1.,0.,-0.;                                                   0000171P0000109
508,8,0,19,1,0,0,0,19,14,1,0,0,19,15,0,0,0,19,16,0,0,0,19,17,0,  0000173P0000110
0,0,19,18,0,0,0,19,19,1,0,0,19,20,0,0;                           0000173P0000111
510,177,1,1,185;                                                 0000175P0000112
190,179,181,183;                                                 0000177P0000113
116,13.5,22.5,8.,0;                                              0000179P0000114
123,-0.707106781,-7.9E-16,0.707106781;                           0000181P0000115
123,0.707106781,-9.4E-16,0.707106781;                            0000183P0000116
508,4,0,19,20,1,0,0,19,21,1,0,0,19,22,0,0,0,19,8,0,0;            0000185P0000117
510,189,1,1,197;                                                 0000187P0000118
190,191,193,195;                                                 0000189P0000119
116,15.,22.5,9.5,0;                                              0000191P0000120
123,-1.,0.,0.;                                                   0000193P0000121
123,-0.,-1.33E-15,1.;                                            0000195P0000122
508,4,0,19,22,1,0,0,19,23,1,0,0,19,24,0,0,0,19,7,0,0;            0000197P0000123
510,201,1,1,209;                                                 0000199P0000124
190,203,205,207;                                                 0000201P0000125
116,15.,22.5,21.5,0;                                             0000203P0000126
123,-0.707106781,7.9E-16,-0.707106781;                           0000205P0000127
123,-0.707106781,-9.4E-16,0.707106781;                           0000207P0000128
508,4,0,19,24,1,0,0,19,25,1,0,0,19,26,0,0,0,19,6,0,0;            0000209P0000129
510,213,1,1,221;                                                 0000211P0000130
190,215,217,219;                                                 0000213P0000131
116,13.5,22.5,23.,0;                                             0000215P0000132
123,0.,1.11E-15,-1.;                                             0000217P0000133
123,-1.,0.,0.;                                                   0000219P0000134
508,8,0,19,5,0,0,0,19,26,1,0,0,19,27,1,0,0,19,28,1,0,0,19,29,1,  0000221P0000135
0,0,19,30,1,0,0,19,31,1,0,0,19,32,0,0;                           0000221P0000136
510,225,1,1,233;                                                 0000223P0000137
190,227,229,231;                                                 0000225P0000138
116,6.,22.5,23.,0;                                               0000227P0000139
123,0.707106781,7.9E-16,-0.707106781;                            0000229P0000140
123,-0.707106781,9.4E-16,-0.707106781;                           0000231P0000141
508,4,0,19,4,0,0,0,19,32,1,0,0,19,33,1,0,0,19,34,0,0;            0000233P0000142
510,237,1,1,245;                                                 0000235P0000143
190,239,241,243;                                                 0000237P0000144
116,2.,22.5,19.,0;                                               0000239P0000145
123,1.,0.,0.;                                                    0000241P0000146
123,0.,1.33E-15,-1.;                                             0000243P0000147
508,4,0,19,3,0,0,0,19,34,1,0,0,19,35,0,0,0,19,36,0,0;            0000245P0000148
510,249,1,1,257;                                                 0000247P0000149
190,251,253,255;                                                 0000249P0000150
116,6.,22.5,8.,0;                                                0000251P0000151
123,-0.707106781,7.9E-16,-0.707106781;                           0000253P0000152
123,-0.707106781,-9.4E-16,0.707106781;                           0000255P0000153
508,4,0,19,2,0,0,0,19,14,1,0,0,19,37,1,0,0,19,36,0,0;            0000257P0000154
510,261,1,1,269;                                                 0000259P0000155
192,263,265,1.18,267;                                            0000261P0000156
116,4.5,22.5,15.5,0;                                             0000263P0000157
123,0.,1.,1.33E-15;                                              0000265P0000158
123,-1.,0.,0.;                                                   0000267P0000159
508,4,0,19,10,1,1,0,271,0,19,38,1,1,0,273,0,19,39,1,1,0,275,0,   0000269P0000160
19,38,0,1,0,277;                                                 0000269P0000161
110,360.,0.,0.,0.,0.,0.;                                         0000271P0000162
110,0.,0.,0.,0.,-4.25,0.;                                        0000273P0000163
110,0.,-4.25,0.,360.,-4.25,0.;                                   0000275P0000164
110,360.,-4.25,0.,360.,0.,0.;                                    0000277P0000165
510,281,1,1,289;                                                 0000279P0000166
194,283,285,1.18,45.,287;                                        0000281P0000167
116,12.5,21.7,10.5,0;                                            0000283P0000168
123,0.,1.,1.33E-15;                                              0000285P0000169
123,-1.,0.,0.;                                                   0000287P0000170
508,4,0,19,40,0,1,0,291,0,19,11,1,1,0,293,0,19,40,1,1,0,295,0,   0000289P0000171
19,41,0,1,0,297;                                                 0000289P0000172
110,360.,1.015110218E-10,0.,360.,1.13137085,0.;                  0000291P0000173
110,360.,1.13137085,0.,0.,1.13137085,0.;                         0000293P0000174
110,0.,1.13137085,0.,0.,1.015110218E-10,0.;                      0000295P0000175
110,0.,0.,0.,360.,0.,0.;                                         0000297P0000176
510,301,1,1,309;                                                 0000299P0000177
192,303,305,1.18,307;                                            0000301P0000178
116,12.5,22.5,20.5,0;                                            0000303P0000179
123,0.,1.,1.33E-15;                                              0000305P0000180
123,-1.,0.,0.;                                                   0000307P0000181
508,4,0,19,42,0,1,0,311,0,19,13,1,1,0,313,0,19,42,1,1,0,315,0,   0000309P0000182
19,43,0,1,0,317;                                                 0000309P0000183
110,360.,-4.5,-0.,360.,-0.8,-0.;                                 0000311P0000184
110,360.,-0.8,0.,0.,-0.8,0.;                                     0000313P0000185
110,0.,-0.8,-0.,0.,-4.5,-0.;                                     0000315P0000186
110,0.,-4.5,0.,360.,-4.5,0.;                                     0000317P0000187
510,321,3,1,329,331,333;                                         0000319P0000188
190,323,325,327;                                                 0000321P0000189
116,6.,18.,8.,0;                                                 0000323P0000190
123,0.,1.,1.33E-15;                                              0000325P0000191
123,0.,1.33E-15,-1.;                                             0000327P0000192
508,6,0,19,19,0,0,0,19,44,1,0,0,19,27,0,0,0,19,25,0,0,0,19,23,0, 0000329P0000193
0,0,19,21,0,0;                                                   0000329P0000194
508,1,0,19,43,1,0;                                               0000331P0000195
508,1,0,19,45,1,0;                                               0000333P0000196
510,337,1,1,345;                                                 0000335P0000197
190,339,341,343;                                                 0000337P0000198
116,10.625,18.,8.,0;                                             0000339P0000199
123,-1.,0.,0.;                                                   0000341P0000200
123,0.,1.,1.11E-15;                                              0000343P0000201
508,4,0,19,18,0,0,0,19,44,1,0,0,19,28,1,0,0,19,46,0,0;           0000345P0000202
510,349,1,1,357;                                                 0000347P0000203
190,351,353,355;                                                 0000349P0000204
116,10.625,20.,8.,0;                                             0000351P0000205
123,0.,-1.,-1.11E-15;                                            0000353P0000206
123,-1.,0.,0.;                                                   0000355P0000207
508,4,0,19,17,0,0,0,19,46,1,0,0,19,29,1,0,0,19,47,0,0;           0000357P0000208
510,361,1,1,369;                                                 0000359P0000209
190,363,365,367;                                                 0000361P0000210
116,6.375,20.,8.,0;                                              0000363P0000211
123,1.,0.,0.;                                                    0000365P0000212
123,0.,-1.,-1.11E-15;                                            0000367P0000213
508,4,0,19,16,0,0,0,19,47,1,0,0,19,30,1,0,0,19,48,0,0;           0000369P0000214
510,373,2,1,381,383;                                             0000371P0000215
190,375,377,379;                                                 0000373P0000216
116,6.375,18.25,8.,0;                                            0000375P0000217
123,0.,-1.,-1.11E-15;                                            0000377P0000218
123,-1.,0.,0.;                                                   0000379P0000219
508,6,0,19,15,0,0,0,19,48,1,0,0,19,31,1,0,0,19,33,1,0,0,19,35,0, 0000381P0000220
0,0,19,37,0,0;                                                   0000381P0000221
508,1,0,19,39,1,0;                                               0000383P0000222
510,387,1,1,395;                                                 0000385P0000223
192,389,391,1.18,393;                                            0000387P0000224
116,12.5,22.5,10.5,0;                                            0000389P0000225
123,0.,1.,1.33E-15;                                              0000391P0000226
123,-1.,0.,0.;                                                   0000393P0000227
508,4,0,19,49,0,1,0,397,0,19,41,1,1,0,399,0,19,49,1,1,0,401,0,   0000395P0000228
19,45,0,1,0,403;                                                 0000395P0000229
110,360.,-4.5,-0.,360.,-0.8,-0.;                                 0000397P0000230
110,360.,-0.8,0.,0.,-0.8,0.;                                     0000399P0000231
110,0.,-0.8,-0.,0.,-4.5,-0.;                                     0000401P0000232
110,0.,-4.5,0.,360.,-4.5,0.;                                     0000403P0000233
S      1G      4D    404P    233                                        T0000001
