                                                                        S0000001
,,31HOpen CASCADE IGES processor 7.6,13HFilename.iges,                  G0000001
16HOpen CASCADE 7.6,31HOpen CASCADE IGES processor 7.6,32,308,15,308,15,G0000002
,1.,2,2HMM,1,0.01,15H20240513.110708,1E-07,102.0498,,,11,0,             G0000003
15H20240513.110708,;                                                    G0000004
     402       1       0       0       0       0       0       000000000D0000001
     402       0       0       1       1                               0D0000002
     186       2       0       0       0       0       0       000020000D0000003
     186       0       0       1       0                               0D0000004
     514       3       0       0       0       0       0       000010000D0000005
     514       0       0       3       1                               0D0000006
     510       6       0       0       0       0       0       000010000D0000007
     510       0       0       1       1                               0D0000008
     190       7       0       0       0       0       0       000010000D0000009
     190       0       0       1       1                               0D0000010
     116       8       0       0       0       0       0       000010400D0000011
     116       0       0       1       0                               0D0000012
     123       9       0       0       0       0       0       000010200D0000013
     123       0       0       1       0                               0D0000014
     123      10       0       0       0       0       0       000010200D0000015
     123       0       0       1       0                               0D0000016
     508      11       0       0       0       0       0       000010000D0000017
     508       0       0       2       1                               0D0000018
     504      13       0       0       0       0       0       000010001D0000019
     504       0       0      13       1                               0D0000020
     110      26       0       0       0       0       0       000010000D0000021
     110       0       0       1       0                               0D0000022
     502      27       0       0       0       0       0       000010000D0000023
     502       0       0      11       1                               0D0000024
     110      38       0       0       0       0       0       000010000D0000025
     110       0       0       1       0                               0D0000026
     110      39       0       0       0       0       0       000010000D0000027
     110       0       0       1       0                               0D0000028
     110      40       0       0       0       0       0       000010000D0000029
     110       0       0       1       0                               0D0000030
     110      41       0       0       0       0       0       000010000D0000031
     110       0       0       1       0                               0D0000032
     110      42       0       0       0       0       0       000010000D0000033
     110       0       0       1       0                               0D0000034
     110      43       0       0       0       0       0       000010000D0000035
     110       0       0       1       0                               0D0000036
     110      44       0       0       0       0       0       000010000D0000037
     110       0       0       1       0                               0D0000038
     110      45       0       0       0       0       0       000010000D0000039
     110       0       0       1       0                               0D0000040
     110      46       0       0       0       0       0       000010000D0000041
     110       0       0       1       0                               0D0000042
     110      47       0       0       0       0       0       000010000D0000043
     110       0       0       1       0                               0D0000044
     110      48       0       0       0       0       0       000010000D0000045
     110       0       0       1       0                               0D0000046
     110      49       0       0       0       0       0       000010000D0000047
     110       0       0       1       0                               0D0000048
     110      50       0       0       0       0       0       000010000D0000049
     110       0       0       1       0                               0D0000050
     110      51       0       0       0       0       0       000010000D0000051
     110       0       0       1       0                               0D0000052
     110      52       0       0       0       0       0       000010000D0000053
     110       0       0       1       0                               0D0000054
     110      53       0       0       0       0       0       000010000D0000055
     110       0       0       1       0                               0D0000056
     110      54       0       0       0       0       0       000010000D0000057
     110       0       0       1       0                               0D0000058
     110      55       0       0       0       0       0       000010000D0000059
     110       0       0       1       0                               0D0000060
     110      56       0       0       0       0       0       000010000D0000061
     110       0       0       1       0                               0D0000062
     100      57       0       0       0       0      65       000010000D0000063
     100       0       0       1       0                               0D0000064
     124      58       0       0       0       0       0       000000000D0000065
     124       0       0       1       0                               0D0000066
     110      59       0       0       0       0       0       000010000D0000067
     110       0       0       1       0                               0D0000068
     110      60       0       0       0       0       0       000010000D0000069
     110       0       0       1       0                               0D0000070
     110      61       0       0       0       0       0       000010000D0000071
     110       0       0       1       0                               0D0000072
     110      62       0       0       0       0       0       000010000D0000073
     110       0       0       1       0                               0D0000074
     110      63       0       0       0       0       0       000010000D0000075
     110       0       0       1       0                               0D0000076
     110      64       0       0       0       0       0       000010000D0000077
     110       0       0       1       0                               0D0000078
     110      65       0       0       0       0       0       000010000D0000079
     110       0       0       1       0                               0D0000080
     110      66       0       0       0       0       0       000010000D0000081
     110       0       0       1       0                               0D0000082
     110      67       0       0       0       0       0       000010000D0000083
     110       0       0       1       0                               0D0000084
     110      68       0       0       0       0       0       000010000D0000085
     110       0       0       1       0                               0D0000086
     110      69       0       0       0       0       0       000010000D0000087
     110       0       0       1       0                               0D0000088
     110      70       0       0       0       0       0       000010000D0000089
     110       0       0       1       0                               0D0000090
     110      71       0       0       0       0       0       000010000D0000091
     110       0       0       1       0                               0D0000092
     110      72       0       0       0       0       0       000010000D0000093
     110       0       0       1       0                               0D0000094
     110      73       0       0       0       0       0       000010000D0000095
     110       0       0       1       0                               0D0000096
     110      74       0       0       0       0       0       000010000D0000097
     110       0       0       1       0                               0D0000098
     110      75       0       0       0       0       0       000010000D0000099
     110       0       0       2       0                               0D0000100
     110      77       0       0       0       0       0       000010000D0000101
     110       0       0       1       0                               0D0000102
     110      78       0       0       0       0       0       000010000D0000103
     110       0       0       1       0                               0D0000104
     110      79       0       0       0       0       0       000010000D0000105
     110       0       0       1       0                               0D0000106
     110      80       0       0       0       0       0       000010000D0000107
     110       0       0       1       0                               0D0000108
     110      81       0       0       0       0       0       000010000D0000109
     110       0       0       1       0                               0D0000110
     100      82       0       0       0       0     113       000010000D0000111
     100       0       0       1       0                               0D0000112
     124      83       0       0       0       0       0       000000000D0000113
     124       0       0       1       0                               0D0000114
     100      84       0       0       0       0     117       000010000D0000115
     100       0       0       1       0                               0D0000116
     124      85       0       0       0       0       0       000000000D0000117
     124       0       0       1       0                               0D0000118
     100      86       0       0       0       0     121       000010000D0000119
     100       0       0       1       0                               0D0000120
     124      87       0       0       0       0       0       000000000D0000121
     124       0       0       1       0                               0D0000122
     100      88       0       0       0       0     125       000010000D0000123
     100       0       0       2       0                               0D0000124
     124      90       0       0       0       0       0       000000000D0000125
     124       0       0       1       0                               0D0000126
     100      91       0       0       0       0     129       000010000D0000127
     100       0       0       1       0                               0D0000128
     124      92       0       0       0       0       0       000000000D0000129
     124       0       0       1       0                               0D0000130
     100      93       0       0       0       0     133       000010000D0000131
     100       0       0       1       0                               0D0000132
     124      94       0       0       0       0       0       000000000D0000133
     124       0       0       1       0                               0D0000134
     100      95       0       0       0       0     137       000010000D0000135
     100       0       0       1       0                               0D0000136
     124      96       0       0       0       0       0       000000000D0000137
     124       0       0       1       0                               0D0000138
     100      97       0       0       0       0     141       000010000D0000139
     100       0       0       1       0                               0D0000140
     124      98       0       0       0       0       0       000000000D0000141
     124       0       0       1       0                               0D0000142
     110      99       0       0       0       0       0       000010000D0000143
     110       0       0       1       0                               0D0000144
     100     100       0       0       0       0     147       000010000D0000145
     100       0       0       1       0                               0D0000146
     124     101       0       0       0       0       0       000000000D0000147
     124       0       0       1       0                               0D0000148
     510     102       0       0       0       0       0       000010000D0000149
     510       0       0       1       1                               0D0000150
     190     103       0       0       0       0       0       000010000D0000151
     190       0       0       1       1                               0D0000152
     116     104       0       0       0       0       0       000010400D0000153
     116       0       0       1       0                               0D0000154
     123     105       0       0       0       0       0       000010200D0000155
     123       0       0       1       0                               0D0000156
     123     106       0       0       0       0       0       000010200D0000157
     123       0       0       1       0                               0D0000158
     508     107       0       0       0       0       0       000010000D0000159
     508       0       0       1       1                               0D0000160
     510     108       0       0       0       0       0       000010000D0000161
     510       0       0       1       1                               0D0000162
     190     109       0       0       0       0       0       000010000D0000163
     190       0       0       1       1                               0D0000164
     116     110       0       0       0       0       0       000010400D0000165
     116       0       0       1       0                               0D0000166
     123     111       0       0       0       0       0       000010200D0000167
     123       0       0       1       0                               0D0000168
     123     112       0       0       0       0       0       000010200D0000169
     123       0       0       1       0                               0D0000170
     508     113       0       0       0       0       0       000010000D0000171
     508       0       0       1       1                               0D0000172
     510     114       0       0       0       0       0       000010000D0000173
     510       0       0       1       1                               0D0000174
     190     115       0       0       0       0       0       000010000D0000175
     190       0       0       1       1                               0D0000176
     116     116       0       0       0       0       0       000010400D0000177
     116       0       0       1       0                               0D0000178
     123     117       0       0       0       0       0       000010200D0000179
     123       0       0       1       0                               0D0000180
     123     118       0       0       0       0       0       000010200D0000181
     123       0       0       1       0                               0D0000182
     508     119       0       0       0       0       0       000010000D0000183
     508       0       0       2       1                               0D0000184
     510     121       0       0       0       0       0       000010000D0000185
     510       0       0       1       1                               0D0000186
     190     122       0       0       0       0       0       000010000D0000187
     190       0       0       1       1                               0D0000188
     116     123       0       0       0       0       0       000010400D0000189
     116       0       0       1       0                               0D0000190
     123     124       0       0       0       0       0       000010200D0000191
     123       0       0       1       0                               0D0000192
     123     125       0       0       0       0       0       000010200D0000193
     123       0       0       1       0                               0D0000194
     508     126       0       0       0       0       0       000010000D0000195
     508       0       0       1       1                               0D0000196
     510     127       0       0       0       0       0       000010000D0000197
     510       0       0       1       1                               0D0000198
     190     128       0       0       0       0       0       000010000D0000199
     190       0       0       1       1                               0D0000200
     116     129       0       0       0       0       0       000010400D0000201
     116       0       0       1       0                               0D0000202
     123     130       0       0       0       0       0       000010200D0000203
     123       0       0       1       0                               0D0000204
     123     131       0       0       0       0       0       000010200D0000205
     123       0       0       1       0                               0D0000206
     508     132       0       0       0       0       0       000010000D0000207
     508       0       0       2       1                               0D0000208
     510     134       0       0       0       0       0       000010000D0000209
     510       0       0       1       1                               0D0000210
     190     135       0       0       0       0       0       000010000D0000211
     190       0       0       1       1                               0D0000212
     116     136       0       0       0       0       0       000010400D0000213
     116       0       0       1       0                               0D0000214
     123     137       0       0       0       0       0       000010200D0000215
     123       0       0       1       0                               0D0000216
     123     138       0       0       0       0       0       000010200D0000217
     123       0       0       1       0                               0D0000218
     508     139       0       0       0       0       0       000010000D0000219
     508       0       0       2       1                               0D0000220
     510     141       0       0       0       0       0       000010000D0000221
     510       0       0       1       1                               0D0000222
     190     142       0       0       0       0       0       000010000D0000223
     190       0       0       1       1                               0D0000224
     116     143       0       0       0       0       0       000010400D0000225
     116       0       0       1       0                               0D0000226
     123     144       0       0       0       0       0       000010200D0000227
     123       0       0       1       0                               0D0000228
     123     145       0       0       0       0       0       000010200D0000229
     123       0       0       1       0                               0D0000230
     508     146       0       0       0       0       0       000010000D0000231
     508       0       0       2       1                               0D0000232
     510     148       0       0       0       0       0       000010000D0000233
     510       0       0       1       1                               0D0000234
     190     149       0       0       0       0       0       000010000D0000235
     190       0       0       1       1                               0D0000236
     116     150       0       0       0       0       0       000010400D0000237
     116       0       0       1       0                               0D0000238
     123     151       0       0       0       0       0       000010200D0000239
     123       0       0       1       0                               0D0000240
     123     152       0       0       0       0       0       000010200D0000241
     123       0       0       1       0                               0D0000242
     508     153       0       0       0       0       0       000010000D0000243
     508       0       0       1       1                               0D0000244
     510     154       0       0       0       0       0       000010000D0000245
     510       0       0       1       1                               0D0000246
     190     155       0       0       0       0       0       000010000D0000247
     190       0       0       1       1                               0D0000248
     116     156       0       0       0       0       0       000010400D0000249
     116       0       0       1       0                               0D0000250
     123     157       0       0       0       0       0       000010200D0000251
     123       0       0       1       0                               0D0000252
     123     158       0       0       0       0       0       000010200D0000253
     123       0       0       1       0                               0D0000254
     508     159       0       0       0       0       0       000010000D0000255
     508       0       0       2       1                               0D0000256
     510     161       0       0       0       0       0       000010000D0000257
     510       0       0       1       1                               0D0000258
     190     162       0       0       0       0       0       000010000D0000259
     190       0       0       1       1                               0D0000260
     116     163       0       0       0       0       0       000010400D0000261
     116       0       0       1       0                               0D0000262
     123     164       0       0       0       0       0       000010200D0000263
     123       0       0       1       0                               0D0000264
     123     165       0       0       0       0       0       000010200D0000265
     123       0       0       1       0                               0D0000266
     508     166       0       0       0       0       0       000010000D0000267
     508       0       0       1       1                               0D0000268
     510     167       0       0       0       0       0       000010000D0000269
     510       0       0       1       1                               0D0000270
     190     168       0       0       0       0       0       000010000D0000271
     190       0       0       1       1                               0D0000272
     116     169       0       0       0       0       0       000010400D0000273
     116       0       0       1       0                               0D0000274
     123     170       0       0       0       0       0       000010200D0000275
     123       0       0       1       0                               0D0000276
     123     171       0       0       0       0       0       000010200D0000277
     123       0       0       1       0                               0D0000278
     508     172       0       0       0       0       0       000010000D0000279
     508       0       0       2       1                               0D0000280
     510     174       0       0       0       0       0       000010000D0000281
     510       0       0       1       1                               0D0000282
     190     175       0       0       0       0       0       000010000D0000283
     190       0       0       1       1                               0D0000284
     116     176       0       0       0       0       0       000010400D0000285
     116       0       0       1       0                               0D0000286
     123     177       0       0       0       0       0       000010200D0000287
     123       0       0       1       0                               0D0000288
     123     178       0       0       0       0       0       000010200D0000289
     123       0       0       1       0                               0D0000290
     508     179       0       0       0       0       0       000010000D0000291
     508       0       0       2       1                               0D0000292
     510     181       0       0       0       0       0       000010000D0000293
     510       0       0       1       1                               0D0000294
     192     182       0       0       0       0       0       000010000D0000295
     192       0       0       1       1                               0D0000296
     116     183       0       0       0       0       0       000010400D0000297
     116       0       0       1       0                               0D0000298
     123     184       0       0       0       0       0       000010200D0000299
     123       0       0       1       0                               0D0000300
     123     185       0       0       0       0       0       000010200D0000301
     123       0       0       1       0                               0D0000302
     508     186       0       0       0       0       0       000010000D0000303
     508       0       0       4       1                               0D0000304
     110     190       0       0       0       0       0       000010000D0000305
     110       0       0       1       0                               0D0000306
     110     191       0       0       0       0       0       000010000D0000307
     110       0       0       1       0                               0D0000308
     110     192       0       0       0       0       0       000010000D0000309
     110       0       0       1       0                               0D0000310
     110     193       0       0       0       0       0       000010000D0000311
     110       0       0       1       0                               0D0000312
     110     194       0       0       0       0       0       000010000D0000313
     110       0       0       1       0                               0D0000314
     110     195       0       0       0       0       0       000010000D0000315
     110       0       0       1       0                               0D0000316
     110     196       0       0       0       0       0       000010000D0000317
     110       0       0       1       0                               0D0000318
     110     197       0       0       0       0       0       000010000D0000319
     110       0       0       1       0                               0D0000320
     110     198       0       0       0       0       0       000010000D0000321
     110       0       0       1       0                               0D0000322
     110     199       0       0       0       0       0       000010000D0000323
     110       0       0       1       0                               0D0000324
     110     200       0       0       0       0       0       000010000D0000325
     110       0       0       1       0                               0D0000326
     110     201       0       0       0       0       0       000010000D0000327
     110       0       0       1       0                               0D0000328
     510     202       0       0       0       0       0       000010000D0000329
     510       0       0       1       1                               0D0000330
     190     203       0       0       0       0       0       000010000D0000331
     190       0       0       1       1                               0D0000332
     116     204       0       0       0       0       0       000010400D0000333
     116       0       0       1       0                               0D0000334
     123     205       0       0       0       0       0       000010200D0000335
     123       0       0       1       0                               0D0000336
     123     206       0       0       0       0       0       000010200D0000337
     123       0       0       1       0                               0D0000338
     508     207       0       0       0       0       0       000010000D0000339
     508       0       0       1       1                               0D0000340
     510     208       0       0       0       0       0       000010000D0000341
     510       0       0       1       1                               0D0000342
     190     209       0       0       0       0       0       000010000D0000343
     190       0       0       1       1                               0D0000344
     116     210       0       0       0       0       0       000010400D0000345
     116       0       0       1       0                               0D0000346
     123     211       0       0       0       0       0       000010200D0000347
     123       0       0       1       0                               0D0000348
     123     212       0       0       0       0       0       000010200D0000349
     123       0       0       1       0                               0D0000350
     508     213       0       0       0       0       0       000010000D0000351
     508       0       0       1       1                               0D0000352
     510     214       0       0       0       0       0       000010000D0000353
     510       0       0       1       1                               0D0000354
     190     215       0       0       0       0       0       000010000D0000355
     190       0       0       1       1                               0D0000356
     116     216       0       0       0       0       0       000010400D0000357
     116       0       0       1       0                               0D0000358
     123     217       0       0       0       0       0       000010200D0000359
     123       0       0       1       0                               0D0000360
     123     218       0       0       0       0       0       000010200D0000361
     123       0       0       1       0                               0D0000362
     508     219       0       0       0       0       0       000010000D0000363
     508       0       0       1       1                               0D0000364
     510     220       0       0       0       0       0       000010000D0000365
     510       0       0       1       1                               0D0000366
     190     221       0       0       0       0       0       000010000D0000367
     190       0       0       1       1                               0D0000368
     116     222       0       0       0       0       0       000010400D0000369
     116       0       0       1       0                               0D0000370
     123     223       0       0       0       0       0       000010200D0000371
     123       0       0       1       0                               0D0000372
     123     224       0       0       0       0       0       000010200D0000373
     123       0       0       1       0                               0D0000374
     508     225       0       0       0       0       0       000010000D0000375
     508       0       0       1       1                               0D0000376
     510     226       0       0       0       0       0       000010000D0000377
     510       0       0       1       1                               0D0000378
     190     227       0       0       0       0       0       000010000D0000379
     190       0       0       1       1                               0D0000380
     116     228       0       0       0       0       0       000010400D0000381
     116       0       0       1       0                               0D0000382
     123     229       0       0       0       0       0       000010200D0000383
     123       0       0       1       0                               0D0000384
     123     230       0       0       0       0       0       000010200D0000385
     123       0       0       1       0                               0D0000386
     508     231       0       0       0       0       0       000010000D0000387
     508       0       0       1       1                               0D0000388
     510     232       0       0       0       0       0       000010000D0000389
     510       0       0       1       1                               0D0000390
     190     233       0       0       0       0       0       000010000D0000391
     190       0       0       1       1                               0D0000392
     116     234       0       0       0       0       0       000010400D0000393
     116       0       0       1       0                               0D0000394
     123     235       0       0       0       0       0       000010200D0000395
     123       0       0       1       0                               0D0000396
     123     236       0       0       0       0       0       000010200D0000397
     123       0       0       1       0                               0D0000398
     508     237       0       0       0       0       0       000010000D0000399
     508       0       0       1       1                               0D0000400
     510     238       0       0       0       0       0       000010000D0000401
     510       0       0       1       1                               0D0000402
     190     239       0       0       0       0       0       000010000D0000403
     190       0       0       1       1                               0D0000404
     116     240       0       0       0       0       0       000010400D0000405
     116       0       0       1       0                               0D0000406
     123     241       0       0       0       0       0       000010200D0000407
     123       0       0       1       0                               0D0000408
     123     242       0       0       0       0       0       000010200D0000409
     123       0       0       1       0                               0D0000410
     508     243       0       0       0       0       0       000010000D0000411
     508       0       0       1       1                               0D0000412
     510     244       0       0       0       0       0       000010000D0000413
     510       0       0       1       1                               0D0000414
     190     245       0       0       0       0       0       000010000D0000415
     190       0       0       1       1                               0D0000416
     116     246       0       0       0       0       0       000010400D0000417
     116       0       0       1       0                               0D0000418
     123     247       0       0       0       0       0       000010200D0000419
     123       0       0       1       0                               0D0000420
     123     248       0       0       0       0       0       000010200D0000421
     123       0       0       1       0                               0D0000422
     508     249       0       0       0       0       0       000010000D0000423
     508       0       0       1       1                               0D0000424
     510     250       0       0       0       0       0       000010000D0000425
     510       0       0       1       1                               0D0000426
     190     251       0       0       0       0       0       000010000D0000427
     190       0       0       1       1                               0D0000428
     116     252       0       0       0       0       0       000010400D0000429
     116       0       0       1       0                               0D0000430
     123     253       0       0       0       0       0       000010200D0000431
     123       0       0       1       0                               0D0000432
     123     254       0       0       0       0       0       000010200D0000433
     123       0       0       1       0                               0D0000434
     508     255       0       0       0       0       0       000010000D0000435
     508       0       0       1       1                               0D0000436
402,1,3;                                                         0000001P0000001
186,5,1,0;                                                       0000003P0000002
514,23,7,1,149,1,161,1,173,1,185,1,197,1,209,1,221,1,233,1,245,  0000005P0000003
1,257,1,269,1,281,1,293,1,329,1,341,1,353,1,365,1,377,1,389,1,   0000005P0000004
401,1,413,1,425,0;                                               0000005P0000005
510,9,1,1,17;                                                    0000007P0000006
190,11,13,15;                                                    0000009P0000007
116,0.,16.,51.,0;                                                0000011P0000008
123,-0.707106781,0.707106781,0.;                                 0000013P0000009
123,0.707106781,0.707106781,0.;                                  0000015P0000010
508,6,0,19,1,1,0,0,19,2,1,0,0,19,3,1,0,0,19,4,0,0,0,19,5,1,0,0,  0000017P0000011
19,6,1,0;                                                        0000017P0000012
504,53,21,23,1,23,2,25,23,2,23,3,27,23,3,23,4,29,23,5,23,4,31,   0000019P0000013
23,5,23,6,33,23,6,23,1,35,23,7,23,1,37,23,8,23,7,39,23,2,23,8,   0000019P0000014
41,23,7,23,9,43,23,9,23,6,45,23,9,23,10,47,23,11,23,5,49,23,12,  0000019P0000015
23,11,51,23,13,23,12,53,23,14,23,13,55,23,10,23,14,57,23,4,23,   0000019P0000016
15,59,23,11,23,15,61,23,16,23,3,63,23,17,23,16,67,23,18,23,17,   0000019P0000017
69,23,15,23,18,71,23,8,23,19,73,23,19,23,20,75,23,20,23,16,77,   0000019P0000018
23,10,23,21,79,23,21,23,22,81,23,22,23,19,83,23,14,23,23,85,23,  0000019P0000019
23,23,21,87,23,24,23,25,89,23,25,23,26,91,23,26,23,27,93,23,27,  0000019P0000020
23,23,95,23,13,23,24,97,23,28,23,12,99,23,24,23,28,101,23,29,23, 0000019P0000021
18,103,23,29,23,28,105,23,25,23,29,107,23,17,23,30,109,23,30,23, 0000019P0000022
26,111,23,31,23,17,115,23,16,23,20,119,23,20,23,22,123,23,22,23, 0000019P0000023
21,127,23,21,23,23,131,23,23,23,27,135,23,27,23,30,139,23,30,23, 0000019P0000024
31,143,23,31,23,32,145,23,32,23,32;                              0000019P0000025
110,1.866025404,17.866025404,54.5,1.33226763E-15,16.,54.5;       0000021P0000026
502,32,1.866025404,17.866025404,54.5,0.,16.,54.5,0.,16.,61.,2.,  0000023P0000027
18.,61.,2.,18.,56.,1.,17.,56.,1.866025404,0.133974596,54.5,0.,   0000023P0000028
2.,54.5,1.,1.,56.,4.949747468,-2.949747468,56.,15.,18.,56.,16.,  0000023P0000029
17.,56.,16.,1.,56.,12.050252532,-2.949747468,56.,15.,18.,61.,    0000023P0000030
3.E-15,8.278462129,61.,17.,8.278462129,61.,17.,16.,61.,0.,2.,    0000023P0000031
61.,-8.4E-14,2.362382346,61.,4.949747468,-2.949747468,61.,       0000023P0000032
0.229830294,1.770169706,61.,12.050252532,-2.949747468,61.,       0000023P0000033
15.133974596,0.133974596,54.5,17.,2.,54.5,17.,2.,61.,            0000023P0000034
16.770169706,1.770169706,61.,15.133974596,17.866025404,54.5,17., 0000023P0000035
16.,54.5,17.,2.362382346,61.,17.5,5.320422237,61.,17.5,          0000023P0000036
5.320422237,102.;                                                0000023P0000037
110,0.,16.,54.5,0.,16.,61.;                                      0000025P0000038
110,0.,16.,61.,2.,18.,61.;                                       0000027P0000039
110,2.,18.,56.,2.,18.,61.;                                       0000029P0000040
110,2.,18.,56.,1.,17.,56.;                                       0000031P0000041
110,1.,17.,56.,1.866025404,17.866025404,54.5;                    0000033P0000042
110,1.866025404,0.133974596,54.5,1.866025404,17.866025404,54.5;  0000035P0000043
110,-2.22E-15,2.,54.5,1.866025404,0.133974596,54.5;              0000037P0000044
110,0.,16.,54.5,0.,2.,54.5;                                      0000039P0000045
110,1.866025404,0.133974596,54.5,1.,1.,56.;                      0000041P0000046
110,1.,1.,56.,1.,17.,56.;                                        0000043P0000047
110,1.,1.,56.,4.949747468,-2.949747468,56.;                      0000045P0000048
110,15.,18.,56.,2.,18.,56.;                                      0000047P0000049
110,16.,17.,56.,15.,18.,56.;                                     0000049P0000050
110,16.,1.,56.,16.,17.,56.;                                      0000051P0000051
110,12.050252532,-2.949747468,56.,16.,1.,56.;                    0000053P0000052
110,4.949747468,-2.949747468,56.,12.050252532,-2.949747468,56.;  0000055P0000053
110,2.,18.,61.,15.,18.,61.;                                      0000057P0000054
110,15.,18.,56.,15.,18.,61.;                                     0000059P0000055
110,0.,8.278462129,61.,0.,16.,61.;                               0000061P0000056
100,0.,0.,0.,8.5,2.958039892,-8.5,2.958039892;                   0000063P0000057
124,1.,0.,0.,8.5,0.,1.,0.,5.320422237,0.,0.,1.,61.;              0000065P0000058
110,17.,16.,61.,17.,8.278462129,61.;                             0000067P0000059
110,15.,18.,61.,17.,16.,61.;                                     0000069P0000060
110,0.,2.,54.5,0.,2.,61.;                                        0000071P0000061
110,0.,2.,61.,0.,2.362382346,61.;                                0000073P0000062
110,0.,2.362382346,61.,0.,8.278462129,61.;                       0000075P0000063
110,4.949747468,-2.949747468,56.,4.949747468,-2.949747468,61.;   0000077P0000064
110,4.949747468,-2.949747468,61.,0.229830294,1.770169706,61.;    0000079P0000065
110,0.229830294,1.770169706,61.,-1.110223025E-16,2.,61.;         0000081P0000066
110,12.050252532,-2.949747468,56.,12.050252532,-2.949747468,61.; 0000083P0000067
110,12.050252532,-2.949747468,61.,4.949747468,-2.949747468,61.;  0000085P0000068
110,15.133974596,0.133974596,54.5,17.,2.,54.5;                   0000087P0000069
110,17.,2.,54.5,17.,2.,61.;                                      0000089P0000070
110,17.,2.,61.,16.770169706,1.770169706,61.;                     0000091P0000071
110,16.770169706,1.770169706,61.,12.050252532,-2.949747468,61.;  0000093P0000072
110,16.,1.,56.,15.133974596,0.133974596,54.5;                    0000095P0000073
110,15.133974596,17.866025404,54.5,16.,17.,56.;                  0000097P0000074
110,15.133974596,0.133974596,54.5,15.133974596,17.866025404,     0000099P0000075
54.5;                                                            0000099P0000076
110,17.,16.,54.5,17.,16.,61.;                                    0000101P0000077
110,17.,16.,54.5,15.133974596,17.866025404,54.5;                 0000103P0000078
110,17.,2.,54.5,17.,16.,54.5;                                    0000105P0000079
110,17.,8.278462129,61.,17.,2.362382346,61.;                     0000107P0000080
110,17.,2.362382346,61.,17.,2.,61.;                              0000109P0000081
100,0.,0.,0.,9.,0.,8.5,2.958039892;                              0000111P0000082
124,1.,0.,0.,8.5,0.,1.,0.,5.320422237,0.,0.,1.,61.;              0000113P0000083
100,0.,0.,0.,-8.5,2.958039892,-8.5,-2.958039892;                 0000115P0000084
124,1.,0.,0.,8.5,0.,1.,0.,5.320422237,0.,0.,1.,61.;              0000117P0000085
100,0.,0.,0.,-8.5,-2.958039892,-8.270169706,-3.550252532;        0000119P0000086
124,1.,0.,0.,8.5,0.,1.,0.,5.320422237,0.,0.,1.,61.;              0000121P0000087
100,0.,0.,0.,-8.270169706,-3.550252532,-3.550252532,             0000123P0000088
-8.270169706;                                                    0000123P0000089
124,1.,0.,0.,8.5,0.,1.,0.,5.320422237,0.,0.,1.,61.;              0000125P0000090
100,0.,0.,0.,-3.550252532,-8.270169706,3.550252532,-8.270169706; 0000127P0000091
124,1.,0.,0.,8.5,0.,1.,0.,5.320422237,0.,0.,1.,61.;              0000129P0000092
100,0.,0.,0.,3.550252532,-8.270169706,8.270169706,-3.550252532;  0000131P0000093
124,1.,0.,0.,8.5,0.,1.,0.,5.320422237,0.,0.,1.,61.;              0000133P0000094
100,0.,0.,0.,8.270169706,-3.550252532,8.5,-2.958039892;          0000135P0000095
124,1.,0.,0.,8.5,0.,1.,0.,5.320422237,0.,0.,1.,61.;              0000137P0000096
100,0.,0.,0.,8.5,-2.958039892,9.,3.019806627E-14;                0000139P0000097
124,1.,0.,0.,8.5,0.,1.,0.,5.320422237,0.,0.,1.,61.;              0000141P0000098
110,17.5,5.320422237,61.,17.5,5.320422237,102.;                  0000143P0000099
100,0.,0.,0.,9.,0.,9.,0.;                                        0000145P0000100
124,1.,0.,0.,8.5,0.,1.,0.,5.320422237,0.,0.,1.,102.;             0000147P0000101
510,151,1,1,159;                                                 0000149P0000102
190,153,155,157;                                                 0000151P0000103
116,-1.,-2.949747468,54.5,0;                                     0000153P0000104
123,0.,-2.2E-16,-1.;                                             0000155P0000105
123,1.,0.,0.;                                                    0000157P0000106
508,4,0,19,7,0,0,0,19,8,0,0,0,19,9,0,0,0,19,1,0,0;               0000159P0000107
510,163,1,1,171;                                                 0000161P0000108
190,165,167,169;                                                 0000163P0000109
116,1.866025404,-2.949747468,54.5,0;                             0000165P0000110
123,0.866025404,1.1E-16,0.5;                                     0000167P0000111
123,-0.5,1.9E-16,0.866025404;                                    0000169P0000112
508,4,0,19,10,0,0,0,19,7,1,0,0,19,6,0,0,0,19,11,0,0;             0000171P0000113
510,175,1,1,183;                                                 0000173P0000114
190,177,179,181;                                                 0000175P0000115
116,1.,-2.949747468,56.,0;                                       0000177P0000116
123,0.,-2.2E-16,-1.;                                             0000179P0000117
123,1.,0.,0.;                                                    0000181P0000118
508,8,0,19,12,0,0,0,19,11,1,0,0,19,5,0,0,0,19,13,0,0,0,19,14,0,  0000183P0000119
0,0,19,15,0,0,0,19,16,0,0,0,19,17,0,0;                           0000183P0000120
510,187,1,1,195;                                                 0000185P0000121
190,189,191,193;                                                 0000187P0000122
116,2.,18.,51.,0;                                                0000189P0000123
123,0.,1.,0.;                                                    0000191P0000124
123,1.,0.,0.;                                                    0000193P0000125
508,4,0,19,13,1,0,0,19,4,1,0,0,19,18,1,0,0,19,19,0,0;            0000195P0000126
510,199,1,1,207;                                                 0000197P0000127
190,201,203,205;                                                 0000199P0000128
116,0.,16.,61.,0;                                                0000201P0000129
123,0.,0.,1.;                                                    0000203P0000130
123,1.,0.,0.;                                                    0000205P0000131
508,6,0,19,3,0,0,0,19,20,0,0,0,19,21,0,0,0,19,22,0,0,0,19,23,0,  0000207P0000132
0,0,19,18,0,0;                                                   0000207P0000133
510,211,1,1,219;                                                 0000209P0000134
190,213,215,217;                                                 0000211P0000135
116,0.,2.,51.,0;                                                 0000213P0000136
123,-1.,0.,0.;                                                   0000215P0000137
123,0.,1.,0.;                                                    0000217P0000138
508,6,0,19,9,1,0,0,19,24,1,0,0,19,25,1,0,0,19,26,1,0,0,19,20,1,  0000219P0000139
0,0,19,2,0,0;                                                    0000219P0000140
510,223,1,1,231;                                                 0000221P0000141
190,225,227,229;                                                 0000223P0000142
116,4.949747468,-2.949747468,51.,0;                              0000225P0000143
123,-0.707106781,-0.707106781,0.;                                0000227P0000144
123,-0.707106781,0.707106781,0.;                                 0000229P0000145
508,7,0,19,12,1,0,0,19,27,1,0,0,19,28,1,0,0,19,29,1,0,0,19,24,0, 0000231P0000146
0,0,19,8,1,0,0,19,10,1,0;                                        0000231P0000147
510,235,1,1,243;                                                 0000233P0000148
190,237,239,241;                                                 0000235P0000149
116,12.050252532,-2.949747468,51.,0;                             0000237P0000150
123,0.,-1.,0.;                                                   0000239P0000151
123,-1.,0.,0.;                                                   0000241P0000152
508,4,0,19,17,1,0,0,19,30,1,0,0,19,31,1,0,0,19,27,0,0;           0000243P0000153
510,247,1,1,255;                                                 0000245P0000154
190,249,251,253;                                                 0000247P0000155
116,17.,2.,51.,0;                                                0000249P0000156
123,0.707106781,-0.707106781,0.;                                 0000251P0000157
123,-0.707106781,-0.707106781,0.;                                0000253P0000158
508,7,0,19,32,1,0,0,19,33,1,0,0,19,34,1,0,0,19,35,1,0,0,19,30,0, 0000255P0000159
0,0,19,16,1,0,0,19,36,1,0;                                       0000255P0000160
510,259,1,1,267;                                                 0000257P0000161
190,261,263,265;                                                 0000259P0000162
116,16.,-2.949747468,56.,0;                                      0000261P0000163
123,-0.866025404,1.1E-16,0.5;                                    0000263P0000164
123,-0.5,-1.9E-16,-0.866025404;                                  0000265P0000165
508,4,0,19,36,0,0,0,19,15,1,0,0,19,37,0,0,0,19,38,0,0;           0000267P0000166
510,271,1,1,279;                                                 0000269P0000167
190,273,275,277;                                                 0000271P0000168
116,15.,18.,51.,0;                                               0000273P0000169
123,0.707106781,0.707106781,0.;                                  0000275P0000170
123,0.707106781,-0.707106781,0.;                                 0000277P0000171
508,6,0,19,14,1,0,0,19,19,1,0,0,19,23,1,0,0,19,39,0,0,0,19,40,1, 0000279P0000172
0,0,19,37,1,0;                                                   0000279P0000173
510,283,1,1,291;                                                 0000281P0000174
190,285,287,289;                                                 0000283P0000175
116,17.,16.,51.,0;                                               0000285P0000176
123,1.,0.,0.;                                                    0000287P0000177
123,0.,-1.,0.;                                                   0000289P0000178
508,6,0,19,41,1,0,0,19,39,1,0,0,19,22,1,0,0,19,42,1,0,0,19,43,1, 0000291P0000179
0,0,19,33,0,0;                                                   0000291P0000180
510,295,1,1,303;                                                 0000293P0000181
192,297,299,9.,301;                                              0000295P0000182
116,8.5,5.320422237,61.,0;                                       0000297P0000183
123,-0.,-0.,-1.;                                                 0000299P0000184
123,1.,0.,0.;                                                    0000301P0000185
508,12,0,19,44,1,1,0,305,0,19,21,1,1,0,307,0,19,45,1,1,0,309,0,  0000303P0000186
19,46,1,1,0,311,0,19,47,1,1,0,313,0,19,48,1,1,0,315,0,19,49,1,1, 0000303P0000187
0,317,0,19,50,1,1,0,319,0,19,51,1,1,0,321,0,19,52,1,1,0,323,0,   0000303P0000188
19,53,0,1,0,325,0,19,52,0,1,0,327;                               0000303P0000189
110,360.,0.,0.,340.811863544,0.,0.;                              0000305P0000190
110,340.811863546,0.,0.,199.188136459,0.,0.;                     0000307P0000191
110,199.188136454,0.,0.,160.811863541,0.,0.;                     0000309P0000192
110,160.811863546,0.,0.,156.766920481,0.,0.;                     0000311P0000193
110,156.766920479,0.,0.,113.233079522,0.,0.;                     0000313P0000194
110,113.233079521,0.,0.,66.766920478,0.,0.;                      0000315P0000195
110,66.766920479,0.,0.,23.233079522,0.,0.;                       0000317P0000196
110,23.233079521,0.,0.,19.188136456,0.,0.;                       0000319P0000197
110,19.188136454,0.,0.,-2.427906765E-09,0.,0.;                   0000321P0000198
110,0.,0.,0.,0.,-41.,0.;                                         0000323P0000199
110,0.,-41.,0.,360.,-41.,0.;                                     0000325P0000200
110,360.,-41.,0.,360.,0.,0.;                                     0000327P0000201
510,331,1,1,339;                                                 0000329P0000202
190,333,335,337;                                                 0000331P0000203
116,0.,16.,61.,0;                                                0000333P0000204
123,0.,0.,1.;                                                    0000335P0000205
123,1.,0.,0.;                                                    0000337P0000206
508,3,0,19,46,0,0,0,19,25,0,0,0,19,29,0,0;                       0000339P0000207
510,343,1,1,351;                                                 0000341P0000208
190,345,347,349;                                                 0000343P0000209
116,17.5,5.320422237,61.,0;                                      0000345P0000210
123,0.,0.,-1.;                                                   0000347P0000211
123,-1.,0.,0.;                                                   0000349P0000212
508,2,0,19,26,0,0,0,19,45,0,0;                                   0000351P0000213
510,355,1,1,363;                                                 0000353P0000214
190,357,359,361;                                                 0000355P0000215
116,17.5,5.320422237,61.,0;                                      0000357P0000216
123,0.,0.,-1.;                                                   0000359P0000217
123,-1.,0.,0.;                                                   0000361P0000218
508,2,0,19,28,0,0,0,19,47,0,0;                                   0000363P0000219
510,367,1,1,375;                                                 0000365P0000220
190,369,371,373;                                                 0000367P0000221
116,17.5,5.320422237,61.,0;                                      0000369P0000222
123,0.,0.,-1.;                                                   0000371P0000223
123,-1.,0.,0.;                                                   0000373P0000224
508,2,0,19,48,0,0,0,19,31,0,0;                                   0000375P0000225
510,379,1,1,387;                                                 0000377P0000226
190,381,383,385;                                                 0000379P0000227
116,15.133974596,-2.949747468,54.5,0;                            0000381P0000228
123,0.,-2.2E-16,-1.;                                             0000383P0000229
123,1.,0.,0.;                                                    0000385P0000230
508,4,0,19,32,0,0,0,19,38,1,0,0,19,40,0,0,0,19,41,0,0;           0000387P0000231
510,391,1,1,399;                                                 0000389P0000232
190,393,395,397;                                                 0000391P0000233
116,0.,16.,61.,0;                                                0000393P0000234
123,0.,0.,1.;                                                    0000395P0000235
123,1.,0.,0.;                                                    0000397P0000236
508,3,0,19,43,0,0,0,19,50,0,0,0,19,34,0,0;                       0000399P0000237
510,403,1,1,411;                                                 0000401P0000238
190,405,407,409;                                                 0000403P0000239
116,17.5,5.320422237,61.,0;                                      0000405P0000240
123,0.,0.,-1.;                                                   0000407P0000241
123,-1.,0.,0.;                                                   0000409P0000242
508,2,0,19,49,0,0,0,19,35,0,0;                                   0000411P0000243
510,415,1,1,423;                                                 0000413P0000244
190,417,419,421;                                                 0000415P0000245
116,17.5,5.320422237,61.,0;                                      0000417P0000246
123,0.,0.,-1.;                                                   0000419P0000247
123,-1.,0.,0.;                                                   0000421P0000248
508,3,0,19,51,0,0,0,19,42,0,0,0,19,44,0,0;                       0000423P0000249
510,427,1,1,435;                                                 0000425P0000250
190,429,431,433;                                                 0000427P0000251
116,17.5,5.320422237,102.,0;                                     0000429P0000252
123,0.,0.,-1.;                                                   0000431P0000253
123,-1.,0.,0.;                                                   0000433P0000254
508,1,0,19,53,0,0;                                               0000435P0000255
S      1G      4D    436P    255                                        T0000001
