                                                                        S0000001
,,31HOpen CASCADE IGES processor 7.6,13HFilename.iges,                  G0000001
16HOpen CASCADE 7.6,31HOpen CASCADE IGES processor 7.6,32,308,15,308,15,G0000002
,1.,2,2HMM,1,0.01,15H20240513.110708,1E-07,56.,,,11,0,                  G0000003
15H20240513.110708,;                                                    G0000004
     402       1       0       0       0       0       0       000000000D0000001
     402       0       0       1       1                               0D0000002
     186       2       0       0       0       0       0       000020000D0000003
     186       0       0       1       0                               0D0000004
     514       3       0       0       0       0       0       000010000D0000005
     514       0       0       3       1                               0D0000006
     510       6       0       0       0       0       0       000010000D0000007
     510       0       0       1       1                               0D0000008
     190       7       0       0       0       0       0       000010000D0000009
     190       0       0       1       1                               0D0000010
     116       8       0       0       0       0       0       000010400D0000011
     116       0       0       1       0                               0D0000012
     123       9       0       0       0       0       0       000010200D0000013
     123       0       0       1       0                               0D0000014
     123      10       0       0       0       0       0       000010200D0000015
     123       0       0       1       0                               0D0000016
     508      11       0       0       0       0       0       000010000D0000017
     508       0       0       1       1                               0D0000018
     504      12       0       0       0       0       0       000010001D0000019
     504       0       0      15       1                               0D0000020
     110      27       0       0       0       0       0       000010000D0000021
     110       0       0       1       0                               0D0000022
     502      28       0       0       0       0       0       000010000D0000023
     502       0       0       8       1                               0D0000024
     110      36       0       0       0       0       0       000010000D0000025
     110       0       0       1       0                               0D0000026
     110      37       0       0       0       0       0       000010000D0000027
     110       0       0       1       0                               0D0000028
     110      38       0       0       0       0       0       000010000D0000029
     110       0       0       1       0                               0D0000030
     110      39       0       0       0       0       0       000010000D0000031
     110       0       0       1       0                               0D0000032
     110      40       0       0       0       0       0       000010000D0000033
     110       0       0       1       0                               0D0000034
     110      41       0       0       0       0       0       000010000D0000035
     110       0       0       1       0                               0D0000036
     110      42       0       0       0       0       0       000010000D0000037
     110       0       0       1       0                               0D0000038
     110      43       0       0       0       0       0       000010000D0000039
     110       0       0       1       0                               0D0000040
     110      44       0       0       0       0       0       000010000D0000041
     110       0       0       1       0                               0D0000042
     110      45       0       0       0       0       0       000010000D0000043
     110       0       0       1       0                               0D0000044
     110      46       0       0       0       0       0       000010000D0000045
     110       0       0       1       0                               0D0000046
     110      47       0       0       0       0       0       000010000D0000047
     110       0       0       1       0                               0D0000048
     110      48       0       0       0       0       0       000010000D0000049
     110       0       0       1       0                               0D0000050
     110      49       0       0       0       0       0       000010000D0000051
     110       0       0       1       0                               0D0000052
     110      50       0       0       0       0       0       000010000D0000053
     110       0       0       1       0                               0D0000054
     110      51       0       0       0       0       0       000010000D0000055
     110       0       0       1       0                               0D0000056
     110      52       0       0       0       0       0       000010000D0000057
     110       0       0       1       0                               0D0000058
     110      53       0       0       0       0       0       000010000D0000059
     110       0       0       1       0                               0D0000060
     110      54       0       0       0       0       0       000010000D0000061
     110       0       0       1       0                               0D0000062
     110      55       0       0       0       0       0       000010000D0000063
     110       0       0       1       0                               0D0000064
     110      56       0       0       0       0       0       000010000D0000065
     110       0       0       1       0                               0D0000066
     110      57       0       0       0       0       0       000010000D0000067
     110       0       0       1       0                               0D0000068
     110      58       0       0       0       0       0       000010000D0000069
     110       0       0       1       0                               0D0000070
     110      59       0       0       0       0       0       000010000D0000071
     110       0       0       1       0                               0D0000072
     110      60       0       0       0       0       0       000010000D0000073
     110       0       0       1       0                               0D0000074
     110      61       0       0       0       0       0       000010000D0000075
     110       0       0       1       0                               0D0000076
     110      62       0       0       0       0       0       000010000D0000077
     110       0       0       1       0                               0D0000078
     110      63       0       0       0       0       0       000010000D0000079
     110       0       0       1       0                               0D0000080
     110      64       0       0       0       0       0       000010000D0000081
     110       0       0       1       0                               0D0000082
     110      65       0       0       0       0       0       000010000D0000083
     110       0       0       1       0                               0D0000084
     110      66       0       0       0       0       0       000010000D0000085
     110       0       0       1       0                               0D0000086
     110      67       0       0       0       0       0       000010000D0000087
     110       0       0       1       0                               0D0000088
     110      68       0       0       0       0       0       000010000D0000089
     110       0       0       1       0                               0D0000090
     110      69       0       0       0       0       0       000010000D0000091
     110       0       0       1       0                               0D0000092
     110      70       0       0       0       0       0       000010000D0000093
     110       0       0       1       0                               0D0000094
     110      71       0       0       0       0       0       000010000D0000095
     110       0       0       1       0                               0D0000096
     110      72       0       0       0       0       0       000010000D0000097
     110       0       0       1       0                               0D0000098
     110      73       0       0       0       0       0       000010000D0000099
     110       0       0       1       0                               0D0000100
     110      74       0       0       0       0       0       000010000D0000101
     110       0       0       1       0                               0D0000102
     110      75       0       0       0       0       0       000010000D0000103
     110       0       0       1       0                               0D0000104
     110      76       0       0       0       0       0       000010000D0000105
     110       0       0       1       0                               0D0000106
     110      77       0       0       0       0       0       000010000D0000107
     110       0       0       1       0                               0D0000108
     110      78       0       0       0       0       0       000010000D0000109
     110       0       0       1       0                               0D0000110
     110      79       0       0       0       0       0       000010000D0000111
     110       0       0       1       0                               0D0000112
     110      80       0       0       0       0       0       000010000D0000113
     110       0       0       1       0                               0D0000114
     110      81       0       0       0       0       0       000010000D0000115
     110       0       0       1       0                               0D0000116
     110      82       0       0       0       0       0       000010000D0000117
     110       0       0       1       0                               0D0000118
     110      83       0       0       0       0       0       000010000D0000119
     110       0       0       1       0                               0D0000120
     110      84       0       0       0       0       0       000010000D0000121
     110       0       0       1       0                               0D0000122
     110      85       0       0       0       0       0       000010000D0000123
     110       0       0       1       0                               0D0000124
     110      86       0       0       0       0       0       000010000D0000125
     110       0       0       1       0                               0D0000126
     110      87       0       0       0       0       0       000010000D0000127
     110       0       0       1       0                               0D0000128
     110      88       0       0       0       0       0       000010000D0000129
     110       0       0       1       0                               0D0000130
     110      89       0       0       0       0       0       000010000D0000131
     110       0       0       1       0                               0D0000132
     110      90       0       0       0       0       0       000010000D0000133
     110       0       0       1       0                               0D0000134
     110      91       0       0       0       0       0       000010000D0000135
     110       0       0       1       0                               0D0000136
     110      92       0       0       0       0       0       000010000D0000137
     110       0       0       1       0                               0D0000138
     110      93       0       0       0       0       0       000010000D0000139
     110       0       0       1       0                               0D0000140
     110      94       0       0       0       0       0       000010000D0000141
     110       0       0       1       0                               0D0000142
     510      95       0       0       0       0       0       000010000D0000143
     510       0       0       1       1                               0D0000144
     190      96       0       0       0       0       0       000010000D0000145
     190       0       0       1       1                               0D0000146
     116      97       0       0       0       0       0       000010400D0000147
     116       0       0       1       0                               0D0000148
     123      98       0       0       0       0       0       000010200D0000149
     123       0       0       1       0                               0D0000150
     123      99       0       0       0       0       0       000010200D0000151
     123       0       0       1       0                               0D0000152
     508     100       0       0       0       0       0       000010000D0000153
     508       0       0       1       1                               0D0000154
     510     101       0       0       0       0       0       000010000D0000155
     510       0       0       1       1                               0D0000156
     190     102       0       0       0       0       0       000010000D0000157
     190       0       0       1       1                               0D0000158
     116     103       0       0       0       0       0       000010400D0000159
     116       0       0       1       0                               0D0000160
     123     104       0       0       0       0       0       000010200D0000161
     123       0       0       1       0                               0D0000162
     123     105       0       0       0       0       0       000010200D0000163
     123       0       0       1       0                               0D0000164
     508     106       0       0       0       0       0       000010000D0000165
     508       0       0       1       1                               0D0000166
     510     107       0       0       0       0       0       000010000D0000167
     510       0       0       1       1                               0D0000168
     190     108       0       0       0       0       0       000010000D0000169
     190       0       0       1       1                               0D0000170
     116     109       0       0       0       0       0       000010400D0000171
     116       0       0       1       0                               0D0000172
     123     110       0       0       0       0       0       000010200D0000173
     123       0       0       1       0                               0D0000174
     123     111       0       0       0       0       0       000010200D0000175
     123       0       0       1       0                               0D0000176
     508     112       0       0       0       0       0       000010000D0000177
     508       0       0       1       1                               0D0000178
     510     113       0       0       0       0       0       000010000D0000179
     510       0       0       1       1                               0D0000180
     190     114       0       0       0       0       0       000010000D0000181
     190       0       0       1       1                               0D0000182
     116     115       0       0       0       0       0       000010400D0000183
     116       0       0       1       0                               0D0000184
     123     116       0       0       0       0       0       000010200D0000185
     123       0       0       1       0                               0D0000186
     123     117       0       0       0       0       0       000010200D0000187
     123       0       0       1       0                               0D0000188
     508     118       0       0       0       0       0       000010000D0000189
     508       0       0       1       1                               0D0000190
     510     119       0       0       0       0       0       000010000D0000191
     510       0       0       1       1                               0D0000192
     190     120       0       0       0       0       0       000010000D0000193
     190       0       0       1       1                               0D0000194
     116     121       0       0       0       0       0       000010400D0000195
     116       0       0       1       0                               0D0000196
     123     122       0       0       0       0       0       000010200D0000197
     123       0       0       1       0                               0D0000198
     123     123       0       0       0       0       0       000010200D0000199
     123       0       0       1       0                               0D0000200
     508     124       0       0       0       0       0       000010000D0000201
     508       0       0       1       1                               0D0000202
     510     125       0       0       0       0       0       000010000D0000203
     510       0       0       1       1                               0D0000204
     190     126       0       0       0       0       0       000010000D0000205
     190       0       0       1       1                               0D0000206
     116     127       0       0       0       0       0       000010400D0000207
     116       0       0       1       0                               0D0000208
     123     128       0       0       0       0       0       000010200D0000209
     123       0       0       1       0                               0D0000210
     123     129       0       0       0       0       0       000010200D0000211
     123       0       0       1       0                               0D0000212
     508     130       0       0       0       0       0       000010000D0000213
     508       0       0       1       1                               0D0000214
     510     131       0       0       0       0       0       000010000D0000215
     510       0       0       1       1                               0D0000216
     190     132       0       0       0       0       0       000010000D0000217
     190       0       0       1       1                               0D0000218
     116     133       0       0       0       0       0       000010400D0000219
     116       0       0       1       0                               0D0000220
     123     134       0       0       0       0       0       000010200D0000221
     123       0       0       1       0                               0D0000222
     123     135       0       0       0       0       0       000010200D0000223
     123       0       0       1       0                               0D0000224
     508     136       0       0       0       0       0       000010000D0000225
     508       0       0       1       1                               0D0000226
     510     137       0       0       0       0       0       000010000D0000227
     510       0       0       1       1                               0D0000228
     190     138       0       0       0       0       0       000010000D0000229
     190       0       0       1       1                               0D0000230
     116     139       0       0       0       0       0       000010400D0000231
     116       0       0       1       0                               0D0000232
     123     140       0       0       0       0       0       000010200D0000233
     123       0       0       1       0                               0D0000234
     123     141       0       0       0       0       0       000010200D0000235
     123       0       0       1       0                               0D0000236
     508     142       0       0       0       0       0       000010000D0000237
     508       0       0       1       1                               0D0000238
     510     143       0       0       0       0       0       000010000D0000239
     510       0       0       1       1                               0D0000240
     190     144       0       0       0       0       0       000010000D0000241
     190       0       0       1       1                               0D0000242
     116     145       0       0       0       0       0       000010400D0000243
     116       0       0       1       0                               0D0000244
     123     146       0       0       0       0       0       000010200D0000245
     123       0       0       1       0                               0D0000246
     123     147       0       0       0       0       0       000010200D0000247
     123       0       0       1       0                               0D0000248
     508     148       0       0       0       0       0       000010000D0000249
     508       0       0       1       1                               0D0000250
     510     149       0       0       0       0       0       000010000D0000251
     510       0       0       1       1                               0D0000252
     190     150       0       0       0       0       0       000010000D0000253
     190       0       0       1       1                               0D0000254
     116     151       0       0       0       0       0       000010400D0000255
     116       0       0       1       0                               0D0000256
     123     152       0       0       0       0       0       000010200D0000257
     123       0       0       1       0                               0D0000258
     123     153       0       0       0       0       0       000010200D0000259
     123       0       0       1       0                               0D0000260
     508     154       0       0       0       0       0       000010000D0000261
     508       0       0       1       1                               0D0000262
     510     155       0       0       0       0       0       000010000D0000263
     510       0       0       1       1                               0D0000264
     190     156       0       0       0       0       0       000010000D0000265
     190       0       0       1       1                               0D0000266
     116     157       0       0       0       0       0       000010400D0000267
     116       0       0       1       0                               0D0000268
     123     158       0       0       0       0       0       000010200D0000269
     123       0       0       1       0                               0D0000270
     123     159       0       0       0       0       0       000010200D0000271
     123       0       0       1       0                               0D0000272
     508     160       0       0       0       0       0       000010000D0000273
     508       0       0       1       1                               0D0000274
     510     161       0       0       0       0       0       000010000D0000275
     510       0       0       1       1                               0D0000276
     190     162       0       0       0       0       0       000010000D0000277
     190       0       0       1       1                               0D0000278
     116     163       0       0       0       0       0       000010400D0000279
     116       0       0       1       0                               0D0000280
     123     164       0       0       0       0       0       000010200D0000281
     123       0       0       1       0                               0D0000282
     123     165       0       0       0       0       0       000010200D0000283
     123       0       0       1       0                               0D0000284
     508     166       0       0       0       0       0       000010000D0000285
     508       0       0       1       1                               0D0000286
     510     167       0       0       0       0       0       000010000D0000287
     510       0       0       1       1                               0D0000288
     190     168       0       0       0       0       0       000010000D0000289
     190       0       0       1       1                               0D0000290
     116     169       0       0       0       0       0       000010400D0000291
     116       0       0       1       0                               0D0000292
     123     170       0       0       0       0       0       000010200D0000293
     123       0       0       1       0                               0D0000294
     123     171       0       0       0       0       0       000010200D0000295
     123       0       0       1       0                               0D0000296
     508     172       0       0       0       0       0       000010000D0000297
     508       0       0       1       1                               0D0000298
     510     173       0       0       0       0       0       000010000D0000299
     510       0       0       1       1                               0D0000300
     190     174       0       0       0       0       0       000010000D0000301
     190       0       0       1       1                               0D0000302
     116     175       0       0       0       0       0       000010400D0000303
     116       0       0       1       0                               0D0000304
     123     176       0       0       0       0       0       000010200D0000305
     123       0       0       1       0                               0D0000306
     123     177       0       0       0       0       0       000010200D0000307
     123       0       0       1       0                               0D0000308
     508     178       0       0       0       0       0       000010000D0000309
     508       0       0       1       1                               0D0000310
     510     179       0       0       0       0       0       000010000D0000311
     510       0       0       1       1                               0D0000312
     190     180       0       0       0       0       0       000010000D0000313
     190       0       0       1       1                               0D0000314
     116     181       0       0       0       0       0       000010400D0000315
     116       0       0       1       0                               0D0000316
     123     182       0       0       0       0       0       000010200D0000317
     123       0       0       1       0                               0D0000318
     123     183       0       0       0       0       0       000010200D0000319
     123       0       0       1       0                               0D0000320
     508     184       0       0       0       0       0       000010000D0000321
     508       0       0       1       1                               0D0000322
     510     185       0       0       0       0       0       000010000D0000323
     510       0       0       1       1                               0D0000324
     190     186       0       0       0       0       0       000010000D0000325
     190       0       0       1       1                               0D0000326
     116     187       0       0       0       0       0       000010400D0000327
     116       0       0       1       0                               0D0000328
     123     188       0       0       0       0       0       000010200D0000329
     123       0       0       1       0                               0D0000330
     123     189       0       0       0       0       0       000010200D0000331
     123       0       0       1       0                               0D0000332
     508     190       0       0       0       0       0       000010000D0000333
     508       0       0       1       1                               0D0000334
     510     191       0       0       0       0       0       000010000D0000335
     510       0       0       1       1                               0D0000336
     190     192       0       0       0       0       0       000010000D0000337
     190       0       0       1       1                               0D0000338
     116     193       0       0       0       0       0       000010400D0000339
     116       0       0       1       0                               0D0000340
     123     194       0       0       0       0       0       000010200D0000341
     123       0       0       1       0                               0D0000342
     123     195       0       0       0       0       0       000010200D0000343
     123       0       0       1       0                               0D0000344
     508     196       0       0       0       0       0       000010000D0000345
     508       0       0       1       1                               0D0000346
     510     197       0       0       0       0       0       000010000D0000347
     510       0       0       1       1                               0D0000348
     190     198       0       0       0       0       0       000010000D0000349
     190       0       0       1       1                               0D0000350
     116     199       0       0       0       0       0       000010400D0000351
     116       0       0       1       0                               0D0000352
     123     200       0       0       0       0       0       000010200D0000353
     123       0       0       1       0                               0D0000354
     123     201       0       0       0       0       0       000010200D0000355
     123       0       0       1       0                               0D0000356
     508     202       0       0       0       0       0       000010000D0000357
     508       0       0       1       1                               0D0000358
     510     203       0       0       0       0       0       000010000D0000359
     510       0       0       1       1                               0D0000360
     190     204       0       0       0       0       0       000010000D0000361
     190       0       0       1       1                               0D0000362
     116     205       0       0       0       0       0       000010400D0000363
     116       0       0       1       0                               0D0000364
     123     206       0       0       0       0       0       000010200D0000365
     123       0       0       1       0                               0D0000366
     123     207       0       0       0       0       0       000010200D0000367
     123       0       0       1       0                               0D0000368
     508     208       0       0       0       0       0       000010000D0000369
     508       0       0       1       1                               0D0000370
     510     209       0       0       0       0       0       000010000D0000371
     510       0       0       1       1                               0D0000372
     190     210       0       0       0       0       0       000010000D0000373
     190       0       0       1       1                               0D0000374
     116     211       0       0       0       0       0       000010400D0000375
     116       0       0       1       0                               0D0000376
     123     212       0       0       0       0       0       000010200D0000377
     123       0       0       1       0                               0D0000378
     123     213       0       0       0       0       0       000010200D0000379
     123       0       0       1       0                               0D0000380
     508     214       0       0       0       0       0       000010000D0000381
     508       0       0       4       1                               0D0000382
     510     218       0       0       0       0       0       000010000D0000383
     510       0       0       1       1                               0D0000384
     190     219       0       0       0       0       0       000010000D0000385
     190       0       0       1       1                               0D0000386
     116     220       0       0       0       0       0       000010400D0000387
     116       0       0       1       0                               0D0000388
     123     221       0       0       0       0       0       000010200D0000389
     123       0       0       1       0                               0D0000390
     123     222       0       0       0       0       0       000010200D0000391
     123       0       0       1       0                               0D0000392
     508     223       0       0       0       0       0       000010000D0000393
     508       0       0       4       1                               0D0000394
402,1,3;                                                         0000001P0000001
186,5,0,0;                                                       0000003P0000002
514,22,7,0,143,0,155,0,167,0,179,0,191,0,203,0,215,0,227,0,239,  0000005P0000003
0,251,0,263,0,275,0,287,0,299,0,311,0,323,0,335,0,347,0,359,0,   0000005P0000004
371,1,383,0;                                                     0000005P0000005
510,9,1,1,17;                                                    0000007P0000006
190,11,13,15;                                                    0000009P0000007
116,5.5,3.,0.,0;                                                 0000011P0000008
123,-1.,0.,0.;                                                   0000013P0000009
123,0.,1.,0.;                                                    0000015P0000010
508,4,0,19,1,1,0,0,19,2,1,0,0,19,3,0,0,0,19,4,0,0;               0000017P0000011
504,60,21,23,1,23,2,25,23,2,23,3,27,23,4,23,3,29,23,1,23,4,31,   0000019P0000012
23,3,23,5,33,23,6,23,5,35,23,4,23,6,37,23,5,23,7,39,23,8,23,7,   0000019P0000013
41,23,6,23,8,43,23,7,23,9,45,23,10,23,9,47,23,8,23,10,49,23,9,   0000019P0000014
23,11,51,23,12,23,11,53,23,10,23,12,55,23,11,23,13,57,23,14,23,  0000019P0000015
13,59,23,12,23,14,61,23,13,23,15,63,23,16,23,15,65,23,14,23,16,  0000019P0000016
67,23,15,23,17,69,23,18,23,17,71,23,16,23,18,73,23,17,23,19,75,  0000019P0000017
23,20,23,19,77,23,18,23,20,79,23,19,23,21,81,23,22,23,21,83,23,  0000019P0000018
20,23,22,85,23,21,23,23,87,23,24,23,23,89,23,22,23,24,91,23,23,  0000019P0000019
23,25,93,23,26,23,25,95,23,24,23,26,97,23,25,23,27,99,23,28,23,  0000019P0000020
27,101,23,26,23,28,103,23,27,23,29,105,23,30,23,29,107,23,28,23, 0000019P0000021
30,109,23,29,23,31,111,23,32,23,31,113,23,30,23,32,115,23,31,23, 0000019P0000022
33,117,23,34,23,33,119,23,32,23,34,121,23,33,23,35,123,23,36,23, 0000019P0000023
35,125,23,34,23,36,127,23,35,23,37,129,23,38,23,37,131,23,36,23, 0000019P0000024
38,133,23,37,23,39,135,23,40,23,39,137,23,38,23,40,139,23,39,23, 0000019P0000025
2,141,23,40,23,1;                                                0000019P0000026
110,5.5,3.,0.,5.5,3.,56.;                                        0000021P0000027
502,40,5.5,3.,0.,5.5,3.,56.,5.5,5.,56.,5.5,5.,0.,6.25,5.,56.,    0000023P0000028
6.25,5.,0.,6.25,8.,56.,6.25,8.,0.,5.5,8.,56.,5.5,8.,0.,5.5,      0000023P0000029
11.35,56.,5.5,11.35,0.,6.25,12.1,56.,6.25,12.1,0.,10.75,12.1,    0000023P0000030
56.,10.75,12.1,0.,11.5,11.35,56.,11.5,11.35,0.,11.5,8.,56.,11.5, 0000023P0000031
8.,0.,10.75,8.,56.,10.75,8.,0.,10.75,5.,56.,10.75,5.,0.,11.5,5., 0000023P0000032
56.,11.5,5.,0.,11.5,3.,56.,11.5,3.,0.,9.,3.,56.,9.,3.,0.,9.,5.,  0000023P0000033
56.,9.,5.,0.,9.75,5.,56.,9.75,5.,0.,9.75,8.,56.,9.75,8.,0.,7.25, 0000023P0000034
8.,56.,7.25,8.,0.,7.25,3.,56.,7.25,3.,0.;                        0000023P0000035
110,5.5,3.,56.,5.5,5.,56.;                                       0000025P0000036
110,5.5,5.,0.,5.5,5.,56.;                                        0000027P0000037
110,5.5,3.,0.,5.5,5.,0.;                                         0000029P0000038
110,5.5,5.,56.,6.25,5.,56.;                                      0000031P0000039
110,6.25,5.,0.,6.25,5.,56.;                                      0000033P0000040
110,5.5,5.,0.,6.25,5.,0.;                                        0000035P0000041
110,6.25,5.,56.,6.25,8.,56.;                                     0000037P0000042
110,6.25,8.,0.,6.25,8.,56.;                                      0000039P0000043
110,6.25,5.,0.,6.25,8.,0.;                                       0000041P0000044
110,6.25,8.,56.,5.5,8.,56.;                                      0000043P0000045
110,5.5,8.,0.,5.5,8.,56.;                                        0000045P0000046
110,6.25,8.,0.,5.5,8.,0.;                                        0000047P0000047
110,5.5,8.,56.,5.5,11.35,56.;                                    0000049P0000048
110,5.5,11.35,0.,5.5,11.35,56.;                                  0000051P0000049
110,5.5,8.,0.,5.5,11.35,0.;                                      0000053P0000050
110,5.5,11.35,56.,6.25,12.1,56.;                                 0000055P0000051
110,6.25,12.1,0.,6.25,12.1,56.;                                  0000057P0000052
110,5.5,11.35,0.,6.25,12.1,0.;                                   0000059P0000053
110,6.25,12.1,56.,10.75,12.1,56.;                                0000061P0000054
110,10.75,12.1,0.,10.75,12.1,56.;                                0000063P0000055
110,6.25,12.1,0.,10.75,12.1,0.;                                  0000065P0000056
110,10.75,12.1,56.,11.5,11.35,56.;                               0000067P0000057
110,11.5,11.35,0.,11.5,11.35,56.;                                0000069P0000058
110,10.75,12.1,0.,11.5,11.35,0.;                                 0000071P0000059
110,11.5,11.35,56.,11.5,8.,56.;                                  0000073P0000060
110,11.5,8.,0.,11.5,8.,56.;                                      0000075P0000061
110,11.5,11.35,0.,11.5,8.,0.;                                    0000077P0000062
110,11.5,8.,56.,10.75,8.,56.;                                    0000079P0000063
110,10.75,8.,0.,10.75,8.,56.;                                    0000081P0000064
110,11.5,8.,0.,10.75,8.,0.;                                      0000083P0000065
110,10.75,8.,56.,10.75,5.,56.;                                   0000085P0000066
110,10.75,5.,0.,10.75,5.,56.;                                    0000087P0000067
110,10.75,8.,0.,10.75,5.,0.;                                     0000089P0000068
110,10.75,5.,56.,11.5,5.,56.;                                    0000091P0000069
110,11.5,5.,0.,11.5,5.,56.;                                      0000093P0000070
110,10.75,5.,0.,11.5,5.,0.;                                      0000095P0000071
110,11.5,5.,56.,11.5,3.,56.;                                     0000097P0000072
110,11.5,3.,0.,11.5,3.,56.;                                      0000099P0000073
110,11.5,5.,0.,11.5,3.,0.;                                       0000101P0000074
110,11.5,3.,56.,9.,3.,56.;                                       0000103P0000075
110,9.,3.,0.,9.,3.,56.;                                          0000105P0000076
110,11.5,3.,0.,9.,3.,0.;                                         0000107P0000077
110,9.,3.,56.,9.,5.,56.;                                         0000109P0000078
110,9.,5.,0.,9.,5.,56.;                                          0000111P0000079
110,9.,3.,0.,9.,5.,0.;                                           0000113P0000080
110,9.,5.,56.,9.75,5.,56.;                                       0000115P0000081
110,9.75,5.,0.,9.75,5.,56.;                                      0000117P0000082
110,9.,5.,0.,9.75,5.,0.;                                         0000119P0000083
110,9.75,5.,56.,9.75,8.,56.;                                     0000121P0000084
110,9.75,8.,0.,9.75,8.,56.;                                      0000123P0000085
110,9.75,5.,0.,9.75,8.,0.;                                       0000125P0000086
110,9.75,8.,56.,7.25,8.,56.;                                     0000127P0000087
110,7.25,8.,0.,7.25,8.,56.;                                      0000129P0000088
110,9.75,8.,0.,7.25,8.,0.;                                       0000131P0000089
110,7.25,8.,56.,7.25,3.,56.;                                     0000133P0000090
110,7.25,3.,0.,7.25,3.,56.;                                      0000135P0000091
110,7.25,8.,0.,7.25,3.,0.;                                       0000137P0000092
110,7.25,3.,56.,5.5,3.,56.;                                      0000139P0000093
110,7.25,3.,0.,5.5,3.,0.;                                        0000141P0000094
510,145,1,1,153;                                                 0000143P0000095
190,147,149,151;                                                 0000145P0000096
116,5.5,5.,0.,0;                                                 0000147P0000097
123,0.,1.,0.;                                                    0000149P0000098
123,1.,0.,0.;                                                    0000151P0000099
508,4,0,19,3,1,0,0,19,5,1,0,0,19,6,0,0,0,19,7,0,0;               0000153P0000100
510,157,1,1,165;                                                 0000155P0000101
190,159,161,163;                                                 0000157P0000102
116,6.25,5.,0.,0;                                                0000159P0000103
123,-1.,0.,0.;                                                   0000161P0000104
123,0.,1.,0.;                                                    0000163P0000105
508,4,0,19,6,1,0,0,19,8,1,0,0,19,9,0,0,0,19,10,0,0;              0000165P0000106
510,169,1,1,177;                                                 0000167P0000107
190,171,173,175;                                                 0000169P0000108
116,6.25,8.,0.,0;                                                0000171P0000109
123,0.,-1.,0.;                                                   0000173P0000110
123,-1.,0.,0.;                                                   0000175P0000111
508,4,0,19,9,1,0,0,19,11,1,0,0,19,12,0,0,0,19,13,0,0;            0000177P0000112
510,181,1,1,189;                                                 0000179P0000113
190,183,185,187;                                                 0000181P0000114
116,5.5,8.,0.,0;                                                 0000183P0000115
123,-1.,0.,0.;                                                   0000185P0000116
123,0.,1.,0.;                                                    0000187P0000117
508,4,0,19,12,1,0,0,19,14,1,0,0,19,15,0,0,0,19,16,0,0;           0000189P0000118
510,193,1,1,201;                                                 0000191P0000119
190,195,197,199;                                                 0000193P0000120
116,5.5,11.35,0.,0;                                              0000195P0000121
123,-0.707106781,0.707106781,0.;                                 0000197P0000122
123,0.707106781,0.707106781,0.;                                  0000199P0000123
508,4,0,19,15,1,0,0,19,17,1,0,0,19,18,0,0,0,19,19,0,0;           0000201P0000124
510,205,1,1,213;                                                 0000203P0000125
190,207,209,211;                                                 0000205P0000126
116,6.25,12.1,0.,0;                                              0000207P0000127
123,0.,1.,0.;                                                    0000209P0000128
123,1.,0.,0.;                                                    0000211P0000129
508,4,0,19,18,1,0,0,19,20,1,0,0,19,21,0,0,0,19,22,0,0;           0000213P0000130
510,217,1,1,225;                                                 0000215P0000131
190,219,221,223;                                                 0000217P0000132
116,10.75,12.1,0.,0;                                             0000219P0000133
123,0.707106781,0.707106781,0.;                                  0000221P0000134
123,0.707106781,-0.707106781,0.;                                 0000223P0000135
508,4,0,19,21,1,0,0,19,23,1,0,0,19,24,0,0,0,19,25,0,0;           0000225P0000136
510,229,1,1,237;                                                 0000227P0000137
190,231,233,235;                                                 0000229P0000138
116,11.5,11.35,0.,0;                                             0000231P0000139
123,1.,0.,0.;                                                    0000233P0000140
123,0.,-1.,0.;                                                   0000235P0000141
508,4,0,19,24,1,0,0,19,26,1,0,0,19,27,0,0,0,19,28,0,0;           0000237P0000142
510,241,1,1,249;                                                 0000239P0000143
190,243,245,247;                                                 0000241P0000144
116,11.5,8.,0.,0;                                                0000243P0000145
123,0.,-1.,0.;                                                   0000245P0000146
123,-1.,0.,0.;                                                   0000247P0000147
508,4,0,19,27,1,0,0,19,29,1,0,0,19,30,0,0,0,19,31,0,0;           0000249P0000148
510,253,1,1,261;                                                 0000251P0000149
190,255,257,259;                                                 0000253P0000150
116,10.75,8.,0.,0;                                               0000255P0000151
123,1.,0.,0.;                                                    0000257P0000152
123,0.,-1.,0.;                                                   0000259P0000153
508,4,0,19,30,1,0,0,19,32,1,0,0,19,33,0,0,0,19,34,0,0;           0000261P0000154
510,265,1,1,273;                                                 0000263P0000155
190,267,269,271;                                                 0000265P0000156
116,10.75,5.,0.,0;                                               0000267P0000157
123,0.,1.,0.;                                                    0000269P0000158
123,1.,0.,0.;                                                    0000271P0000159
508,4,0,19,33,1,0,0,19,35,1,0,0,19,36,0,0,0,19,37,0,0;           0000273P0000160
510,277,1,1,285;                                                 0000275P0000161
190,279,281,283;                                                 0000277P0000162
116,11.5,5.,0.,0;                                                0000279P0000163
123,1.,0.,0.;                                                    0000281P0000164
123,0.,-1.,0.;                                                   0000283P0000165
508,4,0,19,36,1,0,0,19,38,1,0,0,19,39,0,0,0,19,40,0,0;           0000285P0000166
510,289,1,1,297;                                                 0000287P0000167
190,291,293,295;                                                 0000289P0000168
116,11.5,3.,0.,0;                                                0000291P0000169
123,0.,-1.,0.;                                                   0000293P0000170
123,-1.,0.,0.;                                                   0000295P0000171
508,4,0,19,39,1,0,0,19,41,1,0,0,19,42,0,0,0,19,43,0,0;           0000297P0000172
510,301,1,1,309;                                                 0000299P0000173
190,303,305,307;                                                 0000301P0000174
116,9.,3.,0.,0;                                                  0000303P0000175
123,-1.,0.,0.;                                                   0000305P0000176
123,0.,1.,0.;                                                    0000307P0000177
508,4,0,19,42,1,0,0,19,44,1,0,0,19,45,0,0,0,19,46,0,0;           0000309P0000178
510,313,1,1,321;                                                 0000311P0000179
190,315,317,319;                                                 0000313P0000180
116,9.,5.,0.,0;                                                  0000315P0000181
123,0.,1.,0.;                                                    0000317P0000182
123,1.,0.,0.;                                                    0000319P0000183
508,4,0,19,45,1,0,0,19,47,1,0,0,19,48,0,0,0,19,49,0,0;           0000321P0000184
510,325,1,1,333;                                                 0000323P0000185
190,327,329,331;                                                 0000325P0000186
116,9.75,5.,0.,0;                                                0000327P0000187
123,-1.,0.,0.;                                                   0000329P0000188
123,0.,1.,0.;                                                    0000331P0000189
508,4,0,19,48,1,0,0,19,50,1,0,0,19,51,0,0,0,19,52,0,0;           0000333P0000190
510,337,1,1,345;                                                 0000335P0000191
190,339,341,343;                                                 0000337P0000192
116,9.75,8.,0.,0;                                                0000339P0000193
123,0.,-1.,0.;                                                   0000341P0000194
123,-1.,0.,0.;                                                   0000343P0000195
508,4,0,19,51,1,0,0,19,53,1,0,0,19,54,0,0,0,19,55,0,0;           0000345P0000196
510,349,1,1,357;                                                 0000347P0000197
190,351,353,355;                                                 0000349P0000198
116,7.25,8.,0.,0;                                                0000351P0000199
123,1.,0.,0.;                                                    0000353P0000200
123,0.,-1.,0.;                                                   0000355P0000201
508,4,0,19,54,1,0,0,19,56,1,0,0,19,57,0,0,0,19,58,0,0;           0000357P0000202
510,361,1,1,369;                                                 0000359P0000203
190,363,365,367;                                                 0000361P0000204
116,7.25,3.,0.,0;                                                0000363P0000205
123,0.,-1.,0.;                                                   0000365P0000206
123,-1.,0.,0.;                                                   0000367P0000207
508,4,0,19,57,1,0,0,19,59,1,0,0,19,1,0,0,0,19,60,0,0;            0000369P0000208
510,373,1,1,381;                                                 0000371P0000209
190,375,377,379;                                                 0000373P0000210
116,5.5,3.,0.,0;                                                 0000375P0000211
123,0.,0.,1.;                                                    0000377P0000212
123,1.,0.,0.;                                                    0000379P0000213
508,20,0,19,4,0,0,0,19,60,0,0,0,19,58,0,0,0,19,55,0,0,0,19,52,0, 0000381P0000214
0,0,19,49,0,0,0,19,46,0,0,0,19,43,0,0,0,19,40,0,0,0,19,37,0,0,0, 0000381P0000215
19,34,0,0,0,19,31,0,0,0,19,28,0,0,0,19,25,0,0,0,19,22,0,0,0,19,  0000381P0000216
19,0,0,0,19,16,0,0,0,19,13,0,0,0,19,10,0,0,0,19,7,0,0;           0000381P0000217
510,385,1,1,393;                                                 0000383P0000218
190,387,389,391;                                                 0000385P0000219
116,5.5,3.,56.,0;                                                0000387P0000220
123,0.,0.,1.;                                                    0000389P0000221
123,1.,0.,0.;                                                    0000391P0000222
508,20,0,19,2,0,0,0,19,59,0,0,0,19,56,0,0,0,19,53,0,0,0,19,50,0, 0000393P0000223
0,0,19,47,0,0,0,19,44,0,0,0,19,41,0,0,0,19,38,0,0,0,19,35,0,0,0, 0000393P0000224
19,32,0,0,0,19,29,0,0,0,19,26,0,0,0,19,23,0,0,0,19,20,0,0,0,19,  0000393P0000225
17,0,0,0,19,14,0,0,0,19,11,0,0,0,19,8,0,0,0,19,5,0,0;            0000393P0000226
S      1G      4D    394P    226                                        T0000001
