                                                                        S0000001
,,31HOpen CASCADE IGES processor 7.5,13HFilename.iges,                  G0000001
16HOpen CASCADE 7.5,31HOpen CASCADE IGES processor 7.5,32,308,15,308,15,G0000002
,1.,2,2HMM,1,0.01,15H20220404.105653,1E-07,7.013667,,,11,0,             G0000003
15H20220404.105653,;                                                    G0000004
     402       1       0       0       0       0       0       000000000D0000001
     402       0       0       1       1                               0D0000002
     186       2       0       0       0       0       0       000020000D0000003
     186       0       0       1       0                               0D0000004
     514       3       0       0       0       0       0       000010000D0000005
     514       0       0       2       1                               0D0000006
     510       5       0       0       0       0       0       000010000D0000007
     510       0       0       1       1                               0D0000008
     190       6       0       0       0       0       0       000010000D0000009
     190       0       0       1       1                               0D0000010
     116       7       0       0       0       0       0       000010400D0000011
     116       0       0       1       0                               0D0000012
     123       8       0       0       0       0       0       000010200D0000013
     123       0       0       1       0                               0D0000014
     123       9       0       0       0       0       0       000010200D0000015
     123       0       0       1       0                               0D0000016
     508      10       0       0       0       0       0       000010000D0000017
     508       0       0       1       1                               0D0000018
     504      11       0       0       0       0       0       000010001D0000019
     504       0       0       7       1                               0D0000020
     110      18       0       0       0       0       0       000010000D0000021
     110       0       0       1       0                               0D0000022
     502      19       0       0       0       0       0       000010000D0000023
     502       0       0       6       1                               0D0000024
     110      25       0       0       0       0       0       000010000D0000025
     110       0       0       1       0                               0D0000026
     110      26       0       0       0       0       0       000010000D0000027
     110       0       0       1       0                               0D0000028
     110      27       0       0       0       0       0       000010000D0000029
     110       0       0       1       0                               0D0000030
     100      28       0       0       0       0      33       000010000D0000031
     100       0       0       1       0                               0D0000032
     124      29       0       0       0       0       0       000000000D0000033
     124       0       0       2       0                               0D0000034
     100      31       0       0       0       0      37       000010000D0000035
     100       0       0       1       0                               0D0000036
     124      32       0       0       0       0       0       000000000D0000037
     124       0       0       2       0                               0D0000038
     110      34       0       0       0       0       0       000010000D0000039
     110       0       0       1       0                               0D0000040
     100      35       0       0       0       0      43       000010000D0000041
     100       0       0       1       0                               0D0000042
     124      36       0       0       0       0       0       000000000D0000043
     124       0       0       2       0                               0D0000044
     110      38       0       0       0       0       0       000010000D0000045
     110       0       0       1       0                               0D0000046
     110      39       0       0       0       0       0       000010000D0000047
     110       0       0       1       0                               0D0000048
     110      40       0       0       0       0       0       000010000D0000049
     110       0       0       1       0                               0D0000050
     110      41       0       0       0       0       0       000010000D0000051
     110       0       0       1       0                               0D0000052
     110      42       0       0       0       0       0       000010000D0000053
     110       0       0       1       0                               0D0000054
     110      43       0       0       0       0       0       000010000D0000055
     110       0       0       1       0                               0D0000056
     110      44       0       0       0       0       0       000010000D0000057
     110       0       0       1       0                               0D0000058
     110      45       0       0       0       0       0       000010000D0000059
     110       0       0       1       0                               0D0000060
     110      46       0       0       0       0       0       000010000D0000061
     110       0       0       1       0                               0D0000062
     110      47       0       0       0       0       0       000010000D0000063
     110       0       0       1       0                               0D0000064
     110      48       0       0       0       0       0       000010000D0000065
     110       0       0       1       0                               0D0000066
     110      49       0       0       0       0       0       000010000D0000067
     110       0       0       1       0                               0D0000068
     110      50       0       0       0       0       0       000010000D0000069
     110       0       0       1       0                               0D0000070
     110      51       0       0       0       0       0       000010000D0000071
     110       0       0       1       0                               0D0000072
     110      52       0       0       0       0       0       000010000D0000073
     110       0       0       1       0                               0D0000074
     110      53       0       0       0       0       0       000010000D0000075
     110       0       0       1       0                               0D0000076
     100      54       0       0       0       0      79       000010000D0000077
     100       0       0       1       0                               0D0000078
     124      55       0       0       0       0       0       000000000D0000079
     124       0       0       2       0                               0D0000080
     110      57       0       0       0       0       0       000010000D0000081
     110       0       0       1       0                               0D0000082
     110      58       0       0       0       0       0       000010000D0000083
     110       0       0       1       0                               0D0000084
     110      59       0       0       0       0       0       000010000D0000085
     110       0       0       1       0                               0D0000086
     110      60       0       0       0       0       0       000010000D0000087
     110       0       0       1       0                               0D0000088
     110      61       0       0       0       0       0       000010000D0000089
     110       0       0       1       0                               0D0000090
     508      62       0       0       0       0       0       000010000D0000091
     508       0       0       1       1                               0D0000092
     510      63       0       0       0       0       0       000010000D0000093
     510       0       0       1       1                               0D0000094
     192      64       0       0       0       0       0       000010000D0000095
     192       0       0       1       1                               0D0000096
     116      65       0       0       0       0       0       000010400D0000097
     116       0       0       1       0                               0D0000098
     123      66       0       0       0       0       0       000010200D0000099
     123       0       0       1       0                               0D0000100
     123      67       0       0       0       0       0       000010200D0000101
     123       0       0       1       0                               0D0000102
     508      68       0       0       0       0       0       000010000D0000103
     508       0       0       2       1                               0D0000104
     110      70       0       0       0       0       0       000010000D0000105
     110       0       0       1       0                               0D0000106
     110      71       0       0       0       0       0       000010000D0000107
     110       0       0       1       0                               0D0000108
     110      72       0       0       0       0       0       000010000D0000109
     110       0       0       1       0                               0D0000110
     110      73       0       0       0       0       0       000010000D0000111
     110       0       0       1       0                               0D0000112
     510      74       0       0       0       0       0       000010000D0000113
     510       0       0       1       1                               0D0000114
     190      75       0       0       0       0       0       000010000D0000115
     190       0       0       1       1                               0D0000116
     116      76       0       0       0       0       0       000010400D0000117
     116       0       0       1       0                               0D0000118
     123      77       0       0       0       0       0       000010200D0000119
     123       0       0       1       0                               0D0000120
     123      78       0       0       0       0       0       000010200D0000121
     123       0       0       1       0                               0D0000122
     508      79       0       0       0       0       0       000010000D0000123
     508       0       0       2       1                               0D0000124
     510      81       0       0       0       0       0       000010000D0000125
     510       0       0       1       1                               0D0000126
     190      82       0       0       0       0       0       000010000D0000127
     190       0       0       1       1                               0D0000128
     116      83       0       0       0       0       0       000010400D0000129
     116       0       0       1       0                               0D0000130
     123      84       0       0       0       0       0       000010200D0000131
     123       0       0       1       0                               0D0000132
     123      85       0       0       0       0       0       000010200D0000133
     123       0       0       1       0                               0D0000134
     508      86       0       0       0       0       0       000010000D0000135
     508       0       0       2       1                               0D0000136
     510      88       0       0       0       0       0       000010000D0000137
     510       0       0       1       1                               0D0000138
     190      89       0       0       0       0       0       000010000D0000139
     190       0       0       1       1                               0D0000140
     116      90       0       0       0       0       0       000010400D0000141
     116       0       0       1       0                               0D0000142
     123      91       0       0       0       0       0       000010200D0000143
     123       0       0       1       0                               0D0000144
     123      92       0       0       0       0       0       000010200D0000145
     123       0       0       1       0                               0D0000146
     508      93       0       0       0       0       0       000010000D0000147
     508       0       0       1       1                               0D0000148
     510      94       0       0       0       0       0       000010000D0000149
     510       0       0       1       1                               0D0000150
     192      95       0       0       0       0       0       000010000D0000151
     192       0       0       1       1                               0D0000152
     116      96       0       0       0       0       0       000010400D0000153
     116       0       0       1       0                               0D0000154
     123      97       0       0       0       0       0       000010200D0000155
     123       0       0       1       0                               0D0000156
     123      98       0       0       0       0       0       000010200D0000157
     123       0       0       1       0                               0D0000158
     508      99       0       0       0       0       0       000010000D0000159
     508       0       0       2       1                               0D0000160
     110     101       0       0       0       0       0       000010000D0000161
     110       0       0       1       0                               0D0000162
     110     102       0       0       0       0       0       000010000D0000163
     110       0       0       1       0                               0D0000164
     110     103       0       0       0       0       0       000010000D0000165
     110       0       0       1       0                               0D0000166
     110     104       0       0       0       0       0       000010000D0000167
     110       0       0       1       0                               0D0000168
     510     105       0       0       0       0       0       000010000D0000169
     510       0       0       1       1                               0D0000170
     190     106       0       0       0       0       0       000010000D0000171
     190       0       0       1       1                               0D0000172
     116     107       0       0       0       0       0       000010400D0000173
     116       0       0       1       0                               0D0000174
     123     108       0       0       0       0       0       000010200D0000175
     123       0       0       1       0                               0D0000176
     123     109       0       0       0       0       0       000010200D0000177
     123       0       0       1       0                               0D0000178
     508     110       0       0       0       0       0       000010000D0000179
     508       0       0       1       1                               0D0000180
     510     111       0       0       0       0       0       000010000D0000181
     510       0       0       1       1                               0D0000182
     190     112       0       0       0       0       0       000010000D0000183
     190       0       0       1       1                               0D0000184
     116     113       0       0       0       0       0       000010400D0000185
     116       0       0       1       0                               0D0000186
     123     114       0       0       0       0       0       000010200D0000187
     123       0       0       1       0                               0D0000188
     123     115       0       0       0       0       0       000010200D0000189
     123       0       0       1       0                               0D0000190
     508     116       0       0       0       0       0       000010000D0000191
     508       0       0       1       1                               0D0000192
     510     117       0       0       0       0       0       000010000D0000193
     510       0       0       1       1                               0D0000194
     190     118       0       0       0       0       0       000010000D0000195
     190       0       0       1       1                               0D0000196
     116     119       0       0       0       0       0       000010400D0000197
     116       0       0       1       0                               0D0000198
     123     120       0       0       0       0       0       000010200D0000199
     123       0       0       1       0                               0D0000200
     123     121       0       0       0       0       0       000010200D0000201
     123       0       0       1       0                               0D0000202
     508     122       0       0       0       0       0       000010000D0000203
     508       0       0       1       1                               0D0000204
     510     123       0       0       0       0       0       000010000D0000205
     510       0       0       1       1                               0D0000206
     190     124       0       0       0       0       0       000010000D0000207
     190       0       0       1       1                               0D0000208
     116     125       0       0       0       0       0       000010400D0000209
     116       0       0       1       0                               0D0000210
     123     126       0       0       0       0       0       000010200D0000211
     123       0       0       1       0                               0D0000212
     123     127       0       0       0       0       0       000010200D0000213
     123       0       0       1       0                               0D0000214
     508     128       0       0       0       0       0       000010000D0000215
     508       0       0       1       1                               0D0000216
     508     129       0       0       0       0       0       000010000D0000217
     508       0       0       1       1                               0D0000218
     510     130       0       0       0       0       0       000010000D0000219
     510       0       0       1       1                               0D0000220
     190     131       0       0       0       0       0       000010000D0000221
     190       0       0       1       1                               0D0000222
     116     132       0       0       0       0       0       000010400D0000223
     116       0       0       1       0                               0D0000224
     123     133       0       0       0       0       0       000010200D0000225
     123       0       0       1       0                               0D0000226
     123     134       0       0       0       0       0       000010200D0000227
     123       0       0       1       0                               0D0000228
     508     135       0       0       0       0       0       000010000D0000229
     508       0       0       1       1                               0D0000230
     510     136       0       0       0       0       0       000010000D0000231
     510       0       0       1       1                               0D0000232
     190     137       0       0       0       0       0       000010000D0000233
     190       0       0       1       1                               0D0000234
     116     138       0       0       0       0       0       000010400D0000235
     116       0       0       1       0                               0D0000236
     123     139       0       0       0       0       0       000010200D0000237
     123       0       0       1       0                               0D0000238
     123     140       0       0       0       0       0       000010200D0000239
     123       0       0       1       0                               0D0000240
     508     141       0       0       0       0       0       000010000D0000241
     508       0       0       1       1                               0D0000242
402,1,3;                                                         0000001P0000001
186,5,1,0;                                                       0000003P0000002
514,12,7,0,93,0,113,0,125,1,137,0,149,0,169,0,181,0,193,0,205,0, 0000005P0000003
219,1,231,0;                                                     0000005P0000004
510,9,2,1,17,91;                                                 0000007P0000005
190,11,13,15;                                                    0000009P0000006
116,5.743826231,1.45,-0.2,0;                                     0000011P0000007
123,0.,-1.110223025E-15,-1.;                                     0000013P0000008
123,-1.,0.,0.;                                                   0000015P0000009
508,4,0,19,1,1,0,0,19,2,1,0,0,19,3,0,0,0,19,4,0,0;               0000017P0000010
504,30,21,23,1,23,2,25,23,2,23,3,27,23,4,23,3,29,23,1,23,4,31,   0000019P0000011
23,5,23,5,35,23,1,23,6,39,23,6,23,7,41,23,2,23,7,45,23,4,23,8,   0000019P0000012
47,23,8,23,9,49,23,9,23,10,51,23,10,23,11,53,23,12,23,11,55,23,  0000019P0000013
12,23,13,57,23,13,23,6,59,23,3,23,14,61,23,14,23,15,63,23,15,23, 0000019P0000014
16,65,23,16,23,17,67,23,18,23,17,69,23,18,23,19,71,23,19,23,7,   0000019P0000015
73,23,8,23,14,75,23,5,23,20,77,23,20,23,20,81,23,13,23,19,83,23, 0000019P0000016
9,23,15,85,23,10,23,16,87,23,11,23,17,89,23,12,23,18;            0000019P0000017
110,5.743826231,1.45,-0.2,5.743826231,-1.45,-0.2;                0000021P0000018
502,20,5.743826231,1.45,-0.2,5.743826231,-1.45,-0.2,3.,-1.45,    0000023P0000019
-0.2,3.,1.45,-0.2,3.85,-2.220446049E-16,-0.2,6.256173769,1.45,   0000023P0000020
-0.2,6.256173769,-1.45,-0.2,3.,1.45,0.15,2.6,1.45,0.15,2.6,1.45, 0000023P0000021
-0.75,6.1,1.45,-0.75,7.,1.45,-0.45,7.,1.45,-0.2,3.,-1.45,0.15,   0000023P0000022
2.6,-1.45,0.15,2.6,-1.45,-0.75,6.1,-1.45,-0.75,7.,-1.45,-0.45,   0000023P0000023
7.,-1.45,-0.2,3.85,-8.326672685E-16,-0.75;                       0000023P0000024
110,5.743826231,-1.45,-0.2,3.,-1.45,-0.2;                        0000025P0000025
110,3.,1.45,-0.2,3.,-1.45,-0.2;                                  0000027P0000026
110,5.743826231,1.45,-0.2,3.,1.45,-0.2;                          0000029P0000027
100,0.,0.,0.,0.4,0.,0.4,0.;                                      0000031P0000028
124,-1.,0.,0.,4.25,0.,-1.,1.110223025E-15,-2.220446049E-16,0.,   0000033P0000029
1.110223025E-15,1.,-0.2;                                         0000033P0000030
100,0.,0.,0.,-0.256173769,-0.2,0.256173769,-0.2;                 0000035P0000031
124,1.,0.,0.,6.,0.,1.110223025E-15,-1.,1.45,0.,1.,               0000037P0000032
1.110223025E-15,-1.609823386E-15;                                0000037P0000033
110,6.256173769,1.45,-0.2,6.256173769,-1.45,-0.2;                0000039P0000034
100,0.,0.,0.,-0.256173769,-0.2,0.256173769,-0.2;                 0000041P0000035
124,1.,0.,0.,6.,0.,1.110223025E-15,-1.,-1.45,0.,1.,              0000043P0000036
1.110223025E-15,1.609823386E-15;                                 0000043P0000037
110,3.,1.45,-0.2,3.,1.45,0.15;                                   0000045P0000038
110,3.,1.45,0.15,2.6,1.45,0.15;                                  0000047P0000039
110,2.6,1.45,0.15,2.6,1.45,-0.75;                                0000049P0000040
110,2.6,1.45,-0.75,6.1,1.45,-0.75;                               0000051P0000041
110,7.,1.45,-0.45,6.1,1.45,-0.75;                                0000053P0000042
110,7.,1.45,-0.45,7.,1.45,-0.2;                                  0000055P0000043
110,7.,1.45,-0.2,6.256173769,1.45,-0.2;                          0000057P0000044
110,3.,-1.45,-0.2,3.,-1.45,0.15;                                 0000059P0000045
110,3.,-1.45,0.15,2.6,-1.45,0.15;                                0000061P0000046
110,2.6,-1.45,0.15,2.6,-1.45,-0.75;                              0000063P0000047
110,2.6,-1.45,-0.75,6.1,-1.45,-0.75;                             0000065P0000048
110,7.,-1.45,-0.45,6.1,-1.45,-0.75;                              0000067P0000049
110,7.,-1.45,-0.45,7.,-1.45,-0.2;                                0000069P0000050
110,7.,-1.45,-0.2,6.256173769,-1.45,-0.2;                        0000071P0000051
110,3.,1.45,0.15,3.,-1.45,0.15;                                  0000073P0000052
110,3.85,-2.220446049E-16,-0.2,3.85,-8.326672685E-16,-0.75;      0000075P0000053
100,0.,0.,0.,0.4,0.,0.4,0.;                                      0000077P0000054
124,-1.,0.,0.,4.25,0.,-1.,1.110223025E-15,-8.326672685E-16,0.,   0000079P0000055
1.110223025E-15,1.,-0.75;                                        0000079P0000056
110,7.,1.45,-0.2,7.,-1.45,-0.2;                                  0000081P0000057
110,2.6,1.45,0.15,2.6,-1.45,0.15;                                0000083P0000058
110,2.6,1.45,-0.75,2.6,-1.45,-0.75;                              0000085P0000059
110,6.1,1.45,-0.75,6.1,-1.45,-0.75;                              0000087P0000060
110,7.,1.45,-0.45,7.,-1.45,-0.45;                                0000089P0000061
508,1,0,19,5,1,0;                                                0000091P0000062
510,95,1,1,103;                                                  0000093P0000063
192,97,99,0.325,101;                                             0000095P0000064
116,6.,1.45,-1.609823386E-15,0;                                  0000097P0000065
123,0.,1.,-1.110223025E-15;                                      0000099P0000066
123,1.,0.,0.;                                                    0000101P0000067
508,4,0,19,1,0,1,0,105,0,19,6,1,1,0,107,0,19,7,1,1,0,109,0,19,8, 0000103P0000068
0,1,0,111;                                                       0000103P0000069
110,-217.979872445,-2.9,0.,-217.979872445,0.,0.;                 0000105P0000070
110,-217.979872445,0.,0.,-322.020127555,0.,0.;                   0000107P0000071
110,-322.020127555,0.,0.,-322.020127555,-2.9,0.;                 0000109P0000072
110,-322.020127555,-2.9,0.,-217.979872445,-2.9,0.;               0000111P0000073
510,115,1,1,123;                                                 0000113P0000074
190,117,119,121;                                                 0000115P0000075
116,4.618363367,1.45,-0.41763172,0;                              0000117P0000076
123,-3.851859889E-34,-1.,1.110223025E-15;                        0000119P0000077
123,0.,-1.110223025E-15,-1.;                                     0000121P0000078
508,9,0,19,4,1,0,0,19,9,1,0,0,19,10,1,0,0,19,11,1,0,0,19,12,1,0, 0000123P0000079
0,19,13,0,0,0,19,14,1,0,0,19,15,1,0,0,19,6,0,0;                  0000123P0000080
510,127,1,1,135;                                                 0000125P0000081
190,129,131,133;                                                 0000127P0000082
116,4.618363367,-1.45,-0.41763172,0;                             0000129P0000083
123,-3.851859889E-34,-1.,1.110223025E-15;                        0000131P0000084
123,0.,-1.110223025E-15,-1.;                                     0000133P0000085
508,9,0,19,2,1,0,0,19,16,1,0,0,19,17,1,0,0,19,18,1,0,0,19,19,1,  0000135P0000086
0,0,19,20,0,0,0,19,21,1,0,0,19,22,1,0,0,19,8,0,0;                0000135P0000087
510,139,1,1,147;                                                 0000137P0000088
190,141,143,145;                                                 0000139P0000089
116,3.,1.45,-0.2,0;                                              0000141P0000090
123,-1.,0.,0.;                                                   0000143P0000091
123,0.,1.110223025E-15,1.;                                       0000145P0000092
508,4,0,19,3,1,0,0,19,16,1,0,0,19,23,0,0,0,19,9,0,0;             0000147P0000093
510,151,1,1,159;                                                 0000149P0000094
192,153,155,0.4,157;                                             0000151P0000095
116,4.25,-2.220446049E-16,-0.2,0;                                0000153P0000096
123,0.,1.110223025E-15,1.;                                       0000155P0000097
123,-1.,0.,0.;                                                   0000157P0000098
508,4,0,19,5,0,1,0,161,0,19,24,1,1,0,163,0,19,25,1,1,0,165,0,19, 0000159P0000099
24,0,1,0,167;                                                    0000159P0000100
110,360.,0.,0.,0.,0.,0.;                                         0000161P0000101
110,0.,0.,0.,0.,-0.55,0.;                                        0000163P0000102
110,0.,-0.55,0.,360.,-0.55,0.;                                   0000165P0000103
110,360.,-0.55,0.,360.,0.,0.;                                    0000167P0000104
510,171,1,1,179;                                                 0000169P0000105
190,173,175,177;                                                 0000171P0000106
116,7.,1.45,-0.2,0;                                              0000173P0000107
123,0.,-1.110223025E-15,-1.;                                     0000175P0000108
123,-1.,0.,0.;                                                   0000177P0000109
508,4,0,19,26,1,0,0,19,22,1,0,0,19,7,0,0,0,19,15,0,0;            0000179P0000110
510,183,1,1,191;                                                 0000181P0000111
190,185,187,189;                                                 0000183P0000112
116,3.,1.45,0.15,0;                                              0000185P0000113
123,0.,-1.110223025E-15,-1.;                                     0000187P0000114
123,-1.,0.,0.;                                                   0000189P0000115
508,4,0,19,23,1,0,0,19,17,1,0,0,19,27,0,0,0,19,10,0,0;           0000191P0000116
510,195,1,1,203;                                                 0000193P0000117
190,197,199,201;                                                 0000195P0000118
116,2.6,1.45,0.15,0;                                             0000197P0000119
123,1.,0.,0.;                                                    0000199P0000120
123,0.,-1.110223025E-15,-1.;                                     0000201P0000121
508,4,0,19,27,1,0,0,19,18,1,0,0,19,28,0,0,0,19,11,0,0;           0000203P0000122
510,207,2,1,215,217;                                             0000205P0000123
190,209,211,213;                                                 0000207P0000124
116,2.6,1.45,-0.75,0;                                            0000209P0000125
123,0.,1.110223025E-15,1.;                                       0000211P0000126
123,1.,0.,0.;                                                    0000213P0000127
508,4,0,19,28,1,0,0,19,19,1,0,0,19,29,0,0,0,19,12,0,0;           0000215P0000128
508,1,0,19,25,0,0;                                               0000217P0000129
510,221,1,1,229;                                                 0000219P0000130
190,223,225,227;                                                 0000221P0000131
116,7.,1.45,-0.45,0;                                             0000223P0000132
123,0.316227766,-1.053250041E-15,-0.948683298;                   0000225P0000133
123,-0.948683298,-3.510833469E-16,-0.316227766;                  0000227P0000134
508,4,0,19,30,1,0,0,19,20,1,0,0,19,29,0,0,0,19,13,0,0;           0000229P0000135
510,233,1,1,241;                                                 0000231P0000136
190,235,237,239;                                                 0000233P0000137
116,7.,1.45,-0.45,0;                                             0000235P0000138
123,-1.,0.,0.;                                                   0000237P0000139
123,0.,1.110223025E-15,1.;                                       0000239P0000140
508,4,0,19,30,1,0,0,19,21,1,0,0,19,26,0,0,0,19,14,0,0;           0000241P0000141
S      1G      4D    242P    141                                        T0000001
