                                                                        S0000001
,,31HOpen CASCADE IGES processor 7.5,13HFilename.iges,                  G0000001
16HOpen CASCADE 7.5,31HOpen CASCADE IGES processor 7.5,32,308,15,308,15,G0000002
,1.,2,2HMM,1,0.01,15H20220404.105653,1.08553E-07,7.018583,,,11,0,       G0000003
15H20220404.105653,;                                                    G0000004
     402       1       0       0       0       0       0       000000000D0000001
     402       0       0       1       1                               0D0000002
     186       2       0       0       0       0       0       000020000D0000003
     186       0       0       1       0                               0D0000004
     514       3       0       0       0       0       0       000010000D0000005
     514       0       0       2       1                               0D0000006
     510       5       0       0       0       0       0       000010000D0000007
     510       0       0       1       1                               0D0000008
     190       6       0       0       0       0       0       000010000D0000009
     190       0       0       1       1                               0D0000010
     116       7       0       0       0       0       0       000010400D0000011
     116       0       0       1       0                               0D0000012
     123       8       0       0       0       0       0       000010200D0000013
     123       0       0       1       0                               0D0000014
     123       9       0       0       0       0       0       000010200D0000015
     123       0       0       1       0                               0D0000016
     508      10       0       0       0       0       0       000010000D0000017
     508       0       0       2       1                               0D0000018
     504      12       0       0       0       0       0       000010001D0000019
     504       0       0       9       1                               0D0000020
     100      21       0       0       0       0      23       000010000D0000021
     100       0       0       1       0                               0D0000022
     124      22       0       0       0       0       0       000000000D0000023
     124       0       0       3       0                               0D0000024
     502      25       0       0       0       0       0       000010000D0000025
     502       0       0       8       1                               0D0000026
     100      33       0       0       0       0      29       000010000D0000027
     100       0       0       1       0                               0D0000028
     124      34       0       0       0       0       0       000000000D0000029
     124       0       0       3       0                               0D0000030
     110      37       0       0       0       0       0       000010000D0000031
     110       0       0       1       0                               0D0000032
     110      38       0       0       0       0       0       000010000D0000033
     110       0       0       1       0                               0D0000034
     110      39       0       0       0       0       0       000010000D0000035
     110       0       0       1       0                               0D0000036
     110      40       0       0       0       0       0       000010000D0000037
     110       0       0       1       0                               0D0000038
     110      41       0       0       0       0       0       000010000D0000039
     110       0       0       1       0                               0D0000040
     100      42       0       0       0       0      43       000010000D0000041
     100       0       0       1       0                               0D0000042
     124      43       0       0       0       0       0       000000000D0000043
     124       0       0       2       0                               0D0000044
     104      45       0       0       0       0      47       000010000D0000045
     104       0       0       2       1                               0D0000046
     124      47       0       0       0       0       0       000000000D0000047
     124       0       0       3       0                               0D0000048
     110      50       0       0       0       0       0       000010000D0000049
     110       0       0       1       0                               0D0000050
     100      51       0       0       0       0      53       000010000D0000051
     100       0       0       1       0                               0D0000052
     124      52       0       0       0       0       0       000000000D0000053
     124       0       0       3       0                               0D0000054
     110      55       0       0       0       0       0       000010000D0000055
     110       0       0       1       0                               0D0000056
     110      56       0       0       0       0       0       000010000D0000057
     110       0       0       1       0                               0D0000058
     110      57       0       0       0       0       0       000010000D0000059
     110       0       0       1       0                               0D0000060
     110      58       0       0       0       0       0       000010000D0000061
     110       0       0       2       0                               0D0000062
     110      60       0       0       0       0       0       000010000D0000063
     110       0       0       1       0                               0D0000064
     110      61       0       0       0       0       0       000010000D0000065
     110       0       0       1       0                               0D0000066
     110      62       0       0       0       0       0       000010000D0000067
     110       0       0       1       0                               0D0000068
     100      63       0       0       0       0      71       000010000D0000069
     100       0       0       1       0                               0D0000070
     124      64       0       0       0       0       0       000000000D0000071
     124       0       0       2       0                               0D0000072
     110      66       0       0       0       0       0       000010000D0000073
     110       0       0       1       0                               0D0000074
     110      67       0       0       0       0       0       000010000D0000075
     110       0       0       1       0                               0D0000076
     110      68       0       0       0       0       0       000010000D0000077
     110       0       0       1       0                               0D0000078
     110      69       0       0       0       0       0       000010000D0000079
     110       0       0       1       0                               0D0000080
     110      70       0       0       0       0       0       000010000D0000081
     110       0       0       2       0                               0D0000082
     110      72       0       0       0       0       0       000010000D0000083
     110       0       0       1       0                               0D0000084
     110      73       0       0       0       0       0       000010000D0000085
     110       0       0       1       0                               0D0000086
     100      74       0       0       0       0      89       000010000D0000087
     100       0       0       1       0                               0D0000088
     124      75       0       0       0       0       0       000000000D0000089
     124       0       0       2       0                               0D0000090
     110      77       0       0       0       0       0       000010000D0000091
     110       0       0       1       0                               0D0000092
     110      78       0       0       0       0       0       000010000D0000093
     110       0       0       1       0                               0D0000094
     110      79       0       0       0       0       0       000010000D0000095
     110       0       0       2       0                               0D0000096
     100      81       0       0       0       0      99       000010000D0000097
     100       0       0       1       0                               0D0000098
     124      82       0       0       0       0       0       000000000D0000099
     124       0       0       2       0                               0D0000100
     110      84       0       0       0       0       0       000010000D0000101
     110       0       0       1       0                               0D0000102
     100      85       0       0       0       0     105       000010000D0000103
     100       0       0       1       0                               0D0000104
     124      86       0       0       0       0       0       000000000D0000105
     124       0       0       2       0                               0D0000106
     110      88       0       0       0       0       0       000010000D0000107
     110       0       0       1       0                               0D0000108
     110      89       0       0       0       0       0       000010000D0000109
     110       0       0       1       0                               0D0000110
     110      90       0       0       0       0       0       000010000D0000111
     110       0       0       1       0                               0D0000112
     110      91       0       0       0       0       0       000010000D0000113
     110       0       0       1       0                               0D0000114
     110      92       0       0       0       0       0       000010000D0000115
     110       0       0       1       0                               0D0000116
     508      93       0       0       0       0       0       000010000D0000117
     508       0       0       1       1                               0D0000118
     510      94       0       0       0       0       0       000010000D0000119
     510       0       0       1       1                               0D0000120
     194      95       0       0       0       0       0       000010000D0000121
     194       0       0       1       1                               0D0000122
     116      96       0       0       0       0       0       000010400D0000123
     116       0       0       1       0                               0D0000124
     123      97       0       0       0       0       0       000010200D0000125
     123       0       0       1       0                               0D0000126
     123      98       0       0       0       0       0       000010200D0000127
     123       0       0       1       0                               0D0000128
     508      99       0       0       0       0       0       000010000D0000129
     508       0       0       2       1                               0D0000130
     110     101       0       0       0       0       0       000010000D0000131
     110       0       0       1       0                               0D0000132
     126     102       0       0       0       0       0       000010000D0000133
     126       0       0      15       0                               0D0000134
     110     117       0       0       0       0       0       000010000D0000135
     110       0       0       1       0                               0D0000136
     110     118       0       0       0       0       0       000010000D0000137
     110       0       0       1       0                               0D0000138
     110     119       0       0       0       0       0       000010000D0000139
     110       0       0       1       0                               0D0000140
     110     120       0       0       0       0       0       000010000D0000141
     110       0       0       1       0                               0D0000142
     510     121       0       0       0       0       0       000010000D0000143
     510       0       0       1       1                               0D0000144
     190     122       0       0       0       0       0       000010000D0000145
     190       0       0       1       1                               0D0000146
     116     123       0       0       0       0       0       000010400D0000147
     116       0       0       1       0                               0D0000148
     123     124       0       0       0       0       0       000010200D0000149
     123       0       0       1       0                               0D0000150
     123     125       0       0       0       0       0       000010200D0000151
     123       0       0       1       0                               0D0000152
     508     126       0       0       0       0       0       000010000D0000153
     508       0       0       2       1                               0D0000154
     510     128       0       0       0       0       0       000010000D0000155
     510       0       0       1       1                               0D0000156
     190     129       0       0       0       0       0       000010000D0000157
     190       0       0       1       1                               0D0000158
     116     130       0       0       0       0       0       000010400D0000159
     116       0       0       1       0                               0D0000160
     123     131       0       0       0       0       0       000010200D0000161
     123       0       0       1       0                               0D0000162
     123     132       0       0       0       0       0       000010200D0000163
     123       0       0       1       0                               0D0000164
     508     133       0       0       0       0       0       000010000D0000165
     508       0       0       2       1                               0D0000166
     510     135       0       0       0       0       0       000010000D0000167
     510       0       0       1       1                               0D0000168
     190     136       0       0       0       0       0       000010000D0000169
     190       0       0       1       1                               0D0000170
     116     137       0       0       0       0       0       000010400D0000171
     116       0       0       1       0                               0D0000172
     123     138       0       0       0       0       0       000010200D0000173
     123       0       0       1       0                               0D0000174
     123     139       0       0       0       0       0       000010200D0000175
     123       0       0       1       0                               0D0000176
     508     140       0       0       0       0       0       000010000D0000177
     508       0       0       1       1                               0D0000178
     510     141       0       0       0       0       0       000010000D0000179
     510       0       0       1       1                               0D0000180
     190     142       0       0       0       0       0       000010000D0000181
     190       0       0       1       1                               0D0000182
     116     143       0       0       0       0       0       000010400D0000183
     116       0       0       1       0                               0D0000184
     123     144       0       0       0       0       0       000010200D0000185
     123       0       0       1       0                               0D0000186
     123     145       0       0       0       0       0       000010200D0000187
     123       0       0       1       0                               0D0000188
     508     146       0       0       0       0       0       000010000D0000189
     508       0       0       2       1                               0D0000190
     510     148       0       0       0       0       0       000010000D0000191
     510       0       0       1       1                               0D0000192
     192     149       0       0       0       0       0       000010000D0000193
     192       0       0       1       1                               0D0000194
     116     150       0       0       0       0       0       000010400D0000195
     116       0       0       1       0                               0D0000196
     123     151       0       0       0       0       0       000010200D0000197
     123       0       0       1       0                               0D0000198
     123     152       0       0       0       0       0       000010200D0000199
     123       0       0       1       0                               0D0000200
     508     153       0       0       0       0       0       000010000D0000201
     508       0       0       2       1                               0D0000202
     110     155       0       0       0       0       0       000010000D0000203
     110       0       0       1       0                               0D0000204
     110     156       0       0       0       0       0       000010000D0000205
     110       0       0       1       0                               0D0000206
     110     157       0       0       0       0       0       000010000D0000207
     110       0       0       1       0                               0D0000208
     110     158       0       0       0       0       0       000010000D0000209
     110       0       0       1       0                               0D0000210
     510     159       0       0       0       0       0       000010000D0000211
     510       0       0       1       1                               0D0000212
     192     160       0       0       0       0       0       000010000D0000213
     192       0       0       1       1                               0D0000214
     116     161       0       0       0       0       0       000010400D0000215
     116       0       0       1       0                               0D0000216
     123     162       0       0       0       0       0       000010200D0000217
     123       0       0       1       0                               0D0000218
     123     163       0       0       0       0       0       000010200D0000219
     123       0       0       1       0                               0D0000220
     508     164       0       0       0       0       0       000010000D0000221
     508       0       0       2       1                               0D0000222
     110     166       0       0       0       0       0       000010000D0000223
     110       0       0       1       0                               0D0000224
     110     167       0       0       0       0       0       000010000D0000225
     110       0       0       1       0                               0D0000226
     110     168       0       0       0       0       0       000010000D0000227
     110       0       0       1       0                               0D0000228
     110     169       0       0       0       0       0       000010000D0000229
     110       0       0       1       0                               0D0000230
     510     170       0       0       0       0       0       000010000D0000231
     510       0       0       1       1                               0D0000232
     190     171       0       0       0       0       0       000010000D0000233
     190       0       0       1       1                               0D0000234
     116     172       0       0       0       0       0       000010400D0000235
     116       0       0       1       0                               0D0000236
     123     173       0       0       0       0       0       000010200D0000237
     123       0       0       1       0                               0D0000238
     123     174       0       0       0       0       0       000010200D0000239
     123       0       0       1       0                               0D0000240
     508     175       0       0       0       0       0       000010000D0000241
     508       0       0       1       1                               0D0000242
     510     176       0       0       0       0       0       000010000D0000243
     510       0       0       1       1                               0D0000244
     190     177       0       0       0       0       0       000010000D0000245
     190       0       0       1       1                               0D0000246
     116     178       0       0       0       0       0       000010400D0000247
     116       0       0       1       0                               0D0000248
     123     179       0       0       0       0       0       000010200D0000249
     123       0       0       1       0                               0D0000250
     123     180       0       0       0       0       0       000010200D0000251
     123       0       0       1       0                               0D0000252
     508     181       0       0       0       0       0       000010000D0000253
     508       0       0       1       1                               0D0000254
     508     182       0       0       0       0       0       000010000D0000255
     508       0       0       1       1                               0D0000256
     510     183       0       0       0       0       0       000010000D0000257
     510       0       0       1       1                               0D0000258
     190     184       0       0       0       0       0       000010000D0000259
     190       0       0       1       1                               0D0000260
     116     185       0       0       0       0       0       000010400D0000261
     116       0       0       1       0                               0D0000262
     123     186       0       0       0       0       0       000010200D0000263
     123       0       0       1       0                               0D0000264
     123     187       0       0       0       0       0       000010200D0000265
     123       0       0       1       0                               0D0000266
     508     188       0       0       0       0       0       000010000D0000267
     508       0       0       1       1                               0D0000268
     510     189       0       0       0       0       0       000010000D0000269
     510       0       0       1       1                               0D0000270
     190     190       0       0       0       0       0       000010000D0000271
     190       0       0       1       1                               0D0000272
     116     191       0       0       0       0       0       000010400D0000273
     116       0       0       1       0                               0D0000274
     123     192       0       0       0       0       0       000010200D0000275
     123       0       0       1       0                               0D0000276
     123     193       0       0       0       0       0       000010200D0000277
     123       0       0       1       0                               0D0000278
     508     194       0       0       0       0       0       000010000D0000279
     508       0       0       1       1                               0D0000280
     508     195       0       0       0       0       0       000010000D0000281
     508       0       0       1       1                               0D0000282
     510     196       0       0       0       0       0       000010000D0000283
     510       0       0       1       1                               0D0000284
     192     197       0       0       0       0       0       000010000D0000285
     192       0       0       1       1                               0D0000286
     116     198       0       0       0       0       0       000010400D0000287
     116       0       0       1       0                               0D0000288
     123     199       0       0       0       0       0       000010200D0000289
     123       0       0       1       0                               0D0000290
     123     200       0       0       0       0       0       000010200D0000291
     123       0       0       1       0                               0D0000292
     508     201       0       0       0       0       0       000010000D0000293
     508       0       0       2       1                               0D0000294
     110     203       0       0       0       0       0       000010000D0000295
     110       0       0       1       0                               0D0000296
     110     204       0       0       0       0       0       000010000D0000297
     110       0       0       1       0                               0D0000298
     110     205       0       0       0       0       0       000010000D0000299
     110       0       0       1       0                               0D0000300
     110     206       0       0       0       0       0       000010000D0000301
     110       0       0       1       0                               0D0000302
     510     207       0       0       0       0       0       000010000D0000303
     510       0       0       1       1                               0D0000304
     190     208       0       0       0       0       0       000010000D0000305
     190       0       0       1       1                               0D0000306
     116     209       0       0       0       0       0       000010400D0000307
     116       0       0       1       0                               0D0000308
     123     210       0       0       0       0       0       000010200D0000309
     123       0       0       1       0                               0D0000310
     123     211       0       0       0       0       0       000010200D0000311
     123       0       0       1       0                               0D0000312
     508     212       0       0       0       0       0       000010000D0000313
     508       0       0       1       1                               0D0000314
402,1,3;                                                         0000001P0000001
186,5,1,0;                                                       0000003P0000002
514,14,7,1,119,0,143,0,155,0,167,1,179,1,191,0,211,0,231,1,243,  0000005P0000003
1,257,1,269,1,283,0,303,1;                                       0000005P0000004
510,9,2,1,17,117;                                                0000007P0000005
190,11,13,15;                                                    0000009P0000006
116,0.,1.45,1.25,0;                                              0000011P0000007
123,0.,1.554312234E-15,1.;                                       0000013P0000008
123,1.,0.,0.;                                                    0000015P0000009
508,7,0,19,1,0,0,0,19,2,0,0,0,19,3,0,0,0,19,4,0,0,0,19,5,1,0,0,  0000017P0000010
19,6,1,0,0,19,7,0,0;                                             0000017P0000011
504,38,21,25,1,25,2,27,25,3,25,1,31,25,4,25,3,33,25,5,25,4,35,   0000019P0000012
25,5,25,6,37,25,6,25,7,39,25,2,25,7,41,25,8,25,8,45,25,3,25,2,   0000019P0000013
49,25,1,25,9,51,25,9,25,9,55,25,7,25,10,57,25,11,25,4,59,25,10,  0000019P0000014
25,11,61,25,12,25,13,63,25,13,25,6,65,25,10,25,14,67,25,14,25,   0000019P0000015
15,69,25,15,25,16,73,25,16,25,17,75,25,17,25,12,77,25,18,25,13,  0000019P0000016
79,25,18,25,5,81,25,19,25,18,83,25,11,25,20,85,25,20,25,21,87,   0000019P0000017
25,21,25,22,91,25,22,25,23,93,25,23,25,19,95,25,8,25,24,97,25,   0000019P0000018
24,25,24,101,25,9,25,25,103,25,25,25,25,107,25,20,25,14,109,25,  0000019P0000019
19,25,12,111,25,23,25,17,113,25,22,25,16,115,25,21,25,15;        0000019P0000020
100,0.,0.,0.,1.2,0.,-0.35,1.147824028;                           0000021P0000021
124,-1.,3.286920438E-31,0.,4.25,-3.286920438E-31,-1.,            0000023P0000022
1.554312234E-15,1.942890293E-15,5.108900651E-46,1.554312234E-15, 0000023P0000023
1.,1.25;                                                         0000023P0000024
502,25,3.05,1.942890293E-15,1.25,4.6,-1.147824028,1.25,4.6,      0000025P0000025
1.147824028,1.25,4.6,1.45,1.25,0.,1.45,1.25,0.,-1.45,1.25,4.6,   0000025P0000026
-1.45,1.25,0.85,1.942890293E-15,1.25,3.65,1.010302952E-15,0.65,  0000025P0000027
7.,-1.45,0.45,7.,1.45,0.45,2.5,-1.45,2.25375274E-15,0.,-1.45,    0000025P0000028
2.25375274E-15,7.,-1.45,0.2,6.256173769,-1.45,0.2,5.743826231,   0000025P0000029
-1.45,0.2,2.5,-1.45,0.2,0.,1.45,-2.25375274E-15,2.5,1.45,        0000025P0000030
-2.25375274E-15,7.,1.45,0.2,6.256173769,1.45,0.2,5.743826231,    0000025P0000031
1.45,0.2,2.5,1.45,0.2,0.85,0.,0.,3.65,3.108624469E-16,0.2;       0000025P0000032
100,0.,0.,0.,-0.35,-1.147824028,1.2,-2.939152318E-16;            0000027P0000033
124,-1.,3.286920438E-31,0.,4.25,-3.286920438E-31,-1.,            0000029P0000034
1.554312234E-15,1.942890293E-15,5.108900651E-46,1.554312234E-15, 0000029P0000035
1.,1.25;                                                         0000029P0000036
110,4.6,1.45,1.25,4.6,1.147824028,1.25;                          0000031P0000037
110,0.,1.45,1.25,4.6,1.45,1.25;                                  0000033P0000038
110,0.,1.45,1.25,0.,-1.45,1.25;                                  0000035P0000039
110,0.,-1.45,1.25,4.6,-1.45,1.25;                                0000037P0000040
110,4.6,-1.147824028,1.25,4.6,-1.45,1.25;                        0000039P0000041
100,0.,0.,0.,0.4,0.,0.4,0.;                                      0000041P0000042
124,-1.,0.,0.,1.25,0.,-1.,1.554312234E-15,1.942890293E-15,0.,    0000043P0000043
1.554312234E-15,1.,1.25;                                         0000043P0000044
104,0.410190675,0.,0.512738343,0.,-0.,-1.,0.,-0.889390592,       0000045P0000045
1.147824028,-0.889390592,-1.147824028;                           0000045P0000046
124,-0.948683298,-9.860761315E-32,-0.316227766,3.75625,          0000047P0000047
4.915166856E-16,1.,-1.474550057E-15,2.380040609E-15,0.316227766, 0000047P0000048
-1.554312234E-15,-0.948683298,1.53125;                           0000047P0000049
110,3.05,1.942890293E-15,1.25,3.65,1.010302952E-15,0.65;         0000049P0000050
100,0.,0.,0.,0.6,0.,0.6,0.;                                      0000051P0000051
124,-1.,3.286920438E-31,0.,4.25,-3.286920438E-31,-1.,            0000053P0000052
1.554312234E-15,1.010302952E-15,5.108900651E-46,1.554312234E-15, 0000053P0000053
1.,0.65;                                                         0000053P0000054
110,4.6,-1.45,1.25,7.,-1.45,0.45;                                0000055P0000055
110,7.,1.45,0.45,4.6,1.45,1.25;                                  0000057P0000056
110,7.,-1.45,0.45,7.,1.45,0.45;                                  0000059P0000057
110,2.5,-1.45,2.25375274E-15,-8.881784197E-16,-1.45,             0000061P0000058
2.25375274E-15;                                                  0000061P0000059
110,0.,-1.45,2.25375274E-15,0.,-1.45,1.25;                       0000063P0000060
110,7.,-1.45,0.45,7.,-1.45,0.2;                                  0000065P0000061
110,7.,-1.45,0.2,6.256173769,-1.45,0.2;                          0000067P0000062
100,0.,0.,0.,0.256173769,0.2,-0.256173769,0.2;                   0000069P0000063
124,1.,0.,0.,6.,0.,1.554312234E-15,-1.,-1.45,0.,1.,              0000071P0000064
1.554312234E-15,2.25375274E-15;                                  0000071P0000065
110,5.743826231,-1.45,0.2,2.5,-1.45,0.2;                         0000073P0000066
110,2.5,-1.45,0.2,2.5,-1.45,2.192690474E-15;                     0000075P0000067
110,0.,1.45,-2.25375274E-15,0.,-1.45,2.25375274E-15;             0000077P0000068
110,0.,1.45,-2.25375274E-15,0.,1.45,1.25;                        0000079P0000069
110,2.5,1.45,-2.25375274E-15,-8.881784197E-16,1.45,              0000081P0000070
-2.25375274E-15;                                                 0000081P0000071
110,7.,1.45,0.45,7.,1.45,0.2;                                    0000083P0000072
110,7.,1.45,0.2,6.256173769,1.45,0.2;                            0000085P0000073
100,0.,0.,0.,0.256173769,0.2,-0.256173769,0.2;                   0000087P0000074
124,1.,0.,0.,6.,0.,1.554312234E-15,-1.,1.45,0.,1.,               0000089P0000075
1.554312234E-15,-2.25375274E-15;                                 0000089P0000076
110,5.743826231,1.45,0.2,2.5,1.45,0.2;                           0000091P0000077
110,2.5,1.45,0.2,2.5,1.45,-2.303712776E-15;                      0000093P0000078
110,0.85,1.942890293E-15,1.25,0.85,-3.944304526E-31,             0000095P0000079
-2.220446049E-16;                                                0000095P0000080
100,0.,0.,0.,0.4,0.,0.4,0.;                                      0000097P0000081
124,-1.,0.,0.,1.25,0.,-1.,1.554312234E-15,0.,0.,1.554312234E-15, 0000099P0000082
1.,0.;                                                           0000099P0000083
110,3.65,1.010302952E-15,0.65,3.65,3.108624469E-16,0.2;          0000101P0000084
100,0.,0.,0.,0.6,0.,0.6,0.;                                      0000103P0000085
124,-1.,0.,0.,4.25,0.,-1.,1.554312234E-15,3.108624469E-16,0.,    0000105P0000086
1.554312234E-15,1.,0.2;                                          0000105P0000087
110,7.,1.45,0.2,7.,-1.45,0.2;                                    0000107P0000088
110,2.5,1.45,-2.25375274E-15,2.5,-1.45,2.25375274E-15;           0000109P0000089
110,2.5,1.45,0.2,2.5,-1.45,0.2;                                  0000111P0000090
110,5.743826231,1.45,0.2,5.743826231,-1.45,0.2;                  0000113P0000091
110,6.256173769,1.45,0.2,6.256173769,-1.45,0.2;                  0000115P0000092
508,1,0,19,8,0,0;                                                0000117P0000093
510,121,1,1,129;                                                 0000119P0000094
194,123,125,0.6,45.,127;                                         0000121P0000095
116,4.25,1.010302952E-15,0.65,0;                                 0000123P0000096
123,0.,1.554312234E-15,1.;                                       0000125P0000097
123,-1.,-3.286920438E-31,5.108900651E-46;                        0000127P0000098
508,6,0,19,2,0,1,0,131,0,19,9,1,1,0,133,0,19,1,0,1,0,135,0,19,   0000129P0000099
10,1,1,0,137,0,19,11,1,1,0,139,0,19,10,0,1,0,141;                0000129P0000100
110,360.,0.848528137,0.,253.0422367,0.848528137,0.;              0000131P0000101
126,15,8,1,0,1,0,2.176840077,2.176840077,2.176840077,            0000133P0000102
2.176840077,2.176840077,2.176840077,2.176840077,2.176840077,     0000133P0000103
2.176840077,3.141592654,3.141592654,3.141592654,3.141592654,     0000133P0000104
3.141592654,3.141592654,3.141592654,4.10634523,4.10634523,       0000133P0000105
4.10634523,4.10634523,4.10634523,4.10634523,4.10634523,          0000133P0000106
4.10634523,4.10634523,1.,1.,1.,1.,1.,1.,1.,1.,1.,1.,1.,1.,1.,1., 0000133P0000107
1.,1.,253.0422367,0.848528137,0.,245.001062907,0.779317751,0.,   0000133P0000108
236.585110679,0.716718124,0.,227.795291535,0.662263007,0.,       0000133P0000109
218.6530235,0.617281037,0.,209.206430261,0.582824424,0.,         0000133P0000110
199.543097988,0.559613312,0.,189.771552963,0.548007755,0.,       0000133P0000111
170.228447037,0.548007755,0.,160.456902011,0.559613312,0.,       0000133P0000112
150.79356974,0.582824424,0.,141.346976497,0.617281037,0.,        0000133P0000113
132.204708466,0.662263007,0.,123.414889321,0.716718124,0.,       0000133P0000114
114.998937093,0.779317751,0.,106.9577633,0.848528137,0.,         0000133P0000115
2.176840077,4.10634523,-0.,-0.,1.;                               0000133P0000116
110,106.9577633,0.848528137,0.,0.,0.848528137,0.;                0000135P0000117
110,0.,0.848528137,0.,0.,0.,0.;                                  0000137P0000118
110,0.,0.,0.,360.,0.,0.;                                         0000139P0000119
110,360.,0.,0.,360.,0.848528137,0.;                              0000141P0000120
510,145,1,1,153;                                                 0000143P0000121
190,147,149,151;                                                 0000145P0000122
116,3.25,-1.45,1.7,0;                                            0000147P0000123
123,-0.316227766,-1.474550057E-15,-0.948683298;                  0000149P0000124
123,0.948683298,-4.915166856E-16,-0.316227766;                   0000151P0000125
508,6,0,19,12,0,0,0,19,7,0,0,0,19,9,0,0,0,19,3,0,0,0,19,13,0,0,  0000153P0000126
0,19,14,0,0;                                                     0000153P0000127
510,157,1,1,165;                                                 0000155P0000128
190,159,161,163;                                                 0000157P0000129
116,3.456067289,-1.45,0.680130875,0;                             0000159P0000130
123,-3.851859889E-34,1.,-1.554312234E-15;                        0000161P0000131
123,0.,1.554312234E-15,1.;                                       0000163P0000132
508,9,0,19,15,1,0,0,19,16,1,0,0,19,6,1,0,0,19,12,1,0,0,19,17,1,  0000165P0000133
0,0,19,18,1,0,0,19,19,1,0,0,19,20,1,0,0,19,21,1,0;               0000165P0000134
510,169,1,1,177;                                                 0000167P0000135
190,171,173,175;                                                 0000169P0000136
116,0.,1.45,-2.25375274E-15,0;                                   0000171P0000137
123,-1.,0.,0.;                                                   0000173P0000138
123,0.,1.554312234E-15,1.;                                       0000175P0000139
508,4,0,19,22,1,0,0,19,16,1,0,0,19,5,0,0,0,19,23,0,0;            0000177P0000140
510,181,1,1,189;                                                 0000179P0000141
190,183,185,187;                                                 0000181P0000142
116,3.456067289,1.45,0.680130875,0;                              0000183P0000143
123,-3.851859889E-34,1.,-1.554312234E-15;                        0000185P0000144
123,0.,1.554312234E-15,1.;                                       0000187P0000145
508,9,0,19,24,1,0,0,19,23,1,0,0,19,4,1,0,0,19,13,0,0,0,19,25,1,  0000189P0000146
0,0,19,26,1,0,0,19,27,1,0,0,19,28,1,0,0,19,29,1,0;               0000189P0000147
510,193,1,1,201;                                                 0000191P0000148
192,195,197,0.4,199;                                             0000193P0000149
116,1.25,1.942890293E-15,1.25,0;                                 0000195P0000150
123,0.,1.554312234E-15,1.;                                       0000197P0000151
123,-1.,0.,0.;                                                   0000199P0000152
508,4,0,19,8,0,1,0,203,0,19,30,1,1,0,205,0,19,31,1,1,0,207,0,19, 0000201P0000153
30,0,1,0,209;                                                    0000201P0000154
110,360.,0.,0.,0.,0.,0.;                                         0000203P0000155
110,0.,0.,0.,0.,-1.25,0.;                                        0000205P0000156
110,0.,-1.25,0.,360.,-1.25,0.;                                   0000207P0000157
110,360.,-1.25,0.,360.,0.,0.;                                    0000209P0000158
510,213,1,1,221;                                                 0000211P0000159
192,215,217,0.6,219;                                             0000213P0000160
116,4.25,1.942890293E-15,1.25,0;                                 0000215P0000161
123,0.,1.554312234E-15,1.;                                       0000217P0000162
123,-1.,0.,0.;                                                   0000219P0000163
508,4,0,19,32,0,1,0,223,0,19,11,0,1,0,225,0,19,32,1,1,0,227,0,   0000221P0000164
19,33,1,1,0,229;                                                 0000221P0000165
110,360.,-1.05,-0.,360.,-0.6,-0.;                                0000223P0000166
110,360.,-0.6,-0.,0.,-0.6,-0.;                                   0000225P0000167
110,0.,-0.6,-0.,0.,-1.05,-0.;                                    0000227P0000168
110,0.,-1.05,0.,360.,-1.05,0.;                                   0000229P0000169
510,233,1,1,241;                                                 0000231P0000170
190,235,237,239;                                                 0000233P0000171
116,7.,1.45,1.25,0;                                              0000235P0000172
123,1.,0.,0.;                                                    0000237P0000173
123,0.,-1.554312234E-15,-1.;                                     0000239P0000174
508,4,0,19,25,0,0,0,19,14,0,0,0,19,17,1,0,0,19,34,0,0;           0000241P0000175
510,245,2,1,253,255;                                             0000243P0000176
190,247,249,251;                                                 0000245P0000177
116,2.5,1.45,-2.25375274E-15,0;                                  0000247P0000178
123,0.,-1.554312234E-15,-1.;                                     0000249P0000179
123,-1.,0.,0.;                                                   0000251P0000180
508,4,0,19,35,1,0,0,19,15,1,0,0,19,22,0,0,0,19,24,0,0;           0000253P0000181
508,1,0,19,31,1,0;                                               0000255P0000182
510,259,1,1,267;                                                 0000257P0000183
190,261,263,265;                                                 0000259P0000184
116,2.5,1.45,0.2,0;                                              0000261P0000185
123,1.,0.,0.;                                                    0000263P0000186
123,0.,-1.554312234E-15,-1.;                                     0000265P0000187
508,4,0,19,36,1,0,0,19,21,1,0,0,19,35,0,0,0,19,29,0,0;           0000267P0000188
510,271,2,1,279,281;                                             0000269P0000189
190,273,275,277;                                                 0000271P0000190
116,5.743826231,1.45,0.2,0;                                      0000273P0000191
123,0.,-1.554312234E-15,-1.;                                     0000275P0000192
123,-1.,0.,0.;                                                   0000277P0000193
508,4,0,19,37,1,0,0,19,20,1,0,0,19,36,0,0,0,19,28,0,0;           0000279P0000194
508,1,0,19,33,1,0;                                               0000281P0000195
510,285,1,1,293;                                                 0000283P0000196
192,287,289,0.325,291;                                           0000285P0000197
116,6.,1.45,-2.25375274E-15,0;                                   0000287P0000198
123,0.,1.,-1.554312234E-15;                                      0000289P0000199
123,1.,0.,0.;                                                    0000291P0000200
508,4,0,19,38,0,1,0,295,0,19,27,1,1,0,297,0,19,37,1,1,0,299,0,   0000293P0000201
19,19,0,1,0,301;                                                 0000293P0000202
110,-37.979872445,-2.9,0.,-37.979872445,0.,0.;                   0000295P0000203
110,-37.979872445,0.,0.,-142.020127555,0.,0.;                    0000297P0000204
110,-142.020127555,0.,0.,-142.020127555,-2.9,0.;                 0000299P0000205
110,-142.020127555,-2.9,0.,-37.979872445,-2.9,0.;                0000301P0000206
510,305,1,1,313;                                                 0000303P0000207
190,307,309,311;                                                 0000305P0000208
116,7.,1.45,0.2,0;                                               0000307P0000209
123,0.,-1.554312234E-15,-1.;                                     0000309P0000210
123,-1.,0.,0.;                                                   0000311P0000211
508,4,0,19,34,1,0,0,19,18,1,0,0,19,38,0,0,0,19,26,0,0;           0000313P0000212
S      1G      4D    314P    212                                        T0000001
