                                                                        S0000001
,,31HOpen CASCADE IGES processor 7.5,13HFilename.iges,                  G0000001
16HOpen CASCADE 7.5,31HOpen CASCADE IGES processor 7.5,32,308,15,308,15,G0000002
,1.,2,2HMM,1,0.01,15H20220315.115250,1E-07,7.,,,11,0,15H20220315.115250,G0000003
;                                                                       G0000004
     402       1       0       0       0       0       0       000000000D0000001
     402       0       0       1       1                               0D0000002
     186       2       0       0       0       0       0       000020000D0000003
     186       0       0       1       0                               0D0000004
     514       3       0       0       0       0       0       000010000D0000005
     514       0       0       2       1                               0D0000006
     510       5       0       0       0       0       0       000010000D0000007
     510       0       0       1       1                               0D0000008
     190       6       0       0       0       0       0       000010000D0000009
     190       0       0       1       1                               0D0000010
     116       7       0       0       0       0       0       000010400D0000011
     116       0       0       1       0                               0D0000012
     123       8       0       0       0       0       0       000010200D0000013
     123       0       0       1       0                               0D0000014
     123       9       0       0       0       0       0       000010200D0000015
     123       0       0       1       0                               0D0000016
     508      10       0       0       0       0       0       000010000D0000017
     508       0       0       1       1                               0D0000018
     504      11       0       0       0       0       0       000010001D0000019
     504       0       0       7       1                               0D0000020
     110      18       0       0       0       0       0       000010000D0000021
     110       0       0       1       0                               0D0000022
     502      19       0       0       0       0       0       000010000D0000023
     502       0       0       4       1                               0D0000024
     110      23       0       0       0       0       0       000010000D0000025
     110       0       0       1       0                               0D0000026
     110      24       0       0       0       0       0       000010000D0000027
     110       0       0       1       0                               0D0000028
     110      25       0       0       0       0       0       000010000D0000029
     110       0       0       1       0                               0D0000030
     110      26       0       0       0       0       0       000010000D0000031
     110       0       0       1       0                               0D0000032
     110      27       0       0       0       0       0       000010000D0000033
     110       0       0       1       0                               0D0000034
     110      28       0       0       0       0       0       000010000D0000035
     110       0       0       1       0                               0D0000036
     110      29       0       0       0       0       0       000010000D0000037
     110       0       0       1       0                               0D0000038
     110      30       0       0       0       0       0       000010000D0000039
     110       0       0       1       0                               0D0000040
     110      31       0       0       0       0       0       000010000D0000041
     110       0       0       1       0                               0D0000042
     100      32       0       0       0       0      45       000010000D0000043
     100       0       0       1       0                               0D0000044
     124      33       0       0       0       0       0       000000000D0000045
     124       0       0       1       0                               0D0000046
     110      34       0       0       0       0       0       000010000D0000047
     110       0       0       1       0                               0D0000048
     110      35       0       0       0       0       0       000010000D0000049
     110       0       0       1       0                               0D0000050
     110      36       0       0       0       0       0       000010000D0000051
     110       0       0       1       0                               0D0000052
     110      37       0       0       0       0       0       000010000D0000053
     110       0       0       1       0                               0D0000054
     110      38       0       0       0       0       0       000010000D0000055
     110       0       0       1       0                               0D0000056
     110      39       0       0       0       0       0       000010000D0000057
     110       0       0       1       0                               0D0000058
     110      40       0       0       0       0       0       000010000D0000059
     110       0       0       1       0                               0D0000060
     110      41       0       0       0       0       0       000010000D0000061
     110       0       0       1       0                               0D0000062
     110      42       0       0       0       0       0       000010000D0000063
     110       0       0       1       0                               0D0000064
     110      43       0       0       0       0       0       000010000D0000065
     110       0       0       1       0                               0D0000066
     110      44       0       0       0       0       0       000010000D0000067
     110       0       0       1       0                               0D0000068
     110      45       0       0       0       0       0       000010000D0000069
     110       0       0       1       0                               0D0000070
     110      46       0       0       0       0       0       000010000D0000071
     110       0       0       1       0                               0D0000072
     110      47       0       0       0       0       0       000010000D0000073
     110       0       0       1       0                               0D0000074
     110      48       0       0       0       0       0       000010000D0000075
     110       0       0       1       0                               0D0000076
     100      49       0       0       0       0      79       000010000D0000077
     100       0       0       1       0                               0D0000078
     124      50       0       0       0       0       0       000000000D0000079
     124       0       0       1       0                               0D0000080
     110      51       0       0       0       0       0       000010000D0000081
     110       0       0       1       0                               0D0000082
     110      52       0       0       0       0       0       000010000D0000083
     110       0       0       1       0                               0D0000084
     110      53       0       0       0       0       0       000010000D0000085
     110       0       0       1       0                               0D0000086
     510      54       0       0       0       0       0       000010000D0000087
     510       0       0       1       1                               0D0000088
     190      55       0       0       0       0       0       000010000D0000089
     190       0       0       1       1                               0D0000090
     116      56       0       0       0       0       0       000010400D0000091
     116       0       0       1       0                               0D0000092
     123      57       0       0       0       0       0       000010200D0000093
     123       0       0       1       0                               0D0000094
     123      58       0       0       0       0       0       000010200D0000095
     123       0       0       1       0                               0D0000096
     508      59       0       0       0       0       0       000010000D0000097
     508       0       0       1       1                               0D0000098
     510      60       0       0       0       0       0       000010000D0000099
     510       0       0       1       1                               0D0000100
     190      61       0       0       0       0       0       000010000D0000101
     190       0       0       1       1                               0D0000102
     116      62       0       0       0       0       0       000010400D0000103
     116       0       0       1       0                               0D0000104
     123      63       0       0       0       0       0       000010200D0000105
     123       0       0       1       0                               0D0000106
     123      64       0       0       0       0       0       000010200D0000107
     123       0       0       1       0                               0D0000108
     508      65       0       0       0       0       0       000010000D0000109
     508       0       0       1       1                               0D0000110
     508      66       0       0       0       0       0       000010000D0000111
     508       0       0       1       1                               0D0000112
     510      67       0       0       0       0       0       000010000D0000113
     510       0       0       1       1                               0D0000114
     190      68       0       0       0       0       0       000010000D0000115
     190       0       0       1       1                               0D0000116
     116      69       0       0       0       0       0       000010400D0000117
     116       0       0       1       0                               0D0000118
     123      70       0       0       0       0       0       000010200D0000119
     123       0       0       1       0                               0D0000120
     123      71       0       0       0       0       0       000010200D0000121
     123       0       0       1       0                               0D0000122
     508      72       0       0       0       0       0       000010000D0000123
     508       0       0       2       1                               0D0000124
     510      74       0       0       0       0       0       000010000D0000125
     510       0       0       1       1                               0D0000126
     190      75       0       0       0       0       0       000010000D0000127
     190       0       0       1       1                               0D0000128
     116      76       0       0       0       0       0       000010400D0000129
     116       0       0       1       0                               0D0000130
     123      77       0       0       0       0       0       000010200D0000131
     123       0       0       1       0                               0D0000132
     123      78       0       0       0       0       0       000010200D0000133
     123       0       0       1       0                               0D0000134
     508      79       0       0       0       0       0       000010000D0000135
     508       0       0       2       1                               0D0000136
     510      81       0       0       0       0       0       000010000D0000137
     510       0       0       1       1                               0D0000138
     190      82       0       0       0       0       0       000010000D0000139
     190       0       0       1       1                               0D0000140
     116      83       0       0       0       0       0       000010400D0000141
     116       0       0       1       0                               0D0000142
     123      84       0       0       0       0       0       000010200D0000143
     123       0       0       1       0                               0D0000144
     123      85       0       0       0       0       0       000010200D0000145
     123       0       0       1       0                               0D0000146
     508      86       0       0       0       0       0       000010000D0000147
     508       0       0       1       1                               0D0000148
     510      87       0       0       0       0       0       000010000D0000149
     510       0       0       1       1                               0D0000150
     190      88       0       0       0       0       0       000010000D0000151
     190       0       0       1       1                               0D0000152
     116      89       0       0       0       0       0       000010400D0000153
     116       0       0       1       0                               0D0000154
     123      90       0       0       0       0       0       000010200D0000155
     123       0       0       1       0                               0D0000156
     123      91       0       0       0       0       0       000010200D0000157
     123       0       0       1       0                               0D0000158
     508      92       0       0       0       0       0       000010000D0000159
     508       0       0       1       1                               0D0000160
     510      93       0       0       0       0       0       000010000D0000161
     510       0       0       1       1                               0D0000162
     192      94       0       0       0       0       0       000010000D0000163
     192       0       0       1       1                               0D0000164
     116      95       0       0       0       0       0       000010400D0000165
     116       0       0       1       0                               0D0000166
     123      96       0       0       0       0       0       000010200D0000167
     123       0       0       1       0                               0D0000168
     123      97       0       0       0       0       0       000010200D0000169
     123       0       0       1       0                               0D0000170
     508      98       0       0       0       0       0       000010000D0000171
     508       0       0       2       1                               0D0000172
     110     100       0       0       0       0       0       000010000D0000173
     110       0       0       1       0                               0D0000174
     110     101       0       0       0       0       0       000010000D0000175
     110       0       0       1       0                               0D0000176
     110     102       0       0       0       0       0       000010000D0000177
     110       0       0       1       0                               0D0000178
     110     103       0       0       0       0       0       000010000D0000179
     110       0       0       1       0                               0D0000180
     510     104       0       0       0       0       0       000010000D0000181
     510       0       0       1       1                               0D0000182
     190     105       0       0       0       0       0       000010000D0000183
     190       0       0       1       1                               0D0000184
     116     106       0       0       0       0       0       000010400D0000185
     116       0       0       1       0                               0D0000186
     123     107       0       0       0       0       0       000010200D0000187
     123       0       0       1       0                               0D0000188
     123     108       0       0       0       0       0       000010200D0000189
     123       0       0       1       0                               0D0000190
     508     109       0       0       0       0       0       000010000D0000191
     508       0       0       1       1                               0D0000192
     510     110       0       0       0       0       0       000010000D0000193
     510       0       0       1       1                               0D0000194
     190     111       0       0       0       0       0       000010000D0000195
     190       0       0       1       1                               0D0000196
     116     112       0       0       0       0       0       000010400D0000197
     116       0       0       1       0                               0D0000198
     123     113       0       0       0       0       0       000010200D0000199
     123       0       0       1       0                               0D0000200
     123     114       0       0       0       0       0       000010200D0000201
     123       0       0       1       0                               0D0000202
     508     115       0       0       0       0       0       000010000D0000203
     508       0       0       1       1                               0D0000204
     510     116       0       0       0       0       0       000010000D0000205
     510       0       0       1       1                               0D0000206
     190     117       0       0       0       0       0       000010000D0000207
     190       0       0       1       1                               0D0000208
     116     118       0       0       0       0       0       000010400D0000209
     116       0       0       1       0                               0D0000210
     123     119       0       0       0       0       0       000010200D0000211
     123       0       0       1       0                               0D0000212
     123     120       0       0       0       0       0       000010200D0000213
     123       0       0       1       0                               0D0000214
     508     121       0       0       0       0       0       000010000D0000215
     508       0       0       1       1                               0D0000216
     510     122       0       0       0       0       0       000010000D0000217
     510       0       0       1       1                               0D0000218
     190     123       0       0       0       0       0       000010000D0000219
     190       0       0       1       1                               0D0000220
     116     124       0       0       0       0       0       000010400D0000221
     116       0       0       1       0                               0D0000222
     123     125       0       0       0       0       0       000010200D0000223
     123       0       0       1       0                               0D0000224
     123     126       0       0       0       0       0       000010200D0000225
     123       0       0       1       0                               0D0000226
     508     127       0       0       0       0       0       000010000D0000227
     508       0       0       1       1                               0D0000228
     508     128       0       0       0       0       0       000010000D0000229
     508       0       0       1       1                               0D0000230
402,1,3;                                                         0000001P0000001
186,5,1,0;                                                       0000003P0000002
514,12,7,0,87,0,99,0,113,0,125,1,137,0,149,0,161,0,181,0,193,0,  0000005P0000003
205,0,217,0;                                                     0000005P0000004
510,9,1,1,17;                                                    0000007P0000005
190,11,13,15;                                                    0000009P0000006
116,0.,-0.7,0.,0;                                                0000011P0000007
123,0.,-1.,0.;                                                   0000013P0000008
123,0.,0.,-1.;                                                   0000015P0000009
508,4,0,19,1,1,0,0,19,2,1,0,0,19,3,0,0,0,19,4,0,0;               0000017P0000010
504,30,21,23,1,23,2,25,23,2,23,3,27,23,4,23,3,29,23,1,23,4,31,   0000019P0000011
23,5,23,6,33,23,6,23,2,35,23,5,23,1,37,23,3,23,7,39,23,8,23,7,   0000019P0000012
41,23,4,23,8,43,23,9,23,9,47,23,8,23,10,49,23,10,23,11,51,23,11, 0000019P0000013
23,12,53,23,12,23,13,55,23,13,23,14,57,23,14,23,5,59,23,7,23,15, 0000019P0000014
61,23,15,23,16,63,23,16,23,17,65,23,17,23,18,67,23,18,23,19,69,  0000019P0000015
23,19,23,6,71,23,14,23,19,73,23,10,23,15,75,23,9,23,20,77,23,20, 0000019P0000016
23,20,81,23,11,23,16,83,23,12,23,17,85,23,13,23,18;              0000019P0000017
110,0.,-0.7,0.,-4.,-0.7,0.;                                      0000021P0000018
502,20,0.,-0.7,0.,-4.,-0.7,0.,-4.,-0.7,-1.5,0.,-0.7,-1.5,0.,-2., 0000023P0000019
0.,-4.,-2.,0.,-4.,-6.,-1.5,0.,-6.,-1.5,-2.,-4.35,-1.5,0.,-7.,    0000023P0000020
-0.5,0.,-7.,0.,0.,-5.,0.,0.,-5.,-0.5,0.,-2.,-0.5,-4.,-7.,-0.5,   0000023P0000021
-4.,-7.,0.,-4.,-5.,0.,-4.,-5.,-0.5,-4.,-2.,-0.5,-2.,-4.35,-0.5;  0000023P0000022
110,-4.,-0.7,0.,-4.,-0.7,-1.5;                                   0000025P0000023
110,0.,-0.7,-1.5,-4.,-0.7,-1.5;                                  0000027P0000024
110,0.,-0.7,0.,0.,-0.7,-1.5;                                     0000029P0000025
110,0.,-2.,0.,-4.,-2.,0.;                                        0000031P0000026
110,-4.,-2.,0.,-4.,-0.7,0.;                                      0000033P0000027
110,0.,-2.,0.,0.,-0.7,0.;                                        0000035P0000028
110,-4.,-0.7,-1.5,-4.,-6.,-1.5;                                  0000037P0000029
110,0.,-6.,-1.5,-4.,-6.,-1.5;                                    0000039P0000030
110,0.,-0.7,-1.5,0.,-6.,-1.5;                                    0000041P0000031
100,0.,0.,0.,0.85,0.,0.85,0.;                                    0000043P0000032
124,0.,-1.,0.,-2.,-1.,0.,0.,-3.5,0.,0.,-1.,-1.5;                 0000045P0000033
110,0.,-6.,-1.5,0.,-7.,-0.5;                                     0000047P0000034
110,0.,-7.,-0.5,0.,-7.,0.;                                       0000049P0000035
110,0.,-7.,0.,0.,-5.,0.;                                         0000051P0000036
110,0.,-5.,0.,0.,-5.,-0.5;                                       0000053P0000037
110,0.,-5.,-0.5,0.,-2.,-0.5;                                     0000055P0000038
110,0.,-2.,-0.5,0.,-2.,0.;                                       0000057P0000039
110,-4.,-6.,-1.5,-4.,-7.,-0.5;                                   0000059P0000040
110,-4.,-7.,-0.5,-4.,-7.,0.;                                     0000061P0000041
110,-4.,-7.,0.,-4.,-5.,0.;                                       0000063P0000042
110,-4.,-5.,0.,-4.,-5.,-0.5;                                     0000065P0000043
110,-4.,-5.,-0.5,-4.,-2.,-0.5;                                   0000067P0000044
110,-4.,-2.,-0.5,-4.,-2.,0.;                                     0000069P0000045
110,0.,-2.,-0.5,-4.,-2.,-0.5;                                    0000071P0000046
110,0.,-7.,-0.5,-4.,-7.,-0.5;                                    0000073P0000047
110,-2.,-4.35,-1.5,-2.,-4.35,-0.5;                               0000075P0000048
100,0.,0.,0.,0.85,0.,0.85,0.;                                    0000077P0000049
124,0.,-1.,0.,-2.,-1.,0.,0.,-3.5,0.,0.,-1.,-0.5;                 0000079P0000050
110,0.,-7.,0.,-4.,-7.,0.;                                        0000081P0000051
110,0.,-5.,0.,-4.,-5.,0.;                                        0000083P0000052
110,0.,-5.,-0.5,-4.,-5.,-0.5;                                    0000085P0000053
510,89,1,1,97;                                                   0000087P0000054
190,91,93,95;                                                    0000089P0000055
116,0.,-2.,0.,0;                                                 0000091P0000056
123,0.,0.,-1.;                                                   0000093P0000057
123,0.,1.,0.;                                                    0000095P0000058
508,4,0,19,5,1,0,0,19,6,1,0,0,19,1,0,0,0,19,7,0,0;               0000097P0000059
510,101,2,1,109,111;                                             0000099P0000060
190,103,105,107;                                                 0000101P0000061
116,0.,-0.7,-1.5,0;                                              0000103P0000062
123,0.,0.,1.;                                                    0000105P0000063
123,0.,-1.,0.;                                                   0000107P0000064
508,4,0,19,3,1,0,0,19,8,1,0,0,19,9,0,0,0,19,10,0,0;              0000109P0000065
508,1,0,19,11,1,0;                                               0000111P0000066
510,115,1,1,123;                                                 0000113P0000067
190,117,119,121;                                                 0000115P0000068
116,0.,-3.699987385,-0.772077474,0;                              0000117P0000069
123,-1.,0.,0.;                                                   0000119P0000070
123,0.,0.,1.;                                                    0000121P0000071
508,9,0,19,4,1,0,0,19,10,1,0,0,19,12,1,0,0,19,13,1,0,0,19,14,1,  0000123P0000072
0,0,19,15,1,0,0,19,16,1,0,0,19,17,1,0,0,19,7,1,0;                0000123P0000073
510,127,1,1,135;                                                 0000125P0000074
190,129,131,133;                                                 0000127P0000075
116,-4.,-3.699987385,-0.772077474,0;                             0000129P0000076
123,-1.,0.,0.;                                                   0000131P0000077
123,0.,0.,1.;                                                    0000133P0000078
508,9,0,19,2,1,0,0,19,8,1,0,0,19,18,1,0,0,19,19,1,0,0,19,20,1,0, 0000135P0000079
0,19,21,1,0,0,19,22,1,0,0,19,23,1,0,0,19,6,1,0;                  0000135P0000080
510,139,1,1,147;                                                 0000137P0000081
190,141,143,145;                                                 0000139P0000082
116,0.,-2.,-0.5,0;                                               0000141P0000083
123,0.,1.,0.;                                                    0000143P0000084
123,0.,0.,1.;                                                    0000145P0000085
508,4,0,19,24,1,0,0,19,23,1,0,0,19,5,0,0,0,19,17,0,0;            0000147P0000086
510,151,1,1,159;                                                 0000149P0000087
190,153,155,157;                                                 0000151P0000088
116,0.,-6.,-1.5,0;                                               0000153P0000089
123,0.,0.707106781,0.707106781;                                  0000155P0000090
123,0.,-0.707106781,0.707106781;                                 0000157P0000091
508,4,0,19,9,1,0,0,19,18,1,0,0,19,25,0,0,0,19,12,0,0;            0000159P0000092
510,163,1,1,171;                                                 0000161P0000093
192,165,167,0.85,169;                                            0000163P0000094
116,-2.,-3.5,-1.5,0;                                             0000165P0000095
123,-0.,0.,-1.;                                                  0000167P0000096
123,0.,-1.,0.;                                                   0000169P0000097
508,4,0,19,11,0,1,0,173,0,19,26,1,1,0,175,0,19,27,1,1,0,177,0,   0000171P0000098
19,26,0,1,0,179;                                                 0000171P0000099
110,360.,0.,0.,0.,0.,0.;                                         0000173P0000100
110,0.,0.,0.,0.,-1.,0.;                                          0000175P0000101
110,0.,-1.,0.,360.,-1.,0.;                                       0000177P0000102
110,360.,-1.,0.,360.,0.,0.;                                      0000179P0000103
510,183,1,1,191;                                                 0000181P0000104
190,185,187,189;                                                 0000183P0000105
116,0.,-7.,-0.5,0;                                               0000185P0000106
123,0.,1.,0.;                                                    0000187P0000107
123,0.,0.,1.;                                                    0000189P0000108
508,4,0,19,25,1,0,0,19,19,1,0,0,19,28,0,0,0,19,13,0,0;           0000191P0000109
510,195,1,1,203;                                                 0000193P0000110
190,197,199,201;                                                 0000195P0000111
116,0.,-7.,0.,0;                                                 0000197P0000112
123,0.,0.,-1.;                                                   0000199P0000113
123,0.,1.,0.;                                                    0000201P0000114
508,4,0,19,28,1,0,0,19,20,1,0,0,19,29,0,0,0,19,14,0,0;           0000203P0000115
510,207,1,1,215;                                                 0000205P0000116
190,209,211,213;                                                 0000207P0000117
116,0.,-5.,0.,0;                                                 0000209P0000118
123,0.,-1.,0.;                                                   0000211P0000119
123,0.,0.,-1.;                                                   0000213P0000120
508,4,0,19,29,1,0,0,19,21,1,0,0,19,30,0,0,0,19,15,0,0;           0000215P0000121
510,219,2,1,227,229;                                             0000217P0000122
190,221,223,225;                                                 0000219P0000123
116,0.,-5.,-0.5,0;                                               0000221P0000124
123,0.,0.,-1.;                                                   0000223P0000125
123,0.,1.,0.;                                                    0000225P0000126
508,4,0,19,30,1,0,0,19,22,1,0,0,19,24,0,0,0,19,16,0,0;           0000227P0000127
508,1,0,19,27,0,0;                                               0000229P0000128
S      1G      4D    230P    128                                        T0000001
